<?xml version="1.0" encoding="UTF-8" standalone="no"?>
<svg width="297.039mm" height="141.464mm"
 viewBox="0 0 842 401"
 xmlns="http://www.w3.org/2000/svg" xmlns:xlink="http://www.w3.org/1999/xlink"  version="1.2" baseProfile="tiny">
<title>Qt SVG Document</title>
<desc>MATLAB, The MathWorks, Inc. Version 25.2.0.3123386 R2025b Update 3</desc>
<defs>
</defs>
<g fill="none" stroke="black" stroke-width="1" fill-rule="evenodd" stroke-linecap="square" stroke-linejoin="bevel" >

<g fill="#ffffff" fill-opacity="1" stroke="none" transform="matrix(0.756869,0,0,0.758256,-96.1203,-19.1467)"
font-family="Sans Serif" font-size="9" font-weight="400" font-style="normal" 
>
<path vector-effect="none" fill-rule="evenodd" d="M126,24 L1240,24 L1240,553 L126,553 L126,24"/>
</g>

<g fill="#ffffff" fill-opacity="1" stroke="none" transform="matrix(7.56869e-05,0,0,7.58256e-05,-96.1203,-19.1467)"
font-family="Sans Serif" font-size="9" font-weight="400" font-style="normal" 
>
<path vector-effect="none" fill-rule="evenodd" d="M1.77e+06,430000 L1.77e+06,5.09e+06 L1.234e+07,5.09e+06 L1.234e+07,430000 L1.77e+06,430000"/>
</g>

<g fill="#212121" fill-opacity="0.14902" stroke="#212121" stroke-opacity="0.14902" stroke-width="0.659722" stroke-linecap="butt" stroke-linejoin="round" transform="matrix(0.756869,0,0,0.758256,-96.1203,-19.1467)"
font-family="Sans Serif" font-size="9" font-weight="400" font-style="normal" 
>
<polyline fill="none" vector-effect="none" points="177,42.9999 177,509 " />
<polyline fill="none" vector-effect="none" points="282.7,42.9999 282.7,509 " />
<polyline fill="none" vector-effect="none" points="388.4,42.9999 388.4,509 " />
<polyline fill="none" vector-effect="none" points="494.1,42.9999 494.1,509 " />
<polyline fill="none" vector-effect="none" points="599.8,42.9999 599.8,509 " />
<polyline fill="none" vector-effect="none" points="705.5,42.9999 705.5,509 " />
<polyline fill="none" vector-effect="none" points="811.2,42.9999 811.2,509 " />
<polyline fill="none" vector-effect="none" points="916.9,42.9999 916.9,509 " />
<polyline fill="none" vector-effect="none" points="1022.6,42.9999 1022.6,509 " />
<polyline fill="none" vector-effect="none" points="1128.3,42.9999 1128.3,509 " />
<polyline fill="none" vector-effect="none" points="1234,42.9999 1234,509 " />
<polyline fill="none" vector-effect="none" points="177,509 1234,509 " />
<polyline fill="none" vector-effect="none" points="177,457.222 1234,457.222 " />
<polyline fill="none" vector-effect="none" points="177,405.444 1234,405.444 " />
<polyline fill="none" vector-effect="none" points="177,353.667 1234,353.667 " />
<polyline fill="none" vector-effect="none" points="177,301.889 1234,301.889 " />
<polyline fill="none" vector-effect="none" points="177,250.111 1234,250.111 " />
<polyline fill="none" vector-effect="none" points="177,198.333 1234,198.333 " />
<polyline fill="none" vector-effect="none" points="177,146.556 1234,146.556 " />
<polyline fill="none" vector-effect="none" points="177,94.7779 1234,94.7779 " />
<polyline fill="none" vector-effect="none" points="177,42.9999 1234,42.9999 " />
</g>

<g fill="#212121" fill-opacity="1" stroke="#212121" stroke-opacity="1" stroke-width="1" stroke-linecap="square" stroke-linejoin="bevel" transform="matrix(0.756869,0,0,0.758256,397.358,393.345)"
font-family="Helvetica" font-size="14" font-weight="400" font-style="normal" 
>
<text fill="#212121" fill-opacity="1" stroke="none" xml:space="preserve" x="0" y="0" font-family="Helvetica" font-size="14" font-weight="400" font-style="normal" 
 >log</text>
</g>

<g fill="#212121" fill-opacity="1" stroke="#212121" stroke-opacity="1" stroke-width="1" stroke-linecap="square" stroke-linejoin="bevel" transform="matrix(0.756869,0,0,0.758256,411.739,398.653)"
font-family="Helvetica" font-size="11" font-weight="400" font-style="normal" 
>
<text fill="#212121" fill-opacity="1" stroke="none" xml:space="preserve" x="0" y="0" font-family="Helvetica" font-size="11" font-weight="400" font-style="normal" 
 >10</text>
</g>

<g fill="#212121" fill-opacity="1" stroke="#212121" stroke-opacity="1" stroke-width="1" stroke-linecap="square" stroke-linejoin="bevel" transform="matrix(0.756869,0,0,0.758256,420.821,393.345)"
font-family="Helvetica" font-size="14" font-weight="400" font-style="normal" 
>
<text fill="#212121" fill-opacity="1" stroke="none" xml:space="preserve" x="0" y="0" font-family="Helvetica" font-size="14" font-weight="400" font-style="normal" 
 >(Duty Cycle)</text>
</g>

<g fill="#212121" fill-opacity="1" stroke="#212121" stroke-opacity="1" stroke-width="0.659722" stroke-linecap="square" stroke-linejoin="round" transform="matrix(0.756869,0,0,0.758256,-96.1203,-19.1467)"
font-family="Helvetica" font-size="14" font-weight="400" font-style="normal" 
>
<polyline fill="none" vector-effect="none" points="177,509 1234,509 " />
<polyline fill="none" vector-effect="none" points="177,42.9999 1234,42.9999 " />
<polyline fill="none" vector-effect="none" points="177,509 177,498.43 " />
<polyline fill="none" vector-effect="none" points="177,53.57 177,42.9999 " />
<polyline fill="none" vector-effect="none" points="282.7,509 282.7,498.43 " />
<polyline fill="none" vector-effect="none" points="282.7,53.57 282.7,42.9999 " />
<polyline fill="none" vector-effect="none" points="388.4,509 388.4,498.43 " />
<polyline fill="none" vector-effect="none" points="388.4,53.57 388.4,42.9999 " />
<polyline fill="none" vector-effect="none" points="494.1,509 494.1,498.43 " />
<polyline fill="none" vector-effect="none" points="494.1,53.57 494.1,42.9999 " />
<polyline fill="none" vector-effect="none" points="599.8,509 599.8,498.43 " />
<polyline fill="none" vector-effect="none" points="599.8,53.57 599.8,42.9999 " />
<polyline fill="none" vector-effect="none" points="705.5,509 705.5,498.43 " />
<polyline fill="none" vector-effect="none" points="705.5,53.57 705.5,42.9999 " />
<polyline fill="none" vector-effect="none" points="811.2,509 811.2,498.43 " />
<polyline fill="none" vector-effect="none" points="811.2,53.57 811.2,42.9999 " />
<polyline fill="none" vector-effect="none" points="916.9,509 916.9,498.43 " />
<polyline fill="none" vector-effect="none" points="916.9,53.57 916.9,42.9999 " />
<polyline fill="none" vector-effect="none" points="1022.6,509 1022.6,498.43 " />
<polyline fill="none" vector-effect="none" points="1022.6,53.57 1022.6,42.9999 " />
<polyline fill="none" vector-effect="none" points="1128.3,509 1128.3,498.43 " />
<polyline fill="none" vector-effect="none" points="1128.3,53.57 1128.3,42.9999 " />
<polyline fill="none" vector-effect="none" points="1234,509 1234,498.43 " />
<polyline fill="none" vector-effect="none" points="1234,53.57 1234,42.9999 " />
</g>

<g fill="#212121" fill-opacity="1" stroke="#212121" stroke-opacity="1" stroke-width="1" stroke-linecap="square" stroke-linejoin="bevel" transform="matrix(0.756869,0,0,0.758256,33.3043,379.907)"
font-family="Helvetica" font-size="13" font-weight="400" font-style="normal" 
>
<text fill="#212121" fill-opacity="1" stroke="none" xml:space="preserve" x="0" y="0" font-family="Helvetica" font-size="13" font-weight="400" font-style="normal" 
 >-1</text>
</g>

<g fill="#212121" fill-opacity="1" stroke="#212121" stroke-opacity="1" stroke-width="1" stroke-linecap="square" stroke-linejoin="bevel" transform="matrix(0.756869,0,0,0.758256,109.521,379.907)"
font-family="Helvetica" font-size="13" font-weight="400" font-style="normal" 
>
<text fill="#212121" fill-opacity="1" stroke="none" xml:space="preserve" x="0" y="0" font-family="Helvetica" font-size="13" font-weight="400" font-style="normal" 
 >-0.9</text>
</g>

<g fill="#212121" fill-opacity="1" stroke="#212121" stroke-opacity="1" stroke-width="1" stroke-linecap="square" stroke-linejoin="bevel" transform="matrix(0.756869,0,0,0.758256,189.522,379.907)"
font-family="Helvetica" font-size="13" font-weight="400" font-style="normal" 
>
<text fill="#212121" fill-opacity="1" stroke="none" xml:space="preserve" x="0" y="0" font-family="Helvetica" font-size="13" font-weight="400" font-style="normal" 
 >-0.8</text>
</g>

<g fill="#212121" fill-opacity="1" stroke="#212121" stroke-opacity="1" stroke-width="1" stroke-linecap="square" stroke-linejoin="bevel" transform="matrix(0.756869,0,0,0.758256,269.523,379.907)"
font-family="Helvetica" font-size="13" font-weight="400" font-style="normal" 
>
<text fill="#212121" fill-opacity="1" stroke="none" xml:space="preserve" x="0" y="0" font-family="Helvetica" font-size="13" font-weight="400" font-style="normal" 
 >-0.7</text>
</g>

<g fill="#212121" fill-opacity="1" stroke="#212121" stroke-opacity="1" stroke-width="1" stroke-linecap="square" stroke-linejoin="bevel" transform="matrix(0.756869,0,0,0.758256,349.524,379.907)"
font-family="Helvetica" font-size="13" font-weight="400" font-style="normal" 
>
<text fill="#212121" fill-opacity="1" stroke="none" xml:space="preserve" x="0" y="0" font-family="Helvetica" font-size="13" font-weight="400" font-style="normal" 
 >-0.6</text>
</g>

<g fill="#212121" fill-opacity="1" stroke="#212121" stroke-opacity="1" stroke-width="1" stroke-linecap="square" stroke-linejoin="bevel" transform="matrix(0.756869,0,0,0.758256,429.525,379.907)"
font-family="Helvetica" font-size="13" font-weight="400" font-style="normal" 
>
<text fill="#212121" fill-opacity="1" stroke="none" xml:space="preserve" x="0" y="0" font-family="Helvetica" font-size="13" font-weight="400" font-style="normal" 
 >-0.5</text>
</g>

<g fill="#212121" fill-opacity="1" stroke="#212121" stroke-opacity="1" stroke-width="1" stroke-linecap="square" stroke-linejoin="bevel" transform="matrix(0.756869,0,0,0.758256,509.526,379.907)"
font-family="Helvetica" font-size="13" font-weight="400" font-style="normal" 
>
<text fill="#212121" fill-opacity="1" stroke="none" xml:space="preserve" x="0" y="0" font-family="Helvetica" font-size="13" font-weight="400" font-style="normal" 
 >-0.4</text>
</g>

<g fill="#212121" fill-opacity="1" stroke="#212121" stroke-opacity="1" stroke-width="1" stroke-linecap="square" stroke-linejoin="bevel" transform="matrix(0.756869,0,0,0.758256,589.527,379.907)"
font-family="Helvetica" font-size="13" font-weight="400" font-style="normal" 
>
<text fill="#212121" fill-opacity="1" stroke="none" xml:space="preserve" x="0" y="0" font-family="Helvetica" font-size="13" font-weight="400" font-style="normal" 
 >-0.3</text>
</g>

<g fill="#212121" fill-opacity="1" stroke="#212121" stroke-opacity="1" stroke-width="1" stroke-linecap="square" stroke-linejoin="bevel" transform="matrix(0.756869,0,0,0.758256,669.528,379.907)"
font-family="Helvetica" font-size="13" font-weight="400" font-style="normal" 
>
<text fill="#212121" fill-opacity="1" stroke="none" xml:space="preserve" x="0" y="0" font-family="Helvetica" font-size="13" font-weight="400" font-style="normal" 
 >-0.2</text>
</g>

<g fill="#212121" fill-opacity="1" stroke="#212121" stroke-opacity="1" stroke-width="1" stroke-linecap="square" stroke-linejoin="bevel" transform="matrix(0.756869,0,0,0.758256,749.53,379.907)"
font-family="Helvetica" font-size="13" font-weight="400" font-style="normal" 
>
<text fill="#212121" fill-opacity="1" stroke="none" xml:space="preserve" x="0" y="0" font-family="Helvetica" font-size="13" font-weight="400" font-style="normal" 
 >-0.1</text>
</g>

<g fill="#212121" fill-opacity="1" stroke="#212121" stroke-opacity="1" stroke-width="1" stroke-linecap="square" stroke-linejoin="bevel" transform="matrix(0.756869,0,0,0.758256,835.207,379.907)"
font-family="Helvetica" font-size="13" font-weight="400" font-style="normal" 
>
<text fill="#212121" fill-opacity="1" stroke="none" xml:space="preserve" x="0" y="0" font-family="Helvetica" font-size="13" font-weight="400" font-style="normal" 
 >0</text>
</g>

<g fill="#212121" fill-opacity="1" stroke="#212121" stroke-opacity="1" stroke-width="1" stroke-linecap="square" stroke-linejoin="bevel" transform="matrix(0,-0.758256,0.756869,0,9.08448,243.968)"
font-family="Helvetica" font-size="14" font-weight="400" font-style="normal" 
>
<text fill="#212121" fill-opacity="1" stroke="none" xml:space="preserve" x="0" y="0" font-family="Helvetica" font-size="14" font-weight="400" font-style="normal" 
 >log</text>
</g>

<g fill="#212121" fill-opacity="1" stroke="#212121" stroke-opacity="1" stroke-width="1" stroke-linecap="square" stroke-linejoin="bevel" transform="matrix(0,-0.758256,0.756869,0,14.3826,229.561)"
font-family="Helvetica" font-size="11" font-weight="400" font-style="normal" 
>
<text fill="#212121" fill-opacity="1" stroke="none" xml:space="preserve" x="0" y="0" font-family="Helvetica" font-size="11" font-weight="400" font-style="normal" 
 >10</text>
</g>

<g fill="#212121" fill-opacity="1" stroke="#212121" stroke-opacity="1" stroke-width="1" stroke-linecap="square" stroke-linejoin="bevel" transform="matrix(0,-0.758256,0.756869,0,9.08448,220.462)"
font-family="Helvetica" font-size="14" font-weight="400" font-style="normal" 
>
<text fill="#212121" fill-opacity="1" stroke="none" xml:space="preserve" x="0" y="0" font-family="Helvetica" font-size="14" font-weight="400" font-style="normal" 
 >(LDR Resistance)</text>
</g>

<g fill="#212121" fill-opacity="1" stroke="#212121" stroke-opacity="1" stroke-width="0.659722" stroke-linecap="square" stroke-linejoin="round" transform="matrix(0.756869,0,0,0.758256,-96.1203,-19.1467)"
font-family="Helvetica" font-size="14" font-weight="400" font-style="normal" 
>
<polyline fill="none" vector-effect="none" points="177,509 177,42.9999 " />
<polyline fill="none" vector-effect="none" points="1234,509 1234,42.9999 " />
<polyline fill="none" vector-effect="none" points="177,509 187.57,509 " />
<polyline fill="none" vector-effect="none" points="1223.43,509 1234,509 " />
<polyline fill="none" vector-effect="none" points="177,457.222 187.57,457.222 " />
<polyline fill="none" vector-effect="none" points="1223.43,457.222 1234,457.222 " />
<polyline fill="none" vector-effect="none" points="177,405.444 187.57,405.444 " />
<polyline fill="none" vector-effect="none" points="1223.43,405.444 1234,405.444 " />
<polyline fill="none" vector-effect="none" points="177,353.667 187.57,353.667 " />
<polyline fill="none" vector-effect="none" points="1223.43,353.667 1234,353.667 " />
<polyline fill="none" vector-effect="none" points="177,301.889 187.57,301.889 " />
<polyline fill="none" vector-effect="none" points="1223.43,301.889 1234,301.889 " />
<polyline fill="none" vector-effect="none" points="177,250.111 187.57,250.111 " />
<polyline fill="none" vector-effect="none" points="1223.43,250.111 1234,250.111 " />
<polyline fill="none" vector-effect="none" points="177,198.333 187.57,198.333 " />
<polyline fill="none" vector-effect="none" points="1223.43,198.333 1234,198.333 " />
<polyline fill="none" vector-effect="none" points="177,146.556 187.57,146.556 " />
<polyline fill="none" vector-effect="none" points="1223.43,146.556 1234,146.556 " />
<polyline fill="none" vector-effect="none" points="177,94.7779 187.57,94.7779 " />
<polyline fill="none" vector-effect="none" points="1223.43,94.7779 1234,94.7779 " />
<polyline fill="none" vector-effect="none" points="177,42.9999 187.57,42.9999 " />
<polyline fill="none" vector-effect="none" points="1223.43,42.9999 1234,42.9999 " />
</g>

<g fill="#212121" fill-opacity="1" stroke="#212121" stroke-opacity="1" stroke-width="1" stroke-linecap="square" stroke-linejoin="bevel" transform="matrix(0.756869,0,0,0.758256,20.2272,370.218)"
font-family="Helvetica" font-size="13" font-weight="400" font-style="normal" 
>
<text fill="#212121" fill-opacity="1" stroke="none" xml:space="preserve" x="0" y="0" font-family="Helvetica" font-size="13" font-weight="400" font-style="normal" 
 >3.9</text>
</g>

<g fill="#212121" fill-opacity="1" stroke="#212121" stroke-opacity="1" stroke-width="1" stroke-linecap="square" stroke-linejoin="bevel" transform="matrix(0.756869,0,0,0.758256,28.5528,330.957)"
font-family="Helvetica" font-size="13" font-weight="400" font-style="normal" 
>
<text fill="#212121" fill-opacity="1" stroke="none" xml:space="preserve" x="0" y="0" font-family="Helvetica" font-size="13" font-weight="400" font-style="normal" 
 >4</text>
</g>

<g fill="#212121" fill-opacity="1" stroke="#212121" stroke-opacity="1" stroke-width="1" stroke-linecap="square" stroke-linejoin="bevel" transform="matrix(0.756869,0,0,0.758256,20.2272,291.696)"
font-family="Helvetica" font-size="13" font-weight="400" font-style="normal" 
>
<text fill="#212121" fill-opacity="1" stroke="none" xml:space="preserve" x="0" y="0" font-family="Helvetica" font-size="13" font-weight="400" font-style="normal" 
 >4.1</text>
</g>

<g fill="#212121" fill-opacity="1" stroke="#212121" stroke-opacity="1" stroke-width="1" stroke-linecap="square" stroke-linejoin="bevel" transform="matrix(0.756869,0,0,0.758256,20.2272,252.436)"
font-family="Helvetica" font-size="13" font-weight="400" font-style="normal" 
>
<text fill="#212121" fill-opacity="1" stroke="none" xml:space="preserve" x="0" y="0" font-family="Helvetica" font-size="13" font-weight="400" font-style="normal" 
 >4.2</text>
</g>

<g fill="#212121" fill-opacity="1" stroke="#212121" stroke-opacity="1" stroke-width="1" stroke-linecap="square" stroke-linejoin="bevel" transform="matrix(0.756869,0,0,0.758256,20.2272,213.175)"
font-family="Helvetica" font-size="13" font-weight="400" font-style="normal" 
>
<text fill="#212121" fill-opacity="1" stroke="none" xml:space="preserve" x="0" y="0" font-family="Helvetica" font-size="13" font-weight="400" font-style="normal" 
 >4.3</text>
</g>

<g fill="#212121" fill-opacity="1" stroke="#212121" stroke-opacity="1" stroke-width="1" stroke-linecap="square" stroke-linejoin="bevel" transform="matrix(0.756869,0,0,0.758256,20.2272,173.914)"
font-family="Helvetica" font-size="13" font-weight="400" font-style="normal" 
>
<text fill="#212121" fill-opacity="1" stroke="none" xml:space="preserve" x="0" y="0" font-family="Helvetica" font-size="13" font-weight="400" font-style="normal" 
 >4.4</text>
</g>

<g fill="#212121" fill-opacity="1" stroke="#212121" stroke-opacity="1" stroke-width="1" stroke-linecap="square" stroke-linejoin="bevel" transform="matrix(0.756869,0,0,0.758256,20.2272,134.653)"
font-family="Helvetica" font-size="13" font-weight="400" font-style="normal" 
>
<text fill="#212121" fill-opacity="1" stroke="none" xml:space="preserve" x="0" y="0" font-family="Helvetica" font-size="13" font-weight="400" font-style="normal" 
 >4.5</text>
</g>

<g fill="#212121" fill-opacity="1" stroke="#212121" stroke-opacity="1" stroke-width="1" stroke-linecap="square" stroke-linejoin="bevel" transform="matrix(0.756869,0,0,0.758256,20.2272,95.3922)"
font-family="Helvetica" font-size="13" font-weight="400" font-style="normal" 
>
<text fill="#212121" fill-opacity="1" stroke="none" xml:space="preserve" x="0" y="0" font-family="Helvetica" font-size="13" font-weight="400" font-style="normal" 
 >4.6</text>
</g>

<g fill="#212121" fill-opacity="1" stroke="#212121" stroke-opacity="1" stroke-width="1" stroke-linecap="square" stroke-linejoin="bevel" transform="matrix(0.756869,0,0,0.758256,20.2272,56.1314)"
font-family="Helvetica" font-size="13" font-weight="400" font-style="normal" 
>
<text fill="#212121" fill-opacity="1" stroke="none" xml:space="preserve" x="0" y="0" font-family="Helvetica" font-size="13" font-weight="400" font-style="normal" 
 >4.7</text>
</g>

<g fill="#212121" fill-opacity="1" stroke="#212121" stroke-opacity="1" stroke-width="1" stroke-linecap="square" stroke-linejoin="bevel" transform="matrix(0.756869,0,0,0.758256,20.2272,16.8704)"
font-family="Helvetica" font-size="13" font-weight="400" font-style="normal" 
>
<text fill="#212121" fill-opacity="1" stroke="none" xml:space="preserve" x="0" y="0" font-family="Helvetica" font-size="13" font-weight="400" font-style="normal" 
 >4.8</text>
</g>

<g fill="#212121" fill-opacity="1" stroke="#212121" stroke-opacity="1" stroke-width="1" stroke-linecap="square" stroke-linejoin="bevel" transform="matrix(0.756869,0,0,0.758256,321.293,9.09835)"
font-family="Helvetica" font-size="14" font-weight="700" font-style="normal" 
>
<text fill="#212121" fill-opacity="1" stroke="none" xml:space="preserve" x="0" y="0" font-family="Helvetica" font-size="14" font-weight="700" font-style="normal" 
 >LDR Calibration: Sensitivity (m) Determination</text>
</g>

<g fill="#0000ff" fill-opacity="1" stroke="none" transform="matrix(0.756869,0,0,0.758256,-96.1203,-19.1467)"
font-family="Helvetica" font-size="14" font-weight="700" font-style="normal" 
>
<circle cx="177" cy="73.0311" r="5.27778"/>
</g>

<g fill="none" stroke="#000000" stroke-opacity="1" stroke-width="0.659722" stroke-linecap="butt" stroke-linejoin="miter" stroke-miterlimit="5" transform="matrix(0.756869,0,0,0.758256,-96.1203,-19.1467)"
font-family="Helvetica" font-size="14" font-weight="700" font-style="normal" 
>
<path vector-effect="none" fill-rule="evenodd" d="M182.278,73.0311 C182.278,70.1162 179.915,67.7533 177,67.7533 C174.085,67.7533 171.722,70.1162 171.722,73.0311 C171.722,75.9459 174.085,78.3088 177,78.3088 C179.915,78.3088 182.278,75.9459 182.278,73.0311 "/>
</g>

<g fill="#0000ff" fill-opacity="1" stroke="none" transform="matrix(0.756869,0,0,0.758256,-96.1203,-19.1467)"
font-family="Helvetica" font-size="14" font-weight="700" font-style="normal" 
>
<circle cx="495.157" cy="210.242" r="5.27778"/>
</g>

<g fill="none" stroke="#000000" stroke-opacity="1" stroke-width="0.659722" stroke-linecap="butt" stroke-linejoin="miter" stroke-miterlimit="5" transform="matrix(0.756869,0,0,0.758256,-96.1203,-19.1467)"
font-family="Helvetica" font-size="14" font-weight="700" font-style="normal" 
>
<path vector-effect="none" fill-rule="evenodd" d="M500.435,210.242 C500.435,207.327 498.072,204.964 495.157,204.964 C492.242,204.964 489.879,207.327 489.879,210.242 C489.879,213.157 492.242,215.52 495.157,215.52 C498.072,215.52 500.435,213.157 500.435,210.242 "/>
</g>

<g fill="#0000ff" fill-opacity="1" stroke="none" transform="matrix(0.756869,0,0,0.758256,-96.1203,-19.1467)"
font-family="Helvetica" font-size="14" font-weight="700" font-style="normal" 
>
<circle cx="681.295" cy="286.614" r="5.27778"/>
</g>

<g fill="none" stroke="#000000" stroke-opacity="1" stroke-width="0.659722" stroke-linecap="butt" stroke-linejoin="miter" stroke-miterlimit="5" transform="matrix(0.756869,0,0,0.758256,-96.1203,-19.1467)"
font-family="Helvetica" font-size="14" font-weight="700" font-style="normal" 
>
<path vector-effect="none" fill-rule="evenodd" d="M686.573,286.614 C686.573,283.7 684.21,281.337 681.295,281.337 C678.38,281.337 676.017,283.7 676.017,286.614 C676.017,289.529 678.38,291.892 681.295,291.892 C684.21,291.892 686.573,289.529 686.573,286.614 "/>
</g>

<g fill="#0000ff" fill-opacity="1" stroke="none" transform="matrix(0.756869,0,0,0.758256,-96.1203,-19.1467)"
font-family="Helvetica" font-size="14" font-weight="700" font-style="normal" 
>
<circle cx="813.42" cy="342.224" r="5.27778"/>
</g>

<g fill="none" stroke="#000000" stroke-opacity="1" stroke-width="0.659722" stroke-linecap="butt" stroke-linejoin="miter" stroke-miterlimit="5" transform="matrix(0.756869,0,0,0.758256,-96.1203,-19.1467)"
font-family="Helvetica" font-size="14" font-weight="700" font-style="normal" 
>
<path vector-effect="none" fill-rule="evenodd" d="M818.698,342.224 C818.698,339.309 816.335,336.946 813.42,336.946 C810.505,336.946 808.142,339.309 808.142,342.224 C808.142,345.139 810.505,347.502 813.42,347.502 C816.335,347.502 818.698,345.139 818.698,342.224 "/>
</g>

<g fill="#0000ff" fill-opacity="1" stroke="none" transform="matrix(0.756869,0,0,0.758256,-96.1203,-19.1467)"
font-family="Helvetica" font-size="14" font-weight="700" font-style="normal" 
>
<circle cx="915.843" cy="382.196" r="5.27778"/>
</g>

<g fill="none" stroke="#000000" stroke-opacity="1" stroke-width="0.659722" stroke-linecap="butt" stroke-linejoin="miter" stroke-miterlimit="5" transform="matrix(0.756869,0,0,0.758256,-96.1203,-19.1467)"
font-family="Helvetica" font-size="14" font-weight="700" font-style="normal" 
>
<path vector-effect="none" fill-rule="evenodd" d="M921.121,382.196 C921.121,379.281 918.758,376.919 915.843,376.919 C912.928,376.919 910.565,379.281 910.565,382.196 C910.565,385.111 912.928,387.474 915.843,387.474 C918.758,387.474 921.121,385.111 921.121,382.196 "/>
</g>

<g fill="#0000ff" fill-opacity="1" stroke="none" transform="matrix(0.756869,0,0,0.758256,-96.1203,-19.1467)"
font-family="Helvetica" font-size="14" font-weight="700" font-style="normal" 
>
<circle cx="999.557" cy="417.25" r="5.27778"/>
</g>

<g fill="none" stroke="#000000" stroke-opacity="1" stroke-width="0.659722" stroke-linecap="butt" stroke-linejoin="miter" stroke-miterlimit="5" transform="matrix(0.756869,0,0,0.758256,-96.1203,-19.1467)"
font-family="Helvetica" font-size="14" font-weight="700" font-style="normal" 
>
<path vector-effect="none" fill-rule="evenodd" d="M1004.84,417.25 C1004.84,414.335 1002.47,411.972 999.557,411.972 C996.643,411.972 994.28,414.335 994.28,417.25 C994.28,420.165 996.643,422.528 999.557,422.528 C1002.47,422.528 1004.84,420.165 1004.84,417.25 "/>
</g>

<g fill="#0000ff" fill-opacity="1" stroke="none" transform="matrix(0.756869,0,0,0.758256,-96.1203,-19.1467)"
font-family="Helvetica" font-size="14" font-weight="700" font-style="normal" 
>
<circle cx="1070.27" cy="446.142" r="5.27778"/>
</g>

<g fill="none" stroke="#000000" stroke-opacity="1" stroke-width="0.659722" stroke-linecap="butt" stroke-linejoin="miter" stroke-miterlimit="5" transform="matrix(0.756869,0,0,0.758256,-96.1203,-19.1467)"
font-family="Helvetica" font-size="14" font-weight="700" font-style="normal" 
>
<path vector-effect="none" fill-rule="evenodd" d="M1075.55,446.142 C1075.55,443.227 1073.19,440.864 1070.27,440.864 C1067.36,440.864 1064.99,443.227 1064.99,446.142 C1064.99,449.057 1067.36,451.42 1070.27,451.42 C1073.19,451.42 1075.55,449.057 1075.55,446.142 "/>
</g>

<g fill="#0000ff" fill-opacity="1" stroke="none" transform="matrix(0.756869,0,0,0.758256,-96.1203,-19.1467)"
font-family="Helvetica" font-size="14" font-weight="700" font-style="normal" 
>
<circle cx="1131.58" cy="472.497" r="5.27778"/>
</g>

<g fill="none" stroke="#000000" stroke-opacity="1" stroke-width="0.659722" stroke-linecap="butt" stroke-linejoin="miter" stroke-miterlimit="5" transform="matrix(0.756869,0,0,0.758256,-96.1203,-19.1467)"
font-family="Helvetica" font-size="14" font-weight="700" font-style="normal" 
>
<path vector-effect="none" fill-rule="evenodd" d="M1136.85,472.497 C1136.85,469.582 1134.49,467.219 1131.58,467.219 C1128.66,467.219 1126.3,469.582 1126.3,472.497 C1126.3,475.412 1128.66,477.774 1131.58,477.774 C1134.49,477.774 1136.85,475.412 1136.85,472.497 "/>
</g>

<g fill="#0000ff" fill-opacity="1" stroke="none" transform="matrix(0.756869,0,0,0.758256,-96.1203,-19.1467)"
font-family="Helvetica" font-size="14" font-weight="700" font-style="normal" 
>
<circle cx="1185.59" cy="494.554" r="5.27778"/>
</g>

<g fill="none" stroke="#000000" stroke-opacity="1" stroke-width="0.659722" stroke-linecap="butt" stroke-linejoin="miter" stroke-miterlimit="5" transform="matrix(0.756869,0,0,0.758256,-96.1203,-19.1467)"
font-family="Helvetica" font-size="14" font-weight="700" font-style="normal" 
>
<path vector-effect="none" fill-rule="evenodd" d="M1190.87,494.554 C1190.87,491.639 1188.5,489.276 1185.59,489.276 C1182.67,489.276 1180.31,491.639 1180.31,494.554 C1180.31,497.469 1182.67,499.832 1185.59,499.832 C1188.5,499.832 1190.87,497.469 1190.87,494.554 "/>
</g>

<g fill="none" stroke="#ff0000" stroke-opacity="1" stroke-width="2.63889" stroke-linecap="butt" stroke-linejoin="round" transform="matrix(0.756869,0,0,0.758256,-96.1203,-19.1467)"
font-family="Helvetica" font-size="14" font-weight="700" font-style="normal" 
>
<polyline fill="none" vector-effect="none" points="177,75.5568 495.157,207.912 681.295,285.346 813.42,340.31 915.843,382.919 999.557,417.745 1070.27,447.162 1131.58,472.665 1185.59,495.135 " />
</g>

<g fill="#ffffff" fill-opacity="1" stroke="none" transform="matrix(7.56869e-05,0,0,7.58256e-05,-96.1203,-19.1467)"
font-family="Helvetica" font-size="14" font-weight="700" font-style="normal" 
>
<path vector-effect="none" fill-rule="evenodd" d="M1.077e+07,500000 L1.077e+07,820000 L1.214e+07,820000 L1.214e+07,500000 L1.077e+07,500000"/>
</g>

<g fill="#0000ff" fill-opacity="1" stroke="none" transform="matrix(0.756869,0,0,0.758256,-96.1203,-19.1467)"
font-family="Helvetica" font-size="14" font-weight="700" font-style="normal" 
>
<circle cx="1100.69" cy="58.8615" r="5.27778"/>
</g>

<g fill="none" stroke="#000000" stroke-opacity="1" stroke-width="0.659722" stroke-linecap="butt" stroke-linejoin="miter" stroke-miterlimit="5" transform="matrix(0.756869,0,0,0.758256,-96.1203,-19.1467)"
font-family="Helvetica" font-size="14" font-weight="700" font-style="normal" 
>
<path vector-effect="none" fill-rule="evenodd" d="M1105.97,58.8615 C1105.97,55.9467 1103.61,53.5838 1100.69,53.5838 C1097.78,53.5838 1095.41,55.9467 1095.41,58.8615 C1095.41,61.7764 1097.78,64.1393 1100.69,64.1393 C1103.61,64.1393 1105.97,61.7764 1105.97,58.8615 "/>
</g>

<g fill="#ff0000" fill-opacity="1" stroke="#ff0000" stroke-opacity="1" stroke-width="2.63889" stroke-linecap="butt" stroke-linejoin="round" transform="matrix(0.756869,0,0,0.758256,-96.1203,-19.1467)"
font-family="Helvetica" font-size="14" font-weight="700" font-style="normal" 
>
<polyline fill="none" vector-effect="none" points="1080.98,73.1385 1120.4,73.1385 " />
</g>

<g fill="#212121" fill-opacity="1" stroke="#212121" stroke-opacity="1" stroke-width="1" stroke-linecap="square" stroke-linejoin="bevel" transform="matrix(0.756869,0,0,0.758256,754.136,28.1394)"
font-family="Helvetica" font-size="11" font-weight="400" font-style="normal" 
>
<text fill="#212121" fill-opacity="1" stroke="none" xml:space="preserve" x="0" y="0" font-family="Helvetica" font-size="11" font-weight="400" font-style="normal" 
 >Data points</text>
</g>

<g fill="#212121" fill-opacity="1" stroke="#212121" stroke-opacity="1" stroke-width="1" stroke-linecap="square" stroke-linejoin="bevel" transform="matrix(0.756869,0,0,0.758256,754.136,38.9649)"
font-family="Helvetica" font-size="11" font-weight="400" font-style="normal" 
>
<text fill="#212121" fill-opacity="1" stroke="none" xml:space="preserve" x="0" y="0" font-family="Helvetica" font-size="11" font-weight="400" font-style="normal" 
 >Regression Line</text>
</g>

<g fill="none" stroke="#212121" stroke-opacity="1" stroke-width="0.659722" stroke-linecap="butt" stroke-linejoin="miter" stroke-miterlimit="5" transform="matrix(0.756869,0,0,0.758256,-96.1203,-19.1467)"
font-family="Helvetica" font-size="11" font-weight="400" font-style="normal" 
>
<path vector-effect="none" fill-rule="evenodd" d="M1077,82 L1077,50 L1214,50 L1214,82 L1077,82"/>
</g>

<g fill="#ffffff" fill-opacity="1" stroke="none" transform="matrix(7.56869e-05,0,0,7.58256e-05,-96.1203,-19.1467)"
font-family="Helvetica" font-size="11" font-weight="400" font-style="normal" 
>
<path vector-effect="none" fill-rule="evenodd" d="M2.0445e+06,4.29e+06 L2.0445e+06,4.90875e+06 L4.60825e+06,4.90875e+06 L4.60825e+06,4.29e+06 L2.0445e+06,4.29e+06"/>
</g>

<g fill="none" stroke="#000000" stroke-opacity="1" stroke-width="0.659722" stroke-linecap="butt" stroke-linejoin="miter" stroke-miterlimit="5" transform="matrix(0.756869,0,0,0.758256,-96.1203,-19.1467)"
font-family="Helvetica" font-size="11" font-weight="400" font-style="normal" 
>
<path vector-effect="none" fill-rule="evenodd" d="M204.45,490.875 L204.45,429 L460.825,429 L460.825,490.875 L204.45,490.875"/>
</g>

<g fill="#212121" fill-opacity="1" stroke="#212121" stroke-opacity="1" stroke-width="1" stroke-linecap="square" stroke-linejoin="bevel" transform="matrix(0.756869,0,0,0.758256,63.5791,318.277)"
font-family="Helvetica" font-size="13" font-weight="400" font-style="normal" 
>
<text fill="#212121" fill-opacity="1" stroke="none" xml:space="preserve" x="0" y="0" font-family="Helvetica" font-size="13" font-weight="400" font-style="normal" 
 >LDR Sensor Equation:</text>
</g>

<g fill="#212121" fill-opacity="1" stroke="#212121" stroke-opacity="1" stroke-width="1" stroke-linecap="square" stroke-linejoin="bevel" transform="matrix(0.756869,0,0,0.758256,63.5791,329.651)"
font-family="Helvetica" font-size="13" font-weight="400" font-style="normal" 
>
<text fill="#212121" fill-opacity="1" stroke="none" xml:space="preserve" x="0" y="0" font-family="Helvetica" font-size="13" font-weight="400" font-style="normal" 
 >log</text>
</g>

<g fill="#212121" fill-opacity="1" stroke="#212121" stroke-opacity="1" stroke-width="1" stroke-linecap="square" stroke-linejoin="bevel" transform="matrix(0.756869,0,0,0.758256,76.4458,334.201)"
font-family="Helvetica" font-size="10" font-weight="400" font-style="normal" 
>
<text fill="#212121" fill-opacity="1" stroke="none" xml:space="preserve" x="0" y="0" font-family="Helvetica" font-size="10" font-weight="400" font-style="normal" 
 >10</text>
</g>

<g fill="#212121" fill-opacity="1" stroke="#212121" stroke-opacity="1" stroke-width="1" stroke-linecap="square" stroke-linejoin="bevel" transform="matrix(0.756869,0,0,0.758256,84.7714,329.651)"
font-family="Helvetica" font-size="13" font-weight="400" font-style="normal" 
>
<text fill="#212121" fill-opacity="1" stroke="none" xml:space="preserve" x="0" y="0" font-family="Helvetica" font-size="13" font-weight="400" font-style="normal" 
 >(R) = -0.8492 * log</text>
</g>

<g fill="#212121" fill-opacity="1" stroke="#212121" stroke-opacity="1" stroke-width="1" stroke-linecap="square" stroke-linejoin="bevel" transform="matrix(0.756869,0,0,0.758256,165,334.201)"
font-family="Helvetica" font-size="10" font-weight="400" font-style="normal" 
>
<text fill="#212121" fill-opacity="1" stroke="none" xml:space="preserve" x="0" y="0" font-family="Helvetica" font-size="10" font-weight="400" font-style="normal" 
 >10</text>
</g>

<g fill="#212121" fill-opacity="1" stroke="#212121" stroke-opacity="1" stroke-width="1" stroke-linecap="square" stroke-linejoin="bevel" transform="matrix(0.756869,0,0,0.758256,173.325,329.651)"
font-family="Helvetica" font-size="13" font-weight="400" font-style="normal" 
>
<text fill="#212121" fill-opacity="1" stroke="none" xml:space="preserve" x="0" y="0" font-family="Helvetica" font-size="13" font-weight="400" font-style="normal" 
 >(LUX) + 5.2200</text>
</g>

<g fill="#212121" fill-opacity="1" stroke="#212121" stroke-opacity="1" stroke-width="1" stroke-linecap="square" stroke-linejoin="bevel" transform="matrix(0.756869,0,0,0.758256,63.5791,348.608)"
font-family="Helvetica" font-size="13" font-weight="400" font-style="normal" 
>
<text fill="#212121" fill-opacity="1" stroke="none" xml:space="preserve" x="0" y="0" font-family="Helvetica" font-size="13" font-weight="400" font-style="normal" 
 >R</text>
</g>

<g fill="#212121" fill-opacity="1" stroke="#212121" stroke-opacity="1" stroke-width="1" stroke-linecap="square" stroke-linejoin="bevel" transform="matrix(0.756869,0,0,0.758256,70.3909,344.058)"
font-family="Helvetica" font-size="10" font-weight="400" font-style="normal" 
>
<text fill="#212121" fill-opacity="1" stroke="none" xml:space="preserve" x="0" y="0" font-family="Helvetica" font-size="10" font-weight="400" font-style="normal" 
 >2</text>
</g>

<g fill="#212121" fill-opacity="1" stroke="#212121" stroke-opacity="1" stroke-width="1" stroke-linecap="square" stroke-linejoin="bevel" transform="matrix(0.756869,0,0,0.758256,74.9321,348.608)"
font-family="Helvetica" font-size="13" font-weight="400" font-style="normal" 
>
<text fill="#212121" fill-opacity="1" stroke="none" xml:space="preserve" x="0" y="0" font-family="Helvetica" font-size="13" font-weight="400" font-style="normal" 
 > = 0.9999</text>
</g>
</g>
</svg>
