<?xml version="1.0" encoding="UTF-8" standalone="no"?>
<svg width="409.928mm" height="210.256mm"
 viewBox="0 0 1162 596"
 xmlns="http://www.w3.org/2000/svg" xmlns:xlink="http://www.w3.org/1999/xlink"  version="1.2" baseProfile="tiny">
<title>Qt SVG Document</title>
<desc>MATLAB, The MathWorks, Inc. Version 25.2.0.3123386 R2025b Update 3</desc>
<defs>
</defs>
<g fill="none" stroke="black" stroke-width="1" fill-rule="evenodd" stroke-linecap="square" stroke-linejoin="bevel" >

<g fill="#ffffff" fill-opacity="1" stroke="none" transform="matrix(0.757783,0,0,0.757801,-158.197,-32.9642)"
font-family="Sans Serif" font-size="9" font-weight="400" font-style="normal" 
>
<path vector-effect="none" fill-rule="evenodd" d="M207,42 L1741,42 L1741,830 L207,830 L207,42"/>
</g>

<g fill="#ffffff" fill-opacity="1" stroke="none" transform="matrix(7.57783e-05,0,0,7.57801e-05,-158.197,-32.9642)"
font-family="Sans Serif" font-size="9" font-weight="400" font-style="normal" 
>
<path vector-effect="none" fill-rule="evenodd" d="M2.5e+06,660000 L2.5e+06,7.89e+06 L1.738e+07,7.89e+06 L1.738e+07,660000 L2.5e+06,660000"/>
</g>

<g fill="#212121" fill-opacity="0.14902" stroke="#212121" stroke-opacity="0.14902" stroke-width="0.659722" stroke-linecap="butt" stroke-linejoin="round" transform="matrix(0.757783,0,0,0.757801,-158.197,-32.9642)"
font-family="Sans Serif" font-size="9" font-weight="400" font-style="normal" 
>
<polyline fill="none" vector-effect="none" points="253,66 253,789 " />
<polyline fill="none" vector-effect="none" points="465.571,66 465.571,789 " />
<polyline fill="none" vector-effect="none" points="678.143,66 678.143,789 " />
<polyline fill="none" vector-effect="none" points="890.714,66 890.714,789 " />
<polyline fill="none" vector-effect="none" points="1103.29,66 1103.29,789 " />
<polyline fill="none" vector-effect="none" points="1315.86,66 1315.86,789 " />
<polyline fill="none" vector-effect="none" points="1528.43,66 1528.43,789 " />
<polyline fill="none" vector-effect="none" points="250,768.977 1738,768.977 " />
<polyline fill="none" vector-effect="none" points="250,661.109 1738,661.109 " />
<polyline fill="none" vector-effect="none" points="250,553.24 1738,553.24 " />
<polyline fill="none" vector-effect="none" points="250,445.372 1738,445.372 " />
<polyline fill="none" vector-effect="none" points="250,337.503 1738,337.503 " />
<polyline fill="none" vector-effect="none" points="250,229.634 1738,229.634 " />
<polyline fill="none" vector-effect="none" points="250,121.766 1738,121.766 " />
</g>

<g fill="#212121" fill-opacity="1" stroke="#212121" stroke-opacity="1" stroke-width="1" stroke-linecap="square" stroke-linejoin="bevel" transform="matrix(0.757783,0,0,0.757801,573.442,591.916)"
font-family="Helvetica" font-size="15" font-weight="700" font-style="normal" 
>
<text fill="#212121" fill-opacity="1" stroke="none" xml:space="preserve" x="0" y="0" font-family="Helvetica" font-size="15" font-weight="700" font-style="normal" 
 >Time [s]</text>
</g>

<g fill="#212121" fill-opacity="1" stroke="#212121" stroke-opacity="1" stroke-width="0.659722" stroke-linecap="square" stroke-linejoin="round" transform="matrix(0.757783,0,0,0.757801,-158.197,-32.9642)"
font-family="Helvetica" font-size="15" font-weight="700" font-style="normal" 
>
<polyline fill="none" vector-effect="none" points="250,789 1738,789 " />
<polyline fill="none" vector-effect="none" points="250,66 1738,66 " />
<polyline fill="none" vector-effect="none" points="253,789 253,774.12 " />
<polyline fill="none" vector-effect="none" points="253,80.88 253,66 " />
<polyline fill="none" vector-effect="none" points="465.571,789 465.571,774.12 " />
<polyline fill="none" vector-effect="none" points="465.571,80.88 465.571,66 " />
<polyline fill="none" vector-effect="none" points="678.143,789 678.143,774.12 " />
<polyline fill="none" vector-effect="none" points="678.143,80.88 678.143,66 " />
<polyline fill="none" vector-effect="none" points="890.714,789 890.714,774.12 " />
<polyline fill="none" vector-effect="none" points="890.714,80.88 890.714,66 " />
<polyline fill="none" vector-effect="none" points="1103.29,789 1103.29,774.12 " />
<polyline fill="none" vector-effect="none" points="1103.29,80.88 1103.29,66 " />
<polyline fill="none" vector-effect="none" points="1315.86,789 1315.86,774.12 " />
<polyline fill="none" vector-effect="none" points="1315.86,80.88 1315.86,66 " />
<polyline fill="none" vector-effect="none" points="1528.43,789 1528.43,774.12 " />
<polyline fill="none" vector-effect="none" points="1528.43,80.88 1528.43,66 " />
</g>

<g fill="#212121" fill-opacity="1" stroke="#212121" stroke-opacity="1" stroke-width="1" stroke-linecap="square" stroke-linejoin="bevel" transform="matrix(0.757783,0,0,0.757801,30.8694,578.034)"
font-family="Helvetica" font-size="13" font-weight="400" font-style="normal" 
>
<text fill="#212121" fill-opacity="1" stroke="none" xml:space="preserve" x="0" y="0" font-family="Helvetica" font-size="13" font-weight="400" font-style="normal" 
 >0</text>
</g>

<g fill="#212121" fill-opacity="1" stroke="#212121" stroke-opacity="1" stroke-width="1" stroke-linecap="square" stroke-linejoin="bevel" transform="matrix(0.757783,0,0,0.757801,191.952,578.034)"
font-family="Helvetica" font-size="13" font-weight="400" font-style="normal" 
>
<text fill="#212121" fill-opacity="1" stroke="none" xml:space="preserve" x="0" y="0" font-family="Helvetica" font-size="13" font-weight="400" font-style="normal" 
 >5</text>
</g>

<g fill="#212121" fill-opacity="1" stroke="#212121" stroke-opacity="1" stroke-width="1" stroke-linecap="square" stroke-linejoin="bevel" transform="matrix(0.757783,0,0,0.757801,350.383,578.034)"
font-family="Helvetica" font-size="13" font-weight="400" font-style="normal" 
>
<text fill="#212121" fill-opacity="1" stroke="none" xml:space="preserve" x="0" y="0" font-family="Helvetica" font-size="13" font-weight="400" font-style="normal" 
 >10</text>
</g>

<g fill="#212121" fill-opacity="1" stroke="#212121" stroke-opacity="1" stroke-width="1" stroke-linecap="square" stroke-linejoin="bevel" transform="matrix(0.757783,0,0,0.757801,511.466,578.034)"
font-family="Helvetica" font-size="13" font-weight="400" font-style="normal" 
>
<text fill="#212121" fill-opacity="1" stroke="none" xml:space="preserve" x="0" y="0" font-family="Helvetica" font-size="13" font-weight="400" font-style="normal" 
 >15</text>
</g>

<g fill="#212121" fill-opacity="1" stroke="#212121" stroke-opacity="1" stroke-width="1" stroke-linecap="square" stroke-linejoin="bevel" transform="matrix(0.757783,0,0,0.757801,672.549,578.034)"
font-family="Helvetica" font-size="13" font-weight="400" font-style="normal" 
>
<text fill="#212121" fill-opacity="1" stroke="none" xml:space="preserve" x="0" y="0" font-family="Helvetica" font-size="13" font-weight="400" font-style="normal" 
 >20</text>
</g>

<g fill="#212121" fill-opacity="1" stroke="#212121" stroke-opacity="1" stroke-width="1" stroke-linecap="square" stroke-linejoin="bevel" transform="matrix(0.757783,0,0,0.757801,833.632,578.034)"
font-family="Helvetica" font-size="13" font-weight="400" font-style="normal" 
>
<text fill="#212121" fill-opacity="1" stroke="none" xml:space="preserve" x="0" y="0" font-family="Helvetica" font-size="13" font-weight="400" font-style="normal" 
 >25</text>
</g>

<g fill="#212121" fill-opacity="1" stroke="#212121" stroke-opacity="1" stroke-width="1" stroke-linecap="square" stroke-linejoin="bevel" transform="matrix(0.757783,0,0,0.757801,994.715,578.034)"
font-family="Helvetica" font-size="13" font-weight="400" font-style="normal" 
>
<text fill="#212121" fill-opacity="1" stroke="none" xml:space="preserve" x="0" y="0" font-family="Helvetica" font-size="13" font-weight="400" font-style="normal" 
 >30</text>
</g>

<g fill="#212121" fill-opacity="1" stroke="#212121" stroke-opacity="1" stroke-width="1" stroke-linecap="square" stroke-linejoin="bevel" transform="matrix(0,-0.757801,0.757783,0,9.8514,346.315)"
font-family="Helvetica" font-size="15" font-weight="700" font-style="normal" 
>
<text fill="#212121" fill-opacity="1" stroke="none" xml:space="preserve" x="0" y="0" font-family="Helvetica" font-size="15" font-weight="700" font-style="normal" 
 >Visibility Error [LUX]</text>
</g>

<g fill="#212121" fill-opacity="1" stroke="#212121" stroke-opacity="1" stroke-width="0.659722" stroke-linecap="square" stroke-linejoin="round" transform="matrix(0.757783,0,0,0.757801,-158.197,-32.9642)"
font-family="Helvetica" font-size="15" font-weight="700" font-style="normal" 
>
<polyline fill="none" vector-effect="none" points="250,789 250,66 " />
<polyline fill="none" vector-effect="none" points="1738,789 1738,66 " />
<polyline fill="none" vector-effect="none" points="250,768.977 264.88,768.977 " />
<polyline fill="none" vector-effect="none" points="1723.12,768.977 1738,768.977 " />
<polyline fill="none" vector-effect="none" points="250,661.109 264.88,661.109 " />
<polyline fill="none" vector-effect="none" points="1723.12,661.109 1738,661.109 " />
<polyline fill="none" vector-effect="none" points="250,553.24 264.88,553.24 " />
<polyline fill="none" vector-effect="none" points="1723.12,553.24 1738,553.24 " />
<polyline fill="none" vector-effect="none" points="250,445.372 264.88,445.372 " />
<polyline fill="none" vector-effect="none" points="1723.12,445.372 1738,445.372 " />
<polyline fill="none" vector-effect="none" points="250,337.503 264.88,337.503 " />
<polyline fill="none" vector-effect="none" points="1723.12,337.503 1738,337.503 " />
<polyline fill="none" vector-effect="none" points="250,229.634 264.88,229.634 " />
<polyline fill="none" vector-effect="none" points="1723.12,229.634 1738,229.634 " />
<polyline fill="none" vector-effect="none" points="250,121.766 264.88,121.766 " />
<polyline fill="none" vector-effect="none" points="1723.12,121.766 1738,121.766 " />
</g>

<g fill="#212121" fill-opacity="1" stroke="#212121" stroke-opacity="1" stroke-width="1" stroke-linecap="square" stroke-linejoin="bevel" transform="matrix(0.757783,0,0,0.757801,21.9444,553.177)"
font-family="Helvetica" font-size="13" font-weight="400" font-style="normal" 
>
<text fill="#212121" fill-opacity="1" stroke="none" xml:space="preserve" x="0" y="0" font-family="Helvetica" font-size="13" font-weight="400" font-style="normal" 
 >0</text>
</g>

<g fill="#212121" fill-opacity="1" stroke="#212121" stroke-opacity="1" stroke-width="1" stroke-linecap="square" stroke-linejoin="bevel" transform="matrix(0.757783,0,0,0.757801,21.9444,471.435)"
font-family="Helvetica" font-size="13" font-weight="400" font-style="normal" 
>
<text fill="#212121" fill-opacity="1" stroke="none" xml:space="preserve" x="0" y="0" font-family="Helvetica" font-size="13" font-weight="400" font-style="normal" 
 >5</text>
</g>

<g fill="#212121" fill-opacity="1" stroke="#212121" stroke-opacity="1" stroke-width="1" stroke-linecap="square" stroke-linejoin="bevel" transform="matrix(0.757783,0,0,0.757801,16.6399,389.692)"
font-family="Helvetica" font-size="13" font-weight="400" font-style="normal" 
>
<text fill="#212121" fill-opacity="1" stroke="none" xml:space="preserve" x="0" y="0" font-family="Helvetica" font-size="13" font-weight="400" font-style="normal" 
 >10</text>
</g>

<g fill="#212121" fill-opacity="1" stroke="#212121" stroke-opacity="1" stroke-width="1" stroke-linecap="square" stroke-linejoin="bevel" transform="matrix(0.757783,0,0,0.757801,16.6399,307.949)"
font-family="Helvetica" font-size="13" font-weight="400" font-style="normal" 
>
<text fill="#212121" fill-opacity="1" stroke="none" xml:space="preserve" x="0" y="0" font-family="Helvetica" font-size="13" font-weight="400" font-style="normal" 
 >15</text>
</g>

<g fill="#212121" fill-opacity="1" stroke="#212121" stroke-opacity="1" stroke-width="1" stroke-linecap="square" stroke-linejoin="bevel" transform="matrix(0.757783,0,0,0.757801,16.6399,226.206)"
font-family="Helvetica" font-size="13" font-weight="400" font-style="normal" 
>
<text fill="#212121" fill-opacity="1" stroke="none" xml:space="preserve" x="0" y="0" font-family="Helvetica" font-size="13" font-weight="400" font-style="normal" 
 >20</text>
</g>

<g fill="#212121" fill-opacity="1" stroke="#212121" stroke-opacity="1" stroke-width="1" stroke-linecap="square" stroke-linejoin="bevel" transform="matrix(0.757783,0,0,0.757801,16.6399,144.463)"
font-family="Helvetica" font-size="13" font-weight="400" font-style="normal" 
>
<text fill="#212121" fill-opacity="1" stroke="none" xml:space="preserve" x="0" y="0" font-family="Helvetica" font-size="13" font-weight="400" font-style="normal" 
 >25</text>
</g>

<g fill="#212121" fill-opacity="1" stroke="#212121" stroke-opacity="1" stroke-width="1" stroke-linecap="square" stroke-linejoin="bevel" transform="matrix(0.757783,0,0,0.757801,16.6399,62.7202)"
font-family="Helvetica" font-size="13" font-weight="400" font-style="normal" 
>
<text fill="#212121" fill-opacity="1" stroke="none" xml:space="preserve" x="0" y="0" font-family="Helvetica" font-size="13" font-weight="400" font-style="normal" 
 >30</text>
</g>

<g fill="#212121" fill-opacity="1" stroke="#212121" stroke-opacity="1" stroke-width="1" stroke-linecap="square" stroke-linejoin="bevel" transform="matrix(0.757783,0,0,0.757801,518.881,11.3672)"
font-family="Helvetica" font-size="18" font-weight="700" font-style="normal" 
>
<text fill="#212121" fill-opacity="1" stroke="none" xml:space="preserve" x="0" y="0" font-family="Helvetica" font-size="18" font-weight="700" font-style="normal" 
 >Visibility Error Analysis</text>
</g>

<g fill="none" stroke="#ff00ff" stroke-opacity="1" stroke-width="1.97917" stroke-linecap="butt" stroke-linejoin="round" transform="matrix(0.757783,0,0,0.757801,-158.197,-32.9642)"
font-family="Helvetica" font-size="18" font-weight="700" font-style="normal" 
>
<polyline fill="none" vector-effect="none" points="253,768.977 253.425,768.977 253.85,768.977 254.275,768.977 254.701,768.977 255.126,768.977 255.551,768.977 255.976,768.977 256.401,768.977 256.826,768.977 257.251,768.977 257.677,768.977 258.102,768.977 258.527,768.977 258.952,768.977 259.377,768.977 259.802,768.977 260.227,768.977 260.653,768.977 261.078,768.977 261.503,768.977 261.928,768.977 262.353,768.977 262.778,768.977 263.203,768.977 263.629,768.977 264.054,768.977 264.479,768.977 264.904,768.977 265.329,768.977 265.754,768.977 266.179,768.977 266.605,768.977 267.03,768.977 267.455,768.977 267.88,768.977 268.305,768.977 268.73,768.977 269.155,768.977 269.581,768.977 270.006,768.977 270.431,768.977 270.856,768.977 271.281,768.977 271.706,768.977 272.131,768.977 272.557,768.977 272.982,768.977 273.407,768.977 273.832,768.977 274.257,768.977 274.682,768.977 275.107,768.977 275.533,768.977 275.958,768.977 276.383,768.977 276.808,768.977 277.233,768.977 277.658,768.977 278.083,768.977 278.509,768.977 278.934,768.977 279.359,768.977 279.784,768.977 280.209,768.977 280.634,768.977 281.059,768.977 281.485,768.977 281.91,768.977 282.335,768.977 282.76,768.977 283.185,768.977 283.61,768.977 284.035,768.977 284.461,768.977 284.886,768.977 285.311,768.977 285.736,768.977 286.161,768.977 286.586,768.977 287.011,768.977 287.437,768.977 287.862,768.977 288.287,768.977 288.712,768.977 289.137,768.977 289.562,768.977 289.987,768.977 290.413,768.977 290.838,768.977 291.263,768.977 291.688,768.977 292.113,768.977 292.538,768.977 292.963,768.977 293.389,768.977 293.814,768.977 294.239,768.977 294.664,768.977 295.089,768.977 295.514,768.977 295.939,768.977 296.365,768.977 296.79,768.977 297.215,768.977 297.64,768.977 298.065,768.977 298.49,768.977 298.915,768.977 299.341,768.977 299.766,768.977 300.191,768.977 300.616,768.977 301.041,768.977 301.466,768.977 301.891,768.977 302.317,768.977 302.742,768.977 303.167,768.977 303.592,768.977 304.017,768.977 304.442,768.977 304.867,768.977 305.293,768.977 305.718,768.977 306.143,768.977 306.568,768.977 306.993,768.977 307.418,768.977 307.843,768.977 308.269,768.977 308.694,768.977 309.119,768.977 309.544,768.977 309.969,768.977 310.394,768.977 310.819,768.977 311.245,768.977 311.67,768.977 312.095,768.977 312.52,768.977 312.945,768.977 313.37,768.977 313.795,768.977 314.221,768.977 314.646,768.977 315.071,768.977 315.496,768.977 315.921,768.977 316.346,768.977 316.771,768.977 317.197,768.977 317.622,768.977 318.047,768.977 318.472,768.977 318.897,768.977 319.322,768.977 319.747,768.977 320.173,768.977 320.598,768.977 321.023,768.977 321.448,768.977 321.873,768.977 322.298,768.977 322.723,768.977 323.149,768.977 323.574,768.977 323.999,768.977 324.424,768.977 324.849,768.977 325.274,768.977 325.699,768.977 326.125,768.977 326.55,768.977 326.975,768.977 327.4,768.977 327.825,768.977 328.25,768.977 328.675,768.977 329.101,768.977 329.526,768.977 329.951,768.977 330.376,768.977 330.801,768.977 331.226,768.977 331.651,768.977 332.077,768.977 332.502,768.977 332.927,768.977 333.352,768.977 333.777,768.977 334.202,768.977 334.627,768.977 335.053,768.977 335.478,768.977 335.903,768.977 336.328,768.977 336.753,768.977 337.178,768.977 337.603,768.977 338.029,768.977 338.454,768.977 338.879,768.977 339.304,768.977 339.729,768.977 340.154,768.977 340.579,768.977 341.005,768.977 341.43,768.977 341.855,768.977 342.28,768.977 342.705,768.977 343.13,768.977 343.555,768.977 343.981,553.672 344.406,553.672 344.831,553.672 345.256,553.672 345.681,617.098 346.106,617.098 346.531,617.098 346.957,704.256 347.382,704.256 347.807,704.256 348.232,704.256 348.657,704.256 349.082,704.256 349.507,725.83 349.933,741.147 350.358,752.581 350.783,766.389 351.208,768.977 351.633,768.977 352.058,768.977 352.483,768.977 352.909,768.977 353.334,768.977 353.759,768.977 354.184,768.977 354.609,768.977 355.034,768.977 355.459,768.114 355.885,763.8 356.31,758.191 356.735,755.602 357.16,755.386 357.585,755.386 358.01,755.386 358.435,755.386 358.861,755.386 359.286,755.386 359.711,757.975 360.136,761.642 360.561,764.663 360.986,765.957 361.411,768.977 361.837,768.977 362.262,768.977 362.687,768.977 363.112,768.977 363.537,768.977 363.962,768.977 364.387,768.977 364.813,768.977 365.238,768.33 365.663,768.114 366.088,767.252 366.513,767.036 366.938,765.094 367.363,764.878 367.789,764.878 368.214,764.878 368.639,764.878 369.064,764.878 369.489,765.094 369.914,765.526 370.339,765.957 370.765,767.036 371.19,767.252 371.615,768.762 372.04,768.762 372.465,768.977 372.89,768.977 373.315,768.977 373.741,768.977 374.166,768.977 374.591,768.977 375.016,768.977 375.441,768.977 375.866,768.977 376.291,768.977 376.717,768.762 377.142,768.114 377.567,768.114 377.992,767.899 378.417,767.252 378.842,767.252 379.267,767.252 379.693,767.252 380.118,767.252 380.543,767.899 380.968,768.33 381.393,768.33 381.818,768.33 382.243,768.762 382.669,768.762 383.094,768.977 383.519,768.977 383.944,768.977 384.369,768.977 384.794,768.977 385.219,768.977 385.645,768.977 386.07,768.762 386.495,768.977 386.92,768.977 387.345,768.977 387.77,768.762 388.195,768.762 388.621,768.762 389.046,768.762 389.471,768.977 389.896,768.977 390.321,768.762 390.746,768.762 391.171,768.762 391.597,768.762 392.022,768.762 392.447,768.762 392.872,768.977 393.297,768.977 393.722,768.977 394.147,768.977 394.573,768.762 394.998,768.762 395.423,768.762 395.848,768.762 396.273,768.762 396.698,768.762 397.123,768.762 397.549,768.762 397.974,768.762 398.399,768.762 398.824,768.762 399.249,768.762 399.674,768.762 400.099,768.977 400.525,768.977 400.95,768.977 401.375,768.977 401.8,768.977 402.225,768.977 402.65,768.977 403.075,768.977 403.501,768.977 403.926,768.977 404.351,768.977 404.776,768.977 405.201,768.977 405.626,768.977 406.051,768.762 406.477,768.33 406.902,768.33 407.327,768.33 407.752,768.114 408.177,768.114 408.602,768.114 409.027,768.114 409.453,768.977 409.878,768.977 410.303,768.977 410.728,768.977 411.153,768.977 411.578,768.977 412.003,768.977 412.429,768.977 412.854,768.977 413.279,768.977 413.704,768.762 414.129,768.762 414.554,768.762 414.979,768.762 415.405,768.762 415.83,768.762 416.255,768.762 416.68,768.977 417.105,768.977 417.53,768.977 417.955,768.977 418.381,768.977 418.806,768.977 419.231,768.977 419.656,768.977 420.081,768.977 420.506,768.977 420.931,768.977 421.357,768.762 421.782,768.977 422.207,768.33 422.632,768.33 423.057,768.977 423.482,768.977 423.907,768.977 424.333,768.977 424.758,768.977 425.183,768.977 425.608,768.977 426.033,768.977 426.458,768.977 426.883,768.977 427.309,768.977 427.734,768.977 428.159,768.977 428.584,768.977 429.009,768.977 429.434,768.977 429.859,768.977 430.285,768.977 430.71,768.33 431.135,768.33 431.56,768.33 431.985,768.977 432.41,768.762 432.835,768.977 433.261,768.977 433.686,768.977 434.111,768.977 434.536,768.977 434.961,768.977 435.386,768.977 435.811,768.977 436.237,768.977 436.662,768.977 437.087,768.977 437.512,768.977 437.937,768.977 438.362,768.977 438.787,768.977 439.213,768.977 439.638,768.977 440.063,768.977 440.488,768.977 440.913,768.977 441.338,768.977 441.763,768.977 442.189,768.977 442.614,768.33 443.039,768.33 443.464,768.33 443.889,768.762 444.314,768.762 444.739,768.762 445.165,768.762 445.59,768.762 446.015,768.762 446.44,768.977 446.865,768.977 447.29,768.977 447.715,768.977 448.141,768.977 448.566,768.977 448.991,768.977 449.416,768.977 449.841,768.977 450.266,768.977 450.691,768.977 451.117,768.977 451.542,768.977 451.967,768.977 452.392,768.977 452.817,768.762 453.242,768.977 453.667,768.977 454.093,768.977 454.518,768.977 454.943,768.977 455.368,768.977 455.793,768.977 456.218,768.762 456.643,768.977 457.069,768.977 457.494,768.977 457.919,768.977 458.344,768.977 458.769,768.977 459.194,768.977 459.619,768.977 460.045,768.977 460.47,768.977 460.895,768.977 461.32,768.977 461.745,768.977 462.17,768.977 462.595,768.977 463.021,768.977 463.446,768.977 463.871,768.977 464.296,768.762 464.721,768.977 465.146,768.977 465.571,768.977 465.997,768.977 466.422,768.977 466.847,768.977 467.272,768.977 467.697,768.977 468.122,768.977 468.547,768.977 468.973,768.977 469.398,768.762 469.823,768.762 470.248,768.762 470.673,768.762 471.098,768.762 471.523,768.33 471.949,768.33 472.374,768.33 472.799,768.33 473.224,768.33 473.649,768.762 474.074,768.762 474.499,768.762 474.925,768.977 475.35,768.977 475.775,768.977 476.2,768.977 476.625,768.977 477.05,768.977 477.475,768.977 477.901,768.977 478.326,768.977 478.751,768.977 479.176,768.977 479.601,768.977 480.026,768.977 480.451,768.977 480.877,768.762 481.302,768.762 481.727,768.762 482.152,768.762 482.577,768.762 483.002,768.762 483.427,768.762 483.853,768.762 484.278,768.762 484.703,768.762 485.128,768.762 485.553,768.977 485.978,768.977 486.403,768.977 486.829,768.977 487.254,768.977 487.679,768.977 488.104,768.762 488.529,768.977 488.954,768.762 489.379,768.762 489.805,768.33 490.23,768.33 490.655,768.762 491.08,768.762 491.505,768.762 491.93,768.762 492.355,768.762 492.781,768.977 493.206,768.977 493.631,768.977 494.056,768.977 494.481,768.977 494.906,768.977 495.331,768.977 495.757,768.977 496.182,768.977 496.607,768.977 497.032,768.977 497.457,768.977 497.882,768.977 498.307,768.33 498.733,768.977 499.158,768.977 499.583,768.977 500.008,768.977 500.433,768.977 500.858,768.977 501.283,768.977 501.709,768.977 502.134,768.977 502.559,768.977 502.984,768.977 503.409,768.33 503.834,768.762 504.259,768.762 504.685,768.762 505.11,768.762 505.535,768.762 505.96,768.762 506.385,768.977 506.81,768.977 507.235,768.977 507.661,768.977 508.086,768.977 508.511,768.977 508.936,768.977 509.361,768.977 509.786,768.977 510.211,768.977 510.637,768.977 511.062,768.977 511.487,768.977 511.912,768.977 512.337,768.762 512.762,768.977 513.187,768.33 513.613,768.33 514.038,768.114 514.463,768.33 514.888,768.33 515.313,768.33 515.738,768.33 516.163,768.762 516.589,768.977 517.014,768.977 517.439,768.977 517.864,768.977 518.289,768.977 518.714,768.977 519.139,768.977 519.565,768.977 519.99,768.977 520.415,768.977 520.84,768.977 521.265,768.977 521.69,768.977 522.115,768.977 522.541,768.762 522.966,768.762 523.391,768.114 523.816,768.114 524.241,768.114 524.666,768.114 525.091,768.114 525.517,768.114 525.942,768.33 526.367,768.33 526.792,768.33 527.217,768.33 527.642,768.762 528.067,768.977 528.493,768.977 528.918,768.977 529.343,768.977 529.768,768.977 530.193,768.977 530.618,768.977 531.043,768.977 531.469,768.977 531.894,768.977 532.319,768.977 532.744,768.977 533.169,768.977 533.594,768.977 534.019,768.977 534.445,768.762 534.87,768.762 535.295,768.977 535.72,768.977 536.145,768.977 536.57,768.762 536.995,768.762 537.421,768.977 537.846,768.977 538.271,768.762 538.696,768.977 539.121,768.977 539.546,768.762 539.971,768.762 540.397,768.762 540.822,768.33 541.247,768.762 541.672,768.977 542.097,768.977 542.522,768.977 542.947,768.977 543.373,768.977 543.798,768.977 544.223,768.977 544.648,768.977 545.073,768.977 545.498,768.977 545.923,768.977 546.349,768.977 546.774,768.977 547.199,768.977 547.624,768.977 548.049,768.762 548.474,768.33 548.899,768.33 549.325,768.33 549.75,768.33 550.175,768.33 550.6,768.33 551.025,768.33 551.45,768.33 551.875,768.977 552.301,768.977 552.726,768.977 553.151,768.977 553.576,768.977 554.001,768.977 554.426,768.977 554.851,768.977 555.277,768.977 555.702,768.977 556.127,768.762 556.552,768.762 556.977,768.762 557.402,768.33 557.827,768.33 558.253,768.33 558.678,768.33 559.103,768.114 559.528,768.33 559.953,768.33 560.378,768.762 560.803,768.762 561.229,768.977 561.654,768.977 562.079,768.977 562.504,768.977 562.929,768.977 563.354,768.977 563.779,768.977 564.205,768.977 564.63,768.977 565.055,768.977 565.48,768.977 565.905,768.762 566.33,768.114 566.755,768.114 567.181,768.114 567.606,768.114 568.031,767.899 568.456,768.114 568.881,768.114 569.306,768.114 569.731,768.977 570.157,768.977 570.582,768.977 571.007,768.977 571.432,768.977 571.857,768.977 572.282,768.977 572.707,768.977 573.133,768.977 573.558,768.977 573.983,768.977 574.408,768.977 574.833,768.977 575.258,768.977 575.683,768.977 576.109,768.977 576.534,768.977 576.959,768.762 577.384,768.762 577.809,768.762 578.234,768.977 578.659,768.762 579.085,768.762 579.51,768.762 579.935,768.762 580.36,768.33 580.785,768.762 581.21,768.762 581.635,768.977 582.061,768.977 582.486,768.977 582.911,768.977 583.336,768.977 583.761,768.977 584.186,768.977 584.611,768.977 585.037,768.977 585.462,768.977 585.887,768.977 586.312,768.977 586.737,768.762 587.162,768.762 587.587,768.762 588.013,768.977 588.438,768.762 588.863,768.977 589.288,768.977 589.713,768.977 590.138,768.977 590.563,768.977 590.989,768.977 591.414,768.977 591.839,768.977 592.264,768.977 592.689,768.762 593.114,768.762 593.539,768.762 593.965,768.762 594.39,768.33 594.815,768.762 595.24,768.762 595.665,768.762 596.09,768.762 596.515,768.762 596.941,768.762 597.366,768.977 597.791,768.977 598.216,768.977 598.641,768.977 599.066,768.977 599.491,768.977 599.917,768.977 600.342,768.977 600.767,768.977 601.192,768.977 601.617,768.977 602.042,768.977 602.467,768.762 602.893,768.762 603.318,768.762 603.743,768.762 604.168,768.762 604.593,768.762 605.018,768.762 605.443,768.762 605.869,768.762 606.294,768.977 606.719,768.762 607.144,768.977 607.569,768.977 607.994,768.977 608.419,768.977 608.845,768.977 609.27,768.762 609.695,768.762 610.12,768.977 610.545,768.762 610.97,768.762 611.395,768.762 611.821,768.762 612.246,768.762 612.671,768.762 613.096,768.762 613.521,768.762 613.946,768.762 614.371,768.762 614.797,768.762 615.222,768.762 615.647,768.762 616.072,768.977 616.497,768.762 616.922,768.762 617.347,768.977 617.773,768.977 618.198,768.977 618.623,768.977 619.048,768.977 619.473,768.977 619.898,768.977 620.323,768.977 620.749,768.977 621.174,768.977 621.599,768.977 622.024,768.977 622.449,768.977 622.874,768.977 623.299,768.977 623.725,768.977 624.15,768.762 624.575,768.762 625,768.762 625.425,768.762 625.85,768.762 626.275,768.33 626.701,768.33 627.126,768.762 627.551,768.762 627.976,768.762 628.401,768.762 628.826,768.977 629.251,768.977 629.677,768.977 630.102,768.977 630.527,768.977 630.952,768.977 631.377,768.762 631.802,768.762 632.227,768.762 632.653,768.762 633.078,768.33 633.503,768.33 633.928,768.33 634.353,768.33 634.778,768.33 635.203,768.762 635.629,768.762 636.054,768.33 636.479,768.33 636.904,768.762 637.329,768.977 637.754,768.977 638.179,768.977 638.605,768.977 639.03,768.977 639.455,768.977 639.88,768.977 640.305,768.977 640.73,768.977 641.155,768.977 641.581,768.977 642.006,768.977 642.431,768.977 642.856,768.762 643.281,768.33 643.706,768.33 644.131,768.33 644.557,768.33 644.982,768.33 645.407,768.762 645.832,768.762 646.257,768.762 646.682,768.762 647.107,768.762 647.533,768.977 647.958,768.977 648.383,768.977 648.808,768.977 649.233,768.977 649.658,768.977 650.083,768.977 650.509,768.762 650.934,768.762 651.359,768.762 651.784,768.33 652.209,768.33 652.634,768.33 653.059,768.33 653.485,768.33 653.91,768.33 654.335,768.33 654.76,768.762 655.185,768.762 655.61,768.977 656.035,768.977 656.461,768.977 656.886,768.977 657.311,768.977 657.736,768.977 658.161,768.977 658.586,768.977 659.011,768.977 659.437,768.977 659.862,768.114 660.287,768.114 660.712,768.114 661.137,768.114 661.562,768.114 661.987,768.114 662.413,768.114 662.838,768.33 663.263,768.977 663.688,768.977 664.113,768.977 664.538,768.977 664.963,768.977 665.389,768.977 665.814,768.977 666.239,768.977 666.664,768.977 667.089,768.977 667.514,768.977 667.939,768.977 668.365,768.977 668.79,768.977 669.215,768.977 669.64,768.977 670.065,768.762 670.49,768.977 670.915,768.977 671.341,768.762 671.766,768.33 672.191,768.114 672.616,768.114 673.041,768.114 673.466,768.977 673.891,768.762 674.317,768.977 674.742,768.977 675.167,768.977 675.592,768.977 676.017,768.977 676.442,768.977 676.867,768.977 677.293,768.977 677.718,768.977 678.143,768.977 678.568,768.977 678.993,768.977 679.418,768.977 679.843,768.977 680.269,768.977 680.694,768.977 681.119,768.977 681.544,768.977 681.969,768.977 682.394,768.977 682.819,768.977 683.245,768.977 683.67,768.977 684.095,768.977 684.52,768.977 684.945,768.977 685.37,768.33 685.795,768.33 686.221,768.33 686.646,768.33 687.071,768.33 687.496,768.33 687.921,768.33 688.346,768.33 688.771,768.762 689.197,768.762 689.622,768.762 690.047,768.977 690.472,768.977 690.897,768.762 691.322,768.762 691.747,768.977 692.173,768.977 692.598,768.977 693.023,768.977 693.448,768.762 693.873,768.762 694.298,768.762 694.723,768.762 695.149,768.977 695.574,768.977 695.999,768.977 696.424,768.977 696.849,768.977 697.274,768.977 697.699,768.977 698.125,768.977 698.55,768.977 698.975,768.977 699.4,768.977 699.825,768.977 700.25,768.977 700.675,768.977 701.101,768.762 701.526,768.762 701.951,768.762 702.376,768.762 702.801,768.762 703.226,768.762 703.651,768.762 704.077,768.762 704.502,768.762 704.927,768.977 705.352,768.762 705.777,768.977 706.202,768.977 706.627,768.977 707.053,768.977 707.478,768.977 707.903,768.977 708.328,768.977 708.753,768.977 709.178,768.977 709.603,768.762 710.029,768.977 710.454,768.977 710.879,768.977 711.304,768.977 711.729,768.977 712.154,768.977 712.579,768.33 713.005,768.762 713.43,768.762 713.855,768.762 714.28,768.762 714.705,768.762 715.13,768.762 715.555,768.33 715.981,768.33 716.406,768.33 716.831,768.762 717.256,768.762 717.681,768.977 718.106,768.977 718.531,768.977 718.957,768.977 719.382,768.762 719.807,768.762 720.232,768.762 720.657,768.762 721.082,768.762 721.507,768.762 721.933,768.762 722.358,768.762 722.783,768.762 723.208,768.762 723.633,768.762 724.058,768.977 724.483,768.977 724.909,768.977 725.334,768.977 725.759,768.977 726.184,768.977 726.609,768.977 727.034,768.977 727.459,768.977 727.885,768.33 728.31,768.33 728.735,768.33 729.16,768.33 729.585,768.762 730.01,768.762 730.435,768.762 730.861,768.762 731.286,768.762 731.711,768.977 732.136,768.977 732.561,768.977 732.986,768.977 733.411,768.977 733.837,768.977 734.262,768.977 734.687,768.977 735.112,768.977 735.537,768.977 735.962,768.977 736.387,768.977 736.813,768.977 737.238,768.762 737.663,768.33 738.088,768.33 738.513,768.33 738.938,768.33 739.363,768.33 739.789,768.33 740.214,768.33 740.639,768.33 741.064,768.762 741.489,768.762 741.914,768.762 742.339,768.977 742.765,768.977 743.19,768.977 743.615,768.977 744.04,768.977 744.465,768.977 744.89,768.977 745.315,768.977 745.741,768.977 746.166,768.977 746.591,768.977 747.016,768.977 747.441,768.977 747.866,768.33 748.291,768.114 748.717,768.114 749.142,768.114 749.567,768.114 749.992,768.977 750.417,768.977 750.842,768.977 751.267,768.977 751.693,768.977 752.118,768.977 752.543,768.977 752.968,768.977 753.393,768.977 753.818,768.977 754.243,768.977 754.669,768.762 755.094,768.977 755.519,768.977 755.944,768.762 756.369,768.762 756.794,768.762 757.219,768.114 757.645,768.114 758.07,768.114 758.495,768.762 758.92,768.762 759.345,768.977 759.77,768.977 760.195,768.762 760.621,768.977 761.046,768.977 761.471,768.762 761.896,768.977 762.321,768.977 762.746,768.977 763.171,768.977 763.597,229.419 764.022,229.419 764.447,229.419 764.872,374.394 765.297,374.394 765.722,374.394 766.147,374.394 766.573,374.394 766.998,612.136 767.423,612.136 767.848,612.136 768.273,612.136 768.698,612.136 769.123,612.136 769.549,650.322 769.974,678.799 770.399,702.315 770.824,726.693 771.249,741.579 771.674,757.975 772.099,768.977 772.525,768.977 772.95,768.977 773.375,768.977 773.8,768.977 774.225,768.977 774.65,768.977 775.075,768.977 775.501,763.153 775.926,751.934 776.351,744.168 776.776,741.579 777.201,741.579 777.626,741.579 778.051,741.579 778.477,741.579 778.902,741.579 779.327,752.797 779.752,753.66 780.177,762.29 780.602,762.29 781.027,764.015 781.453,767.467 781.878,767.467 782.303,767.467 782.728,767.467 783.153,767.467 783.578,767.467 784.003,765.741 784.429,764.878 784.854,764.015 785.279,759.701 785.704,758.838 786.129,758.838 786.554,758.838 786.979,758.838 787.405,758.838 787.83,759.701 788.255,759.701 788.68,759.701 789.105,760.564 789.53,760.564 789.955,761.427 790.381,761.427 790.806,762.29 791.231,762.29 791.656,764.015 792.081,764.015 792.506,764.878 792.931,764.878 793.357,764.878 793.782,764.878 794.207,764.878 794.632,764.015 795.057,764.878 795.482,765.741 795.907,764.878 796.333,765.741 796.758,764.015 797.183,764.015 797.608,764.015 798.033,764.015 798.458,764.015 798.883,764.015 799.309,764.015 799.734,762.29 800.159,761.427 800.584,761.427 801.009,761.427 801.434,762.29 801.859,762.29 802.285,762.29 802.71,763.153 803.135,764.015 803.56,764.878 803.985,764.878 804.41,764.878 804.835,764.878 805.261,764.878 805.686,764.878 806.111,764.878 806.536,764.878 806.961,764.878 807.386,764.015 807.811,764.015 808.237,764.015 808.662,764.015 809.087,764.015 809.512,764.878 809.937,765.741 810.362,765.741 810.787,765.741 811.213,765.741 811.638,765.741 812.063,765.741 812.488,765.741 812.913,765.741 813.338,765.741 813.763,765.741 814.189,766.604 814.614,765.741 815.039,765.741 815.464,765.741 815.889,764.878 816.314,764.878 816.739,764.878 817.165,764.878 817.59,764.878 818.015,764.878 818.44,764.878 818.865,764.878 819.29,765.741 819.715,764.878 820.141,765.741 820.566,766.604 820.991,766.604 821.416,767.467 821.841,767.467 822.266,766.604 822.691,767.467 823.117,768.33 823.542,767.467 823.967,767.467 824.392,767.467 824.817,766.604 825.242,767.467 825.667,767.467 826.093,767.467 826.518,767.467 826.943,768.33 827.368,767.467 827.793,765.741 828.218,767.467 828.643,768.33 829.069,768.33 829.494,768.33 829.919,768.33 830.344,764.878 830.769,764.015 831.194,764.015 831.619,764.015 832.045,764.878 832.47,764.878 832.895,764.878 833.32,764.878 833.745,764.878 834.17,768.33 834.595,768.977 835.021,768.977 835.446,768.977 835.871,768.33 836.296,766.604 836.721,765.741 837.146,766.604 837.571,766.604 837.997,766.604 838.422,767.467 838.847,767.467 839.272,767.467 839.697,767.467 840.122,768.33 840.547,768.33 840.973,768.33 841.398,768.33 841.823,768.977 842.248,768.977 842.673,768.33 843.098,768.977 843.523,766.604 843.949,766.604 844.374,766.604 844.799,765.741 845.224,766.604 845.649,767.467 846.074,767.467 846.499,767.467 846.925,768.33 847.35,768.977 847.775,768.977 848.2,768.977 848.625,768.977 849.05,768.977 849.475,768.977 849.901,768.977 850.326,768.977 850.751,768.977 851.176,768.977 851.601,767.467 852.026,767.467 852.451,766.604 852.877,766.604 853.302,767.467 853.727,767.467 854.152,767.467 854.577,767.467 855.002,767.467 855.427,767.467 855.853,768.33 856.278,768.33 856.703,768.33 857.128,768.33 857.553,768.33 857.978,768.33 858.403,768.33 858.829,768.33 859.254,768.33 859.679,768.33 860.104,767.467 860.529,767.467 860.954,767.467 861.379,768.33 861.805,768.977 862.23,768.977 862.655,768.977 863.08,768.977 863.505,768.977 863.93,768.977 864.355,768.977 864.781,768.977 865.206,768.977 865.631,768.977 866.056,768.977 866.481,768.977 866.906,768.33 867.331,768.33 867.757,768.33 868.182,768.33 868.607,768.33 869.032,767.467 869.457,767.467 869.882,767.467 870.307,767.467 870.733,767.467 871.158,768.33 871.583,768.33 872.008,768.33 872.433,768.33 872.858,768.33 873.283,767.467 873.709,767.467 874.134,767.467 874.559,767.467 874.984,768.33 875.409,768.33 875.834,767.467 876.259,768.33 876.685,768.33 877.11,768.33 877.535,768.33 877.96,768.977 878.385,768.977 878.81,768.977 879.235,768.977 879.661,768.33 880.086,767.467 880.511,767.467 880.936,767.467 881.361,767.467 881.786,767.467 882.211,767.467 882.637,767.467 883.062,767.467 883.487,767.467 883.912,768.33 884.337,768.977 884.762,768.977 885.187,768.977 885.613,768.33 886.038,768.33 886.463,768.33 886.888,768.33 887.313,768.33 887.738,768.33 888.163,768.33 888.589,768.33 889.014,768.33 889.439,767.467 889.864,767.467 890.289,767.467 890.714,767.467 891.139,767.467 891.565,767.467 891.99,767.467 892.415,767.467 892.84,768.33 893.265,768.33 893.69,768.33 894.115,768.977 894.541,768.977 894.966,768.977 895.391,768.977 895.816,768.977 896.241,766.604 896.666,766.604 897.091,766.604 897.517,766.604 897.942,766.604 898.367,766.604 898.792,766.604 899.217,767.467 899.642,768.33 900.067,768.33 900.493,768.977 900.918,768.977 901.343,768.977 901.768,768.977 902.193,768.977 902.618,768.977 903.043,768.977 903.469,768.977 903.894,768.977 904.319,768.977 904.744,767.467 905.169,766.604 905.594,766.604 906.019,765.741 906.445,765.741 906.87,765.741 907.295,765.741 907.72,765.741 908.145,765.741 908.57,766.604 908.995,767.467 909.421,768.33 909.846,768.977 910.271,768.977 910.696,768.977 911.121,768.977 911.546,768.977 911.971,768.977 912.397,768.977 912.822,768.977 913.247,768.977 913.672,768.977 914.097,768.33 914.522,768.33 914.947,767.467 915.373,767.467 915.798,765.741 916.223,765.741 916.648,767.467 917.073,767.467 917.498,768.33 917.923,768.33 918.349,768.33 918.774,768.977 919.199,768.977 919.624,768.977 920.049,768.977 920.474,768.977 920.899,768.977 921.325,768.977 921.75,768.977 922.175,768.977 922.6,768.977 923.025,766.604 923.45,766.604 923.875,766.604 924.301,766.604 924.726,766.604 925.151,765.741 925.576,765.741 926.001,765.741 926.426,766.604 926.851,766.604 927.277,768.977 927.702,768.977 928.127,768.977 928.552,768.977 928.977,768.977 929.402,768.977 929.827,768.977 930.253,768.977 930.678,768.977 931.103,768.977 931.528,768.977 931.953,768.33 932.378,768.33 932.803,768.33 933.229,766.604 933.654,766.604 934.079,766.604 934.504,766.604 934.929,766.604 935.354,766.604 935.779,766.604 936.205,768.33 936.63,768.33 937.055,768.977 937.48,768.977 937.905,768.977 938.33,768.977 938.755,768.977 939.181,768.977 939.606,768.977 940.031,768.33 940.456,768.977 940.881,768.977 941.306,768.977 941.731,767.467 942.157,768.977 942.582,767.467 943.007,767.467 943.432,767.467 943.857,768.33 944.282,768.977 944.707,768.977 945.133,768.33 945.558,768.33 945.983,768.33 946.408,768.977 946.833,768.33 947.258,768.977 947.683,768.977 948.109,768.977 948.534,768.977 948.959,768.977 949.384,768.977 949.809,768.977 950.234,768.977 950.659,768.977 951.085,768.33 951.51,768.33 951.935,768.33 952.36,768.33 952.785,768.33 953.21,768.33 953.635,767.467 954.061,767.467 954.486,767.467 954.911,768.33 955.336,768.33 955.761,768.33 956.186,768.977 956.611,768.977 957.037,768.977 957.462,768.977 957.887,768.977 958.312,768.977 958.737,768.977 959.162,768.977 959.587,768.33 960.013,767.467 960.438,767.467 960.863,767.467 961.288,767.467 961.713,767.467 962.138,767.467 962.563,767.467 962.989,767.467 963.414,766.604 963.839,767.467 964.264,767.467 964.689,768.977 965.114,768.977 965.539,768.977 965.965,768.977 966.39,768.977 966.815,767.467 967.24,768.977 967.665,768.977 968.09,768.977 968.515,768.33 968.941,768.33 969.366,768.33 969.791,768.33 970.216,768.33 970.641,768.977 971.066,768.977 971.491,768.977 971.917,768.977 972.342,768.977 972.767,768.977 973.192,768.977 973.617,768.977 974.042,768.977 974.467,768.977 974.893,768.977 975.318,768.33 975.743,768.977 976.168,768.977 976.593,768.977 977.018,768.977 977.443,768.977 977.869,768.977 978.294,768.977 978.719,768.33 979.144,768.33 979.569,768.33 979.994,768.33 980.419,768.33 980.845,768.33 981.27,768.33 981.695,768.33 982.12,768.33 982.545,768.33 982.97,768.33 983.395,768.33 983.821,768.33 984.246,768.33 984.671,768.977 985.096,768.977 985.521,768.977 985.946,768.977 986.371,768.977 986.797,768.33 987.222,767.467 987.647,767.467 988.072,767.467 988.497,766.604 988.922,765.741 989.347,765.741 989.773,766.604 990.198,766.604 990.623,766.604 991.048,768.33 991.473,768.33 991.898,768.33 992.323,768.33 992.749,768.977 993.174,768.977 993.599,768.977 994.024,768.977 994.449,768.977 994.874,768.977 995.299,768.977 995.725,768.977 996.15,768.33 996.575,768.33 997,768.33 997.425,768.33 997.85,768.33 998.275,766.604 998.701,766.604 999.126,766.604 999.551,766.604 999.976,768.33 1000.4,768.33 1000.83,768.33 1001.25,768.33 1001.68,768.33 1002.1,768.33 1002.53,768.33 1002.95,768.33 1003.38,768.977 1003.8,768.977 1004.23,768.977 1004.65,768.977 1005.08,768.977 1005.5,768.977 1005.93,768.977 1006.35,768.33 1006.78,768.33 1007.2,768.33 1007.63,768.33 1008.05,767.467 1008.48,767.467 1008.9,767.467 1009.33,767.467 1009.75,767.467 1010.18,767.467 1010.6,767.467 1011.03,767.467 1011.45,768.33 1011.88,768.977 1012.31,768.33 1012.73,768.977 1013.16,768.977 1013.58,768.977 1014.01,768.977 1014.43,768.977 1014.86,768.977 1015.28,768.977 1015.71,768.977 1016.13,768.977 1016.56,768.33 1016.98,768.33 1017.41,768.33 1017.83,768.33 1018.26,766.604 1018.68,766.604 1019.11,766.604 1019.53,767.467 1019.96,768.33 1020.38,768.33 1020.81,768.33 1021.23,768.33 1021.66,768.33 1022.08,768.33 1022.51,768.33 1022.93,768.33 1023.36,768.33 1023.78,768.977 1024.21,768.977 1024.63,768.977 1025.06,768.977 1025.48,768.977 1025.91,768.977 1026.33,768.977 1026.76,768.977 1027.19,768.977 1027.61,768.977 1028.04,768.977 1028.46,768.977 1028.89,768.977 1029.31,767.467 1029.74,767.467 1030.16,768.977 1030.59,767.467 1031.01,767.467 1031.44,767.467 1031.86,767.467 1032.29,768.33 1032.71,767.467 1033.14,768.33 1033.56,768.33 1033.99,768.977 1034.41,768.33 1034.84,768.33 1035.26,768.33 1035.69,768.977 1036.11,768.977 1036.54,768.977 1036.96,768.977 1037.39,768.977 1037.81,768.977 1038.24,768.977 1038.66,768.977 1039.09,768.977 1039.51,768.977 1039.94,768.977 1040.36,768.977 1040.79,768.977 1041.21,768.977 1041.64,768.977 1042.07,768.977 1042.49,768.977 1042.92,768.977 1043.34,768.977 1043.77,767.467 1044.19,767.467 1044.62,767.467 1045.04,767.467 1045.47,767.467 1045.89,767.467 1046.32,767.467 1046.74,767.467 1047.17,767.467 1047.59,768.33 1048.02,768.33 1048.44,768.977 1048.87,768.977 1049.29,768.977 1049.72,768.977 1050.14,768.977 1050.57,768.977 1050.99,768.977 1051.42,768.977 1051.84,768.977 1052.27,768.977 1052.69,768.977 1053.12,768.977 1053.54,768.977 1053.97,768.33 1054.39,768.33 1054.82,768.33 1055.24,768.33 1055.67,768.33 1056.09,768.33 1056.52,768.33 1056.95,768.33 1057.37,768.977 1057.8,768.977 1058.22,768.977 1058.65,768.977 1059.07,768.977 1059.5,768.977 1059.92,768.33 1060.35,768.33 1060.77,766.604 1061.2,768.33 1061.62,768.33 1062.05,766.604 1062.47,766.604 1062.9,766.604 1063.32,766.604 1063.75,766.604 1064.17,767.467 1064.6,767.467 1065.02,768.977 1065.45,768.977 1065.87,768.977 1066.3,768.33 1066.72,768.33 1067.15,768.977 1067.57,768.33 1068,768.977 1068.42,768.977 1068.85,768.977 1069.27,768.977 1069.7,768.977 1070.12,768.977 1070.55,768.977 1070.97,768.977 1071.4,768.977 1071.83,768.33 1072.25,768.977 1072.68,768.33 1073.1,767.467 1073.53,767.467 1073.95,767.467 1074.38,767.467 1074.8,767.467 1075.23,768.33 1075.65,768.33 1076.08,768.33 1076.5,768.977 1076.93,768.977 1077.35,768.977 1077.78,768.977 1078.2,768.977 1078.63,768.977 1079.05,768.977 1079.48,768.977 1079.9,768.977 1080.33,768.977 1080.75,768.977 1081.18,766.604 1081.6,766.604 1082.03,766.604 1082.45,766.604 1082.88,766.604 1083.3,766.604 1083.73,766.604 1084.15,766.604 1084.58,768.33 1085,768.977 1085.43,768.977 1085.85,768.977 1086.28,768.977 1086.71,768.977 1087.13,768.33 1087.56,768.977 1087.98,768.977 1088.41,768.977 1088.83,768.977 1089.26,768.977 1089.68,768.977 1090.11,768.977 1090.53,768.33 1090.96,768.977 1091.38,768.977 1091.81,768.977 1092.23,768.977 1092.66,768.977 1093.08,768.977 1093.51,768.33 1093.93,768.33 1094.36,768.33 1094.78,768.33 1095.21,768.33 1095.63,768.33 1096.06,768.33 1096.48,768.33 1096.91,768.33 1097.33,767.467 1097.76,767.467 1098.18,768.33 1098.61,768.33 1099.03,768.33 1099.46,768.977 1099.88,768.977 1100.31,768.977 1100.73,768.977 1101.16,768.977 1101.59,768.977 1102.01,768.977 1102.44,768.977 1102.86,768.977 1103.29,768.977 1103.71,768.977 1104.14,768.977 1104.56,768.977 1104.99,768.33 1105.41,768.33 1105.84,768.33 1106.26,766.604 1106.69,765.741 1107.11,766.604 1107.54,768.33 1107.96,768.33 1108.39,765.741 1108.81,765.741 1109.24,768.33 1109.66,768.33 1110.09,768.33 1110.51,768.33 1110.94,768.977 1111.36,768.977 1111.79,768.33 1112.21,768.33 1112.64,768.977 1113.06,768.977 1113.49,768.977 1113.91,768.977 1114.34,768.977 1114.76,768.977 1115.19,768.977 1115.61,768.977 1116.04,768.977 1116.47,768.977 1116.89,768.977 1117.32,767.467 1117.74,767.467 1118.17,766.604 1118.59,766.604 1119.02,766.604 1119.44,766.604 1119.87,766.604 1120.29,767.467 1120.72,767.467 1121.14,767.467 1121.57,767.467 1121.99,768.977 1122.42,768.977 1122.84,768.977 1123.27,768.977 1123.69,768.977 1124.12,768.977 1124.54,768.977 1124.97,768.977 1125.39,767.467 1125.82,767.467 1126.24,768.33 1126.67,766.604 1127.09,768.33 1127.52,768.977 1127.94,768.33 1128.37,768.33 1128.79,768.33 1129.22,768.977 1129.64,768.977 1130.07,768.977 1130.49,768.977 1130.92,768.977 1131.35,768.977 1131.77,768.977 1132.2,768.33 1132.62,768.33 1133.05,768.33 1133.47,767.467 1133.9,767.467 1134.32,767.467 1134.75,767.467 1135.17,767.467 1135.6,768.33 1136.02,767.467 1136.45,768.33 1136.87,768.33 1137.3,768.33 1137.72,768.33 1138.15,768.977 1138.57,768.977 1139,768.977 1139.42,768.977 1139.85,767.467 1140.27,767.467 1140.7,767.467 1141.12,767.467 1141.55,768.33 1141.97,768.977 1142.4,768.977 1142.82,768.977 1143.25,768.977 1143.67,768.977 1144.1,768.977 1144.52,768.977 1144.95,768.977 1145.37,768.977 1145.8,768.977 1146.23,768.977 1146.65,768.977 1147.08,768.977 1147.5,767.467 1147.93,767.467 1148.35,767.467 1148.78,767.467 1149.2,767.467 1149.63,767.467 1150.05,768.33 1150.48,768.977 1150.9,768.977 1151.33,768.977 1151.75,768.977 1152.18,768.977 1152.6,768.977 1153.03,768.977 1153.45,768.977 1153.88,768.977 1154.3,768.977 1154.73,768.977 1155.15,768.977 1155.58,767.467 1156,767.467 1156.43,767.467 1156.85,767.467 1157.28,767.467 1157.7,768.977 1158.13,768.977 1158.55,768.977 1158.98,768.977 1159.4,768.977 1159.83,768.977 1160.25,768.977 1160.68,768.977 1161.11,768.33 1161.53,767.467 1161.96,767.467 1162.38,766.604 1162.81,766.604 1163.23,766.604 1163.66,766.604 1164.08,766.604 1164.51,766.604 1164.93,767.467 1165.36,768.977 1165.78,768.977 1166.21,768.977 1166.63,768.977 1167.06,768.977 1167.48,768.977 1167.91,768.977 1168.33,768.977 1168.76,768.977 1169.18,768.977 1169.61,768.977 1170.03,767.467 1170.46,767.467 1170.88,764.878 1171.31,764.878 1171.73,764.878 1172.16,764.878 1172.58,764.878 1173.01,764.878 1173.43,767.467 1173.86,767.467 1174.28,768.977 1174.71,768.977 1175.13,768.977 1175.56,768.977 1175.99,768.977 1176.41,768.977 1176.84,768.977 1177.26,768.977 1177.69,768.977 1178.11,768.977 1178.54,768.977 1178.96,768.977 1179.39,768.977 1179.81,768.977 1180.24,768.977 1180.66,768.977 1181.09,768.977 1181.51,768.977 1181.94,768.977 1182.36,768.977 1182.79,768.977 1183.21,768.977 1183.64,768.977 1184.06,768.977 1184.49,768.33 1184.91,768.33 1185.34,768.33 1185.76,767.467 1186.19,768.33 1186.61,768.33 1187.04,766.604 1187.46,766.604 1187.89,766.604 1188.31,766.604 1188.74,768.33 1189.16,768.33 1189.59,768.977 1190.01,768.977 1190.44,768.977 1190.87,768.977 1191.29,768.977 1191.72,768.977 1192.14,768.977 1192.57,768.977 1192.99,768.977 1193.42,768.977 1193.84,768.977 1194.27,768.977 1194.69,768.33 1195.12,768.33 1195.54,768.33 1195.97,768.33 1196.39,768.33 1196.82,767.467 1197.24,767.467 1197.67,766.604 1198.09,767.467 1198.52,766.604 1198.94,767.467 1199.37,767.467 1199.79,767.467 1200.22,767.467 1200.64,767.467 1201.07,768.33 1201.49,768.977 1201.92,768.977 1202.34,768.977 1202.77,768.977 1203.19,768.977 1203.62,768.977 1204.04,768.977 1204.47,768.977 1204.89,768.33 1205.32,768.33 1205.75,768.33 1206.17,768.33 1206.6,768.33 1207.02,768.33 1207.45,768.33 1207.87,768.33 1208.3,767.467 1208.72,767.467 1209.15,767.467 1209.57,768.33 1210,768.33 1210.42,768.977 1210.85,768.977 1211.27,768.977 1211.7,768.977 1212.12,768.977 1212.55,768.977 1212.97,768.977 1213.4,768.977 1213.82,768.977 1214.25,768.977 1214.67,768.977 1215.1,768.977 1215.52,768.33 1215.95,768.33 1216.37,768.33 1216.8,768.33 1217.22,768.33 1217.65,768.33 1218.07,768.33 1218.5,768.33 1218.92,768.33 1219.35,768.977 1219.77,768.977 1220.2,768.977 1220.63,768.977 1221.05,768.977 1221.48,768.977 1221.9,768.977 1222.33,768.977 1222.75,768.33 1223.18,768.33 1223.6,768.33 1224.03,767.467 1224.45,766.604 1224.88,766.604 1225.3,766.604 1225.73,766.604 1226.15,767.467 1226.58,767.467 1227,768.33 1227.43,768.33 1227.85,768.977 1228.28,768.977 1228.7,768.977 1229.13,768.977 1229.55,768.977 1229.98,768.977 1230.4,768.977 1230.83,768.977 1231.25,768.977 1231.68,768.977 1232.1,768.977 1232.53,768.33 1232.95,767.467 1233.38,767.467 1233.8,767.467 1234.23,767.467 1234.65,767.467 1235.08,768.977 1235.51,768.33 1235.93,768.977 1236.36,768.977 1236.78,768.33 1237.21,768.977 1237.63,768.977 1238.06,768.977 1238.48,768.977 1238.91,768.977 1239.33,768.977 1239.76,768.977 1240.18,768.977 1240.61,768.977 1241.03,768.977 1241.46,768.977 1241.88,768.977 1242.31,768.977 1242.73,768.977 1243.16,768.977 1243.58,768.977 1244.01,768.977 1244.43,768.977 1244.86,768.977 1245.28,768.977 1245.71,768.977 1246.13,768.33 1246.56,767.467 1246.98,767.467 1247.41,767.467 1247.83,767.467 1248.26,767.467 1248.68,768.977 1249.11,768.977 1249.53,768.977 1249.96,768.977 1250.39,768.977 1250.81,768.977 1251.24,768.977 1251.66,768.977 1252.09,768.977 1252.51,768.977 1252.94,768.977 1253.36,768.977 1253.79,768.977 1254.21,768.977 1254.64,768.977 1255.06,768.33 1255.49,767.467 1255.91,767.467 1256.34,768.33 1256.76,768.33 1257.19,768.33 1257.61,768.33 1258.04,768.33 1258.46,768.33 1258.89,768.33 1259.31,768.33 1259.74,768.33 1260.16,768.33 1260.59,768.33 1261.01,768.33 1261.44,768.33 1261.86,768.33 1262.29,768.33 1262.71,768.977 1263.14,768.33 1263.56,768.33 1263.99,768.33 1264.41,768.33 1264.84,768.33 1265.27,768.33 1265.69,768.977 1266.12,768.977 1266.54,768.977 1266.97,768.977 1267.39,768.977 1267.82,768.977 1268.24,768.977 1268.67,768.977 1269.09,768.977 1269.52,768.977 1269.94,768.977 1270.37,768.33 1270.79,768.33 1271.22,768.977 1271.64,768.977 1272.07,768.977 1272.49,768.33 1272.92,768.977 1273.34,768.977 1273.77,768.33 1274.19,768.977 1274.62,768.977 1275.04,768.977 1275.47,768.977 1275.89,768.977 1276.32,768.977 1276.74,768.977 1277.17,768.977 1277.59,767.467 1278.02,767.467 1278.44,768.33 1278.87,767.467 1279.29,766.604 1279.72,766.604 1280.15,767.467 1280.57,767.467 1281,768.33 1281.42,768.33 1281.85,768.33 1282.27,768.33 1282.7,768.33 1283.12,768.33 1283.55,768.33 1283.97,768.33 1284.4,768.33 1284.82,768.977 1285.25,768.977 1285.67,768.977 1286.1,768.977 1286.52,768.977 1286.95,768.977 1287.37,768.977 1287.8,768.977 1288.22,768.977 1288.65,768.977 1289.07,768.977 1289.5,768.977 1289.92,768.977 1290.35,768.977 1290.77,768.977 1291.2,768.977 1291.62,768.977 1292.05,768.977 1292.47,768.977 1292.9,767.467 1293.32,767.467 1293.75,767.467 1294.17,767.467 1294.6,767.467 1295.03,767.467 1295.45,768.33 1295.88,768.33 1296.3,768.33 1296.73,768.33 1297.15,768.33 1297.58,768.977 1298,768.977 1298.43,768.33 1298.85,768.33 1299.28,768.33 1299.7,768.977 1300.13,768.33 1300.55,768.977 1300.98,768.977 1301.4,768.977 1301.83,768.977 1302.25,768.33 1302.68,768.977 1303.1,768.977 1303.53,768.977 1303.95,768.33 1304.38,768.33 1304.8,768.977 1305.23,768.977 1305.65,768.977 1306.08,768.977 1306.5,768.977 1306.93,768.977 1307.35,768.977 1307.78,768.977 1308.2,768.977 1308.63,768.977 1309.05,768.977 1309.48,768.33 1309.91,768.33 1310.33,768.33 1310.76,768.33 1311.18,768.33 1311.61,768.33 1312.03,768.33 1312.46,768.33 1312.88,768.33 1313.31,768.33 1313.73,768.33 1314.16,768.33 1314.58,768.33 1315.01,768.33 1315.43,768.33 1315.86,768.977 1316.28,768.33 1316.71,767.467 1317.13,768.33 1317.56,768.33 1317.98,767.467 1318.41,768.33 1318.83,768.33 1319.26,768.33 1319.68,768.977 1320.11,768.33 1320.53,768.33 1320.96,768.33 1321.38,768.977 1321.81,768.977 1322.23,768.977 1322.66,768.977 1323.08,768.977 1323.51,768.977 1323.93,768.977 1324.36,768.977 1324.79,768.977 1325.21,768.977 1325.64,768.977 1326.06,768.977 1326.49,768.977 1326.91,768.33 1327.34,768.33 1327.76,768.33 1328.19,768.33 1328.61,768.33 1329.04,768.33 1329.46,768.33 1329.89,768.33 1330.31,768.33 1330.74,768.33 1331.16,768.33 1331.59,768.33 1332.01,768.977 1332.44,768.33 1332.86,768.33 1333.29,768.33 1333.71,768.33 1334.14,768.977 1334.56,768.977 1334.99,768.33 1335.41,768.33 1335.84,768.977 1336.26,768.977 1336.69,768.977 1337.11,768.977 1337.54,768.977 1337.96,768.977 1338.39,768.977 1338.81,768.977 1339.24,768.977 1339.67,768.977 1340.09,768.977 1340.52,768.977 1340.94,768.977 1341.37,768.977 1341.79,768.977 1342.22,768.33 1342.64,767.467 1343.07,766.604 1343.49,766.604 1343.92,766.604 1344.34,766.604 1344.77,766.604 1345.19,766.604 1345.62,766.604 1346.04,766.604 1346.47,766.604 1346.89,766.604 1347.32,766.604 1347.74,768.33 1348.17,768.33 1348.59,768.33 1349.02,768.977 1349.44,768.977 1349.87,768.977 1350.29,768.977 1350.72,768.977 1351.14,768.977 1351.57,768.977 1351.99,768.977 1352.42,768.977 1352.84,768.977 1353.27,768.977 1353.69,768.977 1354.12,768.977 1354.55,768.977 1354.97,768.977 1355.4,768.977 1355.82,768.977 1356.25,768.977 1356.67,768.977 1357.1,768.977 1357.52,768.977 1357.95,768.977 1358.37,768.977 1358.8,768.977 1359.22,768.977 1359.65,768.977 1360.07,768.977 1360.5,768.977 1360.92,768.977 1361.35,768.977 1361.77,768.977 1362.2,768.977 1362.62,768.977 1363.05,768.977 1363.47,768.977 1363.9,768.977 1364.32,768.977 1364.75,768.977 1365.17,768.977 1365.6,768.977 1366.02,768.977 1366.45,768.977 1366.87,768.977 1367.3,768.977 1367.72,768.977 1368.15,768.977 1368.57,768.977 1369,768.977 1369.43,768.977 1369.85,768.977 1370.28,768.977 1370.7,768.977 1371.13,768.977 1371.55,768.977 1371.98,768.977 1372.4,768.977 1372.83,768.977 1373.25,768.977 1373.68,768.977 1374.1,768.977 1374.53,768.977 1374.95,768.977 1375.38,768.977 1375.8,768.977 1376.23,768.977 1376.65,768.977 1377.08,768.977 1377.5,768.977 1377.93,768.977 1378.35,768.977 1378.78,768.977 1379.2,768.977 1379.63,768.977 1380.05,768.977 1380.48,768.977 1380.9,768.977 1381.33,768.977 1381.75,768.977 1382.18,768.977 1382.6,768.977 1383.03,768.977 1383.45,768.977 1383.88,768.977 1384.31,768.977 1384.73,768.977 1385.16,768.977 1385.58,768.977 1386.01,768.977 1386.43,768.977 1386.86,768.977 1387.28,768.977 1387.71,768.977 1388.13,768.977 1388.56,768.977 1388.98,768.977 1389.41,768.977 1389.83,768.977 1390.26,768.977 1390.68,768.977 1391.11,768.977 1391.53,768.977 1391.96,768.977 1392.38,768.977 1392.81,768.977 1393.23,768.977 1393.66,768.977 1394.08,768.977 1394.51,768.977 1394.93,768.977 1395.36,768.977 1395.78,768.977 1396.21,768.977 1396.63,768.977 1397.06,768.977 1397.48,768.977 1397.91,768.977 1398.33,768.977 1398.76,768.977 1399.19,768.977 1399.61,768.977 1400.04,768.977 1400.46,768.977 1400.89,768.977 1401.31,768.977 1401.74,768.977 1402.16,768.977 1402.59,768.977 1403.01,768.977 1403.44,768.977 1403.86,768.977 1404.29,768.977 1404.71,768.977 1405.14,768.977 1405.56,768.977 1405.99,768.977 1406.41,768.977 1406.84,768.977 1407.26,768.977 1407.69,768.977 1408.11,768.977 1408.54,768.977 1408.96,768.977 1409.39,768.977 1409.81,768.977 1410.24,768.977 1410.66,768.977 1411.09,768.977 1411.51,768.977 1411.94,768.977 1412.36,768.977 1412.79,768.977 1413.21,768.977 1413.64,768.977 1414.07,768.977 1414.49,768.977 1414.92,768.977 1415.34,768.977 1415.77,768.977 1416.19,768.977 1416.62,768.977 1417.04,768.977 1417.47,768.977 1417.89,768.977 1418.32,768.977 1418.74,768.977 1419.17,768.977 1419.59,768.977 1420.02,768.977 1420.44,768.977 1420.87,768.977 1421.29,768.977 1421.72,768.977 1422.14,768.977 1422.57,768.977 1422.99,768.977 1423.42,768.977 1423.84,768.977 1424.27,768.977 1424.69,768.977 1425.12,768.977 1425.54,768.977 1425.97,768.977 1426.39,768.977 1426.82,768.977 1427.24,768.977 1427.67,768.977 1428.09,768.977 1428.52,768.977 1428.95,768.977 1429.37,768.977 1429.8,768.977 1430.22,768.977 1430.65,768.977 1431.07,768.977 1431.5,768.977 1431.92,768.977 1432.35,768.977 1432.77,768.977 1433.2,768.977 1433.62,768.977 1434.05,768.977 1434.47,768.977 1434.9,768.977 1435.32,768.977 1435.75,768.977 1436.17,768.977 1436.6,768.977 1437.02,768.977 1437.45,768.977 1437.87,768.977 1438.3,768.977 1438.72,768.977 1439.15,768.977 1439.57,768.977 1440,768.977 1440.42,768.977 1440.85,768.977 1441.27,768.977 1441.7,768.977 1442.12,768.977 1442.55,768.977 1442.97,768.977 1443.4,768.977 1443.83,768.977 1444.25,768.977 1444.68,768.977 1445.1,768.977 1445.53,768.977 1445.95,768.977 1446.38,768.977 1446.8,768.977 1447.23,768.977 1447.65,768.977 1448.08,768.977 1448.5,768.977 1448.93,768.977 1449.35,768.977 1449.78,768.977 1450.2,768.977 1450.63,768.977 1451.05,768.977 1451.48,768.977 1451.9,768.977 1452.33,768.977 1452.75,768.977 1453.18,768.977 1453.6,768.977 1454.03,768.977 1454.45,768.977 1454.88,768.977 1455.3,768.977 1455.73,768.977 1456.15,768.977 1456.58,768.977 1457,768.977 1457.43,768.977 1457.85,768.977 1458.28,768.977 1458.71,768.977 1459.13,768.977 1459.56,768.977 1459.98,768.977 1460.41,768.977 1460.83,768.977 1461.26,768.977 1461.68,768.977 1462.11,768.977 1462.53,768.977 1462.96,768.977 1463.38,768.977 1463.81,768.977 1464.23,768.977 1464.66,768.977 1465.08,768.977 1465.51,768.977 1465.93,768.977 1466.36,768.977 1466.78,768.977 1467.21,768.977 1467.63,768.977 1468.06,768.977 1468.48,768.977 1468.91,768.977 1469.33,768.977 1469.76,768.977 1470.18,768.977 1470.61,768.977 1471.03,768.977 1471.46,768.977 1471.88,768.977 1472.31,768.977 1472.73,768.977 1473.16,768.977 1473.59,768.977 1474.01,768.977 1474.44,768.977 1474.86,768.977 1475.29,768.977 1475.71,768.977 1476.14,768.977 1476.56,768.977 1476.99,768.977 1477.41,768.977 1477.84,768.977 1478.26,768.977 1478.69,768.977 1479.11,768.977 1479.54,768.977 1479.96,768.977 1480.39,768.977 1480.81,768.977 1481.24,768.977 1481.66,768.977 1482.09,768.762 1482.51,768.762 1482.94,768.762 1483.36,768.762 1483.79,768.977 1484.21,768.977 1484.64,768.977 1485.06,768.977 1485.49,768.977 1485.91,768.977 1486.34,768.977 1486.76,768.977 1487.19,768.977 1487.61,768.977 1488.04,768.977 1488.47,768.977 1488.89,768.977 1489.32,768.977 1489.74,768.977 1490.17,768.977 1490.59,768.977 1491.02,768.977 1491.44,768.977 1491.87,768.977 1492.29,768.977 1492.72,768.977 1493.14,768.977 1493.57,768.977 1493.99,768.977 1494.42,768.762 1494.84,768.977 1495.27,768.977 1495.69,768.977 1496.12,768.977 1496.54,768.762 1496.97,768.762 1497.39,768.977 1497.82,768.977 1498.24,768.977 1498.67,768.977 1499.09,768.977 1499.52,768.977 1499.94,768.977 1500.37,768.977 1500.79,768.977 1501.22,768.977 1501.64,768.977 1502.07,768.977 1502.49,768.977 1502.92,768.977 1503.35,768.977 1503.77,768.977 1504.2,768.977 1504.62,768.977 1505.05,768.977 1505.47,768.977 1505.9,768.977 1506.32,768.977 1506.75,768.977 1507.17,768.977 1507.6,768.977 1508.02,768.977 1508.45,768.977 1508.87,768.977 1509.3,768.977 1509.72,768.977 1510.15,768.977 1510.57,768.977 1511,768.977 1511.42,768.977 1511.85,768.977 1512.27,768.977 1512.7,768.977 1513.12,768.762 1513.55,768.762 1513.97,768.762 1514.4,768.762 1514.82,768.762 1515.25,768.977 1515.67,768.977 1516.1,768.977 1516.52,768.977 1516.95,768.977 1517.37,768.977 1517.8,768.977 1518.23,768.977 1518.65,768.977 1519.08,768.977 1519.5,768.762 1519.93,768.762 1520.35,768.762 1520.78,768.762 1521.2,768.762 1521.63,768.762 1522.05,768.977 1522.48,768.977 1522.9,768.977 1523.33,768.977 1523.75,768.977 1524.18,768.977 1524.6,768.977 1525.03,768.977 1525.45,768.977 1525.88,768.977 1526.3,768.762 1526.73,768.762 1527.15,768.762 1527.58,768.762 1528,768.762 1528.43,768.762 1528.85,768.762 1529.28,768.762 1529.7,768.977 1530.13,768.977 1530.55,768.977 1530.98,768.977 1531.4,768.977 1531.83,768.977 1532.25,768.977 1532.68,768.977 1533.11,768.977 1533.53,768.977 1533.96,768.977 1534.38,768.977 1534.81,768.977 1535.23,768.977 1535.66,768.977 1536.08,768.977 1536.51,768.977 1536.93,768.977 1537.36,768.977 1537.78,768.977 1538.21,768.977 1538.63,768.977 1539.06,768.33 1539.48,768.33 1539.91,768.33 1540.33,768.33 1540.76,768.33 1541.18,768.33 1541.61,768.114 1542.03,768.33 1542.46,768.33 1542.88,768.33 1543.31,768.762 1543.73,768.977 1544.16,768.977 1544.58,768.977 1545.01,768.977 1545.43,768.977 1545.86,768.977 1546.28,768.977 1546.71,768.977 1547.13,768.977 1547.56,768.977 1547.99,768.33 1548.41,768.33 1548.84,768.33 1549.26,768.33 1549.69,768.33 1550.11,768.33 1550.54,768.33 1550.96,768.33 1551.39,768.33 1551.81,768.977 1552.24,768.977 1552.66,768.977 1553.09,768.977 1553.51,768.977 1553.94,768.977 1554.36,768.977 1554.79,768.977 1555.21,768.977 1555.64,768.977 1556.06,768.977 1556.49,768.977 1556.91,768.977 1557.34,768.762 1557.76,768.977 1558.19,768.977 1558.61,768.977 1559.04,768.977 1559.46,768.762 1559.89,768.762 1560.31,768.762 1560.74,768.762 1561.16,768.762 1561.59,768.762 1562.01,768.762 1562.44,768.33 1562.87,768.33 1563.29,768.33 1563.72,768.33 1564.14,768.977 1564.57,768.33 1564.99,768.33 1565.42,768.33 1565.84,768.762 1566.27,768.977 1566.69,768.977 1567.12,768.977 1567.54,768.977 1567.97,768.977 1568.39,768.977 1568.82,768.977 1569.24,768.977 1569.67,768.977 1570.09,768.977 1570.52,768.977 1570.94,768.762 1571.37,768.33 1571.79,768.33 1572.22,768.33 1572.64,768.33 1573.07,768.33 1573.49,768.33 1573.92,768.33 1574.34,768.762 1574.77,768.977 1575.19,768.977 1575.62,768.977 1576.04,768.977 1576.47,768.977 1576.89,768.977 1577.32,768.977 1577.75,768.977 1578.17,768.977 1578.6,768.977 1579.02,768.977 1579.45,768.977 1579.87,768.977 1580.3,768.977 1580.72,768.977 1581.15,768.977 1581.57,768.977 1582,768.977 1582.42,768.977 1582.85,768.977 1583.27,768.762 1583.7,768.762 1584.12,768.762 1584.55,768.762 1584.97,768.762 1585.4,768.33 1585.82,768.762 1586.25,768.114 1586.67,768.114 1587.1,768.762 1587.52,768.762 1587.95,768.977 1588.37,768.762 1588.8,768.977 1589.22,768.762 1589.65,768.977 1590.07,768.977 1590.5,768.977 1590.92,768.977 1591.35,768.977 1591.77,768.977 1592.2,768.977 1592.63,768.977 1593.05,768.977 1593.48,768.977 1593.9,768.977 1594.33,768.977 1594.75,768.977 1595.18,768.762 1595.6,768.762 1596.03,768.762 1596.45,768.33 1596.88,768.33 1597.3,768.33 1597.73,768.33 1598.15,768.33 1598.58,768.762 1599,768.762 1599.43,768.762 1599.85,768.762 1600.28,768.762 1600.7,768.762 1601.13,768.762 1601.55,768.762 1601.98,768.762 1602.4,768.977 1602.83,768.977 1603.25,768.977 1603.68,768.977 1604.1,768.977 1604.53,768.977 1604.95,768.977 1605.38,768.977 1605.8,768.977 1606.23,768.977 1606.65,768.977 1607.08,768.977 1607.51,768.762 1607.93,768.33 1608.36,768.114 1608.78,768.114 1609.21,768.114 1609.63,768.33 1610.06,768.33 1610.48,768.33 1610.91,768.762 1611.33,768.977 1611.76,768.977 1612.18,768.977 1612.61,768.977 1613.03,768.977 1613.46,768.977 1613.88,768.977 1614.31,768.977 1614.73,768.977 1615.16,768.977 1615.58,768.977 1616.01,768.977 1616.43,768.977 1616.86,768.762 1617.28,768.762 1617.71,768.33 1618.13,768.33 1618.56,768.33 1618.98,768.33 1619.41,768.33 1619.83,768.33 1620.26,768.33 1620.68,768.33 1621.11,768.33 1621.53,768.33 1621.96,768.33 1622.39,768.762 1622.81,768.762 1623.24,768.762 1623.66,768.762 1624.09,768.977 1624.51,768.977 1624.94,768.977 1625.36,768.977 1625.79,768.977 1626.21,768.977 1626.64,768.977 1627.06,768.977 1627.49,768.977 1627.91,768.977 1628.34,768.762 1628.76,768.762 1629.19,768.33 1629.61,768.33 1630.04,768.33 1630.46,768.33 1630.89,768.33 1631.31,768.762 1631.74,768.762 1632.16,768.762 1632.59,768.977 1633.01,768.977 1633.44,768.977 1633.86,768.977 1634.29,768.977 1634.71,768.977 1635.14,768.977 1635.56,768.977 1635.99,768.977 1636.41,768.977 1636.84,768.977 1637.27,768.977 1637.69,768.977 1638.12,768.977 1638.54,768.977 1638.97,768.33 1639.39,768.977 1639.82,768.33 1640.24,768.114 1640.67,768.114 1641.09,768.114 1641.52,768.114 1641.94,768.114 1642.37,768.33 1642.79,768.977 1643.22,768.977 1643.64,768.977 1644.07,768.977 1644.49,768.977 1644.92,768.977 1645.34,768.977 1645.77,768.977 1646.19,768.977 1646.62,768.977 1647.04,768.977 1647.47,768.977 1647.89,768.977 1648.32,768.977 1648.74,768.977 1649.17,768.977 1649.59,768.977 1650.02,768.762 1650.44,768.762 1650.87,768.33 1651.29,768.33 1651.72,768.33 1652.15,768.33 1652.57,768.33 1653,768.33 1653.42,768.33 1653.85,768.33 1654.27,768.33 1654.7,768.33 1655.12,768.33 1655.55,768.762 1655.97,768.977 1656.4,768.977 1656.82,768.977 1657.25,768.977 1657.67,768.977 1658.1,768.977 1658.52,768.977 1658.95,768.762 1659.37,768.762 1659.8,768.762 1660.22,768.762 1660.65,768.762 1661.07,768.762 1661.5,768.762 1661.92,768.762 1662.35,768.762 1662.77,768.762 1663.2,768.762 1663.62,768.977 1664.05,768.977 1664.47,768.977 1664.9,768.977 1665.32,768.977 1665.75,768.977 1666.17,768.977 1666.6,768.977 1667.03,768.977 1667.45,768.977 1667.88,768.762 1668.3,768.33 1668.73,768.33 1669.15,768.33 1669.58,768.33 1670,768.33 1670.43,768.33 1670.85,768.762 1671.28,768.762 1671.7,768.977 1672.13,768.977 1672.55,768.977 1672.98,768.977 1673.4,768.977 1673.83,768.977 1674.25,768.977 1674.68,768.977 1675.1,768.977 1675.53,768.977 1675.95,768.977 1676.38,768.977 1676.8,768.33 1677.23,768.33 1677.65,768.977 1678.08,768.977 1678.5,768.977 1678.93,768.977 1679.35,768.977 1679.78,768.33 1680.2,768.977 1680.63,768.977 1681.05,768.762 1681.48,768.977 1681.91,768.977 1682.33,768.977 1682.76,768.762 1683.18,768.977 1683.61,768.762 1684.03,768.762 1684.46,768.762 1684.88,768.762 1685.31,768.977 1685.73,768.977 1686.16,768.33 1686.58,768.977 1687.01,768.977 1687.43,768.977 1687.86,768.977 1688.28,768.977 1688.71,768.977 1689.13,768.977 1689.56,768.762 1689.98,768.762 1690.41,768.762 1690.83,768.977 1691.26,768.977 1691.68,768.762 1692.11,768.762 1692.53,768.762 1692.96,768.762 1693.38,768.762 1693.81,768.762 1694.23,768.762 " />
</g>

<g fill="#ff0000" fill-opacity="1" stroke="#ff0000" stroke-opacity="1" stroke-width="1" stroke-linecap="square" stroke-linejoin="bevel" transform="matrix(0.757783,0,0,0.757801,798.021,536.517)"
font-family="Helvetica" font-size="13" font-weight="700" font-style="normal" 
>
<text fill="#ff0000" fill-opacity="1" stroke="none" xml:space="preserve" x="0" y="0" font-family="Helvetica" font-size="13" font-weight="700" font-style="normal" 
 >Average V = 0.12 LUX</text>
</g>

<g fill="#ff0000" fill-opacity="0.701961" stroke="#ff0000" stroke-opacity="0.701961" stroke-dasharray="10,6" stroke-dashoffset="0" stroke-width="1.97917" stroke-linecap="butt" stroke-linejoin="round" transform="matrix(0.757783,0,0,0.757801,-158.197,-32.9642)"
font-family="Helvetica" font-size="13" font-weight="700" font-style="normal" 
>
<polyline fill="none" vector-effect="none" points="250,766.409 1738,766.409 " />
</g>

<g fill="#ffffff" fill-opacity="1" stroke="none" transform="matrix(7.57783e-05,0,0,7.57801e-05,-158.197,-32.9642)"
font-family="Helvetica" font-size="13" font-weight="700" font-style="normal" 
>
<path vector-effect="none" fill-rule="evenodd" d="M1.523e+07,790000 L1.523e+07,1.14e+06 L1.705e+07,1.14e+06 L1.705e+07,790000 L1.523e+07,790000"/>
</g>

<g fill="#ff00ff" fill-opacity="1" stroke="#ff00ff" stroke-opacity="1" stroke-width="1.97917" stroke-linecap="butt" stroke-linejoin="round" transform="matrix(0.757783,0,0,0.757801,-158.197,-32.9642)"
font-family="Helvetica" font-size="13" font-weight="700" font-style="normal" 
>
<polyline fill="none" vector-effect="none" points="1527,89.098 1566.61,89.098 " />
</g>

<g fill="#ff0000" fill-opacity="0.701961" stroke="#ff0000" stroke-opacity="0.701961" stroke-dasharray="10,6" stroke-dashoffset="0" stroke-width="1.97917" stroke-linecap="butt" stroke-linejoin="round" transform="matrix(0.757783,0,0,0.757801,-158.197,-32.9642)"
font-family="Helvetica" font-size="13" font-weight="700" font-style="normal" 
>
<polyline fill="none" vector-effect="none" points="1527,104.811 1566.61,104.811 " />
</g>

<g fill="#212121" fill-opacity="1" stroke="#212121" stroke-opacity="1" stroke-width="1" stroke-linecap="square" stroke-linejoin="bevel" transform="matrix(0.757783,0,0,0.757801,1031.52,35.9957)"
font-family="Helvetica" font-size="11" font-weight="400" font-style="normal" 
>
<text fill="#212121" fill-opacity="1" stroke="none" xml:space="preserve" x="0" y="0" font-family="Helvetica" font-size="11" font-weight="400" font-style="normal" 
 >Instantaneous Error (V</text>
</g>

<g fill="#212121" fill-opacity="1" stroke="#212121" stroke-opacity="1" stroke-width="1" stroke-linecap="square" stroke-linejoin="bevel" transform="matrix(0.757783,0,0,0.757801,1115.64,39.7847)"
font-family="Helvetica" font-size="9" font-weight="400" font-style="normal" 
>
<text fill="#212121" fill-opacity="1" stroke="none" xml:space="preserve" x="0" y="0" font-family="Helvetica" font-size="9" font-weight="400" font-style="normal" 
 >k</text>
</g>

<g fill="#212121" fill-opacity="1" stroke="#212121" stroke-opacity="1" stroke-width="1" stroke-linecap="square" stroke-linejoin="bevel" transform="matrix(0.757783,0,0,0.757801,1119.42,35.9957)"
font-family="Helvetica" font-size="11" font-weight="400" font-style="normal" 
>
<text fill="#212121" fill-opacity="1" stroke="none" xml:space="preserve" x="0" y="0" font-family="Helvetica" font-size="11" font-weight="400" font-style="normal" 
 >)</text>
</g>

<g fill="#212121" fill-opacity="1" stroke="#212121" stroke-opacity="1" stroke-width="1" stroke-linecap="square" stroke-linejoin="bevel" transform="matrix(0.757783,0,0,0.757801,1031.23,49.1142)"
font-family="Helvetica" font-size="11" font-weight="400" font-style="normal" 
>
<text fill="#212121" fill-opacity="1" stroke="none" xml:space="preserve" x="0" y="0" font-family="Helvetica" font-size="11" font-weight="400" font-style="normal" 
 >Mean Visibility Error (V)</text>
</g>

<g fill="none" stroke="#212121" stroke-opacity="1" stroke-width="0.659722" stroke-linecap="butt" stroke-linejoin="miter" stroke-miterlimit="5" transform="matrix(0.757783,0,0,0.757801,-158.197,-32.9642)"
font-family="Helvetica" font-size="11" font-weight="400" font-style="normal" 
>
<path vector-effect="none" fill-rule="evenodd" d="M1523,114 L1523,79 L1705,79 L1705,114 L1523,114"/>
</g>
</g>
</svg>
