<?xml version="1.0" encoding="UTF-8" standalone="no"?>
<svg width="409.928mm" height="210.256mm"
 viewBox="0 0 1162 596"
 xmlns="http://www.w3.org/2000/svg" xmlns:xlink="http://www.w3.org/1999/xlink"  version="1.2" baseProfile="tiny">
<title>Qt SVG Document</title>
<desc>MATLAB, The MathWorks, Inc. Version 25.2.0.3123386 R2025b Update 3</desc>
<defs>
</defs>
<g fill="none" stroke="black" stroke-width="1" fill-rule="evenodd" stroke-linecap="square" stroke-linejoin="bevel" >

<g fill="#ffffff" fill-opacity="1" stroke="none" transform="matrix(0.757783,0,0,0.7578,-158.197,-32.9641)"
font-family="Sans Serif" font-size="9" font-weight="400" font-style="normal" 
>
<path vector-effect="none" fill-rule="evenodd" d="M207,42 L1741,42 L1741,830 L207,830 L207,42"/>
</g>

<g fill="#ffffff" fill-opacity="1" stroke="none" transform="matrix(7.57783e-05,0,0,7.578e-05,-158.197,-32.9641)"
font-family="Sans Serif" font-size="9" font-weight="400" font-style="normal" 
>
<path vector-effect="none" fill-rule="evenodd" d="M2.5e+06,660000 L2.5e+06,7.89e+06 L1.738e+07,7.89e+06 L1.738e+07,660000 L2.5e+06,660000"/>
</g>

<g fill="#212121" fill-opacity="0.14902" stroke="#212121" stroke-opacity="0.14902" stroke-width="0.659722" stroke-linecap="butt" stroke-linejoin="round" transform="matrix(0.757783,0,0,0.7578,-158.197,-32.9641)"
font-family="Sans Serif" font-size="9" font-weight="400" font-style="normal" 
>
<polyline fill="none" vector-effect="none" points="452.571,66 452.571,789 " />
<polyline fill="none" vector-effect="none" points="665.143,66 665.143,789 " />
<polyline fill="none" vector-effect="none" points="877.714,66 877.714,789 " />
<polyline fill="none" vector-effect="none" points="1090.29,66 1090.29,789 " />
<polyline fill="none" vector-effect="none" points="1302.86,66 1302.86,789 " />
<polyline fill="none" vector-effect="none" points="1515.43,66 1515.43,789 " />
<polyline fill="none" vector-effect="none" points="1728,66 1728,789 " />
<polyline fill="none" vector-effect="none" points="250,769.979 1738,769.979 " />
<polyline fill="none" vector-effect="none" points="250,662.026 1738,662.026 " />
<polyline fill="none" vector-effect="none" points="250,554.074 1738,554.074 " />
<polyline fill="none" vector-effect="none" points="250,446.122 1738,446.122 " />
<polyline fill="none" vector-effect="none" points="250,338.169 1738,338.169 " />
<polyline fill="none" vector-effect="none" points="250,230.217 1738,230.217 " />
<polyline fill="none" vector-effect="none" points="250,122.264 1738,122.264 " />
</g>

<g fill="#212121" fill-opacity="1" stroke="#212121" stroke-opacity="1" stroke-width="1" stroke-linecap="square" stroke-linejoin="bevel" transform="matrix(0.757783,0,0,0.7578,573.442,591.916)"
font-family="Helvetica" font-size="15" font-weight="700" font-style="normal" 
>
<text fill="#212121" fill-opacity="1" stroke="none" xml:space="preserve" x="0" y="0" font-family="Helvetica" font-size="15" font-weight="700" font-style="normal" 
 >Time [s]</text>
</g>

<g fill="#212121" fill-opacity="1" stroke="#212121" stroke-opacity="1" stroke-width="0.659722" stroke-linecap="square" stroke-linejoin="round" transform="matrix(0.757783,0,0,0.7578,-158.197,-32.9641)"
font-family="Helvetica" font-size="15" font-weight="700" font-style="normal" 
>
<polyline fill="none" vector-effect="none" points="250,789 1738,789 " />
<polyline fill="none" vector-effect="none" points="250,66 1738,66 " />
<polyline fill="none" vector-effect="none" points="452.571,789 452.571,774.12 " />
<polyline fill="none" vector-effect="none" points="452.571,80.88 452.571,66 " />
<polyline fill="none" vector-effect="none" points="665.143,789 665.143,774.12 " />
<polyline fill="none" vector-effect="none" points="665.143,80.88 665.143,66 " />
<polyline fill="none" vector-effect="none" points="877.714,789 877.714,774.12 " />
<polyline fill="none" vector-effect="none" points="877.714,80.88 877.714,66 " />
<polyline fill="none" vector-effect="none" points="1090.29,789 1090.29,774.12 " />
<polyline fill="none" vector-effect="none" points="1090.29,80.88 1090.29,66 " />
<polyline fill="none" vector-effect="none" points="1302.86,789 1302.86,774.12 " />
<polyline fill="none" vector-effect="none" points="1302.86,80.88 1302.86,66 " />
<polyline fill="none" vector-effect="none" points="1515.43,789 1515.43,774.12 " />
<polyline fill="none" vector-effect="none" points="1515.43,80.88 1515.43,66 " />
<polyline fill="none" vector-effect="none" points="1728,789 1728,774.12 " />
<polyline fill="none" vector-effect="none" points="1728,80.88 1728,66 " />
</g>

<g fill="#212121" fill-opacity="1" stroke="#212121" stroke-opacity="1" stroke-width="1" stroke-linecap="square" stroke-linejoin="bevel" transform="matrix(0.757783,0,0,0.7578,182.101,578.034)"
font-family="Helvetica" font-size="13" font-weight="400" font-style="normal" 
>
<text fill="#212121" fill-opacity="1" stroke="none" xml:space="preserve" x="0" y="0" font-family="Helvetica" font-size="13" font-weight="400" font-style="normal" 
 >5</text>
</g>

<g fill="#212121" fill-opacity="1" stroke="#212121" stroke-opacity="1" stroke-width="1" stroke-linecap="square" stroke-linejoin="bevel" transform="matrix(0.757783,0,0,0.7578,340.532,578.034)"
font-family="Helvetica" font-size="13" font-weight="400" font-style="normal" 
>
<text fill="#212121" fill-opacity="1" stroke="none" xml:space="preserve" x="0" y="0" font-family="Helvetica" font-size="13" font-weight="400" font-style="normal" 
 >10</text>
</g>

<g fill="#212121" fill-opacity="1" stroke="#212121" stroke-opacity="1" stroke-width="1" stroke-linecap="square" stroke-linejoin="bevel" transform="matrix(0.757783,0,0,0.7578,501.615,578.034)"
font-family="Helvetica" font-size="13" font-weight="400" font-style="normal" 
>
<text fill="#212121" fill-opacity="1" stroke="none" xml:space="preserve" x="0" y="0" font-family="Helvetica" font-size="13" font-weight="400" font-style="normal" 
 >15</text>
</g>

<g fill="#212121" fill-opacity="1" stroke="#212121" stroke-opacity="1" stroke-width="1" stroke-linecap="square" stroke-linejoin="bevel" transform="matrix(0.757783,0,0,0.7578,662.698,578.034)"
font-family="Helvetica" font-size="13" font-weight="400" font-style="normal" 
>
<text fill="#212121" fill-opacity="1" stroke="none" xml:space="preserve" x="0" y="0" font-family="Helvetica" font-size="13" font-weight="400" font-style="normal" 
 >20</text>
</g>

<g fill="#212121" fill-opacity="1" stroke="#212121" stroke-opacity="1" stroke-width="1" stroke-linecap="square" stroke-linejoin="bevel" transform="matrix(0.757783,0,0,0.7578,823.781,578.034)"
font-family="Helvetica" font-size="13" font-weight="400" font-style="normal" 
>
<text fill="#212121" fill-opacity="1" stroke="none" xml:space="preserve" x="0" y="0" font-family="Helvetica" font-size="13" font-weight="400" font-style="normal" 
 >25</text>
</g>

<g fill="#212121" fill-opacity="1" stroke="#212121" stroke-opacity="1" stroke-width="1" stroke-linecap="square" stroke-linejoin="bevel" transform="matrix(0.757783,0,0,0.7578,984.864,578.034)"
font-family="Helvetica" font-size="13" font-weight="400" font-style="normal" 
>
<text fill="#212121" fill-opacity="1" stroke="none" xml:space="preserve" x="0" y="0" font-family="Helvetica" font-size="13" font-weight="400" font-style="normal" 
 >30</text>
</g>

<g fill="#212121" fill-opacity="1" stroke="#212121" stroke-opacity="1" stroke-width="1" stroke-linecap="square" stroke-linejoin="bevel" transform="matrix(0.757783,0,0,0.7578,1145.95,578.034)"
font-family="Helvetica" font-size="13" font-weight="400" font-style="normal" 
>
<text fill="#212121" fill-opacity="1" stroke="none" xml:space="preserve" x="0" y="0" font-family="Helvetica" font-size="13" font-weight="400" font-style="normal" 
 >35</text>
</g>

<g fill="#212121" fill-opacity="1" stroke="#212121" stroke-opacity="1" stroke-width="1" stroke-linecap="square" stroke-linejoin="bevel" transform="matrix(0,-0.7578,0.757783,0,9.8514,346.315)"
font-family="Helvetica" font-size="15" font-weight="700" font-style="normal" 
>
<text fill="#212121" fill-opacity="1" stroke="none" xml:space="preserve" x="0" y="0" font-family="Helvetica" font-size="15" font-weight="700" font-style="normal" 
 >Visibility Error [LUX]</text>
</g>

<g fill="#212121" fill-opacity="1" stroke="#212121" stroke-opacity="1" stroke-width="0.659722" stroke-linecap="square" stroke-linejoin="round" transform="matrix(0.757783,0,0,0.7578,-158.197,-32.9641)"
font-family="Helvetica" font-size="15" font-weight="700" font-style="normal" 
>
<polyline fill="none" vector-effect="none" points="250,789 250,66 " />
<polyline fill="none" vector-effect="none" points="1738,789 1738,66 " />
<polyline fill="none" vector-effect="none" points="250,769.979 264.88,769.979 " />
<polyline fill="none" vector-effect="none" points="1723.12,769.979 1738,769.979 " />
<polyline fill="none" vector-effect="none" points="250,662.026 264.88,662.026 " />
<polyline fill="none" vector-effect="none" points="1723.12,662.026 1738,662.026 " />
<polyline fill="none" vector-effect="none" points="250,554.074 264.88,554.074 " />
<polyline fill="none" vector-effect="none" points="1723.12,554.074 1738,554.074 " />
<polyline fill="none" vector-effect="none" points="250,446.122 264.88,446.122 " />
<polyline fill="none" vector-effect="none" points="1723.12,446.122 1738,446.122 " />
<polyline fill="none" vector-effect="none" points="250,338.169 264.88,338.169 " />
<polyline fill="none" vector-effect="none" points="1723.12,338.169 1738,338.169 " />
<polyline fill="none" vector-effect="none" points="250,230.217 264.88,230.217 " />
<polyline fill="none" vector-effect="none" points="1723.12,230.217 1738,230.217 " />
<polyline fill="none" vector-effect="none" points="250,122.264 264.88,122.264 " />
<polyline fill="none" vector-effect="none" points="1723.12,122.264 1738,122.264 " />
</g>

<g fill="#212121" fill-opacity="1" stroke="#212121" stroke-opacity="1" stroke-width="1" stroke-linecap="square" stroke-linejoin="bevel" transform="matrix(0.757783,0,0,0.7578,21.9444,553.936)"
font-family="Helvetica" font-size="13" font-weight="400" font-style="normal" 
>
<text fill="#212121" fill-opacity="1" stroke="none" xml:space="preserve" x="0" y="0" font-family="Helvetica" font-size="13" font-weight="400" font-style="normal" 
 >0</text>
</g>

<g fill="#212121" fill-opacity="1" stroke="#212121" stroke-opacity="1" stroke-width="1" stroke-linecap="square" stroke-linejoin="bevel" transform="matrix(0.757783,0,0,0.7578,21.9444,472.13)"
font-family="Helvetica" font-size="13" font-weight="400" font-style="normal" 
>
<text fill="#212121" fill-opacity="1" stroke="none" xml:space="preserve" x="0" y="0" font-family="Helvetica" font-size="13" font-weight="400" font-style="normal" 
 >5</text>
</g>

<g fill="#212121" fill-opacity="1" stroke="#212121" stroke-opacity="1" stroke-width="1" stroke-linecap="square" stroke-linejoin="bevel" transform="matrix(0.757783,0,0,0.7578,16.6399,390.323)"
font-family="Helvetica" font-size="13" font-weight="400" font-style="normal" 
>
<text fill="#212121" fill-opacity="1" stroke="none" xml:space="preserve" x="0" y="0" font-family="Helvetica" font-size="13" font-weight="400" font-style="normal" 
 >10</text>
</g>

<g fill="#212121" fill-opacity="1" stroke="#212121" stroke-opacity="1" stroke-width="1" stroke-linecap="square" stroke-linejoin="bevel" transform="matrix(0.757783,0,0,0.7578,16.6399,308.517)"
font-family="Helvetica" font-size="13" font-weight="400" font-style="normal" 
>
<text fill="#212121" fill-opacity="1" stroke="none" xml:space="preserve" x="0" y="0" font-family="Helvetica" font-size="13" font-weight="400" font-style="normal" 
 >15</text>
</g>

<g fill="#212121" fill-opacity="1" stroke="#212121" stroke-opacity="1" stroke-width="1" stroke-linecap="square" stroke-linejoin="bevel" transform="matrix(0.757783,0,0,0.7578,16.6399,226.711)"
font-family="Helvetica" font-size="13" font-weight="400" font-style="normal" 
>
<text fill="#212121" fill-opacity="1" stroke="none" xml:space="preserve" x="0" y="0" font-family="Helvetica" font-size="13" font-weight="400" font-style="normal" 
 >20</text>
</g>

<g fill="#212121" fill-opacity="1" stroke="#212121" stroke-opacity="1" stroke-width="1" stroke-linecap="square" stroke-linejoin="bevel" transform="matrix(0.757783,0,0,0.7578,16.6399,144.904)"
font-family="Helvetica" font-size="13" font-weight="400" font-style="normal" 
>
<text fill="#212121" fill-opacity="1" stroke="none" xml:space="preserve" x="0" y="0" font-family="Helvetica" font-size="13" font-weight="400" font-style="normal" 
 >25</text>
</g>

<g fill="#212121" fill-opacity="1" stroke="#212121" stroke-opacity="1" stroke-width="1" stroke-linecap="square" stroke-linejoin="bevel" transform="matrix(0.757783,0,0,0.7578,16.6399,63.0981)"
font-family="Helvetica" font-size="13" font-weight="400" font-style="normal" 
>
<text fill="#212121" fill-opacity="1" stroke="none" xml:space="preserve" x="0" y="0" font-family="Helvetica" font-size="13" font-weight="400" font-style="normal" 
 >30</text>
</g>

<g fill="#212121" fill-opacity="1" stroke="#212121" stroke-opacity="1" stroke-width="1" stroke-linecap="square" stroke-linejoin="bevel" transform="matrix(0.757783,0,0,0.7578,518.881,11.3672)"
font-family="Helvetica" font-size="18" font-weight="700" font-style="normal" 
>
<text fill="#212121" fill-opacity="1" stroke="none" xml:space="preserve" x="0" y="0" font-family="Helvetica" font-size="18" font-weight="700" font-style="normal" 
 >Visibility Error Analysis</text>
</g>

<g fill="none" stroke="#ff00ff" stroke-opacity="1" stroke-width="1.97917" stroke-linecap="butt" stroke-linejoin="round" transform="matrix(0.757783,0,0,0.7578,-158.197,-32.9641)"
font-family="Helvetica" font-size="18" font-weight="700" font-style="normal" 
>
<polyline fill="none" vector-effect="none" points="250,769.979 250.203,769.979 250.629,769.979 251.054,769.979 251.479,769.979 251.904,769.979 252.329,769.979 252.754,769.979 253.179,769.979 253.605,769.979 254.03,769.979 254.455,769.979 254.88,769.979 255.305,769.979 255.73,769.979 256.155,769.979 256.581,769.979 257.006,769.979 257.431,769.979 257.856,769.979 258.281,769.979 258.706,769.979 259.131,769.979 259.557,769.979 259.982,769.979 260.407,769.979 260.832,769.979 261.257,769.979 261.682,769.979 262.107,769.979 262.533,769.979 262.958,769.979 263.383,769.979 263.808,769.979 264.233,769.979 264.658,769.979 265.083,769.979 265.509,769.979 265.934,769.979 266.359,769.979 266.784,769.979 267.209,769.979 267.634,769.979 268.059,769.979 268.485,769.979 268.91,769.979 269.335,769.979 269.76,769.979 270.185,769.979 270.61,769.979 271.035,769.979 271.461,769.979 271.886,769.979 272.311,769.979 272.736,769.979 273.161,769.979 273.586,769.979 274.011,769.979 274.437,769.979 274.862,769.979 275.287,769.979 275.712,769.979 276.137,769.979 276.562,769.979 276.987,769.979 277.413,769.979 277.838,769.979 278.263,769.979 278.688,769.979 279.113,769.979 279.538,769.979 279.963,769.979 280.389,769.979 280.814,769.979 281.239,769.979 281.664,769.979 282.089,769.979 282.514,769.979 282.939,769.979 283.365,769.979 283.79,769.979 284.215,769.979 284.64,769.979 285.065,769.979 285.49,769.979 285.915,769.979 286.341,769.979 286.766,769.979 287.191,769.979 287.616,769.979 288.041,769.979 288.466,769.979 288.891,769.979 289.317,769.979 289.742,769.979 290.167,769.979 290.592,769.979 291.017,769.979 291.442,769.979 291.867,769.979 292.293,769.979 292.718,769.979 293.143,769.979 293.568,769.979 293.993,769.979 294.418,769.979 294.843,769.979 295.269,769.979 295.694,769.979 296.119,769.979 296.544,769.979 296.969,769.979 297.394,769.979 297.819,769.979 298.245,769.979 298.67,769.979 299.095,769.979 299.52,769.979 299.945,769.979 300.37,769.979 300.795,769.979 301.221,769.979 301.646,769.979 302.071,769.979 302.496,769.979 302.921,769.979 303.346,769.979 303.771,769.979 304.197,769.979 304.622,769.979 305.047,769.979 305.472,769.979 305.897,769.979 306.322,769.979 306.747,769.979 307.173,769.979 307.598,769.979 308.023,769.979 308.448,769.979 308.873,769.979 309.298,769.979 309.723,769.979 310.149,769.979 310.574,769.979 310.999,769.979 311.424,769.979 311.849,769.979 312.274,769.979 312.699,769.979 313.125,769.979 313.55,769.979 313.975,769.979 314.4,769.979 314.825,769.979 315.25,769.979 315.675,769.979 316.101,769.979 316.526,769.979 316.951,769.979 317.376,769.979 317.801,769.979 318.226,769.979 318.651,769.979 319.077,769.979 319.502,769.979 319.927,769.979 320.352,769.979 320.777,769.979 321.202,769.979 321.627,769.979 322.053,769.979 322.478,769.979 322.903,769.979 323.328,769.979 323.753,769.979 324.178,769.979 324.603,769.979 325.029,769.979 325.454,769.979 325.879,769.979 326.304,769.979 326.729,769.979 327.154,769.979 327.579,769.979 328.005,769.979 328.43,769.979 328.855,769.979 329.28,769.979 329.705,769.979 330.13,769.979 330.555,769.979 330.981,769.979 331.406,769.979 331.831,769.979 332.256,769.979 332.681,769.979 333.106,769.979 333.531,769.979 333.957,769.979 334.382,769.979 334.807,769.979 335.232,769.979 335.657,769.979 336.082,769.979 336.507,769.979 336.933,769.979 337.358,769.979 337.783,769.979 338.208,769.979 338.633,769.979 339.058,769.979 339.483,769.979 339.909,769.979 340.334,769.979 340.759,769.979 341.184,769.979 341.609,769.979 342.034,769.979 342.459,769.979 342.885,769.979 343.31,769.979 343.735,769.979 344.16,769.979 344.585,769.979 345.01,769.979 345.435,769.979 345.861,769.979 346.286,769.979 346.711,769.979 347.136,769.979 347.561,769.979 347.986,769.979 348.411,769.979 348.837,769.979 349.262,769.979 349.687,769.979 350.112,769.979 350.537,769.979 350.962,769.979 351.387,769.979 351.813,769.979 352.238,769.979 352.663,769.979 353.088,769.979 353.513,769.979 353.938,769.979 354.363,769.979 354.789,769.979 355.214,769.979 355.639,769.979 356.064,769.979 356.489,769.979 356.914,769.979 357.339,769.979 357.765,769.979 358.19,769.979 358.615,769.979 359.04,769.979 359.465,769.979 359.89,769.979 360.315,769.979 360.741,769.979 361.166,769.979 361.591,769.979 362.016,769.979 362.441,769.979 362.866,769.979 363.291,769.979 363.717,769.979 364.142,769.979 364.567,769.979 364.992,769.979 365.417,769.979 365.842,769.979 366.267,769.979 366.693,769.979 367.118,769.979 367.543,769.979 367.968,769.979 368.393,769.979 368.818,769.979 369.243,769.979 369.669,769.979 370.094,769.979 370.519,769.979 370.944,769.979 371.369,769.979 371.794,769.979 372.219,769.979 372.645,769.979 373.07,769.979 373.495,769.979 373.92,769.979 374.345,769.979 374.77,769.979 375.195,769.979 375.621,769.979 376.046,769.979 376.471,769.979 376.896,769.979 377.321,769.979 377.746,769.979 378.171,769.979 378.597,769.979 379.022,769.979 379.447,769.979 379.872,769.979 380.297,769.979 380.722,769.979 381.147,769.979 381.573,769.979 381.998,769.979 382.423,769.979 382.848,769.979 383.273,769.979 383.698,769.979 384.123,769.979 384.549,769.979 384.974,769.979 385.399,769.979 385.824,769.979 386.249,769.979 386.674,769.979 387.099,769.979 387.525,769.979 387.95,769.979 388.375,769.979 388.8,769.979 389.225,769.979 389.65,769.979 390.075,769.979 390.501,769.979 390.926,769.979 391.351,769.979 391.776,769.979 392.201,769.979 392.626,769.979 393.051,769.979 393.477,769.979 393.902,769.979 394.327,769.979 394.752,769.979 395.177,769.979 395.602,769.979 396.027,769.979 396.453,769.979 396.878,769.979 397.303,769.979 397.728,769.979 398.153,769.979 398.578,769.979 399.003,769.979 399.429,769.979 399.854,769.979 400.279,769.979 400.704,769.979 401.129,769.979 401.554,769.979 401.979,769.979 402.405,769.979 402.83,769.979 403.255,769.979 403.68,769.979 404.105,769.979 404.53,769.979 404.955,769.979 405.381,769.979 405.806,769.979 406.231,769.979 406.656,769.979 407.081,769.979 407.506,769.979 407.931,769.979 408.357,769.979 408.782,769.979 409.207,769.979 409.632,769.979 410.057,769.979 410.482,769.979 410.907,769.979 411.333,769.979 411.758,769.979 412.183,769.979 412.608,769.979 413.033,769.979 413.458,769.979 413.883,769.979 414.309,769.979 414.734,769.979 415.159,769.979 415.584,769.979 416.009,769.979 416.434,769.979 416.859,769.979 417.285,769.979 417.71,769.979 418.135,769.979 418.56,769.979 418.985,769.979 419.41,769.979 419.835,769.979 420.261,769.979 420.686,769.979 421.111,769.979 421.536,769.979 421.961,769.979 422.386,769.979 422.811,769.979 423.237,769.979 423.662,769.979 424.087,769.979 424.512,769.979 424.937,769.979 425.362,769.979 425.787,769.979 426.213,769.979 426.638,769.979 427.063,769.979 427.488,769.979 427.913,769.979 428.338,769.979 428.763,769.979 429.189,769.979 429.614,769.979 430.039,769.979 430.464,769.979 430.889,769.979 431.314,769.979 431.739,769.979 432.165,769.979 432.59,769.979 433.015,769.979 433.44,769.979 433.865,769.979 434.29,769.979 434.715,769.979 435.141,769.979 435.566,769.979 435.991,769.979 436.416,769.979 436.841,769.979 437.266,554.506 437.691,554.506 438.117,554.506 438.542,554.722 438.967,625.107 439.392,625.107 439.817,625.107 440.242,715.571 440.667,715.571 441.093,715.571 441.518,715.571 441.943,715.571 442.368,715.571 442.793,736.513 443.218,753.354 443.643,768.035 444.069,769.979 444.494,769.979 444.919,769.979 445.344,769.979 445.769,769.979 446.194,769.979 446.619,769.979 447.045,769.979 447.47,769.979 447.895,769.979 448.32,769.979 448.745,769.979 449.17,768.251 449.595,765.876 450.021,761.774 450.446,761.774 450.871,761.774 451.296,761.774 451.721,761.774 452.146,761.774 452.571,761.99 452.997,766.524 453.422,769.763 453.847,769.979 454.272,769.979 454.697,769.979 455.122,769.979 455.547,769.979 455.973,769.979 456.398,769.979 456.823,769.979 457.248,769.979 457.673,769.979 458.098,769.979 458.523,769.979 458.949,769.979 459.374,769.979 459.799,769.979 460.224,769.979 460.649,769.979 461.074,769.979 461.499,769.979 461.925,769.979 462.35,769.979 462.775,769.979 463.2,769.979 463.625,769.979 464.05,769.979 464.475,769.979 464.901,769.979 465.326,769.979 465.751,769.979 466.176,769.979 466.601,769.979 467.026,769.979 467.451,769.979 467.877,769.979 468.302,769.979 468.727,769.979 469.152,769.979 469.577,769.979 470.002,769.979 470.427,769.979 470.853,769.979 471.278,769.979 471.703,769.979 472.128,769.979 472.553,769.979 472.978,769.979 473.403,769.979 473.829,769.979 474.254,769.979 474.679,769.979 475.104,769.979 475.529,769.979 475.954,769.979 476.379,769.979 476.805,769.979 477.23,769.979 477.655,769.979 478.08,769.979 478.505,769.979 478.93,769.979 479.355,769.979 479.781,769.979 480.206,769.979 480.631,769.979 481.056,769.979 481.481,769.979 481.906,769.979 482.331,769.979 482.757,769.979 483.182,769.979 483.607,769.979 484.032,769.979 484.457,769.979 484.882,769.979 485.307,769.979 485.733,769.979 486.158,769.979 486.583,769.979 487.008,769.979 487.433,769.979 487.858,769.979 488.283,769.979 488.709,769.979 489.134,769.979 489.559,769.979 489.984,769.979 490.409,769.979 490.834,769.979 491.259,769.979 491.685,769.979 492.11,769.979 492.535,769.979 492.96,769.979 493.385,769.979 493.81,769.979 494.235,769.979 494.661,769.979 495.086,769.979 495.511,769.979 495.936,769.979 496.361,769.979 496.786,769.979 497.211,769.979 497.637,769.979 498.062,769.979 498.487,769.979 498.912,769.979 499.337,769.979 499.762,769.979 500.187,769.979 500.613,769.979 501.038,769.979 501.463,769.979 501.888,769.979 502.313,769.979 502.738,769.979 503.163,769.979 503.589,769.979 504.014,769.979 504.439,769.979 504.864,769.979 505.289,769.979 505.714,769.979 506.139,769.979 506.565,769.979 506.99,769.979 507.415,769.979 507.84,769.979 508.265,769.979 508.69,769.979 509.115,769.979 509.541,769.979 509.966,769.979 510.391,769.979 510.816,769.979 511.241,769.979 511.666,769.979 512.091,769.979 512.517,769.979 512.942,769.979 513.367,769.979 513.792,769.979 514.217,769.979 514.642,769.979 515.067,769.979 515.493,769.979 515.918,769.979 516.343,769.979 516.768,769.979 517.193,769.979 517.618,769.979 518.043,769.979 518.469,769.979 518.894,769.979 519.319,769.763 519.744,769.979 520.169,769.979 520.594,769.979 521.019,769.979 521.445,769.979 521.87,769.979 522.295,769.979 522.72,769.979 523.145,769.979 523.57,769.979 523.995,769.979 524.421,769.979 524.846,769.979 525.271,769.979 525.696,769.979 526.121,769.979 526.546,769.979 526.971,769.979 527.397,769.979 527.822,769.979 528.247,769.979 528.672,769.979 529.097,769.979 529.522,769.979 529.947,769.979 530.373,769.979 530.798,769.979 531.223,769.979 531.648,769.979 532.073,769.979 532.498,769.979 532.923,769.979 533.349,769.979 533.774,769.979 534.199,769.979 534.624,769.979 535.049,769.979 535.474,769.979 535.899,769.979 536.325,769.979 536.75,769.979 537.175,769.979 537.6,769.979 538.025,769.979 538.45,769.979 538.875,769.979 539.301,769.979 539.726,769.979 540.151,769.979 540.576,769.979 541.001,769.763 541.426,769.979 541.851,769.979 542.277,769.763 542.702,769.979 543.127,769.979 543.552,769.979 543.977,769.979 544.402,769.979 544.827,769.979 545.253,769.979 545.678,769.979 546.103,769.979 546.528,769.979 546.953,769.979 547.378,769.979 547.803,769.979 548.229,769.979 548.654,769.979 549.079,769.979 549.504,769.979 549.929,769.979 550.354,769.979 550.779,769.979 551.205,769.979 551.63,769.979 552.055,769.979 552.48,769.979 552.905,769.979 553.33,769.979 553.755,769.979 554.181,769.979 554.606,769.979 555.031,769.979 555.456,769.979 555.881,769.979 556.306,769.979 556.731,769.979 557.157,769.979 557.582,769.979 558.007,769.979 558.432,769.979 558.857,769.979 559.282,769.331 559.707,769.331 560.133,769.979 560.558,769.979 560.983,769.763 561.408,769.979 561.833,769.979 562.258,769.979 562.683,769.979 563.109,769.979 563.534,769.979 563.959,769.979 564.384,769.979 564.809,769.979 565.234,769.979 565.659,769.979 566.085,769.979 566.51,769.979 566.935,769.331 567.36,769.331 567.785,769.115 568.21,769.115 568.635,769.115 569.061,769.115 569.486,769.331 569.911,769.979 570.336,769.979 570.761,769.979 571.186,769.979 571.611,769.979 572.037,769.979 572.462,769.979 572.887,769.979 573.312,769.979 573.737,769.979 574.162,769.763 574.587,769.763 575.013,769.331 575.438,769.331 575.863,769.331 576.288,769.331 576.713,769.763 577.138,769.763 577.563,769.979 577.989,769.331 578.414,769.979 578.839,769.979 579.264,769.979 579.689,769.979 580.114,769.979 580.539,769.979 580.965,769.979 581.39,769.979 581.815,769.979 582.24,769.979 582.665,769.979 583.09,769.979 583.515,769.979 583.941,769.979 584.366,769.979 584.791,769.331 585.216,769.331 585.641,769.331 586.066,769.331 586.491,769.763 586.917,769.331 587.342,769.331 587.767,769.331 588.192,769.331 588.617,769.763 589.042,769.979 589.467,769.979 589.893,769.979 590.318,769.979 590.743,769.979 591.168,769.979 591.593,769.979 592.018,769.979 592.443,769.979 592.869,769.979 593.294,769.979 593.719,769.979 594.144,769.979 594.569,769.979 594.994,769.979 595.419,769.979 595.845,769.979 596.27,769.979 596.695,769.979 597.12,769.979 597.545,769.979 597.97,769.979 598.395,769.979 598.821,769.979 599.246,769.979 599.671,769.979 600.096,769.979 600.521,769.979 600.946,769.115 601.371,769.115 601.797,769.979 602.222,769.331 602.647,769.979 603.072,769.331 603.497,769.979 603.922,769.979 604.347,769.979 604.773,769.979 605.198,769.979 605.623,769.979 606.048,769.979 606.473,769.979 606.898,769.979 607.323,769.979 607.749,769.979 608.174,769.979 608.599,769.763 609.024,769.763 609.449,769.763 609.874,769.763 610.299,769.331 610.725,769.331 611.15,769.331 611.575,769.331 612,769.763 612.425,769.763 612.85,769.763 613.275,769.331 613.701,769.331 614.126,769.331 614.551,769.331 614.976,769.979 615.401,769.979 615.826,769.979 616.251,769.331 616.677,769.331 617.102,769.763 617.527,769.763 617.952,769.979 618.377,769.979 618.802,769.979 619.227,769.979 619.653,769.979 620.078,769.979 620.503,769.763 620.928,769.763 621.353,769.979 621.778,769.979 622.203,769.979 622.629,769.979 623.054,769.979 623.479,769.763 623.904,769.979 624.329,769.979 624.754,769.979 625.179,769.979 625.605,769.979 626.03,769.979 626.455,769.979 626.88,769.979 627.305,769.979 627.73,769.979 628.155,769.979 628.581,769.979 629.006,769.763 629.431,769.763 629.856,769.331 630.281,769.331 630.706,769.331 631.131,769.115 631.557,769.115 631.982,769.115 632.407,769.115 632.832,769.331 633.257,769.331 633.682,769.979 634.107,769.979 634.533,769.979 634.958,769.979 635.383,769.979 635.808,769.979 636.233,769.979 636.658,769.979 637.083,769.979 637.509,769.979 637.934,769.979 638.359,769.979 638.784,769.979 639.209,769.331 639.634,769.331 640.059,769.331 640.485,769.979 640.91,769.979 641.335,769.331 641.76,769.331 642.185,769.331 642.61,769.763 643.035,769.763 643.461,769.979 643.886,769.979 644.311,769.979 644.736,769.979 645.161,769.979 645.586,769.979 646.011,769.979 646.437,769.979 646.862,769.979 647.287,769.979 647.712,769.979 648.137,769.979 648.562,769.979 648.987,769.979 649.413,769.979 649.838,769.979 650.263,769.979 650.688,769.979 651.113,769.979 651.538,769.979 651.963,769.763 652.389,769.763 652.814,769.331 653.239,769.115 653.664,768.899 654.089,769.115 654.514,769.115 654.939,769.115 655.365,769.115 655.79,769.331 656.215,769.331 656.64,769.331 657.065,769.763 657.49,769.763 657.915,769.979 658.341,769.979 658.766,769.979 659.191,769.979 659.616,769.979 660.041,769.979 660.466,769.979 660.891,769.979 661.317,769.979 661.742,769.979 662.167,769.979 662.592,769.979 663.017,769.763 663.442,769.331 663.867,769.331 664.293,769.331 664.718,769.331 665.143,769.763 665.568,769.331 665.993,769.763 666.418,769.979 666.843,769.979 667.269,769.979 667.694,769.979 668.119,769.979 668.544,769.979 668.969,769.979 669.394,769.979 669.819,769.979 670.245,769.979 670.67,769.979 671.095,769.979 671.52,769.331 671.945,769.331 672.37,769.331 672.795,769.331 673.221,769.979 673.646,769.979 674.071,769.979 674.496,769.979 674.921,769.979 675.346,769.979 675.771,769.979 676.197,769.979 676.622,769.979 677.047,769.979 677.472,769.979 677.897,769.979 678.322,769.979 678.747,769.979 679.173,769.979 679.598,769.979 680.023,769.979 680.448,769.979 680.873,769.979 681.298,769.979 681.723,769.979 682.149,769.979 682.574,769.979 682.999,769.979 683.424,769.763 683.849,769.763 684.274,769.763 684.699,769.115 685.125,769.115 685.55,769.115 685.975,769.115 686.4,769.115 686.825,769.115 687.25,769.763 687.675,769.763 688.101,769.979 688.526,769.979 688.951,769.979 689.376,769.979 689.801,769.979 690.226,769.979 690.651,769.979 691.077,769.979 691.502,769.979 691.927,769.979 692.352,769.979 692.777,769.979 693.202,769.763 693.627,769.115 694.053,769.331 694.478,769.331 694.903,769.331 695.328,769.331 695.753,769.115 696.178,769.331 696.603,769.331 697.029,769.115 697.454,769.331 697.879,769.331 698.304,769.763 698.729,769.979 699.154,769.979 699.579,769.979 700.005,769.979 700.43,769.979 700.855,769.979 701.28,769.979 701.705,769.979 702.13,769.979 702.555,769.979 702.981,769.979 703.406,769.979 703.831,769.979 704.256,769.331 704.681,769.331 705.106,769.331 705.531,769.331 705.957,769.331 706.382,769.331 706.807,769.331 707.232,769.331 707.657,769.331 708.082,769.331 708.507,769.763 708.933,769.763 709.358,769.763 709.783,769.763 710.208,769.763 710.633,769.763 711.058,769.763 711.483,769.979 711.909,769.979 712.334,769.763 712.759,769.763 713.184,769.763 713.609,769.763 714.034,769.763 714.459,769.979 714.885,769.979 715.31,769.979 715.735,769.979 716.16,769.763 716.585,769.763 717.01,769.331 717.435,769.979 717.861,769.979 718.286,769.979 718.711,769.979 719.136,769.979 719.561,769.979 719.986,769.331 720.411,769.331 720.837,769.331 721.262,769.331 721.687,769.331 722.112,769.331 722.537,769.331 722.962,769.331 723.387,769.331 723.813,769.331 724.238,769.763 724.663,769.979 725.088,769.979 725.513,769.979 725.938,769.979 726.363,769.979 726.789,769.979 727.214,769.979 727.639,769.979 728.064,769.979 728.489,769.979 728.914,769.979 729.339,769.979 729.765,769.979 730.19,769.979 730.615,769.979 731.04,769.979 731.465,769.763 731.89,769.763 732.315,769.979 732.741,769.979 733.166,769.979 733.591,769.979 734.016,769.979 734.441,769.763 734.866,769.979 735.291,769.979 735.717,769.979 736.142,769.979 736.567,769.979 736.992,769.979 737.417,769.979 737.842,769.763 738.267,769.979 738.693,769.763 739.118,769.763 739.543,769.763 739.968,769.331 740.393,769.763 740.818,769.763 741.243,769.331 741.669,769.115 742.094,769.331 742.519,769.979 742.944,769.979 743.369,769.979 743.794,769.979 744.219,769.979 744.645,769.979 745.07,769.979 745.495,769.979 745.92,769.979 746.345,769.979 746.77,769.979 747.195,769.979 747.621,769.979 748.046,769.979 748.471,769.979 748.896,769.115 749.321,769.979 749.746,769.979 750.171,769.979 750.597,769.979 751.022,769.979 751.447,769.979 751.872,769.979 752.297,769.979 752.722,769.979 753.147,769.979 753.573,769.979 753.998,769.331 754.423,769.115 754.848,769.331 755.273,769.331 755.698,769.115 756.123,769.115 756.549,768.467 756.974,768.467 757.399,768.899 757.824,768.899 758.249,769.331 758.674,769.331 759.099,769.979 759.525,769.331 759.95,769.331 760.375,769.979 760.8,769.979 761.225,769.979 761.65,769.979 762.075,769.979 762.501,769.979 762.926,769.979 763.351,769.979 763.776,769.979 764.201,769.979 764.626,769.979 765.051,769.979 765.477,769.979 765.902,769.979 766.327,769.115 766.752,769.115 767.177,769.115 767.602,769.331 768.027,769.979 768.453,769.979 768.878,769.331 769.303,769.331 769.728,769.763 770.153,769.331 770.578,769.763 771.003,769.763 771.429,769.979 771.854,769.979 772.279,769.979 772.704,769.979 773.129,769.979 773.554,769.979 773.979,769.979 774.405,769.979 774.83,769.979 775.255,769.979 775.68,769.979 776.105,769.979 776.53,769.979 776.955,769.979 777.381,769.763 777.806,769.763 778.231,769.763 778.656,769.763 779.081,769.763 779.506,769.763 779.931,769.763 780.357,769.763 780.782,769.763 781.207,769.763 781.632,769.979 782.057,769.979 782.482,769.979 782.907,769.979 783.333,769.979 783.758,769.979 784.183,769.979 784.608,769.979 785.033,769.979 785.458,769.979 785.883,769.979 786.309,769.763 786.734,769.115 787.159,768.899 787.584,768.899 788.009,768.899 788.434,768.899 788.859,769.115 789.285,769.115 789.71,768.899 790.135,769.115 790.56,769.331 790.985,769.763 791.41,769.979 791.835,769.979 792.261,769.979 792.686,769.979 793.111,769.979 793.536,769.979 793.961,769.979 794.386,769.979 794.811,769.979 795.237,769.979 795.662,769.979 796.087,769.979 796.512,769.763 796.937,769.115 797.362,769.115 797.787,769.115 798.213,769.115 798.638,769.115 799.063,769.115 799.488,769.331 799.913,769.331 800.338,769.331 800.763,769.331 801.189,769.331 801.614,769.763 802.039,769.979 802.464,769.979 802.889,769.979 803.314,769.979 803.739,769.979 804.165,769.979 804.59,769.979 805.015,769.979 805.44,769.979 805.865,769.979 806.29,769.979 806.715,769.979 807.141,769.763 807.566,769.331 807.991,769.331 808.416,769.331 808.841,768.899 809.266,768.899 809.691,768.899 810.117,769.979 810.542,769.763 810.967,769.331 811.392,769.763 811.817,769.763 812.242,769.979 812.667,769.979 813.093,769.979 813.518,769.979 813.943,769.979 814.368,769.979 814.793,769.763 815.218,769.331 815.643,769.979 816.069,769.763 816.494,769.979 816.919,769.763 817.344,769.331 817.769,769.331 818.194,769.331 818.619,769.763 819.045,769.763 819.47,769.763 819.895,769.763 820.32,769.763 820.745,769.763 821.17,769.331 821.595,769.763 822.021,769.763 822.446,769.979 822.871,769.979 823.296,769.979 823.721,769.979 824.146,769.979 824.571,769.979 824.997,769.979 825.422,769.979 825.847,769.979 826.272,769.763 826.697,769.331 827.122,769.331 827.547,769.331 827.973,769.331 828.398,769.763 828.823,769.979 829.248,769.979 829.673,769.979 830.098,769.979 830.523,769.979 830.949,769.979 831.374,769.979 831.799,769.979 832.224,769.979 832.649,769.979 833.074,769.979 833.499,769.763 833.925,769.763 834.35,769.763 834.775,769.763 835.2,769.763 835.625,769.763 836.05,769.763 836.475,769.763 836.901,769.763 837.326,769.763 837.751,769.763 838.176,769.979 838.601,769.979 839.026,769.979 839.451,769.979 839.877,769.979 840.302,769.979 840.727,769.979 841.152,769.979 841.577,769.979 842.002,769.763 842.427,769.763 842.853,769.763 843.278,769.763 843.703,769.763 844.128,769.763 844.553,769.763 844.978,769.763 845.403,769.763 845.829,769.763 846.254,769.763 846.679,769.763 847.104,769.763 847.529,769.763 847.954,769.763 848.379,769.979 848.805,769.979 849.23,769.763 849.655,769.979 850.08,769.979 850.505,769.979 850.93,769.979 851.355,769.979 851.781,769.979 852.206,769.979 852.631,769.979 853.056,769.979 853.481,769.979 853.906,769.979 854.331,769.979 854.757,769.979 855.182,769.979 855.607,769.979 856.032,230.433 856.457,230.433 856.882,230.433 857.307,230.433 857.733,427.986 858.158,427.986 858.583,427.986 859.008,427.986 859.433,427.986 859.858,427.986 860.283,682.969 860.709,682.969 861.134,682.969 861.559,682.969 861.984,682.969 862.409,682.969 862.834,704.128 863.259,725.07 863.685,740.184 864.11,753.786 864.535,769.979 864.96,769.979 865.385,769.979 865.81,769.979 866.235,769.979 866.661,769.979 867.086,769.979 867.511,769.979 867.936,769.979 868.361,769.979 868.786,769.979 869.211,769.979 869.637,769.979 870.062,769.979 870.487,769.979 870.912,769.979 871.337,769.979 871.762,769.979 872.187,769.979 872.613,769.979 873.038,769.979 873.463,769.979 873.888,769.979 874.313,769.979 874.738,769.979 875.163,769.979 875.589,769.979 876.014,769.979 876.439,769.979 876.864,769.979 877.289,769.979 877.714,769.979 878.139,769.979 878.565,769.979 878.99,769.979 879.415,769.979 879.84,769.979 880.265,769.979 880.69,769.979 881.115,769.979 881.541,769.979 881.966,769.979 882.391,769.979 882.816,769.979 883.241,769.979 883.666,769.979 884.091,769.979 884.517,769.979 884.942,769.979 885.367,769.979 885.792,769.979 886.217,769.979 886.642,769.979 887.067,769.979 887.493,769.979 887.918,769.979 888.343,769.979 888.768,769.979 889.193,769.979 889.618,769.979 890.043,769.979 890.469,769.979 890.894,769.979 891.319,769.979 891.744,769.979 892.169,769.979 892.594,769.979 893.019,769.979 893.445,769.979 893.87,769.979 894.295,769.979 894.72,769.979 895.145,769.979 895.57,769.979 895.995,769.979 896.421,769.979 896.846,769.979 897.271,769.979 897.696,769.979 898.121,769.979 898.546,769.979 898.971,769.979 899.397,769.979 899.822,769.979 900.247,769.979 900.672,769.979 901.097,769.979 901.522,769.979 901.947,769.979 902.373,769.979 902.798,769.979 903.223,769.979 903.648,769.979 904.073,769.979 904.498,769.979 904.923,769.979 905.349,769.979 905.774,769.979 906.199,769.979 906.624,769.979 907.049,769.979 907.474,769.979 907.899,769.979 908.325,769.979 908.75,769.979 909.175,769.979 909.6,769.979 910.025,769.979 910.45,769.979 910.875,769.979 911.301,769.979 911.726,769.979 912.151,769.979 912.576,769.979 913.001,769.979 913.426,769.979 913.851,769.979 914.277,769.979 914.702,769.979 915.127,769.979 915.552,769.979 915.977,769.979 916.402,769.979 916.827,769.979 917.253,769.979 917.678,769.979 918.103,769.979 918.528,769.979 918.953,769.979 919.378,769.979 919.803,769.979 920.229,769.979 920.654,769.979 921.079,769.979 921.504,769.979 921.929,769.979 922.354,769.979 922.779,769.979 923.205,769.979 923.63,769.979 924.055,769.979 924.48,769.979 924.905,769.979 925.33,769.979 925.755,769.979 926.181,769.979 926.606,769.979 927.031,769.979 927.456,769.979 927.881,769.979 928.306,769.979 928.731,769.979 929.157,769.979 929.582,769.979 930.007,769.979 930.432,769.331 930.857,769.331 931.282,769.331 931.707,769.331 932.133,769.331 932.558,769.979 932.983,769.979 933.408,769.979 933.833,769.979 934.258,769.979 934.683,769.979 935.109,769.979 935.534,769.979 935.959,769.979 936.384,769.979 936.809,769.979 937.234,769.979 937.659,769.979 938.085,769.979 938.51,769.979 938.935,769.979 939.36,769.979 939.785,769.979 940.21,769.979 940.635,769.979 941.061,769.979 941.486,769.979 941.911,769.979 942.336,769.979 942.761,769.979 943.186,769.979 943.611,769.979 944.037,769.979 944.462,769.979 944.887,769.979 945.312,769.979 945.737,769.979 946.162,769.979 946.587,769.979 947.013,769.979 947.438,769.979 947.863,769.979 948.288,769.979 948.713,769.979 949.138,769.979 949.563,769.979 949.989,769.979 950.414,769.979 950.839,769.331 951.264,769.979 951.689,769.979 952.114,769.979 952.539,769.979 952.965,769.979 953.39,769.979 953.815,769.979 954.24,769.979 954.665,769.979 955.09,769.979 955.515,769.979 955.941,767.604 956.366,767.604 956.791,767.604 957.216,767.604 957.641,767.604 958.066,769.331 958.491,769.331 958.917,769.331 959.342,769.979 959.767,769.979 960.192,769.979 960.617,769.979 961.042,769.979 961.467,769.979 961.893,769.979 962.318,769.979 962.743,769.979 963.168,769.979 963.593,769.979 964.018,769.979 964.443,769.331 964.869,769.331 965.294,769.979 965.719,769.979 966.144,769.979 966.569,769.979 966.994,769.979 967.419,769.979 967.845,769.979 968.27,769.979 968.695,769.979 969.12,769.979 969.545,769.979 969.97,769.979 970.395,769.979 970.821,769.979 971.246,769.979 971.671,769.331 972.096,767.604 972.521,767.604 972.946,767.604 973.371,767.604 973.797,767.604 974.222,767.604 974.647,767.604 975.072,767.604 975.497,769.979 975.922,769.979 976.347,769.979 976.773,769.979 977.198,769.979 977.623,769.979 978.048,769.979 978.473,769.979 978.898,769.979 979.323,769.979 979.749,769.979 980.174,769.979 980.599,769.331 981.024,769.331 981.449,769.331 981.874,769.331 982.299,769.331 982.725,769.331 983.15,769.979 983.575,769.979 984,769.979 984.425,769.979 984.85,769.979 985.275,769.979 985.701,769.979 986.126,769.979 986.551,769.979 986.976,769.979 987.401,769.979 987.826,769.979 988.251,769.979 988.677,768.467 989.102,767.604 989.527,768.467 989.952,768.467 990.377,769.979 990.802,769.979 991.227,769.979 991.653,769.979 992.078,769.979 992.503,769.979 992.928,769.979 993.353,769.979 993.778,769.979 994.203,769.979 994.629,769.331 995.054,769.331 995.479,769.331 995.904,769.331 996.329,769.331 996.754,768.467 997.179,768.467 997.605,768.467 998.03,769.331 998.455,769.331 998.88,769.331 999.305,769.979 999.73,769.979 1000.16,769.979 1000.58,769.979 1001.01,769.979 1001.43,769.979 1001.86,769.979 1002.28,769.979 1002.71,769.979 1003.13,769.979 1003.56,769.979 1003.98,769.979 1004.41,769.979 1004.83,769.331 1005.26,769.331 1005.68,768.467 1006.11,768.467 1006.53,769.331 1006.96,769.331 1007.38,769.331 1007.81,769.331 1008.23,769.331 1008.66,769.979 1009.08,769.979 1009.51,769.979 1009.93,769.979 1010.36,769.979 1010.78,769.979 1011.21,769.979 1011.63,769.331 1012.06,769.331 1012.48,768.467 1012.91,768.467 1013.33,768.467 1013.76,769.331 1014.19,769.331 1014.61,767.604 1015.04,769.331 1015.46,769.331 1015.89,769.331 1016.31,769.979 1016.74,769.979 1017.16,769.979 1017.59,769.979 1018.01,769.979 1018.44,769.979 1018.86,769.979 1019.29,769.979 1019.71,769.979 1020.14,769.979 1020.56,769.979 1020.99,767.604 1021.41,767.604 1021.84,767.604 1022.26,767.604 1022.69,767.604 1023.11,769.331 1023.54,769.331 1023.96,769.331 1024.39,769.331 1024.81,769.331 1025.24,769.979 1025.66,769.979 1026.09,769.979 1026.51,769.979 1026.94,769.979 1027.36,769.979 1027.79,769.979 1028.21,769.979 1028.64,769.331 1029.07,769.331 1029.49,769.331 1029.92,769.331 1030.34,769.331 1030.77,769.331 1031.19,769.331 1031.62,769.331 1032.04,769.331 1032.47,769.979 1032.89,769.979 1033.32,769.979 1033.74,769.979 1034.17,769.979 1034.59,769.331 1035.02,769.331 1035.44,768.467 1035.87,768.467 1036.29,768.467 1036.72,767.604 1037.14,767.604 1037.57,767.604 1037.99,767.604 1038.42,767.604 1038.84,767.604 1039.27,769.331 1039.69,769.979 1040.12,769.979 1040.54,769.979 1040.97,769.979 1041.39,769.979 1041.82,769.979 1042.24,769.979 1042.67,769.979 1043.09,769.979 1043.52,769.979 1043.95,769.331 1044.37,769.331 1044.8,769.331 1045.22,769.331 1045.65,769.331 1046.07,769.331 1046.5,769.331 1046.92,768.467 1047.35,768.467 1047.77,768.467 1048.2,769.331 1048.62,769.331 1049.05,769.331 1049.47,769.331 1049.9,768.467 1050.32,768.467 1050.75,769.331 1051.17,769.331 1051.6,769.979 1052.02,769.979 1052.45,769.979 1052.87,769.979 1053.3,769.979 1053.72,769.979 1054.15,769.979 1054.57,769.979 1055,769.979 1055.42,769.331 1055.85,769.331 1056.27,769.331 1056.7,769.331 1057.12,769.331 1057.55,769.331 1057.97,769.331 1058.4,769.331 1058.83,769.331 1059.25,769.331 1059.68,769.331 1060.1,769.979 1060.53,769.979 1060.95,769.331 1061.38,769.331 1061.8,769.979 1062.23,769.979 1062.65,769.979 1063.08,769.979 1063.5,769.979 1063.93,769.979 1064.35,769.979 1064.78,769.979 1065.2,769.979 1065.63,769.979 1066.05,769.331 1066.48,767.604 1066.9,767.604 1067.33,767.604 1067.75,769.331 1068.18,769.331 1068.6,769.331 1069.03,767.604 1069.45,769.331 1069.88,769.331 1070.3,769.979 1070.73,769.979 1071.15,769.979 1071.58,769.979 1072,769.979 1072.43,768.467 1072.85,768.467 1073.28,768.467 1073.71,768.467 1074.13,768.467 1074.56,768.467 1074.98,768.467 1075.41,769.331 1075.83,769.331 1076.26,769.331 1076.68,769.331 1077.11,769.331 1077.53,769.979 1077.96,769.979 1078.38,769.979 1078.81,769.979 1079.23,769.979 1079.66,769.979 1080.08,769.979 1080.51,769.979 1080.93,769.979 1081.36,769.979 1081.78,769.979 1082.21,769.979 1082.63,769.979 1083.06,769.979 1083.48,769.331 1083.91,769.331 1084.33,767.604 1084.76,767.604 1085.18,767.604 1085.61,767.604 1086.03,769.331 1086.46,768.467 1086.88,769.331 1087.31,769.331 1087.73,769.331 1088.16,769.331 1088.59,769.331 1089.01,769.331 1089.44,769.979 1089.86,769.979 1090.29,769.331 1090.71,769.331 1091.14,769.331 1091.56,769.331 1091.99,769.331 1092.41,769.331 1092.84,769.331 1093.26,769.979 1093.69,769.979 1094.11,769.979 1094.54,769.331 1094.96,769.979 1095.39,769.979 1095.81,769.979 1096.24,769.979 1096.66,769.979 1097.09,769.979 1097.51,769.979 1097.94,769.979 1098.36,769.979 1098.79,769.979 1099.21,769.979 1099.64,769.979 1100.06,769.979 1100.49,769.979 1100.91,769.331 1101.34,769.331 1101.76,769.331 1102.19,769.331 1102.61,769.331 1103.04,769.331 1103.47,769.331 1103.89,769.331 1104.32,769.331 1104.74,769.331 1105.17,769.331 1105.59,769.331 1106.02,769.331 1106.44,769.331 1106.87,769.331 1107.29,769.331 1107.72,768.467 1108.14,768.467 1108.57,768.467 1108.99,768.467 1109.42,769.331 1109.84,769.331 1110.27,769.331 1110.69,769.331 1111.12,769.979 1111.54,769.979 1111.97,769.979 1112.39,769.979 1112.82,769.979 1113.24,769.979 1113.67,769.979 1114.09,769.979 1114.52,769.979 1114.94,769.979 1115.37,769.979 1115.79,769.979 1116.22,769.979 1116.64,769.979 1117.07,769.331 1117.49,769.331 1117.92,767.604 1118.35,767.604 1118.77,767.604 1119.2,767.604 1119.62,767.604 1120.05,768.467 1120.47,769.331 1120.9,769.331 1121.32,768.467 1121.75,769.979 1122.17,769.979 1122.6,769.979 1123.02,769.979 1123.45,769.979 1123.87,769.979 1124.3,769.979 1124.72,769.979 1125.15,769.979 1125.57,769.979 1126,769.979 1126.42,769.979 1126.85,769.331 1127.27,769.331 1127.7,769.331 1128.12,769.979 1128.55,769.331 1128.97,769.331 1129.4,769.331 1129.82,769.331 1130.25,769.331 1130.67,769.331 1131.1,769.331 1131.52,769.331 1131.95,769.331 1132.37,769.331 1132.8,769.331 1133.23,769.979 1133.65,769.979 1134.08,769.979 1134.5,769.979 1134.93,769.979 1135.35,769.979 1135.78,769.979 1136.2,769.979 1136.63,769.979 1137.05,769.979 1137.48,769.979 1137.9,769.979 1138.33,769.331 1138.75,769.331 1139.18,769.331 1139.6,769.331 1140.03,769.331 1140.45,769.331 1140.88,769.331 1141.3,769.979 1141.73,769.331 1142.15,768.467 1142.58,769.331 1143,768.467 1143.43,769.331 1143.85,769.331 1144.28,769.331 1144.7,768.467 1145.13,768.467 1145.55,769.331 1145.98,769.331 1146.4,769.331 1146.83,769.331 1147.25,769.979 1147.68,769.979 1148.11,769.979 1148.53,769.979 1148.96,769.979 1149.38,769.979 1149.81,769.331 1150.23,769.331 1150.66,769.331 1151.08,769.331 1151.51,769.331 1151.93,769.331 1152.36,769.331 1152.78,769.331 1153.21,769.331 1153.63,769.331 1154.06,769.979 1154.48,769.979 1154.91,769.979 1155.33,769.979 1155.76,769.979 1156.18,769.979 1156.61,769.331 1157.03,769.331 1157.46,768.467 1157.88,768.467 1158.31,768.467 1158.73,768.467 1159.16,767.604 1159.58,767.604 1160.01,768.467 1160.43,768.467 1160.86,768.467 1161.28,768.467 1161.71,769.331 1162.13,769.979 1162.56,769.979 1162.99,769.979 1163.41,769.979 1163.84,769.979 1164.26,769.979 1164.69,769.979 1165.11,769.979 1165.54,769.979 1165.96,769.979 1166.39,769.979 1166.81,769.979 1167.24,769.331 1167.66,769.331 1168.09,769.331 1168.51,768.467 1168.94,768.467 1169.36,769.979 1169.79,769.979 1170.21,769.979 1170.64,769.979 1171.06,769.979 1171.49,769.979 1171.91,769.979 1172.34,769.331 1172.76,769.331 1173.19,769.331 1173.61,769.331 1174.04,769.331 1174.46,769.331 1174.89,769.331 1175.31,769.331 1175.74,769.331 1176.16,768.467 1176.59,767.604 1177.01,768.467 1177.44,769.979 1177.87,769.979 1178.29,769.331 1178.72,769.331 1179.14,769.331 1179.57,769.331 1179.99,769.979 1180.42,769.979 1180.84,769.979 1181.27,769.979 1181.69,769.979 1182.12,769.979 1182.54,769.979 1182.97,769.979 1183.39,769.979 1183.82,769.979 1184.24,769.979 1184.67,768.467 1185.09,768.467 1185.52,768.467 1185.94,766.74 1186.37,766.74 1186.79,766.74 1187.22,766.74 1187.64,766.74 1188.07,766.74 1188.49,767.604 1188.92,769.331 1189.34,769.979 1189.77,769.979 1190.19,769.979 1190.62,769.979 1191.04,769.979 1191.47,769.979 1191.89,769.979 1192.32,769.979 1192.75,769.979 1193.17,769.979 1193.6,769.331 1194.02,768.467 1194.45,766.74 1194.87,766.74 1195.3,766.74 1195.72,766.74 1196.15,767.604 1196.57,767.604 1197,768.467 1197.42,768.467 1197.85,768.467 1198.27,769.331 1198.7,769.979 1199.12,769.979 1199.55,769.979 1199.97,769.979 1200.4,769.979 1200.82,769.979 1201.25,769.979 1201.67,769.979 1202.1,769.979 1202.52,769.979 1202.95,769.331 1203.37,769.331 1203.8,767.604 1204.22,767.604 1204.65,767.604 1205.07,767.604 1205.5,767.604 1205.92,769.331 1206.35,769.979 1206.77,769.331 1207.2,769.979 1207.63,769.979 1208.05,769.979 1208.48,769.979 1208.9,769.979 1209.33,769.979 1209.75,769.979 1210.18,769.979 1210.6,769.979 1211.03,769.979 1211.45,769.979 1211.88,769.331 1212.3,766.74 1212.73,766.74 1213.15,769.331 1213.58,769.331 1214,766.74 1214.43,769.979 1214.85,769.979 1215.28,769.979 1215.7,767.604 1216.13,769.979 1216.55,769.979 1216.98,769.979 1217.4,767.604 1217.83,767.604 1218.25,767.604 1218.68,767.604 1219.1,767.604 1219.53,767.604 1219.95,767.604 1220.38,768.467 1220.8,768.467 1221.23,769.979 1221.65,769.979 1222.08,769.979 1222.51,769.979 1222.93,769.979 1223.36,769.979 1223.78,769.979 1224.21,769.979 1224.63,769.979 1225.06,769.331 1225.48,769.331 1225.91,769.331 1226.33,768.467 1226.76,768.467 1227.18,768.467 1227.61,768.467 1228.03,768.467 1228.46,768.467 1228.88,769.331 1229.31,769.331 1229.73,769.331 1230.16,769.331 1230.58,769.331 1231.01,769.331 1231.43,769.331 1231.86,769.331 1232.28,769.331 1232.71,769.331 1233.13,769.331 1233.56,769.331 1233.98,769.331 1234.41,769.331 1234.83,769.331 1235.26,769.979 1235.68,769.979 1236.11,769.979 1236.53,769.979 1236.96,769.979 1237.39,769.979 1237.81,769.979 1238.24,769.979 1238.66,769.979 1239.09,769.979 1239.51,769.331 1239.94,769.331 1240.36,769.331 1240.79,768.467 1241.21,768.467 1241.64,768.467 1242.06,768.467 1242.49,768.467 1242.91,768.467 1243.34,768.467 1243.76,769.979 1244.19,769.979 1244.61,769.979 1245.04,769.979 1245.46,769.979 1245.89,769.979 1246.31,769.979 1246.74,769.979 1247.16,769.979 1247.59,769.979 1248.01,769.979 1248.44,769.979 1248.86,769.331 1249.29,769.331 1249.71,769.331 1250.14,768.467 1250.56,769.331 1250.99,768.467 1251.41,768.467 1251.84,768.467 1252.27,768.467 1252.69,768.467 1253.12,768.467 1253.54,768.467 1253.97,768.467 1254.39,769.331 1254.82,769.979 1255.24,769.979 1255.67,769.979 1256.09,769.979 1256.52,769.979 1256.94,769.979 1257.37,769.331 1257.79,769.331 1258.22,769.331 1258.64,768.467 1259.07,768.467 1259.49,768.467 1259.92,768.467 1260.34,768.467 1260.77,768.467 1261.19,768.467 1261.62,768.467 1262.04,769.979 1262.47,769.979 1262.89,769.979 1263.32,769.979 1263.74,769.979 1264.17,769.979 1264.59,769.979 1265.02,769.979 1265.44,769.979 1265.87,769.979 1266.29,769.979 1266.72,768.467 1267.15,768.467 1267.57,768.467 1268,768.467 1268.42,768.467 1268.85,768.467 1269.27,768.467 1269.7,768.467 1270.12,769.331 1270.55,769.331 1270.97,769.331 1271.4,769.979 1271.82,769.979 1272.25,769.979 1272.67,769.979 1273.1,769.979 1273.52,769.979 1273.95,769.979 1274.37,769.979 1274.8,769.979 1275.22,769.979 1275.65,769.331 1276.07,769.331 1276.5,769.331 1276.92,769.331 1277.35,769.331 1277.77,769.331 1278.2,769.331 1278.62,769.331 1279.05,769.331 1279.47,769.331 1279.9,769.979 1280.32,769.979 1280.75,769.979 1281.17,769.979 1281.6,769.979 1282.03,769.979 1282.45,767.604 1282.88,767.604 1283.3,767.604 1283.73,767.604 1284.15,767.604 1284.58,767.604 1285,767.604 1285.43,769.979 1285.85,769.979 1286.28,769.979 1286.7,769.979 1287.13,769.979 1287.55,769.979 1287.98,769.979 1288.4,769.979 1288.83,769.979 1289.25,769.979 1289.68,769.979 1290.1,769.979 1290.53,769.979 1290.95,769.979 1291.38,760.263 1291.8,760.263 1292.23,760.263 1292.65,760.263 1293.08,760.263 1293.5,760.263 1293.93,764.365 1294.35,769.331 1294.78,769.979 1295.2,769.979 1295.63,769.979 1296.05,769.979 1296.48,769.979 1296.91,769.979 1297.33,769.979 1297.76,769.979 1298.18,769.979 1298.61,769.979 1299.03,769.979 1299.46,769.979 1299.88,769.979 1300.31,769.979 1300.73,769.979 1301.16,769.979 1301.58,769.979 1302.01,769.979 1302.43,769.979 1302.86,769.979 1303.28,769.979 1303.71,769.979 1304.13,769.979 1304.56,769.979 1304.98,769.979 1305.41,769.979 1305.83,769.979 1306.26,769.979 1306.68,769.979 1307.11,769.979 1307.53,769.979 1307.96,769.979 1308.38,769.979 1308.81,769.979 1309.23,769.979 1309.66,769.979 1310.08,769.979 1310.51,769.979 1310.93,769.979 1311.36,769.979 1311.79,769.979 1312.21,769.979 1312.64,769.979 1313.06,769.979 1313.49,769.979 1313.91,769.979 1314.34,769.979 1314.76,769.979 1315.19,769.979 1315.61,769.979 1316.04,769.979 1316.46,769.979 1316.89,769.979 1317.31,769.979 1317.74,769.979 1318.16,769.979 1318.59,769.979 1319.01,769.979 1319.44,769.979 1319.86,769.979 1320.29,769.979 1320.71,769.979 1321.14,769.979 1321.56,769.979 1321.99,769.979 1322.41,769.979 1322.84,769.979 1323.26,769.979 1323.69,769.979 1324.11,769.979 1324.54,769.979 1324.96,769.979 1325.39,769.979 1325.81,769.979 1326.24,769.979 1326.67,769.979 1327.09,769.979 1327.52,769.979 1327.94,769.979 1328.37,769.979 1328.79,769.979 1329.22,769.979 1329.64,769.979 1330.07,769.979 1330.49,769.979 1330.92,769.979 1331.34,769.979 1331.77,769.979 1332.19,769.979 1332.62,769.979 1333.04,769.979 1333.47,769.979 1333.89,769.979 1334.32,769.979 1334.74,769.979 1335.17,769.979 1335.59,769.979 1336.02,769.979 1336.44,769.979 1336.87,769.979 1337.29,769.979 1337.72,769.979 1338.14,769.979 1338.57,769.979 1338.99,769.979 1339.42,769.979 1339.84,769.979 1340.27,769.979 1340.69,769.979 1341.12,769.979 1341.55,769.979 1341.97,769.979 1342.4,769.979 1342.82,769.979 1343.25,769.979 1343.67,769.979 1344.1,769.979 1344.52,769.979 1344.95,769.979 1345.37,769.979 1345.8,769.979 1346.22,769.979 1346.65,769.979 1347.07,769.979 1347.5,769.979 1347.92,769.979 1348.35,769.979 1348.77,769.979 1349.2,769.979 1349.62,769.979 1350.05,769.979 1350.47,769.979 1350.9,769.979 1351.32,769.979 1351.75,769.763 1352.17,769.763 1352.6,769.979 1353.02,769.979 1353.45,769.979 1353.87,769.979 1354.3,769.979 1354.72,769.979 1355.15,769.979 1355.57,769.979 1356,769.979 1356.43,769.979 1356.85,769.979 1357.28,769.979 1357.7,769.979 1358.13,769.979 1358.55,769.763 1358.98,769.763 1359.4,769.763 1359.83,769.763 1360.25,769.763 1360.68,769.763 1361.1,769.763 1361.53,769.763 1361.95,769.763 1362.38,769.979 1362.8,769.979 1363.23,769.979 1363.65,769.979 1364.08,769.979 1364.5,769.979 1364.93,769.979 1365.35,769.979 1365.78,769.979 1366.2,769.979 1366.63,769.979 1367.05,769.979 1367.48,769.331 1367.9,769.331 1368.33,769.115 1368.75,769.115 1369.18,769.115 1369.6,769.115 1370.03,769.115 1370.45,769.115 1370.88,769.331 1371.31,769.331 1371.73,769.331 1372.16,769.763 1372.58,769.763 1373.01,769.979 1373.43,769.979 1373.86,769.979 1374.28,769.979 1374.71,769.979 1375.13,769.979 1375.56,769.979 1375.98,769.979 1376.41,769.979 1376.83,769.979 1377.26,769.979 1377.68,769.979 1378.11,769.331 1378.53,769.331 1378.96,769.331 1379.38,769.763 1379.81,769.763 1380.23,769.331 1380.66,769.763 1381.08,769.763 1381.51,769.979 1381.93,769.979 1382.36,769.979 1382.78,769.979 1383.21,769.979 1383.63,769.979 1384.06,769.979 1384.48,769.979 1384.91,769.979 1385.33,769.979 1385.76,769.979 1386.19,769.979 1386.61,769.763 1387.04,769.763 1387.46,769.763 1387.89,769.763 1388.31,769.763 1388.74,769.763 1389.16,769.763 1389.59,769.763 1390.01,769.763 1390.44,769.979 1390.86,769.979 1391.29,769.979 1391.71,769.979 1392.14,769.979 1392.56,769.979 1392.99,769.979 1393.41,769.979 1393.84,769.763 1394.26,769.979 1394.69,769.979 1395.11,769.331 1395.54,769.979 1395.96,769.331 1396.39,769.331 1396.81,769.331 1397.24,769.331 1397.66,769.331 1398.09,769.331 1398.51,769.331 1398.94,769.331 1399.36,769.979 1399.79,769.979 1400.21,769.979 1400.64,769.979 1401.07,769.979 1401.49,769.979 1401.92,769.979 1402.34,769.979 1402.77,769.979 1403.19,769.979 1403.62,769.979 1404.04,769.979 1404.47,769.979 1404.89,769.979 1405.32,769.763 1405.74,769.763 1406.17,769.763 1406.59,769.763 1407.02,769.763 1407.44,769.763 1407.87,769.763 1408.29,769.763 1408.72,769.763 1409.14,769.763 1409.57,769.979 1409.99,769.979 1410.42,769.979 1410.84,769.979 1411.27,769.979 1411.69,769.979 1412.12,769.979 1412.54,769.979 1412.97,769.979 1413.39,769.979 1413.82,769.979 1414.24,769.979 1414.67,769.979 1415.09,769.979 1415.52,769.979 1415.95,769.979 1416.37,769.763 1416.8,769.763 1417.22,769.763 1417.65,769.763 1418.07,769.763 1418.5,769.763 1418.92,769.763 1419.35,769.763 1419.77,769.763 1420.2,769.763 1420.62,769.763 1421.05,769.763 1421.47,769.763 1421.9,769.763 1422.32,769.979 1422.75,769.979 1423.17,769.979 1423.6,769.979 1424.02,769.979 1424.45,769.979 1424.87,769.979 1425.3,769.979 1425.72,769.979 1426.15,769.979 1426.57,769.979 1427,769.763 1427.42,769.763 1427.85,769.763 1428.27,769.763 1428.7,769.763 1429.12,769.763 1429.55,769.763 1429.97,769.763 1430.4,769.763 1430.83,769.763 1431.25,769.763 1431.68,769.763 1432.1,769.763 1432.53,769.763 1432.95,769.763 1433.38,769.763 1433.8,769.763 1434.23,769.979 1434.65,769.979 1435.08,769.979 1435.5,769.979 1435.93,769.979 1436.35,769.979 1436.78,769.763 1437.2,769.763 1437.63,769.763 1438.05,769.763 1438.48,769.763 1438.9,769.763 1439.33,769.763 1439.75,769.331 1440.18,769.331 1440.6,769.331 1441.03,769.763 1441.45,769.979 1441.88,769.979 1442.3,769.979 1442.73,769.979 1443.15,769.763 1443.58,769.979 1444,769.763 1444.43,769.979 1444.85,769.979 1445.28,769.979 1445.71,769.979 1446.13,769.763 1446.56,769.763 1446.98,769.979 1447.41,769.979 1447.83,769.979 1448.26,769.979 1448.68,769.979 1449.11,769.979 1449.53,769.979 1449.96,769.979 1450.38,769.979 1450.81,769.979 1451.23,769.979 1451.66,769.331 1452.08,769.979 1452.51,769.979 1452.93,769.979 1453.36,769.979 1453.78,769.979 1454.21,769.979 1454.63,769.763 1455.06,769.763 1455.48,769.979 1455.91,769.763 1456.33,769.763 1456.76,769.331 1457.18,769.331 1457.61,769.331 1458.03,769.115 1458.46,769.115 1458.88,769.115 1459.31,769.115 1459.73,769.331 1460.16,769.331 1460.59,769.331 1461.01,769.331 1461.44,769.979 1461.86,769.979 1462.29,769.979 1462.71,769.979 1463.14,769.979 1463.56,769.979 1463.99,769.979 1464.41,769.979 1464.84,769.979 1465.26,769.979 1465.69,769.979 1466.11,769.979 1466.54,769.979 1466.96,769.979 1467.39,769.331 1467.81,769.331 1468.24,769.331 1468.66,769.331 1469.09,769.331 1469.51,769.331 1469.94,769.331 1470.36,769.763 1470.79,769.979 1471.21,769.979 1471.64,769.979 1472.06,769.979 1472.49,769.979 1472.91,769.979 1473.34,769.979 1473.76,769.979 1474.19,769.979 1474.61,769.979 1475.04,769.979 1475.47,769.763 1475.89,769.763 1476.32,769.763 1476.74,769.763 1477.17,769.763 1477.59,769.763 1478.02,769.979 1478.44,769.763 1478.87,769.979 1479.29,769.979 1479.72,769.979 1480.14,769.979 1480.57,769.979 1480.99,769.979 1481.42,769.979 1481.84,769.979 1482.27,769.979 1482.69,769.979 1483.12,769.979 1483.54,769.979 1483.97,769.979 1484.39,769.979 1484.82,769.979 1485.24,769.763 1485.67,769.763 1486.09,769.763 1486.52,769.763 1486.94,769.763 1487.37,769.763 1487.79,769.763 1488.22,769.115 1488.64,769.763 1489.07,769.763 1489.49,769.763 1489.92,769.979 1490.35,769.979 1490.77,769.979 1491.2,769.979 1491.62,769.979 1492.05,769.979 1492.47,769.979 1492.9,769.979 1493.32,769.979 1493.75,769.979 1494.17,769.331 1494.6,769.115 1495.02,769.115 1495.45,769.115 1495.87,769.331 1496.3,769.115 1496.72,769.331 1497.15,769.979 1497.57,769.979 1498,769.979 1498.42,769.979 1498.85,769.979 1499.27,769.979 1499.7,769.979 1500.12,769.979 1500.55,769.979 1500.97,769.979 1501.4,769.979 1501.82,769.763 1502.25,769.763 1502.67,769.763 1503.1,769.763 1503.52,769.763 1503.95,769.763 1504.37,769.763 1504.8,769.979 1505.23,769.979 1505.65,769.979 1506.08,769.979 1506.5,769.979 1506.93,769.979 1507.35,769.979 1507.78,769.979 1508.2,769.979 1508.63,769.979 1509.05,769.979 1509.48,769.979 1509.9,769.331 1510.33,769.331 1510.75,769.331 1511.18,769.331 1511.6,769.115 1512.03,769.115 1512.45,769.331 1512.88,769.115 1513.3,769.115 1513.73,769.331 1514.15,769.979 1514.58,769.979 1515,769.979 1515.43,769.979 1515.85,769.979 1516.28,769.979 1516.7,769.979 1517.13,769.979 1517.55,769.979 1517.98,769.979 1518.4,769.979 1518.83,769.763 1519.25,769.331 1519.68,769.331 1520.11,769.331 1520.53,769.331 1520.96,769.331 1521.38,769.331 1521.81,769.763 1522.23,769.763 1522.66,769.763 1523.08,769.763 1523.51,769.763 1523.93,769.979 1524.36,769.979 1524.78,769.979 1525.21,769.979 1525.63,769.979 1526.06,769.979 1526.48,769.979 1526.91,769.979 1527.33,769.979 1527.76,769.979 1528.18,769.979 1528.61,769.979 1529.03,769.979 1529.46,769.331 1529.88,769.115 1530.31,769.115 1530.73,769.115 1531.16,769.115 1531.58,769.115 1532.01,769.115 1532.43,769.115 1532.86,769.115 1533.28,769.115 1533.71,769.763 1534.13,769.979 1534.56,769.979 1534.99,769.979 1535.41,769.979 1535.84,769.979 1536.26,769.979 1536.69,769.979 1537.11,769.979 1537.54,769.979 1537.96,769.979 1538.39,769.979 1538.81,769.979 1539.24,769.979 1539.66,769.979 1540.09,769.979 1540.51,769.763 1540.94,769.331 1541.36,769.331 1541.79,769.115 1542.21,769.115 1542.64,769.331 1543.06,769.763 1543.49,769.331 1543.91,769.763 1544.34,769.763 1544.76,769.763 1545.19,769.979 1545.61,769.979 1546.04,769.979 1546.46,769.979 1546.89,769.979 1547.31,769.979 1547.74,769.979 1548.16,769.979 1548.59,769.979 1549.01,769.979 1549.44,769.979 1549.87,769.979 1550.29,769.763 1550.72,769.763 1551.14,769.979 1551.57,769.763 1551.99,769.763 1552.42,769.763 1552.84,769.763 1553.27,769.763 1553.69,769.763 1554.12,769.331 1554.54,769.331 1554.97,769.331 1555.39,769.763 1555.82,769.763 1556.24,769.763 1556.67,769.763 1557.09,769.763 1557.52,769.763 1557.94,769.331 1558.37,769.763 1558.79,769.979 1559.22,769.979 1559.64,769.979 1560.07,769.979 1560.49,769.979 1560.92,769.979 1561.34,769.979 1561.77,769.979 1562.19,769.979 1562.62,769.979 1563.04,769.979 1563.47,769.979 1563.89,769.979 1564.32,769.331 1564.75,769.331 1565.17,769.115 1565.6,769.115 1566.02,769.115 1566.45,769.115 1566.87,769.115 1567.3,769.115 1567.72,769.115 1568.15,769.115 1568.57,769.331 1569,769.763 1569.42,769.763 1569.85,769.979 1570.27,769.979 1570.7,769.979 1571.12,769.979 1571.55,769.979 1571.97,769.979 1572.4,769.979 1572.82,769.979 1573.25,769.979 1573.67,769.979 1574.1,769.979 1574.52,769.979 1574.95,769.979 1575.37,769.979 1575.8,769.763 1576.22,769.763 1576.65,769.763 1577.07,769.763 1577.5,769.331 1577.92,769.331 1578.35,769.331 1578.77,769.331 1579.2,769.763 1579.63,769.763 1580.05,769.979 1580.48,769.979 1580.9,769.979 1581.33,769.979 1581.75,769.979 1582.18,769.979 1582.6,769.979 1583.03,769.979 1583.45,769.979 1583.88,769.763 1584.3,769.331 1584.73,769.331 1585.15,769.331 1585.58,769.331 1586,769.763 1586.43,769.979 1586.85,769.979 1587.28,769.763 1587.7,769.979 1588.13,769.979 1588.55,769.979 1588.98,769.979 1589.4,769.979 1589.83,769.979 1590.25,769.979 1590.68,769.763 1591.1,769.763 1591.53,769.763 1591.95,769.979 1592.38,769.979 1592.8,769.979 1593.23,769.979 1593.65,769.979 1594.08,769.979 1594.51,769.979 1594.93,769.979 1595.36,769.979 1595.78,769.979 1596.21,769.331 1596.63,768.899 1597.06,768.899 1597.48,768.899 1597.91,768.899 1598.33,768.899 1598.76,768.899 1599.18,768.899 1599.61,769.115 1600.03,769.331 1600.46,769.331 1600.88,769.979 1601.31,769.979 1601.73,769.979 1602.16,769.979 1602.58,769.979 1603.01,769.979 1603.43,769.979 1603.86,769.979 1604.28,769.979 1604.71,769.979 1605.13,769.979 1605.56,769.979 1605.98,769.979 1606.41,769.979 1606.83,769.763 1607.26,769.331 1607.68,769.331 1608.11,769.331 " />
</g>

<g fill="#ff0000" fill-opacity="1" stroke="#ff0000" stroke-opacity="1" stroke-width="1" stroke-linecap="square" stroke-linejoin="bevel" transform="matrix(0.757783,0,0,0.7578,749.381,539.906)"
font-family="Helvetica" font-size="13" font-weight="700" font-style="normal" 
>
<text fill="#ff0000" fill-opacity="1" stroke="none" xml:space="preserve" x="0" y="0" font-family="Helvetica" font-size="13" font-weight="700" font-style="normal" 
 >Average V = 0.11 LUX</text>
</g>

<g fill="#ff0000" fill-opacity="0.701961" stroke="#ff0000" stroke-opacity="0.701961" stroke-dasharray="10,6" stroke-dashoffset="0" stroke-width="1.97917" stroke-linecap="butt" stroke-linejoin="round" transform="matrix(0.757783,0,0,0.7578,-158.197,-32.9641)"
font-family="Helvetica" font-size="13" font-weight="700" font-style="normal" 
>
<polyline fill="none" vector-effect="none" points="250,767.657 1738,767.657 " />
</g>

<g fill="#ffffff" fill-opacity="1" stroke="none" transform="matrix(7.57783e-05,0,0,7.578e-05,-158.197,-32.9641)"
font-family="Helvetica" font-size="13" font-weight="700" font-style="normal" 
>
<path vector-effect="none" fill-rule="evenodd" d="M1.523e+07,790000 L1.523e+07,1.14e+06 L1.705e+07,1.14e+06 L1.705e+07,790000 L1.523e+07,790000"/>
</g>

<g fill="#ff00ff" fill-opacity="1" stroke="#ff00ff" stroke-opacity="1" stroke-width="1.97917" stroke-linecap="butt" stroke-linejoin="round" transform="matrix(0.757783,0,0,0.7578,-158.197,-32.9641)"
font-family="Helvetica" font-size="13" font-weight="700" font-style="normal" 
>
<polyline fill="none" vector-effect="none" points="1527,89.098 1566.61,89.098 " />
</g>

<g fill="#ff0000" fill-opacity="0.701961" stroke="#ff0000" stroke-opacity="0.701961" stroke-dasharray="10,6" stroke-dashoffset="0" stroke-width="1.97917" stroke-linecap="butt" stroke-linejoin="round" transform="matrix(0.757783,0,0,0.7578,-158.197,-32.9641)"
font-family="Helvetica" font-size="13" font-weight="700" font-style="normal" 
>
<polyline fill="none" vector-effect="none" points="1527,104.811 1566.61,104.811 " />
</g>

<g fill="#212121" fill-opacity="1" stroke="#212121" stroke-opacity="1" stroke-width="1" stroke-linecap="square" stroke-linejoin="bevel" transform="matrix(0.757783,0,0,0.7578,1031.52,35.9957)"
font-family="Helvetica" font-size="11" font-weight="400" font-style="normal" 
>
<text fill="#212121" fill-opacity="1" stroke="none" xml:space="preserve" x="0" y="0" font-family="Helvetica" font-size="11" font-weight="400" font-style="normal" 
 >Instantaneous Error (V</text>
</g>

<g fill="#212121" fill-opacity="1" stroke="#212121" stroke-opacity="1" stroke-width="1" stroke-linecap="square" stroke-linejoin="bevel" transform="matrix(0.757783,0,0,0.7578,1115.64,39.7847)"
font-family="Helvetica" font-size="9" font-weight="400" font-style="normal" 
>
<text fill="#212121" fill-opacity="1" stroke="none" xml:space="preserve" x="0" y="0" font-family="Helvetica" font-size="9" font-weight="400" font-style="normal" 
 >k</text>
</g>

<g fill="#212121" fill-opacity="1" stroke="#212121" stroke-opacity="1" stroke-width="1" stroke-linecap="square" stroke-linejoin="bevel" transform="matrix(0.757783,0,0,0.7578,1119.42,35.9957)"
font-family="Helvetica" font-size="11" font-weight="400" font-style="normal" 
>
<text fill="#212121" fill-opacity="1" stroke="none" xml:space="preserve" x="0" y="0" font-family="Helvetica" font-size="11" font-weight="400" font-style="normal" 
 >)</text>
</g>

<g fill="#212121" fill-opacity="1" stroke="#212121" stroke-opacity="1" stroke-width="1" stroke-linecap="square" stroke-linejoin="bevel" transform="matrix(0.757783,0,0,0.7578,1031.23,49.1142)"
font-family="Helvetica" font-size="11" font-weight="400" font-style="normal" 
>
<text fill="#212121" fill-opacity="1" stroke="none" xml:space="preserve" x="0" y="0" font-family="Helvetica" font-size="11" font-weight="400" font-style="normal" 
 >Mean Visibility Error (V)</text>
</g>

<g fill="none" stroke="#212121" stroke-opacity="1" stroke-width="0.659722" stroke-linecap="butt" stroke-linejoin="miter" stroke-miterlimit="5" transform="matrix(0.757783,0,0,0.7578,-158.197,-32.9641)"
font-family="Helvetica" font-size="11" font-weight="400" font-style="normal" 
>
<path vector-effect="none" fill-rule="evenodd" d="M1523,114 L1523,79 L1705,79 L1705,114 L1523,114"/>
</g>
</g>
</svg>
