<?xml version="1.0" encoding="UTF-8" standalone="no"?>
<svg width="411.692mm" height="210.256mm"
 viewBox="0 0 1167 596"
 xmlns="http://www.w3.org/2000/svg" xmlns:xlink="http://www.w3.org/1999/xlink"  version="1.2" baseProfile="tiny">
<title>Qt SVG Document</title>
<desc>MATLAB, The MathWorks, Inc. Version 25.2.0.3123386 R2025b Update 3</desc>
<defs>
</defs>
<g fill="none" stroke="black" stroke-width="1" fill-rule="evenodd" stroke-linecap="square" stroke-linejoin="bevel" >

<g fill="#ffffff" fill-opacity="1" stroke="none" transform="matrix(0.757778,0,0,0.7578,-158.196,-32.9641)"
font-family="Sans Serif" font-size="9" font-weight="400" font-style="normal" 
>
<path vector-effect="none" fill-rule="evenodd" d="M207,42 L1748,42 L1748,830 L207,830 L207,42"/>
</g>

<g fill="#ffffff" fill-opacity="1" stroke="none" transform="matrix(7.57778e-05,0,0,7.578e-05,-158.196,-32.9641)"
font-family="Sans Serif" font-size="9" font-weight="400" font-style="normal" 
>
<path vector-effect="none" fill-rule="evenodd" d="M2.5e+06,660000 L2.5e+06,7.89e+06 L1.739e+07,7.89e+06 L1.739e+07,660000 L2.5e+06,660000"/>
</g>

<g fill="#212121" fill-opacity="0.14902" stroke="#212121" stroke-opacity="0.14902" stroke-width="0.659722" stroke-linecap="butt" stroke-linejoin="round" transform="matrix(0.757778,0,0,0.7578,-158.196,-32.9641)"
font-family="Sans Serif" font-size="9" font-weight="400" font-style="normal" 
>
<polyline fill="none" vector-effect="none" points="250,66 250,789 " />
<polyline fill="none" vector-effect="none" points="498.167,66 498.167,789 " />
<polyline fill="none" vector-effect="none" points="746.333,66 746.333,789 " />
<polyline fill="none" vector-effect="none" points="994.5,66 994.5,789 " />
<polyline fill="none" vector-effect="none" points="1242.67,66 1242.67,789 " />
<polyline fill="none" vector-effect="none" points="1490.83,66 1490.83,789 " />
<polyline fill="none" vector-effect="none" points="1739,66 1739,789 " />
<polyline fill="none" vector-effect="none" points="250,789 1739,789 " />
<polyline fill="none" vector-effect="none" points="250,702.044 1739,702.044 " />
<polyline fill="none" vector-effect="none" points="250,615.089 1739,615.089 " />
<polyline fill="none" vector-effect="none" points="250,528.134 1739,528.134 " />
<polyline fill="none" vector-effect="none" points="250,441.178 1739,441.178 " />
<polyline fill="none" vector-effect="none" points="250,354.223 1739,354.223 " />
<polyline fill="none" vector-effect="none" points="250,267.267 1739,267.267 " />
<polyline fill="none" vector-effect="none" points="250,180.312 1739,180.312 " />
<polyline fill="none" vector-effect="none" points="250,93.3562 1739,93.3562 " />
</g>

<g fill="#212121" fill-opacity="1" stroke="#212121" stroke-opacity="1" stroke-width="1" stroke-linecap="square" stroke-linejoin="bevel" transform="matrix(0.757778,0,0,0.7578,573.817,591.916)"
font-family="Helvetica" font-size="15" font-weight="700" font-style="normal" 
>
<text fill="#212121" fill-opacity="1" stroke="none" xml:space="preserve" x="0" y="0" font-family="Helvetica" font-size="15" font-weight="700" font-style="normal" 
 >Time [s]</text>
</g>

<g fill="#212121" fill-opacity="1" stroke="#212121" stroke-opacity="1" stroke-width="0.659722" stroke-linecap="square" stroke-linejoin="round" transform="matrix(0.757778,0,0,0.7578,-158.196,-32.9641)"
font-family="Helvetica" font-size="15" font-weight="700" font-style="normal" 
>
<polyline fill="none" vector-effect="none" points="250,789 1739,789 " />
<polyline fill="none" vector-effect="none" points="250,66 1739,66 " />
<polyline fill="none" vector-effect="none" points="250,789 250,774.11 " />
<polyline fill="none" vector-effect="none" points="250,80.89 250,66 " />
<polyline fill="none" vector-effect="none" points="498.167,789 498.167,774.11 " />
<polyline fill="none" vector-effect="none" points="498.167,80.89 498.167,66 " />
<polyline fill="none" vector-effect="none" points="746.333,789 746.333,774.11 " />
<polyline fill="none" vector-effect="none" points="746.333,80.89 746.333,66 " />
<polyline fill="none" vector-effect="none" points="994.5,789 994.5,774.11 " />
<polyline fill="none" vector-effect="none" points="994.5,80.89 994.5,66 " />
<polyline fill="none" vector-effect="none" points="1242.67,789 1242.67,774.11 " />
<polyline fill="none" vector-effect="none" points="1242.67,80.89 1242.67,66 " />
<polyline fill="none" vector-effect="none" points="1490.83,789 1490.83,774.11 " />
<polyline fill="none" vector-effect="none" points="1490.83,80.89 1490.83,66 " />
<polyline fill="none" vector-effect="none" points="1739,789 1739,774.11 " />
<polyline fill="none" vector-effect="none" points="1739,80.89 1739,66 " />
</g>

<g fill="#212121" fill-opacity="1" stroke="#212121" stroke-opacity="1" stroke-width="1" stroke-linecap="square" stroke-linejoin="bevel" transform="matrix(0.757778,0,0,0.7578,28.5958,578.034)"
font-family="Helvetica" font-size="13" font-weight="400" font-style="normal" 
>
<text fill="#212121" fill-opacity="1" stroke="none" xml:space="preserve" x="0" y="0" font-family="Helvetica" font-size="13" font-weight="400" font-style="normal" 
 >0</text>
</g>

<g fill="#212121" fill-opacity="1" stroke="#212121" stroke-opacity="1" stroke-width="1" stroke-linecap="square" stroke-linejoin="bevel" transform="matrix(0.757778,0,0,0.7578,216.651,578.034)"
font-family="Helvetica" font-size="13" font-weight="400" font-style="normal" 
>
<text fill="#212121" fill-opacity="1" stroke="none" xml:space="preserve" x="0" y="0" font-family="Helvetica" font-size="13" font-weight="400" font-style="normal" 
 >5</text>
</g>

<g fill="#212121" fill-opacity="1" stroke="#212121" stroke-opacity="1" stroke-width="1" stroke-linecap="square" stroke-linejoin="bevel" transform="matrix(0.757778,0,0,0.7578,402.054,578.034)"
font-family="Helvetica" font-size="13" font-weight="400" font-style="normal" 
>
<text fill="#212121" fill-opacity="1" stroke="none" xml:space="preserve" x="0" y="0" font-family="Helvetica" font-size="13" font-weight="400" font-style="normal" 
 >10</text>
</g>

<g fill="#212121" fill-opacity="1" stroke="#212121" stroke-opacity="1" stroke-width="1" stroke-linecap="square" stroke-linejoin="bevel" transform="matrix(0.757778,0,0,0.7578,590.109,578.034)"
font-family="Helvetica" font-size="13" font-weight="400" font-style="normal" 
>
<text fill="#212121" fill-opacity="1" stroke="none" xml:space="preserve" x="0" y="0" font-family="Helvetica" font-size="13" font-weight="400" font-style="normal" 
 >15</text>
</g>

<g fill="#212121" fill-opacity="1" stroke="#212121" stroke-opacity="1" stroke-width="1" stroke-linecap="square" stroke-linejoin="bevel" transform="matrix(0.757778,0,0,0.7578,778.165,578.034)"
font-family="Helvetica" font-size="13" font-weight="400" font-style="normal" 
>
<text fill="#212121" fill-opacity="1" stroke="none" xml:space="preserve" x="0" y="0" font-family="Helvetica" font-size="13" font-weight="400" font-style="normal" 
 >20</text>
</g>

<g fill="#212121" fill-opacity="1" stroke="#212121" stroke-opacity="1" stroke-width="1" stroke-linecap="square" stroke-linejoin="bevel" transform="matrix(0.757778,0,0,0.7578,966.22,578.034)"
font-family="Helvetica" font-size="13" font-weight="400" font-style="normal" 
>
<text fill="#212121" fill-opacity="1" stroke="none" xml:space="preserve" x="0" y="0" font-family="Helvetica" font-size="13" font-weight="400" font-style="normal" 
 >25</text>
</g>

<g fill="#212121" fill-opacity="1" stroke="#212121" stroke-opacity="1" stroke-width="1" stroke-linecap="square" stroke-linejoin="bevel" transform="matrix(0.757778,0,0,0.7578,1154.28,578.034)"
font-family="Helvetica" font-size="13" font-weight="400" font-style="normal" 
>
<text fill="#212121" fill-opacity="1" stroke="none" xml:space="preserve" x="0" y="0" font-family="Helvetica" font-size="13" font-weight="400" font-style="normal" 
 >30</text>
</g>

<g fill="#212121" fill-opacity="1" stroke="#212121" stroke-opacity="1" stroke-width="1" stroke-linecap="square" stroke-linejoin="bevel" transform="matrix(0,-0.7578,0.757778,0,9.85135,345.178)"
font-family="Helvetica" font-size="15" font-weight="700" font-style="normal" 
>
<text fill="#212121" fill-opacity="1" stroke="none" xml:space="preserve" x="0" y="0" font-family="Helvetica" font-size="15" font-weight="700" font-style="normal" 
 >Visibility Error [Lux]</text>
</g>

<g fill="#212121" fill-opacity="1" stroke="#212121" stroke-opacity="1" stroke-width="0.659722" stroke-linecap="square" stroke-linejoin="round" transform="matrix(0.757778,0,0,0.7578,-158.196,-32.9641)"
font-family="Helvetica" font-size="15" font-weight="700" font-style="normal" 
>
<polyline fill="none" vector-effect="none" points="250,789 250,66 " />
<polyline fill="none" vector-effect="none" points="1739,789 1739,66 " />
<polyline fill="none" vector-effect="none" points="250,789 264.89,789 " />
<polyline fill="none" vector-effect="none" points="1724.11,789 1739,789 " />
<polyline fill="none" vector-effect="none" points="250,702.044 264.89,702.044 " />
<polyline fill="none" vector-effect="none" points="1724.11,702.044 1739,702.044 " />
<polyline fill="none" vector-effect="none" points="250,615.089 264.89,615.089 " />
<polyline fill="none" vector-effect="none" points="1724.11,615.089 1739,615.089 " />
<polyline fill="none" vector-effect="none" points="250,528.134 264.89,528.134 " />
<polyline fill="none" vector-effect="none" points="1724.11,528.134 1739,528.134 " />
<polyline fill="none" vector-effect="none" points="250,441.178 264.89,441.178 " />
<polyline fill="none" vector-effect="none" points="1724.11,441.178 1739,441.178 " />
<polyline fill="none" vector-effect="none" points="250,354.223 264.89,354.223 " />
<polyline fill="none" vector-effect="none" points="1724.11,354.223 1739,354.223 " />
<polyline fill="none" vector-effect="none" points="250,267.267 264.89,267.267 " />
<polyline fill="none" vector-effect="none" points="1724.11,267.267 1739,267.267 " />
<polyline fill="none" vector-effect="none" points="250,180.312 264.89,180.312 " />
<polyline fill="none" vector-effect="none" points="1724.11,180.312 1739,180.312 " />
<polyline fill="none" vector-effect="none" points="250,93.3562 264.89,93.3562 " />
<polyline fill="none" vector-effect="none" points="1724.11,93.3562 1739,93.3562 " />
</g>

<g fill="#212121" fill-opacity="1" stroke="#212121" stroke-opacity="1" stroke-width="1" stroke-linecap="square" stroke-linejoin="bevel" transform="matrix(0.757778,0,0,0.7578,21.9442,568.351)"
font-family="Helvetica" font-size="13" font-weight="400" font-style="normal" 
>
<text fill="#212121" fill-opacity="1" stroke="none" xml:space="preserve" x="0" y="0" font-family="Helvetica" font-size="13" font-weight="400" font-style="normal" 
 >0</text>
</g>

<g fill="#212121" fill-opacity="1" stroke="#212121" stroke-opacity="1" stroke-width="1" stroke-linecap="square" stroke-linejoin="bevel" transform="matrix(0.757778,0,0,0.7578,21.9442,502.456)"
font-family="Helvetica" font-size="13" font-weight="400" font-style="normal" 
>
<text fill="#212121" fill-opacity="1" stroke="none" xml:space="preserve" x="0" y="0" font-family="Helvetica" font-size="13" font-weight="400" font-style="normal" 
 >5</text>
</g>

<g fill="#212121" fill-opacity="1" stroke="#212121" stroke-opacity="1" stroke-width="1" stroke-linecap="square" stroke-linejoin="bevel" transform="matrix(0.757778,0,0,0.7578,16.6398,436.561)"
font-family="Helvetica" font-size="13" font-weight="400" font-style="normal" 
>
<text fill="#212121" fill-opacity="1" stroke="none" xml:space="preserve" x="0" y="0" font-family="Helvetica" font-size="13" font-weight="400" font-style="normal" 
 >10</text>
</g>

<g fill="#212121" fill-opacity="1" stroke="#212121" stroke-opacity="1" stroke-width="1" stroke-linecap="square" stroke-linejoin="bevel" transform="matrix(0.757778,0,0,0.7578,16.6398,370.666)"
font-family="Helvetica" font-size="13" font-weight="400" font-style="normal" 
>
<text fill="#212121" fill-opacity="1" stroke="none" xml:space="preserve" x="0" y="0" font-family="Helvetica" font-size="13" font-weight="400" font-style="normal" 
 >15</text>
</g>

<g fill="#212121" fill-opacity="1" stroke="#212121" stroke-opacity="1" stroke-width="1" stroke-linecap="square" stroke-linejoin="bevel" transform="matrix(0.757778,0,0,0.7578,16.6398,304.771)"
font-family="Helvetica" font-size="13" font-weight="400" font-style="normal" 
>
<text fill="#212121" fill-opacity="1" stroke="none" xml:space="preserve" x="0" y="0" font-family="Helvetica" font-size="13" font-weight="400" font-style="normal" 
 >20</text>
</g>

<g fill="#212121" fill-opacity="1" stroke="#212121" stroke-opacity="1" stroke-width="1" stroke-linecap="square" stroke-linejoin="bevel" transform="matrix(0.757778,0,0,0.7578,16.6398,238.876)"
font-family="Helvetica" font-size="13" font-weight="400" font-style="normal" 
>
<text fill="#212121" fill-opacity="1" stroke="none" xml:space="preserve" x="0" y="0" font-family="Helvetica" font-size="13" font-weight="400" font-style="normal" 
 >25</text>
</g>

<g fill="#212121" fill-opacity="1" stroke="#212121" stroke-opacity="1" stroke-width="1" stroke-linecap="square" stroke-linejoin="bevel" transform="matrix(0.757778,0,0,0.7578,16.6398,172.981)"
font-family="Helvetica" font-size="13" font-weight="400" font-style="normal" 
>
<text fill="#212121" fill-opacity="1" stroke="none" xml:space="preserve" x="0" y="0" font-family="Helvetica" font-size="13" font-weight="400" font-style="normal" 
 >30</text>
</g>

<g fill="#212121" fill-opacity="1" stroke="#212121" stroke-opacity="1" stroke-width="1" stroke-linecap="square" stroke-linejoin="bevel" transform="matrix(0.757778,0,0,0.7578,16.6398,107.086)"
font-family="Helvetica" font-size="13" font-weight="400" font-style="normal" 
>
<text fill="#212121" fill-opacity="1" stroke="none" xml:space="preserve" x="0" y="0" font-family="Helvetica" font-size="13" font-weight="400" font-style="normal" 
 >35</text>
</g>

<g fill="#212121" fill-opacity="1" stroke="#212121" stroke-opacity="1" stroke-width="1" stroke-linecap="square" stroke-linejoin="bevel" transform="matrix(0.757778,0,0,0.7578,16.6398,41.1914)"
font-family="Helvetica" font-size="13" font-weight="400" font-style="normal" 
>
<text fill="#212121" fill-opacity="1" stroke="none" xml:space="preserve" x="0" y="0" font-family="Helvetica" font-size="13" font-weight="400" font-style="normal" 
 >40</text>
</g>

<g fill="#212121" fill-opacity="1" stroke="#212121" stroke-opacity="1" stroke-width="1" stroke-linecap="square" stroke-linejoin="bevel" transform="matrix(0.757778,0,0,0.7578,519.257,11.3672)"
font-family="Helvetica" font-size="18" font-weight="700" font-style="normal" 
>
<text fill="#212121" fill-opacity="1" stroke="none" xml:space="preserve" x="0" y="0" font-family="Helvetica" font-size="18" font-weight="700" font-style="normal" 
 >Visibility Error Analysis</text>
</g>

<g fill="none" stroke="#ff00ff" stroke-opacity="1" stroke-width="1.97917" stroke-linecap="butt" stroke-linejoin="round" transform="matrix(0.757778,0,0,0.7578,-158.196,-32.9641)"
font-family="Helvetica" font-size="18" font-weight="700" font-style="normal" 
>
<polyline fill="none" vector-effect="none" points="250,789 250.496,789 250.993,789 251.489,789 251.985,789 252.482,789 252.978,789 253.474,789 253.971,789 254.467,789 254.963,789 255.46,789 255.956,789 256.452,789 256.949,789 257.445,789 257.941,789 258.438,789 258.934,789 259.43,789 259.927,789 260.423,789 260.919,789 261.416,789 261.912,789 262.408,789 262.905,789 263.401,789 263.897,789 264.394,789 264.89,789 265.386,789 265.883,789 266.379,789 266.875,789 267.372,789 267.868,789 268.364,789 268.861,789 269.357,789 269.853,789 270.35,789 270.846,789 271.342,789 271.839,789 272.335,789 272.831,789 273.328,789 273.824,789 274.32,789 274.817,789 275.313,789 275.809,789 276.306,789 276.802,789 277.298,789 277.795,789 278.291,789 278.787,789 279.284,789 279.78,789 280.276,789 280.773,789 281.269,789 281.765,789 282.262,789 282.758,789 283.254,789 283.751,789 284.247,789 284.743,789 285.24,789 285.736,789 286.232,789 286.729,789 287.225,789 287.721,789 288.218,789 288.714,789 289.21,789 289.707,789 290.203,789 290.699,789 291.196,789 291.692,789 292.188,789 292.685,789 293.181,789 293.677,789 294.174,789 294.67,789 295.166,789 295.663,789 296.159,789 296.655,789 297.152,789 297.648,789 298.144,789 298.641,789 299.137,789 299.633,789 300.13,789 300.626,789 301.122,789 301.619,789 302.115,789 302.611,789 303.108,789 303.604,789 304.1,789 304.597,789 305.093,789 305.589,789 306.086,789 306.582,789 307.078,789 307.575,789 308.071,789 308.567,789 309.064,789 309.56,789 310.056,789 310.553,789 311.049,789 311.545,789 312.042,789 312.538,789 313.034,789 313.531,789 314.027,789 314.523,789 315.02,789 315.516,789 316.012,789 316.509,789 317.005,789 317.501,789 317.998,789 318.494,789 318.99,789 319.487,789 319.983,789 320.479,789 320.976,789 321.472,789 321.968,789 322.465,789 322.961,789 323.457,789 323.954,789 324.45,789 324.946,789 325.443,789 325.939,789 326.435,789 326.932,789 327.428,789 327.924,789 328.421,789 328.917,789 329.413,789 329.91,789 330.406,789 330.902,789 331.399,789 331.895,789 332.391,789 332.888,789 333.384,789 333.88,789 334.377,789 334.873,789 335.369,789 335.866,789 336.362,789 336.858,789 337.355,789 337.851,789 338.347,789 338.844,789 339.34,789 339.836,789 340.333,789 340.829,789 341.325,789 341.822,789 342.318,789 342.814,789 343.311,789 343.807,789 344.303,789 344.8,789 345.296,789 345.792,789 346.289,789 346.785,789 347.281,789 347.778,789 348.274,789 348.77,789 349.267,789 349.763,789 350.259,789 350.756,789 351.252,789 351.748,789 352.245,789 352.741,789 353.237,789 353.734,789 354.23,789 354.726,789 355.223,789 355.719,789 356.215,789 356.712,789 357.208,789 357.704,789 358.201,789 358.697,789 359.193,789 359.69,789 360.186,789 360.682,789 361.179,789 361.675,789 362.171,789 362.668,789 363.164,789 363.66,789 364.157,789 364.653,789 365.149,789 365.646,789 366.142,789 366.638,789 367.135,789 367.631,789 368.127,789 368.624,789 369.12,789 369.616,789 370.113,789 370.609,789 371.105,789 371.602,789 372.098,789 372.594,789 373.091,789 373.587,789 374.083,789 374.58,789 375.076,789 375.572,789 376.069,789 376.565,789 377.061,789 377.558,789 378.054,789 378.55,789 379.047,789 379.543,789 380.039,789 380.536,789 381.032,789 381.528,789 382.025,789 382.521,789 383.017,789 383.514,789 384.01,789 384.506,789 385.003,789 385.499,789 385.995,789 386.492,789 386.988,789 387.484,789 387.981,789 388.477,789 388.973,789 389.47,789 389.966,789 390.462,789 390.959,789 391.455,789 391.951,789 392.448,789 392.944,789 393.44,789 393.937,789 394.433,789 394.929,789 395.426,789 395.922,789 396.418,789 396.915,789 397.411,789 397.907,789 398.404,789 398.9,789 399.396,789 399.893,789 400.389,789 400.885,789 401.382,789 401.878,789 402.374,789 402.871,789 403.367,789 403.863,789 404.36,789 404.856,789 405.352,789 405.849,789 406.345,789 406.841,789 407.338,789 407.834,789 408.33,789 408.827,789 409.323,789 409.819,789 410.316,789 410.812,789 411.308,789 411.805,789 412.301,789 412.797,789 413.294,789 413.79,789 414.286,789 414.783,789 415.279,789 415.775,789 416.272,789 416.768,789 417.264,789 417.761,789 418.257,789 418.753,789 419.25,789 419.746,789 420.242,789 420.739,789 421.235,789 421.731,789 422.228,789 422.724,789 423.22,789 423.717,789 424.213,789 424.709,789 425.206,789 425.702,789 426.198,789 426.695,789 427.191,789 427.687,789 428.184,789 428.68,789 429.176,789 429.673,789 430.169,789 430.665,789 431.162,789 431.658,789 432.154,789 432.651,789 433.147,789 433.643,789 434.14,789 434.636,789 435.132,789 435.629,789 436.125,789 436.621,789 437.118,789 437.614,789 438.11,628.306 438.607,628.306 439.103,628.306 439.599,628.306 440.096,628.48 440.592,628.48 441.088,630.567 441.585,633.698 442.081,637.524 442.577,641.871 443.074,646.393 443.57,650.045 444.066,653.871 444.563,657.523 445.059,661.002 445.555,663.089 446.052,665.871 446.548,667.958 447.044,670.045 447.541,671.436 448.037,673.175 448.533,674.393 449.03,675.436 449.526,676.306 450.022,677.349 450.519,677.697 451.015,678.045 451.511,678.219 452.008,678.74 452.504,679.262 453,679.262 453.497,679.262 453.993,679.436 454.489,679.436 454.986,679.436 455.482,679.436 455.978,679.436 456.475,679.436 456.971,679.436 457.467,679.436 457.964,679.436 458.46,679.436 458.956,679.436 459.453,679.61 459.949,679.61 460.445,679.61 460.942,679.784 461.438,679.61 461.934,679.61 462.431,679.61 462.927,679.61 463.423,679.784 463.92,679.784 464.416,679.784 464.912,679.958 465.409,679.784 465.905,679.784 466.401,679.958 466.898,679.958 467.394,679.958 467.89,679.958 468.387,679.958 468.883,679.958 469.379,679.958 469.876,679.958 470.372,679.958 470.868,679.958 471.365,679.958 471.861,679.958 472.357,679.958 472.854,679.958 473.35,679.958 473.846,679.958 474.343,679.958 474.839,679.958 475.335,679.958 475.832,679.958 476.328,679.958 476.824,679.958 477.321,679.958 477.817,679.958 478.313,679.958 478.81,679.958 479.306,679.958 479.802,679.958 480.299,679.958 480.795,680.132 481.291,680.132 481.788,680.132 482.284,680.132 482.78,680.132 483.277,680.306 483.773,680.48 484.269,680.48 484.766,680.48 485.262,680.48 485.758,680.306 486.255,680.48 486.751,680.306 487.247,680.306 487.744,680.306 488.24,680.306 488.736,680.306 489.233,680.306 489.729,680.306 490.225,680.306 490.722,680.306 491.218,680.48 491.714,680.306 492.211,680.306 492.707,680.306 493.203,680.48 493.7,680.48 494.196,680.48 494.692,680.48 495.189,680.48 495.685,680.48 496.181,680.306 496.678,680.306 497.174,680.48 497.67,680.48 498.167,680.48 498.663,680.48 499.159,680.48 499.656,680.48 500.152,680.48 500.648,680.48 501.145,680.48 501.641,680.48 502.137,680.48 502.634,680.48 503.13,680.48 503.626,680.48 504.123,680.48 504.619,680.306 505.115,680.306 505.612,680.306 506.108,680.48 506.604,680.48 507.101,680.654 507.597,680.654 508.093,680.48 508.59,680.48 509.086,680.48 509.582,680.48 510.079,680.48 510.575,680.48 511.071,680.48 511.568,680.48 512.064,680.48 512.56,680.48 513.057,680.827 513.553,680.827 514.049,680.827 514.546,680.48 515.042,680.48 515.538,680.48 516.035,680.654 516.531,680.48 517.027,680.48 517.524,680.48 518.02,680.48 518.516,680.48 519.013,680.48 519.509,680.48 520.005,680.48 520.502,680.654 520.998,680.654 521.494,680.48 521.991,680.654 522.487,680.654 522.983,680.654 523.48,680.654 523.976,680.654 524.472,680.654 524.969,680.654 525.465,680.654 525.961,680.654 526.458,680.654 526.954,680.654 527.45,680.654 527.947,680.48 528.443,680.48 528.939,680.48 529.436,680.48 529.932,680.48 530.428,680.654 530.925,680.654 531.421,680.654 531.917,680.654 532.414,680.654 532.91,680.654 533.406,680.654 533.903,680.654 534.399,680.654 534.895,680.654 535.392,680.654 535.888,680.654 536.384,680.654 536.881,680.654 537.377,680.48 537.873,680.48 538.37,680.48 538.866,680.48 539.362,680.654 539.859,680.654 540.355,680.48 540.851,680.48 541.348,680.48 541.844,680.48 542.34,680.48 542.837,680.48 543.333,680.48 543.829,680.48 544.326,680.48 544.822,680.48 545.318,680.48 545.815,680.48 546.311,680.48 546.807,680.654 547.304,680.654 547.8,680.654 548.296,680.654 548.793,680.654 549.289,680.827 549.785,680.827 550.282,680.827 550.778,680.827 551.274,680.827 551.771,680.827 552.267,680.827 552.763,680.827 553.26,680.827 553.756,680.827 554.252,680.827 554.749,680.827 555.245,680.827 555.741,680.654 556.238,680.654 556.734,680.654 557.23,680.654 557.727,680.654 558.223,680.654 558.719,680.654 559.216,680.654 559.712,680.654 560.208,680.654 560.705,680.48 561.201,680.654 561.697,680.48 562.194,680.48 562.69,680.48 563.186,680.48 563.683,680.48 564.179,680.48 564.675,680.48 565.172,680.48 565.668,680.654 566.164,680.654 566.661,680.654 567.157,680.654 567.653,680.654 568.15,680.654 568.646,680.827 569.142,680.827 569.639,680.654 570.135,680.654 570.631,680.654 571.128,680.654 571.624,680.654 572.12,680.654 572.617,680.654 573.113,680.654 573.609,680.654 574.106,680.654 574.602,680.654 575.098,680.654 575.595,680.654 576.091,680.827 576.587,680.827 577.084,680.827 577.58,680.827 578.076,680.827 578.573,680.827 579.069,680.827 579.565,680.827 580.062,680.654 580.558,680.654 581.054,680.654 581.551,680.654 582.047,680.654 582.543,680.654 583.04,680.654 583.536,680.654 584.032,680.654 584.529,680.654 585.025,680.654 585.521,680.654 586.018,680.654 586.514,680.48 587.01,680.48 587.507,680.48 588.003,680.48 588.499,680.48 588.996,680.48 589.492,680.48 589.988,680.48 590.485,680.48 590.981,680.48 591.477,680.48 591.974,680.654 592.47,680.654 592.966,680.827 593.463,680.827 593.959,680.827 594.455,680.827 594.952,680.827 595.448,680.827 595.944,680.827 596.441,680.827 596.937,680.827 597.433,680.827 597.93,680.827 598.426,680.827 598.922,680.827 599.419,680.827 599.915,680.827 600.411,680.827 600.908,680.827 601.404,680.827 601.9,680.827 602.397,680.827 602.893,680.827 603.389,680.827 603.886,680.827 604.382,680.827 604.878,680.827 605.375,681.001 605.871,681.001 606.367,681.001 606.864,681.001 607.36,680.654 607.856,680.827 608.353,680.827 608.849,680.827 609.345,680.827 609.842,680.827 610.338,680.827 610.834,680.654 611.331,680.654 611.827,680.654 612.323,680.654 612.82,680.827 613.316,680.827 613.812,680.827 614.309,680.654 614.805,680.654 615.301,680.654 615.798,680.654 616.294,680.827 616.79,681.001 617.287,681.001 617.783,681.001 618.279,681.001 618.776,680.827 619.272,680.827 619.768,680.827 620.265,681.001 620.761,680.827 621.257,681.001 621.754,680.827 622.25,680.827 622.746,680.827 623.243,680.827 623.739,680.827 624.235,680.827 624.732,680.827 625.228,680.827 625.724,680.827 626.221,681.001 626.717,680.827 627.213,681.001 627.71,681.001 628.206,681.001 628.702,681.001 629.199,681.001 629.695,681.001 630.191,681.001 630.688,681.001 631.184,681.001 631.68,681.001 632.177,681.001 632.673,680.827 633.169,680.827 633.666,680.827 634.162,680.827 634.658,680.827 635.155,680.827 635.651,680.827 636.147,680.827 636.644,680.827 637.14,680.827 637.636,680.827 638.133,680.827 638.629,680.827 639.125,680.827 639.622,680.827 640.118,680.827 640.614,680.827 641.111,680.827 641.607,680.827 642.103,680.827 642.6,680.827 643.096,681.001 643.592,681.001 644.089,680.827 644.585,681.001 645.081,680.827 645.578,680.827 646.074,680.827 646.57,680.827 647.067,680.827 647.563,680.827 648.059,680.827 648.556,680.827 649.052,680.827 649.548,680.827 650.045,680.827 650.541,680.827 651.037,680.827 651.534,680.827 652.03,680.827 652.526,680.827 653.023,680.827 653.519,680.827 654.015,680.827 654.512,680.827 655.008,680.827 655.504,680.827 656.001,681.001 656.497,681.001 656.993,681.001 657.49,681.001 657.986,681.001 658.482,681.001 658.979,680.827 659.475,680.827 659.971,680.827 660.468,680.827 660.964,680.827 661.46,680.827 661.957,680.827 662.453,680.827 662.949,680.827 663.446,680.827 663.942,680.827 664.438,680.827 664.935,680.827 665.431,680.827 665.927,680.827 666.424,680.827 666.92,680.827 667.416,680.827 667.913,680.827 668.409,680.827 668.905,680.827 669.402,680.827 669.898,680.827 670.394,680.827 670.891,680.827 671.387,680.827 671.883,680.827 672.38,680.827 672.876,680.827 673.372,680.654 673.869,680.827 674.365,680.827 674.861,680.654 675.358,680.654 675.854,680.654 676.35,680.654 676.847,680.827 677.343,680.827 677.839,680.827 678.336,680.827 678.832,680.827 679.328,680.827 679.825,681.001 680.321,681.001 680.817,681.001 681.314,681.001 681.81,681.001 682.306,681.001 682.803,681.001 683.299,681.001 683.795,681.001 684.292,681.001 684.788,681.001 685.284,681.001 685.781,681.001 686.277,681.001 686.773,681.001 687.27,681.001 687.766,681.001 688.262,681.001 688.759,681.001 689.255,681.001 689.751,681.001 690.248,681.001 690.744,681.001 691.24,681.001 691.737,681.001 692.233,681.001 692.729,681.001 693.226,681.001 693.722,681.001 694.218,681.001 694.715,681.001 695.211,681.001 695.707,680.827 696.204,680.827 696.7,680.827 697.196,680.827 697.693,680.827 698.189,680.827 698.685,680.827 699.182,680.827 699.678,680.827 700.174,680.827 700.671,681.001 701.167,681.001 701.663,681.001 702.16,681.001 702.656,681.001 703.152,681.001 703.649,681.001 704.145,681.001 704.641,681.001 705.138,681.001 705.634,681.001 706.13,681.001 706.627,681.001 707.123,680.827 707.619,680.827 708.116,680.827 708.612,681.001 709.108,681.001 709.605,680.827 710.101,681.001 710.597,681.001 711.094,681.001 711.59,681.001 712.086,681.001 712.583,681.001 713.079,681.001 713.575,681.001 714.072,681.001 714.568,681.001 715.064,681.001 715.561,681.001 716.057,681.001 716.553,681.001 717.05,681.001 717.546,681.001 718.042,681.001 718.539,681.001 719.035,681.001 719.531,681.001 720.028,681.001 720.524,681.001 721.02,680.827 721.517,680.827 722.013,680.827 722.509,680.827 723.006,680.827 723.502,680.827 723.998,680.827 724.495,681.001 724.991,680.827 725.487,680.827 725.984,680.827 726.48,680.827 726.976,680.827 727.473,680.827 727.969,680.827 728.465,680.827 728.962,680.827 729.458,680.827 729.954,680.827 730.451,680.827 730.947,680.827 731.443,680.827 731.94,680.827 732.436,680.827 732.932,681.001 733.429,681.001 733.925,681.001 734.421,681.001 734.918,681.001 735.414,681.001 735.91,681.001 736.407,681.001 736.903,681.001 737.399,681.001 737.896,681.001 738.392,681.001 738.888,681.001 739.385,681.001 739.881,681.001 740.377,680.827 740.874,681.001 741.37,680.827 741.866,680.827 742.363,680.827 742.859,680.827 743.355,680.827 743.852,680.827 744.348,680.827 744.844,680.827 745.341,680.827 745.837,680.827 746.333,680.827 746.83,680.827 747.326,680.827 747.822,680.827 748.319,680.827 748.815,680.827 749.311,680.827 749.808,681.001 750.304,681.001 750.8,681.001 751.297,681.001 751.793,681.001 752.289,681.001 752.786,681.001 753.282,681.001 753.778,681.001 754.275,681.001 754.771,681.001 755.267,681.001 755.764,681.001 756.26,681.001 756.756,681.001 757.253,681.001 757.749,681.001 758.245,681.001 758.742,681.001 759.238,681.001 759.734,681.001 760.231,681.001 760.727,681.001 761.223,681.001 761.72,681.001 762.216,681.001 762.712,681.001 763.209,681.001 763.705,681.001 764.201,681.001 764.698,681.001 765.194,681.001 765.69,681.001 766.187,681.001 766.683,681.001 767.179,681.001 767.676,681.001 768.172,681.001 768.668,680.827 769.165,680.827 769.661,681.001 770.157,681.001 770.654,680.827 771.15,680.827 771.646,680.827 772.143,681.001 772.639,681.001 773.135,681.001 773.632,681.001 774.128,681.001 774.624,681.001 775.121,680.827 775.617,680.827 776.113,681.001 776.61,681.001 777.106,680.827 777.602,680.827 778.099,680.827 778.595,680.827 779.091,680.827 779.588,680.827 780.084,680.827 780.58,681.001 781.077,681.001 781.573,681.001 782.069,681.001 782.566,681.001 783.062,681.001 783.558,681.001 784.055,681.001 784.551,681.001 785.047,681.001 785.544,681.001 786.04,681.001 786.536,680.827 787.033,680.827 787.529,680.827 788.025,680.827 788.522,680.827 789.018,680.827 789.514,680.827 790.011,680.827 790.507,680.827 791.003,681.001 791.5,681.001 791.996,681.001 792.492,681.001 792.989,681.001 793.485,681.001 793.981,681.001 794.478,681.001 794.974,681.001 795.47,681.001 795.967,681.001 796.463,681.001 796.959,681.001 797.456,681.001 797.952,681.001 798.448,681.001 798.945,681.001 799.441,681.001 799.937,681.001 800.434,681.001 800.93,681.001 801.426,681.001 801.923,681.001 802.419,681.001 802.915,681.001 803.412,681.001 803.908,681.001 804.404,681.001 804.901,681.001 805.397,681.001 805.893,681.001 806.39,681.001 806.886,681.001 807.382,681.001 807.879,681.001 808.375,681.001 808.871,681.001 809.368,681.001 809.864,681.001 810.36,681.001 810.857,681.001 811.353,681.001 811.849,681.001 812.346,681.001 812.842,681.001 813.338,681.001 813.835,681.001 814.331,681.001 814.827,681.001 815.324,681.001 815.82,681.001 816.316,681.001 816.813,681.001 817.309,681.001 817.805,681.001 818.302,680.827 818.798,680.827 819.294,681.001 819.791,680.827 820.287,680.827 820.783,681.001 821.28,681.001 821.776,681.001 822.272,681.001 822.769,681.001 823.265,681.001 823.761,681.001 824.258,681.001 824.754,681.001 825.25,681.001 825.747,681.001 826.243,681.001 826.739,681.001 827.236,681.001 827.732,681.001 828.228,681.001 828.725,681.001 829.221,681.001 829.717,681.001 830.214,681.001 830.71,681.001 831.206,681.001 831.703,681.001 832.199,681.001 832.695,681.001 833.192,681.001 833.688,681.001 834.184,681.001 834.681,681.001 835.177,681.001 835.673,681.001 836.17,681.001 836.666,681.001 837.162,681.001 837.659,681.001 838.155,681.001 838.651,681.001 839.148,681.001 839.644,681.001 840.14,681.001 840.637,681.001 841.133,681.001 841.629,680.827 842.126,680.827 842.622,680.827 843.118,680.827 843.615,680.827 844.111,680.827 844.607,680.827 845.104,680.827 845.6,680.827 846.096,680.827 846.593,680.827 847.089,680.827 847.585,681.001 848.082,681.001 848.578,681.001 849.074,681.001 849.571,681.001 850.067,681.001 850.563,681.001 851.06,681.001 851.556,681.001 852.052,681.001 852.549,681.001 853.045,681.001 853.541,681.001 854.038,681.001 854.534,681.001 855.03,681.001 855.527,681.001 856.023,681.001 856.519,681.001 857.016,681.001 857.512,681.001 858.008,681.001 858.505,681.001 859.001,681.001 859.497,681.001 859.994,681.001 860.49,681.001 860.986,681.001 861.483,681.001 861.979,681.001 862.475,681.001 862.972,681.001 863.468,681.001 863.964,681.001 864.461,681.001 864.957,681.001 865.453,681.001 865.95,681.001 866.446,681.001 866.942,681.001 867.439,681.001 867.935,681.001 868.431,681.001 868.928,681.001 869.424,681.001 869.92,681.001 870.417,681.001 870.913,681.001 871.409,681.001 871.906,681.001 872.402,681.001 872.898,681.001 873.395,681.001 873.891,681.001 874.387,681.001 874.884,681.001 875.38,681.001 875.876,681.001 876.373,681.001 876.869,681.001 877.365,681.001 877.862,681.001 878.358,681.001 878.854,681.001 879.351,681.001 879.847,681.001 880.343,681.001 880.84,681.001 881.336,681.001 881.832,681.001 882.329,681.001 882.825,681.001 883.321,681.001 883.818,681.001 884.314,681.001 884.81,681.001 885.307,681.001 885.803,681.001 886.299,681.001 886.796,681.001 887.292,681.001 887.788,681.001 888.285,681.001 888.781,681.001 889.277,680.827 889.774,681.001 890.27,681.001 890.766,681.001 891.263,680.827 891.759,681.001 892.255,681.001 892.752,681.001 893.248,681.001 893.744,681.001 894.241,681.001 894.737,681.001 895.233,681.001 895.73,681.001 896.226,681.001 896.722,681.001 897.219,681.001 897.715,681.001 898.211,680.827 898.708,681.001 899.204,681.001 899.7,246.224 900.197,246.224 900.693,246.224 901.189,246.224 901.686,246.224 902.182,246.398 902.678,315.962 903.175,315.962 903.671,315.962 904.167,315.962 904.664,315.962 905.16,315.962 905.656,325.527 906.153,333.353 906.649,340.31 907.145,346.223 907.642,352.136 908.138,356.831 908.634,360.831 909.131,365.005 909.627,367.788 910.123,369.005 910.62,370.744 911.116,372.831 911.612,373.005 912.109,373.527 912.605,373.875 913.101,374.396 913.598,374.396 914.094,374.396 914.59,374.396 915.087,374.57 915.583,374.57 916.079,374.57 916.576,374.396 917.072,374.396 917.568,374.396 918.065,374.396 918.561,374.396 919.057,374.396 919.554,374.396 920.05,374.57 920.546,374.396 921.043,374.396 921.539,374.396 922.035,374.57 922.532,374.396 923.028,374.57 923.524,374.57 924.021,374.57 924.517,374.57 925.013,374.57 925.51,374.57 926.006,374.57 926.502,374.57 926.999,374.57 927.495,374.744 927.991,374.744 928.488,374.744 928.984,374.744 929.48,374.744 929.977,374.744 930.473,375.092 930.969,375.092 931.466,375.092 931.962,375.092 932.458,375.092 932.955,375.092 933.451,375.092 933.947,375.092 934.444,375.092 934.94,375.092 935.436,375.092 935.933,375.092 936.429,374.744 936.925,374.744 937.422,374.57 937.918,374.57 938.414,374.57 938.911,374.57 939.407,374.57 939.903,374.57 940.4,374.744 940.896,374.744 941.392,374.744 941.889,374.744 942.385,374.744 942.881,374.744 943.378,374.744 943.874,375.092 944.37,374.744 944.867,374.744 945.363,374.744 945.859,374.744 946.356,374.744 946.852,374.744 947.348,375.092 947.845,375.092 948.341,374.744 948.837,374.744 949.334,374.744 949.83,374.744 950.326,375.092 950.823,374.744 951.319,375.092 951.815,375.092 952.312,375.092 952.808,375.092 953.304,375.092 953.801,375.092 954.297,375.092 954.793,375.266 955.29,375.266 955.786,375.266 956.282,375.266 956.779,375.092 957.275,375.266 957.771,375.266 958.268,375.266 958.764,375.266 959.26,375.266 959.757,375.266 960.253,375.266 960.749,375.266 961.246,375.266 961.742,375.266 962.238,375.266 962.735,375.266 963.231,375.092 963.727,375.092 964.224,375.092 964.72,375.266 965.216,375.266 965.713,375.092 966.209,375.092 966.705,375.092 967.202,375.266 967.698,375.266 968.194,375.092 968.691,375.092 969.187,375.092 969.683,375.092 970.18,375.092 970.676,375.092 971.172,375.092 971.669,375.092 972.165,375.092 972.661,375.092 973.158,375.092 973.654,375.266 974.15,375.266 974.647,375.266 975.143,375.266 975.639,375.092 976.136,375.266 976.632,375.266 977.128,375.266 977.625,375.092 978.121,375.092 978.617,375.092 979.114,375.092 979.61,375.266 980.106,375.266 980.603,375.266 981.099,375.614 981.595,375.614 982.092,375.266 982.588,375.614 983.084,375.614 983.581,375.614 984.077,375.614 984.573,375.266 985.07,375.266 985.566,375.266 986.062,375.266 986.559,375.266 987.055,375.266 987.551,375.266 988.048,375.266 988.544,375.266 989.04,375.266 989.537,375.266 990.033,375.266 990.529,375.614 991.026,375.614 991.522,375.614 992.018,375.266 992.515,375.266 993.011,375.266 993.507,375.266 994.004,375.092 994.5,375.092 994.996,375.092 995.493,375.266 995.989,375.092 996.485,375.266 996.982,375.266 997.478,375.266 997.974,375.266 998.471,375.266 998.967,375.266 999.463,375.266 999.96,375.266 1000.46,375.266 1000.95,375.266 1001.45,375.266 1001.95,375.266 1002.44,375.266 1002.94,375.266 1003.43,375.266 1003.93,375.266 1004.43,375.266 1004.92,375.266 1005.42,375.092 1005.92,375.092 1006.41,375.092 1006.91,375.092 1007.4,375.092 1007.9,374.744 1008.4,375.092 1008.89,375.092 1009.39,375.092 1009.89,375.092 1010.38,375.092 1010.88,374.744 1011.38,374.744 1011.87,374.744 1012.37,374.744 1012.86,375.092 1013.36,375.092 1013.86,375.092 1014.35,375.092 1014.85,375.266 1015.35,375.266 1015.84,375.266 1016.34,375.614 1016.83,375.614 1017.33,375.614 1017.83,375.788 1018.32,375.788 1018.82,375.788 1019.32,375.788 1019.81,375.266 1020.31,375.266 1020.81,375.092 1021.3,375.266 1021.8,375.092 1022.29,375.266 1022.79,375.266 1023.29,375.266 1023.78,375.266 1024.28,375.266 1024.78,375.266 1025.27,375.266 1025.77,375.266 1026.27,375.266 1026.76,375.092 1027.26,374.744 1027.75,374.744 1028.25,374.744 1028.75,375.266 1029.24,375.266 1029.74,375.266 1030.24,375.266 1030.73,375.266 1031.23,375.092 1031.72,375.266 1032.22,375.266 1032.72,375.266 1033.21,375.266 1033.71,375.266 1034.21,375.266 1034.7,375.092 1035.2,375.266 1035.7,375.266 1036.19,375.266 1036.69,375.614 1037.18,375.614 1037.68,375.266 1038.18,375.266 1038.67,375.614 1039.17,375.614 1039.67,375.614 1040.16,375.788 1040.66,375.614 1041.16,375.614 1041.65,375.266 1042.15,375.266 1042.64,375.266 1043.14,375.266 1043.64,375.266 1044.13,375.266 1044.63,375.266 1045.13,375.266 1045.62,375.266 1046.12,375.092 1046.61,375.266 1047.11,375.266 1047.61,375.266 1048.1,375.266 1048.6,375.266 1049.1,375.266 1049.59,375.266 1050.09,375.266 1050.59,375.266 1051.08,375.614 1051.58,375.614 1052.07,375.614 1052.57,375.614 1053.07,375.614 1053.56,375.614 1054.06,375.614 1054.56,375.614 1055.05,375.614 1055.55,375.788 1056.05,375.788 1056.54,375.614 1057.04,375.614 1057.53,375.614 1058.03,375.614 1058.53,375.614 1059.02,375.614 1059.52,375.614 1060.02,375.614 1060.51,375.614 1061.01,375.614 1061.51,375.614 1062,375.614 1062.5,375.614 1062.99,375.614 1063.49,375.614 1063.99,375.266 1064.48,375.266 1064.98,375.266 1065.48,375.266 1065.97,375.266 1066.47,375.266 1066.96,375.092 1067.46,375.266 1067.96,375.266 1068.45,375.266 1068.95,375.266 1069.45,375.266 1069.94,375.266 1070.44,375.266 1070.94,375.266 1071.43,375.266 1071.93,375.266 1072.42,375.266 1072.92,375.266 1073.42,375.266 1073.91,375.266 1074.41,375.266 1074.91,375.266 1075.4,375.266 1075.9,375.266 1076.4,375.266 1076.89,375.266 1077.39,375.266 1077.88,375.266 1078.38,375.266 1078.88,375.266 1079.37,375.266 1079.87,375.266 1080.37,375.266 1080.86,375.266 1081.36,375.266 1081.85,375.266 1082.35,375.266 1082.85,375.266 1083.34,375.266 1083.84,375.266 1084.34,375.266 1084.83,375.266 1085.33,375.266 1085.83,375.266 1086.32,375.266 1086.82,375.266 1087.31,375.266 1087.81,375.266 1088.31,375.092 1088.8,375.092 1089.3,375.092 1089.8,375.092 1090.29,375.092 1090.79,375.266 1091.29,375.092 1091.78,375.092 1092.28,375.266 1092.77,375.266 1093.27,375.266 1093.77,375.266 1094.26,375.266 1094.76,375.266 1095.26,375.266 1095.75,375.266 1096.25,375.266 1096.74,375.266 1097.24,375.266 1097.74,375.266 1098.23,375.266 1098.73,375.266 1099.23,375.266 1099.72,375.266 1100.22,375.266 1100.72,375.266 1101.21,375.266 1101.71,375.266 1102.2,375.092 1102.7,375.092 1103.2,375.092 1103.69,375.092 1104.19,375.092 1104.69,375.092 1105.18,375.092 1105.68,375.092 1106.18,375.092 1106.67,375.092 1107.17,375.092 1107.66,375.266 1108.16,375.614 1108.66,375.614 1109.15,375.614 1109.65,375.614 1110.15,375.614 1110.64,375.614 1111.14,375.614 1111.63,375.092 1112.13,375.092 1112.63,375.092 1113.12,375.092 1113.62,375.092 1114.12,374.744 1114.61,374.744 1115.11,374.744 1115.61,374.744 1116.1,374.744 1116.6,374.744 1117.09,375.092 1117.59,375.092 1118.09,375.092 1118.58,375.092 1119.08,375.092 1119.58,375.266 1120.07,375.266 1120.57,375.266 1121.06,375.266 1121.56,375.266 1122.06,375.614 1122.55,375.266 1123.05,375.266 1123.55,375.266 1124.04,375.266 1124.54,375.266 1125.04,375.266 1125.53,375.266 1126.03,375.266 1126.52,375.266 1127.02,375.266 1127.52,375.266 1128.01,375.266 1128.51,375.266 1129.01,375.266 1129.5,375.266 1130,375.266 1130.5,375.266 1130.99,375.266 1131.49,375.266 1131.98,375.614 1132.48,375.266 1132.98,375.266 1133.47,375.614 1133.97,375.614 1134.47,375.614 1134.96,375.614 1135.46,375.614 1135.96,375.614 1136.45,375.266 1136.95,375.266 1137.44,375.266 1137.94,375.266 1138.44,375.266 1138.93,375.266 1139.43,375.266 1139.93,375.266 1140.42,375.266 1140.92,375.266 1141.41,375.266 1141.91,375.266 1142.41,375.266 1142.9,375.266 1143.4,375.266 1143.9,375.266 1144.39,375.266 1144.89,375.266 1145.39,375.092 1145.88,375.092 1146.38,375.092 1146.87,375.092 1147.37,375.266 1147.87,375.266 1148.36,375.266 1148.86,375.266 1149.36,375.266 1149.85,375.266 1150.35,375.266 1150.84,375.266 1151.34,375.266 1151.84,375.266 1152.33,375.266 1152.83,375.266 1153.33,375.614 1153.82,375.614 1154.32,375.614 1154.82,375.266 1155.31,375.266 1155.81,375.266 1156.3,375.266 1156.8,375.092 1157.3,375.092 1157.79,375.266 1158.29,375.266 1158.79,375.266 1159.28,375.266 1159.78,375.266 1160.28,375.266 1160.77,375.614 1161.27,375.266 1161.76,375.266 1162.26,375.266 1162.76,375.266 1163.25,375.266 1163.75,375.266 1164.25,375.266 1164.74,375.266 1165.24,375.266 1165.73,375.266 1166.23,375.266 1166.73,375.266 1167.22,375.266 1167.72,375.266 1168.22,375.266 1168.71,375.266 1169.21,375.266 1169.71,375.266 1170.2,375.092 1170.7,375.092 1171.19,375.092 1171.69,375.092 1172.19,375.092 1172.68,375.092 1173.18,375.092 1173.68,375.092 1174.17,375.092 1174.67,375.266 1175.17,375.266 1175.66,375.266 1176.16,375.266 1176.65,375.266 1177.15,375.266 1177.65,375.266 1178.14,375.266 1178.64,375.266 1179.14,375.266 1179.63,375.266 1180.13,375.266 1180.63,375.092 1181.12,375.092 1181.62,375.092 1182.11,375.092 1182.61,375.092 1183.11,375.092 1183.6,375.092 1184.1,375.092 1184.6,375.092 1185.09,375.092 1185.59,375.092 1186.08,375.092 1186.58,375.092 1187.08,375.092 1187.57,375.092 1188.07,375.092 1188.57,375.092 1189.06,375.266 1189.56,375.092 1190.06,375.266 1190.55,375.266 1191.05,375.266 1191.54,375.266 1192.04,375.266 1192.54,375.266 1193.03,375.266 1193.53,375.266 1194.03,375.266 1194.52,375.266 1195.02,375.266 1195.52,375.266 1196.01,375.266 1196.51,375.266 1197,375.266 1197.5,375.266 1198,375.266 1198.49,375.092 1198.99,375.092 1199.49,375.092 1199.98,375.092 1200.48,375.092 1200.97,375.092 1201.47,375.092 1201.97,375.092 1202.46,375.092 1202.96,375.092 1203.46,375.092 1203.95,375.266 1204.45,375.266 1204.95,375.266 1205.44,375.266 1205.94,375.266 1206.43,375.266 1206.93,375.266 1207.43,375.266 1207.92,375.266 1208.42,375.092 1208.92,375.092 1209.41,375.092 1209.91,375.092 1210.41,375.092 1210.9,375.092 1211.4,375.092 1211.89,375.092 1212.39,375.092 1212.89,375.092 1213.38,375.092 1213.88,375.092 1214.38,375.092 1214.87,375.266 1215.37,375.266 1215.86,375.266 1216.36,375.266 1216.86,375.266 1217.35,375.266 1217.85,375.266 1218.35,375.266 1218.84,375.266 1219.34,375.266 1219.84,375.266 1220.33,375.266 1220.83,375.092 1221.32,375.266 1221.82,375.092 1222.32,375.092 1222.81,375.092 1223.31,375.092 1223.81,375.092 1224.3,375.092 1224.8,375.092 1225.29,375.092 1225.79,375.092 1226.29,375.092 1226.78,375.092 1227.28,375.092 1227.78,375.092 1228.27,375.092 1228.77,375.092 1229.27,375.092 1229.76,375.092 1230.26,375.092 1230.75,375.092 1231.25,375.092 1231.75,375.266 1232.24,375.266 1232.74,375.266 1233.24,375.266 1233.73,375.266 1234.23,375.266 1234.73,375.266 1235.22,375.266 1235.72,375.266 1236.21,375.266 1236.71,375.266 1237.21,375.266 1237.7,375.266 1238.2,375.092 1238.7,375.266 1239.19,375.266 1239.69,375.266 1240.19,375.266 1240.68,375.266 1241.18,375.266 1241.67,375.266 1242.17,375.266 1242.67,375.266 1243.16,375.266 1243.66,375.614 1244.16,375.614 1244.65,375.266 1245.15,375.266 1245.64,375.266 1246.14,375.266 1246.64,375.266 1247.13,375.266 1247.63,375.266 1248.13,375.266 1248.62,375.092 1249.12,375.092 1249.62,375.092 1250.11,375.092 1250.61,375.092 1251.1,375.092 1251.6,375.092 1252.1,375.092 1252.59,375.092 1253.09,375.092 1253.59,375.092 1254.08,375.092 1254.58,375.092 1255.07,375.092 1255.57,375.092 1256.07,375.266 1256.56,375.266 1257.06,375.266 1257.56,375.266 1258.05,375.266 1258.55,375.266 1259.05,375.266 1259.54,375.266 1260.04,375.266 1260.53,375.266 1261.03,375.266 1261.53,375.266 1262.02,375.266 1262.52,375.266 1263.02,375.266 1263.51,375.614 1264.01,375.266 1264.51,375.266 1265,375.266 1265.5,375.266 1265.99,375.266 1266.49,375.266 1266.99,375.266 1267.48,375.092 1267.98,375.092 1268.48,375.266 1268.97,375.092 1269.47,375.092 1269.96,375.092 1270.46,375.092 1270.96,375.092 1271.45,375.092 1271.95,375.092 1272.45,375.092 1272.94,375.266 1273.44,375.266 1273.94,375.092 1274.43,375.092 1274.93,375.092 1275.42,375.266 1275.92,375.266 1276.42,375.266 1276.91,375.266 1277.41,375.092 1277.91,375.092 1278.4,375.092 1278.9,375.092 1279.4,375.092 1279.89,375.092 1280.39,375.092 1280.88,375.092 1281.38,375.092 1281.88,375.092 1282.37,375.092 1282.87,375.092 1283.37,375.092 1283.86,375.092 1284.36,375.266 1284.85,375.266 1285.35,375.266 1285.85,374.744 1286.34,375.266 1286.84,375.266 1287.34,375.266 1287.83,374.744 1288.33,375.092 1288.83,374.744 1289.32,375.092 1289.82,375.092 1290.31,375.092 1290.81,375.266 1291.31,375.266 1291.8,375.266 1292.3,375.266 1292.8,375.266 1293.29,375.266 1293.79,375.266 1294.29,375.266 1294.78,375.266 1295.28,375.266 1295.77,375.266 1296.27,375.266 1296.77,375.266 1297.26,375.266 1297.76,375.266 1298.26,375.266 1298.75,375.266 1299.25,375.266 1299.74,375.266 1300.24,375.266 1300.74,375.266 1301.23,375.266 1301.73,375.092 1302.23,375.266 1302.72,375.092 1303.22,375.092 1303.72,375.092 1304.21,375.092 1304.71,375.092 1305.2,375.092 1305.7,375.092 1306.2,375.092 1306.69,375.092 1307.19,375.092 1307.69,375.092 1308.18,375.092 1308.68,375.092 1309.18,375.092 1309.67,375.266 1310.17,375.092 1310.66,375.092 1311.16,375.092 1311.66,375.092 1312.15,375.092 1312.65,375.092 1313.15,375.614 1313.64,375.614 1314.14,375.266 1314.64,375.266 1315.13,375.092 1315.63,375.092 1316.12,375.092 1316.62,375.092 1317.12,375.092 1317.61,375.266 1318.11,375.266 1318.61,375.092 1319.1,375.266 1319.6,375.266 1320.09,375.266 1320.59,375.266 1321.09,375.266 1321.58,375.266 1322.08,375.266 1322.58,375.266 1323.07,375.266 1323.57,375.266 1324.07,375.266 1324.56,375.266 1325.06,375.266 1325.55,375.266 1326.05,375.266 1326.55,375.266 1327.04,375.266 1327.54,375.266 1328.04,375.266 1328.53,375.266 1329.03,375.092 1329.53,375.092 1330.02,375.266 1330.52,375.266 1331.01,375.266 1331.51,375.092 1332.01,375.266 1332.5,375.266 1333,375.266 1333.5,375.266 1333.99,375.266 1334.49,375.266 1334.98,375.266 1335.48,375.266 1335.98,375.092 1336.47,375.092 1336.97,375.092 1337.47,375.092 1337.96,375.092 1338.46,375.092 1338.96,375.092 1339.45,375.092 1339.95,375.092 1340.44,375.092 1340.94,375.092 1341.44,375.092 1341.93,375.092 1342.43,375.092 1342.93,375.092 1343.42,375.266 1343.92,375.266 1344.41,375.092 1344.91,375.092 1345.41,375.092 1345.9,375.092 1346.4,375.092 1346.9,375.092 1347.39,375.092 1347.89,375.092 1348.39,375.092 1348.88,375.092 1349.38,375.092 1349.87,375.092 1350.37,375.092 1350.87,375.092 1351.36,375.092 1351.86,375.266 1352.36,375.266 1352.85,375.266 1353.35,375.266 1353.85,375.266 1354.34,375.266 1354.84,375.266 1355.33,375.266 1355.83,375.266 1356.33,375.266 1356.82,375.266 1357.32,375.266 1357.82,375.092 1358.31,375.092 1358.81,375.092 1359.31,375.092 1359.8,375.092 1360.3,375.092 1360.79,375.092 1361.29,375.092 1361.79,375.092 1362.28,375.092 1362.78,375.092 1363.28,375.266 1363.77,375.266 1364.27,375.266 1364.76,375.266 1365.26,375.266 1365.76,375.266 1366.25,375.092 1366.75,375.092 1367.25,375.092 1367.74,375.092 1368.24,375.092 1368.74,375.092 1369.23,375.092 1369.73,374.744 1370.22,374.744 1370.72,374.744 1371.22,375.092 1371.71,374.744 1372.21,374.744 1372.71,374.744 1373.2,374.744 1373.7,375.092 1374.19,374.744 1374.69,375.092 1375.19,375.092 1375.68,375.092 1376.18,375.092 1376.68,375.092 1377.17,375.092 1377.67,375.092 1378.17,375.092 1378.66,375.266 1379.16,375.266 1379.65,375.266 1380.15,375.266 1380.65,375.266 1381.14,375.092 1381.64,375.092 1382.14,375.092 1382.63,375.092 1383.13,375.092 1383.63,375.092 1384.12,375.092 1384.62,375.092 1385.11,375.092 1385.61,375.092 1386.11,375.092 1386.6,375.092 1387.1,375.092 1387.6,375.266 1388.09,375.266 1388.59,375.266 1389.09,375.266 1389.58,375.266 1390.08,375.092 1390.57,375.092 1391.07,375.092 1391.57,375.092 1392.06,375.092 1392.56,375.092 1393.06,375.092 1393.55,375.092 1394.05,375.092 1394.54,375.092 1395.04,375.092 1395.54,375.266 1396.03,375.266 1396.53,375.266 1397.03,375.266 1397.52,375.266 1398.02,375.614 1398.52,375.266 1399.01,375.266 1399.51,375.614 1400,375.266 1400.5,375.266 1401,375.266 1401.49,375.092 1401.99,375.092 1402.49,375.092 1402.98,375.092 1403.48,375.092 1403.97,375.092 1404.47,375.092 1404.97,374.744 1405.46,375.092 1405.96,375.092 1406.46,375.092 1406.95,375.092 1407.45,375.092 1407.95,375.092 1408.44,375.092 1408.94,375.092 1409.43,375.092 1409.93,375.092 1410.43,375.092 1410.92,375.092 1411.42,375.092 1411.92,375.092 1412.41,375.092 1412.91,375.092 1413.41,375.092 1413.9,375.092 1414.4,375.092 1414.89,375.092 1415.39,375.092 1415.89,375.092 1416.38,375.092 1416.88,375.092 1417.38,375.092 1417.87,375.092 1418.37,375.092 1418.86,375.092 1419.36,375.092 1419.86,375.092 1420.35,375.266 1420.85,375.266 1421.35,375.266 1421.84,375.266 1422.34,375.266 1422.84,375.266 1423.33,375.092 1423.83,375.092 1424.32,375.092 1424.82,375.092 1425.32,375.092 1425.81,375.092 1426.31,375.092 1426.81,375.092 1427.3,375.092 1427.8,375.092 1428.3,375.092 1428.79,375.092 1429.29,375.092 1429.78,375.092 1430.28,375.092 1430.78,375.092 1431.27,375.092 1431.77,375.092 1432.27,375.092 1432.76,375.092 1433.26,375.092 1433.76,375.092 1434.25,375.092 1434.75,375.092 1435.24,375.092 1435.74,375.092 1436.24,375.092 1436.73,375.092 1437.23,375.092 1437.73,375.092 1438.22,375.092 1438.72,375.092 1439.21,375.092 1439.71,375.092 1440.21,375.092 1440.7,375.092 1441.2,375.092 1441.7,375.092 1442.19,375.092 1442.69,375.092 1443.19,375.092 1443.68,375.092 1444.18,375.092 1444.67,374.744 1445.17,375.092 1445.67,374.744 1446.16,374.744 1446.66,375.092 1447.16,375.092 1447.65,375.092 1448.15,375.092 1448.65,375.092 1449.14,375.092 1449.64,375.092 1450.13,375.092 1450.63,375.092 1451.13,375.092 1451.62,375.092 1452.12,375.092 1452.62,375.092 1453.11,375.092 1453.61,375.092 1454.1,375.092 1454.6,375.092 1455.1,375.092 1455.59,375.092 1456.09,375.092 1456.59,375.092 1457.08,375.092 1457.58,375.092 1458.08,375.092 1458.57,375.092 1459.07,375.092 1459.56,375.092 1460.06,375.092 1460.56,375.092 1461.05,375.266 1461.55,375.092 1462.05,375.266 1462.54,375.266 1463.04,375.266 1463.54,375.266 1464.03,375.266 1464.53,375.266 1465.02,375.266 1465.52,375.092 1466.02,375.092 1466.51,375.092 1467.01,375.092 1467.51,375.092 1468,375.092 1468.5,375.092 1468.99,375.092 1469.49,375.092 1469.99,375.092 1470.48,374.744 1470.98,374.744 1471.48,374.744 1471.97,374.744 1472.47,374.744 1472.97,375.092 1473.46,375.092 1473.96,375.092 1474.45,375.092 1474.95,375.092 1475.45,375.092 1475.94,375.092 1476.44,375.092 1476.94,375.092 1477.43,375.092 1477.93,375.092 1478.43,375.092 1478.92,375.092 1479.42,375.092 1479.91,375.092 1480.41,375.092 1480.91,375.092 1481.4,375.092 1481.9,375.092 1482.4,789 1482.89,789 1483.39,789 1483.88,789 1484.38,789 1484.88,789 1485.37,722.044 1485.87,722.044 1486.37,722.044 1486.86,722.044 1487.36,722.044 1487.86,722.044 1488.35,713.175 1488.85,707.262 1489.34,701.871 1489.84,697.871 1490.34,694.045 1490.83,691.61 1491.33,688.479 1491.83,686.914 1492.32,685.349 1492.82,683.61 1493.31,683.262 1493.81,681.871 1494.31,681.697 1494.8,681.523 1495.3,681.523 1495.8,681.175 1496.29,681.175 1496.79,681.175 1497.29,681.175 1497.78,681.175 1498.28,681.175 1498.77,681.175 1499.27,681.523 1499.77,681.523 1500.26,681.523 1500.76,681.523 1501.26,681.523 1501.75,681.523 1502.25,681.697 1502.75,681.697 1503.24,681.523 1503.74,681.523 1504.23,681.523 1504.73,681.523 1505.23,681.523 1505.72,681.349 1506.22,681.349 1506.72,681.523 1507.21,681.523 1507.71,681.349 1508.21,681.523 1508.7,681.523 1509.2,681.523 1509.69,681.349 1510.19,681.349 1510.69,681.349 1511.18,681.349 1511.68,681.001 1512.18,681.001 1512.67,681.001 1513.17,681.001 1513.66,681.001 1514.16,681.001 1514.66,681.175 1515.15,681.175 1515.65,681.175 1516.15,681.175 1516.64,681.175 1517.14,681.175 1517.64,681.175 1518.13,681.175 1518.63,681.175 1519.12,681.175 1519.62,681.175 1520.12,681.175 1520.61,681.175 1521.11,681.001 1521.61,681.001 1522.1,681.001 1522.6,681.001 1523.09,681.001 1523.59,681.001 1524.09,681.001 1524.58,681.001 1525.08,681.001 1525.58,681.001 1526.07,681.001 1526.57,681.001 1527.07,681.001 1527.56,681.001 1528.06,681.001 1528.55,681.001 1529.05,681.001 1529.55,681.001 1530.04,681.001 1530.54,681.001 1531.04,681.001 1531.53,681.001 1532.03,681.001 1532.53,681.001 1533.02,681.001 1533.52,681.001 1534.01,681.001 1534.51,681.001 1535.01,681.001 1535.5,681.001 1536,681.001 1536.5,681.001 1536.99,681.001 1537.49,681.001 1537.98,681.001 1538.48,681.001 1538.98,681.001 1539.47,681.001 1539.97,681.001 1540.47,681.001 1540.96,681.001 1541.46,681.001 1541.96,681.001 1542.45,681.001 1542.95,681.001 1543.44,680.827 1543.94,681.001 1544.44,681.001 1544.93,681.001 1545.43,681.001 1545.93,681.001 1546.42,681.001 1546.92,681.001 1547.42,680.827 1547.91,680.827 1548.41,680.827 1548.9,680.827 1549.4,680.827 1549.9,680.827 1550.39,680.827 1550.89,680.827 1551.39,680.827 1551.88,680.827 1552.38,680.827 1552.88,680.827 1553.37,681.001 1553.87,681.001 1554.36,681.001 1554.86,681.001 1555.36,681.001 1555.85,681.001 1556.35,681.001 1556.85,681.001 1557.34,681.001 1557.84,681.001 1558.33,680.827 1558.83,680.827 1559.33,680.827 1559.82,680.827 1560.32,680.827 1560.82,680.827 1561.31,680.827 1561.81,680.827 1562.31,680.827 1562.8,680.827 1563.3,680.827 1563.79,680.654 1564.29,680.827 1564.79,681.001 1565.28,681.001 1565.78,681.001 1566.28,681.001 1566.77,681.001 1567.27,681.001 1567.77,681.001 1568.26,681.001 1568.76,681.001 1569.25,681.001 1569.75,681.001 1570.25,681.001 1570.74,681.001 1571.24,680.827 1571.74,680.827 1572.23,680.827 1572.73,680.827 1573.22,680.827 1573.72,680.827 1574.22,680.827 1574.71,680.827 1575.21,680.827 1575.71,680.827 1576.2,680.827 1576.7,680.827 1577.2,680.827 1577.69,680.827 1578.19,680.827 1578.68,680.827 1579.18,680.827 1579.68,680.827 1580.17,680.827 1580.67,680.827 1581.17,680.827 1581.66,680.827 1582.16,680.827 1582.66,680.827 1583.15,680.827 1583.65,680.827 1584.14,680.827 1584.64,680.827 1585.14,680.827 1585.63,680.827 1586.13,680.827 1586.63,680.827 1587.12,680.827 1587.62,680.827 1588.11,681.001 1588.61,680.827 1589.11,680.827 1589.6,680.827 1590.1,680.827 1590.6,680.827 1591.09,680.827 1591.59,680.827 1592.09,680.827 1592.58,680.827 1593.08,680.827 1593.57,680.827 1594.07,680.827 1594.57,680.827 1595.06,680.827 1595.56,680.827 1596.06,680.827 1596.55,680.827 1597.05,680.827 1597.54,680.827 1598.04,680.827 1598.54,680.827 1599.03,680.827 1599.53,680.827 1600.03,680.827 1600.52,680.827 1601.02,681.001 1601.52,681.001 1602.01,681.001 1602.51,681.001 1603,681.001 1603.5,681.001 1604,681.001 1604.49,681.001 1604.99,681.001 1605.49,681.001 1605.98,681.001 1606.48,681.001 1606.98,681.001 1607.47,680.827 1607.97,680.827 1608.46,680.827 1608.96,680.827 1609.46,680.827 1609.95,680.827 1610.45,680.827 1610.95,680.827 1611.44,680.827 1611.94,680.654 1612.44,680.654 1612.93,680.654 1613.43,680.827 1613.92,680.827 1614.42,680.827 1614.92,680.654 1615.41,680.654 1615.91,680.654 1616.41,680.654 1616.9,680.827 1617.4,681.001 1617.89,681.001 1618.39,681.001 1618.89,681.001 1619.38,681.001 1619.88,681.001 1620.38,681.001 1620.87,681.001 1621.37,681.001 1621.87,681.001 1622.36,680.827 1622.86,680.827 1623.35,680.827 1623.85,680.827 1624.35,680.827 1624.84,680.827 1625.34,680.827 1625.84,680.827 1626.33,680.827 1626.83,680.827 1627.32,681.001 1627.82,681.001 1628.32,681.001 1628.81,681.001 1629.31,681.001 1629.81,681.001 1630.3,681.001 1630.8,681.001 1631.3,681.001 1631.79,680.827 1632.29,680.827 1632.78,680.827 1633.28,680.827 1633.78,680.827 1634.27,680.827 1634.77,680.827 1635.27,680.827 1635.76,680.654 1636.26,680.654 1636.76,680.654 1637.25,680.654 1637.75,680.654 1638.24,680.654 1638.74,680.654 1639.24,680.654 1639.73,680.654 1640.23,680.654 1640.73,680.654 1641.22,680.654 1641.72,680.654 1642.21,680.654 1642.71,680.654 1643.21,680.827 1643.7,680.654 1644.2,680.654 1644.7,680.654 1645.19,680.654 1645.69,680.654 1646.19,680.654 1646.68,680.654 1647.18,680.654 1647.67,680.654 1648.17,680.654 1648.67,680.654 1649.16,680.654 1649.66,680.654 1650.16,681.001 1650.65,681.001 1651.15,681.001 1651.65,681.001 1652.14,681.001 1652.64,680.827 1653.13,680.827 1653.63,680.827 1654.13,680.827 1654.62,680.827 1655.12,680.827 1655.62,680.827 1656.11,680.827 1656.61,680.827 1657.1,680.827 1657.6,680.827 1658.1,680.827 1658.59,680.827 1659.09,680.827 1659.59,680.827 1660.08,680.827 1660.58,680.827 1661.08,680.827 1661.57,680.827 1662.07,680.827 1662.56,680.827 1663.06,680.827 1663.56,680.827 1664.05,680.827 1664.55,680.827 1665.05,680.654 1665.54,680.654 1666.04,680.654 1666.54,680.654 1667.03,680.654 1667.53,680.654 1668.02,680.654 1668.52,680.654 1669.02,680.654 1669.51,680.654 1670.01,680.654 1670.51,680.654 1671,680.654 1671.5,680.654 1671.99,680.654 1672.49,680.654 1672.99,680.654 1673.48,680.654 1673.98,680.654 1674.48,680.654 1674.97,680.654 1675.47,680.654 1675.97,680.654 1676.46,680.654 1676.96,680.654 1677.45,681.001 1677.95,681.001 1678.45,681.001 1678.94,681.001 1679.44,681.001 1679.94,681.001 1680.43,681.001 1680.93,681.001 1681.43,681.001 1681.92,681.001 1682.42,681.001 1682.91,681.001 1683.41,681.001 1683.91,681.001 1684.4,681.001 1684.9,681.001 1685.4,681.001 1685.89,681.001 1686.39,680.827 1686.89,680.654 1687.38,680.654 1687.88,680.654 1688.37,680.654 1688.87,680.654 1689.37,680.654 1689.86,680.654 1690.36,680.654 1690.86,680.654 1691.35,680.654 1691.85,680.827 1692.34,680.827 1692.84,680.827 1693.34,680.827 1693.83,680.827 1694.33,680.827 1694.83,680.827 1695.32,680.827 1695.82,680.827 1696.32,680.827 1696.81,680.827 1697.31,680.827 1697.8,680.827 1698.3,680.827 1698.8,680.827 1699.29,680.827 1699.79,680.827 1700.29,680.827 1700.78,680.827 1701.28,680.827 1701.78,680.827 1702.27,681.001 1702.77,680.827 1703.26,680.827 1703.76,680.827 1704.26,680.827 1704.75,680.827 1705.25,680.827 1705.75,680.827 1706.24,680.827 1706.74,680.827 1707.23,680.827 1707.73,680.827 1708.23,680.827 1708.72,680.827 1709.22,681.001 1709.72,681.001 1710.21,681.001 1710.71,681.001 1711.21,681.001 1711.7,681.001 1712.2,681.001 1712.69,681.001 1713.19,681.001 1713.69,681.001 1714.18,680.827 1714.68,680.827 1715.18,680.827 1715.67,680.827 1716.17,680.827 1716.66,680.654 1717.16,680.654 1717.66,680.654 1718.15,680.654 1718.65,680.654 1719.15,680.654 1719.64,680.827 1720.14,680.654 1720.64,680.654 1721.13,680.654 1721.63,680.654 1722.12,680.654 1722.62,680.654 1723.12,680.827 1723.61,680.827 1724.11,680.827 1724.61,681.001 1725.1,680.827 1725.6,680.827 1726.1,680.827 1726.59,680.654 1727.09,680.827 1727.58,680.827 1728.08,680.827 1728.58,680.827 " />
</g>

<g fill="#ff0000" fill-opacity="0.701961" stroke="#ff0000" stroke-opacity="0.701961" stroke-dasharray="10,6" stroke-dashoffset="0" stroke-width="1.97917" stroke-linecap="butt" stroke-linejoin="round" transform="matrix(0.757778,0,0,0.7578,-158.196,-32.9641)"
font-family="Helvetica" font-size="18" font-weight="700" font-style="normal" 
>
<polyline fill="none" vector-effect="none" points="250,573.802 1739,573.802 " />
</g>

<g fill="#ff0000" fill-opacity="1" stroke="#ff0000" stroke-opacity="1" stroke-width="1" stroke-linecap="square" stroke-linejoin="bevel" transform="matrix(0.757778,0,0,0.7578,1055.76,413.041)"
font-family="Helvetica" font-size="13" font-weight="400" font-style="normal" 
>
<text fill="#ff0000" fill-opacity="1" stroke="none" xml:space="preserve" x="0" y="0" font-family="Helvetica" font-size="13" font-weight="400" font-style="normal" 
 >Average V = 12.37 Lux</text>
</g>

<g fill="#ffffff" fill-opacity="1" stroke="none" transform="matrix(7.57778e-05,0,0,7.578e-05,-158.196,-32.9641)"
font-family="Helvetica" font-size="13" font-weight="400" font-style="normal" 
>
<path vector-effect="none" fill-rule="evenodd" d="M1.524e+07,790000 L1.524e+07,1.14e+06 L1.705e+07,1.14e+06 L1.705e+07,790000 L1.524e+07,790000"/>
</g>

<g fill="#ff00ff" fill-opacity="1" stroke="#ff00ff" stroke-opacity="1" stroke-width="1.97917" stroke-linecap="butt" stroke-linejoin="round" transform="matrix(0.757778,0,0,0.7578,-158.196,-32.9641)"
font-family="Helvetica" font-size="13" font-weight="400" font-style="normal" 
>
<polyline fill="none" vector-effect="none" points="1527.98,89.098 1567.37,89.098 " />
</g>

<g fill="#ff0000" fill-opacity="0.701961" stroke="#ff0000" stroke-opacity="0.701961" stroke-dasharray="10,6" stroke-dashoffset="0" stroke-width="1.97917" stroke-linecap="butt" stroke-linejoin="round" transform="matrix(0.757778,0,0,0.7578,-158.196,-32.9641)"
font-family="Helvetica" font-size="13" font-weight="400" font-style="normal" 
>
<polyline fill="none" vector-effect="none" points="1527.98,104.811 1567.37,104.811 " />
</g>

<g fill="#212121" fill-opacity="1" stroke="#212121" stroke-opacity="1" stroke-width="1" stroke-linecap="square" stroke-linejoin="bevel" transform="matrix(0.757778,0,0,0.7578,1031.52,35.9957)"
font-family="Helvetica" font-size="11" font-weight="400" font-style="normal" 
>
<text fill="#212121" fill-opacity="1" stroke="none" xml:space="preserve" x="0" y="0" font-family="Helvetica" font-size="11" font-weight="400" font-style="normal" 
 >Instantaneous Error (V</text>
</g>

<g fill="#212121" fill-opacity="1" stroke="#212121" stroke-opacity="1" stroke-width="1" stroke-linecap="square" stroke-linejoin="bevel" transform="matrix(0.757778,0,0,0.7578,1115.63,39.7847)"
font-family="Helvetica" font-size="9" font-weight="400" font-style="normal" 
>
<text fill="#212121" fill-opacity="1" stroke="none" xml:space="preserve" x="0" y="0" font-family="Helvetica" font-size="9" font-weight="400" font-style="normal" 
 >k</text>
</g>

<g fill="#212121" fill-opacity="1" stroke="#212121" stroke-opacity="1" stroke-width="1" stroke-linecap="square" stroke-linejoin="bevel" transform="matrix(0.757778,0,0,0.7578,1119.42,35.9957)"
font-family="Helvetica" font-size="11" font-weight="400" font-style="normal" 
>
<text fill="#212121" fill-opacity="1" stroke="none" xml:space="preserve" x="0" y="0" font-family="Helvetica" font-size="11" font-weight="400" font-style="normal" 
 >)</text>
</g>

<g fill="#212121" fill-opacity="1" stroke="#212121" stroke-opacity="1" stroke-width="1" stroke-linecap="square" stroke-linejoin="bevel" transform="matrix(0.757778,0,0,0.7578,1031.79,49.1142)"
font-family="Helvetica" font-size="11" font-weight="400" font-style="normal" 
>
<text fill="#212121" fill-opacity="1" stroke="none" xml:space="preserve" x="0" y="0" font-family="Helvetica" font-size="11" font-weight="400" font-style="normal" 
 >Mean Visibility Error (V)</text>
</g>

<g fill="none" stroke="#212121" stroke-opacity="1" stroke-width="0.659722" stroke-linecap="butt" stroke-linejoin="miter" stroke-miterlimit="5" transform="matrix(0.757778,0,0,0.7578,-158.196,-32.9641)"
font-family="Helvetica" font-size="11" font-weight="400" font-style="normal" 
>
<path vector-effect="none" fill-rule="evenodd" d="M1524,114 L1524,79 L1705,79 L1705,114 L1524,114"/>
</g>
</g>
</svg>
