<?xml version="1.0" encoding="UTF-8" standalone="no"?>
<svg width="411.692mm" height="209.903mm"
 viewBox="0 0 1167 595"
 xmlns="http://www.w3.org/2000/svg" xmlns:xlink="http://www.w3.org/1999/xlink"  version="1.2" baseProfile="tiny">
<title>Qt SVG Document</title>
<desc>MATLAB, The MathWorks, Inc. Version 25.2.0.3123386 R2025b Update 3</desc>
<defs>
</defs>
<g fill="none" stroke="black" stroke-width="1" fill-rule="evenodd" stroke-linecap="square" stroke-linejoin="bevel" >

<g fill="#ffffff" fill-opacity="1" stroke="none" transform="matrix(0.757778,0,0,0.7578,-158.196,-32.9641)"
font-family="Sans Serif" font-size="9" font-weight="400" font-style="normal" 
>
<path vector-effect="none" fill-rule="evenodd" d="M207,42 L1748,42 L1748,829 L207,829 L207,42"/>
</g>

<g fill="#ffffff" fill-opacity="1" stroke="none" transform="matrix(7.57778e-05,0,0,7.578e-05,-158.196,-32.9641)"
font-family="Sans Serif" font-size="9" font-weight="400" font-style="normal" 
>
<path vector-effect="none" fill-rule="evenodd" d="M2.5e+06,660000 L2.5e+06,7.88e+06 L1.739e+07,7.88e+06 L1.739e+07,660000 L2.5e+06,660000"/>
</g>

<g fill="#212121" fill-opacity="0.14902" stroke="#212121" stroke-opacity="0.14902" stroke-width="0.659722" stroke-linecap="butt" stroke-linejoin="round" transform="matrix(0.757778,0,0,0.7578,-158.196,-32.9641)"
font-family="Sans Serif" font-size="9" font-weight="400" font-style="normal" 
>
<polyline fill="none" vector-effect="none" points="250,66 250,788 " />
<polyline fill="none" vector-effect="none" points="498.167,66 498.167,788 " />
<polyline fill="none" vector-effect="none" points="746.333,66 746.333,788 " />
<polyline fill="none" vector-effect="none" points="994.5,66 994.5,788 " />
<polyline fill="none" vector-effect="none" points="1242.67,66 1242.67,788 " />
<polyline fill="none" vector-effect="none" points="1490.83,66 1490.83,788 " />
<polyline fill="none" vector-effect="none" points="1739,66 1739,788 " />
<polyline fill="none" vector-effect="none" points="250,788 1739,788 " />
<polyline fill="none" vector-effect="none" points="250,685.867 1739,685.867 " />
<polyline fill="none" vector-effect="none" points="250,583.734 1739,583.734 " />
<polyline fill="none" vector-effect="none" points="250,481.6 1739,481.6 " />
<polyline fill="none" vector-effect="none" points="250,379.467 1739,379.467 " />
<polyline fill="none" vector-effect="none" points="250,277.334 1739,277.334 " />
<polyline fill="none" vector-effect="none" points="250,175.201 1739,175.201 " />
<polyline fill="none" vector-effect="none" points="250,73.0676 1739,73.0676 " />
</g>

<g fill="#212121" fill-opacity="1" stroke="#212121" stroke-opacity="1" stroke-width="1" stroke-linecap="square" stroke-linejoin="bevel" transform="matrix(0.757778,0,0,0.7578,573.817,591.158)"
font-family="Helvetica" font-size="15" font-weight="700" font-style="normal" 
>
<text fill="#212121" fill-opacity="1" stroke="none" xml:space="preserve" x="0" y="0" font-family="Helvetica" font-size="15" font-weight="700" font-style="normal" 
 >Time [s]</text>
</g>

<g fill="#212121" fill-opacity="1" stroke="#212121" stroke-opacity="1" stroke-width="0.659722" stroke-linecap="square" stroke-linejoin="round" transform="matrix(0.757778,0,0,0.7578,-158.196,-32.9641)"
font-family="Helvetica" font-size="15" font-weight="700" font-style="normal" 
>
<polyline fill="none" vector-effect="none" points="250,788 1739,788 " />
<polyline fill="none" vector-effect="none" points="250,66 1739,66 " />
<polyline fill="none" vector-effect="none" points="250,788 250,773.11 " />
<polyline fill="none" vector-effect="none" points="250,80.89 250,66 " />
<polyline fill="none" vector-effect="none" points="498.167,788 498.167,773.11 " />
<polyline fill="none" vector-effect="none" points="498.167,80.89 498.167,66 " />
<polyline fill="none" vector-effect="none" points="746.333,788 746.333,773.11 " />
<polyline fill="none" vector-effect="none" points="746.333,80.89 746.333,66 " />
<polyline fill="none" vector-effect="none" points="994.5,788 994.5,773.11 " />
<polyline fill="none" vector-effect="none" points="994.5,80.89 994.5,66 " />
<polyline fill="none" vector-effect="none" points="1242.67,788 1242.67,773.11 " />
<polyline fill="none" vector-effect="none" points="1242.67,80.89 1242.67,66 " />
<polyline fill="none" vector-effect="none" points="1490.83,788 1490.83,773.11 " />
<polyline fill="none" vector-effect="none" points="1490.83,80.89 1490.83,66 " />
<polyline fill="none" vector-effect="none" points="1739,788 1739,773.11 " />
<polyline fill="none" vector-effect="none" points="1739,80.89 1739,66 " />
</g>

<g fill="#212121" fill-opacity="1" stroke="#212121" stroke-opacity="1" stroke-width="1" stroke-linecap="square" stroke-linejoin="bevel" transform="matrix(0.757778,0,0,0.7578,28.5958,577.276)"
font-family="Helvetica" font-size="13" font-weight="400" font-style="normal" 
>
<text fill="#212121" fill-opacity="1" stroke="none" xml:space="preserve" x="0" y="0" font-family="Helvetica" font-size="13" font-weight="400" font-style="normal" 
 >0</text>
</g>

<g fill="#212121" fill-opacity="1" stroke="#212121" stroke-opacity="1" stroke-width="1" stroke-linecap="square" stroke-linejoin="bevel" transform="matrix(0.757778,0,0,0.7578,216.651,577.276)"
font-family="Helvetica" font-size="13" font-weight="400" font-style="normal" 
>
<text fill="#212121" fill-opacity="1" stroke="none" xml:space="preserve" x="0" y="0" font-family="Helvetica" font-size="13" font-weight="400" font-style="normal" 
 >5</text>
</g>

<g fill="#212121" fill-opacity="1" stroke="#212121" stroke-opacity="1" stroke-width="1" stroke-linecap="square" stroke-linejoin="bevel" transform="matrix(0.757778,0,0,0.7578,402.054,577.276)"
font-family="Helvetica" font-size="13" font-weight="400" font-style="normal" 
>
<text fill="#212121" fill-opacity="1" stroke="none" xml:space="preserve" x="0" y="0" font-family="Helvetica" font-size="13" font-weight="400" font-style="normal" 
 >10</text>
</g>

<g fill="#212121" fill-opacity="1" stroke="#212121" stroke-opacity="1" stroke-width="1" stroke-linecap="square" stroke-linejoin="bevel" transform="matrix(0.757778,0,0,0.7578,590.109,577.276)"
font-family="Helvetica" font-size="13" font-weight="400" font-style="normal" 
>
<text fill="#212121" fill-opacity="1" stroke="none" xml:space="preserve" x="0" y="0" font-family="Helvetica" font-size="13" font-weight="400" font-style="normal" 
 >15</text>
</g>

<g fill="#212121" fill-opacity="1" stroke="#212121" stroke-opacity="1" stroke-width="1" stroke-linecap="square" stroke-linejoin="bevel" transform="matrix(0.757778,0,0,0.7578,778.165,577.276)"
font-family="Helvetica" font-size="13" font-weight="400" font-style="normal" 
>
<text fill="#212121" fill-opacity="1" stroke="none" xml:space="preserve" x="0" y="0" font-family="Helvetica" font-size="13" font-weight="400" font-style="normal" 
 >20</text>
</g>

<g fill="#212121" fill-opacity="1" stroke="#212121" stroke-opacity="1" stroke-width="1" stroke-linecap="square" stroke-linejoin="bevel" transform="matrix(0.757778,0,0,0.7578,966.22,577.276)"
font-family="Helvetica" font-size="13" font-weight="400" font-style="normal" 
>
<text fill="#212121" fill-opacity="1" stroke="none" xml:space="preserve" x="0" y="0" font-family="Helvetica" font-size="13" font-weight="400" font-style="normal" 
 >25</text>
</g>

<g fill="#212121" fill-opacity="1" stroke="#212121" stroke-opacity="1" stroke-width="1" stroke-linecap="square" stroke-linejoin="bevel" transform="matrix(0.757778,0,0,0.7578,1154.28,577.276)"
font-family="Helvetica" font-size="13" font-weight="400" font-style="normal" 
>
<text fill="#212121" fill-opacity="1" stroke="none" xml:space="preserve" x="0" y="0" font-family="Helvetica" font-size="13" font-weight="400" font-style="normal" 
 >30</text>
</g>

<g fill="#212121" fill-opacity="1" stroke="#212121" stroke-opacity="1" stroke-width="1" stroke-linecap="square" stroke-linejoin="bevel" transform="matrix(0,-0.7578,0.757778,0,9.85135,345.936)"
font-family="Helvetica" font-size="15" font-weight="700" font-style="normal" 
>
<text fill="#212121" fill-opacity="1" stroke="none" xml:space="preserve" x="0" y="0" font-family="Helvetica" font-size="15" font-weight="700" font-style="normal" 
 >Visibility Error [LUX]</text>
</g>

<g fill="#212121" fill-opacity="1" stroke="#212121" stroke-opacity="1" stroke-width="0.659722" stroke-linecap="square" stroke-linejoin="round" transform="matrix(0.757778,0,0,0.7578,-158.196,-32.9641)"
font-family="Helvetica" font-size="15" font-weight="700" font-style="normal" 
>
<polyline fill="none" vector-effect="none" points="250,788 250,66 " />
<polyline fill="none" vector-effect="none" points="1739,788 1739,66 " />
<polyline fill="none" vector-effect="none" points="250,788 264.89,788 " />
<polyline fill="none" vector-effect="none" points="1724.11,788 1739,788 " />
<polyline fill="none" vector-effect="none" points="250,685.867 264.89,685.867 " />
<polyline fill="none" vector-effect="none" points="1724.11,685.867 1739,685.867 " />
<polyline fill="none" vector-effect="none" points="250,583.734 264.89,583.734 " />
<polyline fill="none" vector-effect="none" points="1724.11,583.734 1739,583.734 " />
<polyline fill="none" vector-effect="none" points="250,481.6 264.89,481.6 " />
<polyline fill="none" vector-effect="none" points="1724.11,481.6 1739,481.6 " />
<polyline fill="none" vector-effect="none" points="250,379.467 264.89,379.467 " />
<polyline fill="none" vector-effect="none" points="1724.11,379.467 1739,379.467 " />
<polyline fill="none" vector-effect="none" points="250,277.334 264.89,277.334 " />
<polyline fill="none" vector-effect="none" points="1724.11,277.334 1739,277.334 " />
<polyline fill="none" vector-effect="none" points="250,175.201 264.89,175.201 " />
<polyline fill="none" vector-effect="none" points="1724.11,175.201 1739,175.201 " />
<polyline fill="none" vector-effect="none" points="250,73.0676 264.89,73.0676 " />
<polyline fill="none" vector-effect="none" points="1724.11,73.0676 1739,73.0676 " />
</g>

<g fill="#212121" fill-opacity="1" stroke="#212121" stroke-opacity="1" stroke-width="1" stroke-linecap="square" stroke-linejoin="bevel" transform="matrix(0.757778,0,0,0.7578,21.9442,567.593)"
font-family="Helvetica" font-size="13" font-weight="400" font-style="normal" 
>
<text fill="#212121" fill-opacity="1" stroke="none" xml:space="preserve" x="0" y="0" font-family="Helvetica" font-size="13" font-weight="400" font-style="normal" 
 >0</text>
</g>

<g fill="#212121" fill-opacity="1" stroke="#212121" stroke-opacity="1" stroke-width="1" stroke-linecap="square" stroke-linejoin="bevel" transform="matrix(0.757778,0,0,0.7578,21.9442,490.196)"
font-family="Helvetica" font-size="13" font-weight="400" font-style="normal" 
>
<text fill="#212121" fill-opacity="1" stroke="none" xml:space="preserve" x="0" y="0" font-family="Helvetica" font-size="13" font-weight="400" font-style="normal" 
 >5</text>
</g>

<g fill="#212121" fill-opacity="1" stroke="#212121" stroke-opacity="1" stroke-width="1" stroke-linecap="square" stroke-linejoin="bevel" transform="matrix(0.757778,0,0,0.7578,16.6398,412.8)"
font-family="Helvetica" font-size="13" font-weight="400" font-style="normal" 
>
<text fill="#212121" fill-opacity="1" stroke="none" xml:space="preserve" x="0" y="0" font-family="Helvetica" font-size="13" font-weight="400" font-style="normal" 
 >10</text>
</g>

<g fill="#212121" fill-opacity="1" stroke="#212121" stroke-opacity="1" stroke-width="1" stroke-linecap="square" stroke-linejoin="bevel" transform="matrix(0.757778,0,0,0.7578,16.6398,335.403)"
font-family="Helvetica" font-size="13" font-weight="400" font-style="normal" 
>
<text fill="#212121" fill-opacity="1" stroke="none" xml:space="preserve" x="0" y="0" font-family="Helvetica" font-size="13" font-weight="400" font-style="normal" 
 >15</text>
</g>

<g fill="#212121" fill-opacity="1" stroke="#212121" stroke-opacity="1" stroke-width="1" stroke-linecap="square" stroke-linejoin="bevel" transform="matrix(0.757778,0,0,0.7578,16.6398,258.006)"
font-family="Helvetica" font-size="13" font-weight="400" font-style="normal" 
>
<text fill="#212121" fill-opacity="1" stroke="none" xml:space="preserve" x="0" y="0" font-family="Helvetica" font-size="13" font-weight="400" font-style="normal" 
 >20</text>
</g>

<g fill="#212121" fill-opacity="1" stroke="#212121" stroke-opacity="1" stroke-width="1" stroke-linecap="square" stroke-linejoin="bevel" transform="matrix(0.757778,0,0,0.7578,16.6398,180.61)"
font-family="Helvetica" font-size="13" font-weight="400" font-style="normal" 
>
<text fill="#212121" fill-opacity="1" stroke="none" xml:space="preserve" x="0" y="0" font-family="Helvetica" font-size="13" font-weight="400" font-style="normal" 
 >25</text>
</g>

<g fill="#212121" fill-opacity="1" stroke="#212121" stroke-opacity="1" stroke-width="1" stroke-linecap="square" stroke-linejoin="bevel" transform="matrix(0.757778,0,0,0.7578,16.6398,103.213)"
font-family="Helvetica" font-size="13" font-weight="400" font-style="normal" 
>
<text fill="#212121" fill-opacity="1" stroke="none" xml:space="preserve" x="0" y="0" font-family="Helvetica" font-size="13" font-weight="400" font-style="normal" 
 >30</text>
</g>

<g fill="#212121" fill-opacity="1" stroke="#212121" stroke-opacity="1" stroke-width="1" stroke-linecap="square" stroke-linejoin="bevel" transform="matrix(0.757778,0,0,0.7578,16.6398,25.8167)"
font-family="Helvetica" font-size="13" font-weight="400" font-style="normal" 
>
<text fill="#212121" fill-opacity="1" stroke="none" xml:space="preserve" x="0" y="0" font-family="Helvetica" font-size="13" font-weight="400" font-style="normal" 
 >35</text>
</g>

<g fill="#212121" fill-opacity="1" stroke="#212121" stroke-opacity="1" stroke-width="1" stroke-linecap="square" stroke-linejoin="bevel" transform="matrix(0.757778,0,0,0.7578,519.257,11.3672)"
font-family="Helvetica" font-size="18" font-weight="700" font-style="normal" 
>
<text fill="#212121" fill-opacity="1" stroke="none" xml:space="preserve" x="0" y="0" font-family="Helvetica" font-size="18" font-weight="700" font-style="normal" 
 >Visibility Error Analysis</text>
</g>

<g fill="none" stroke="#ff00ff" stroke-opacity="1" stroke-width="1.97917" stroke-linecap="butt" stroke-linejoin="round" transform="matrix(0.757778,0,0,0.7578,-158.196,-32.9641)"
font-family="Helvetica" font-size="18" font-weight="700" font-style="normal" 
>
<polyline fill="none" vector-effect="none" points="250,788 250.496,788 250.993,788 251.489,788 251.985,788 252.482,788 252.978,788 253.474,788 253.971,788 254.467,788 254.963,788 255.46,788 255.956,788 256.452,788 256.949,788 257.445,788 257.941,788 258.438,788 258.934,788 259.43,788 259.927,788 260.423,788 260.919,788 261.416,788 261.912,788 262.408,788 262.905,788 263.401,788 263.897,788 264.394,788 264.89,788 265.386,788 265.883,788 266.379,788 266.875,788 267.372,788 267.868,788 268.364,788 268.861,788 269.357,788 269.853,788 270.35,788 270.846,788 271.342,788 271.839,788 272.335,788 272.831,788 273.328,788 273.824,788 274.32,788 274.817,788 275.313,788 275.809,788 276.306,788 276.802,788 277.298,788 277.795,788 278.291,788 278.787,788 279.284,788 279.78,788 280.276,788 280.773,788 281.269,788 281.765,788 282.262,788 282.758,788 283.254,788 283.751,788 284.247,788 284.743,788 285.24,788 285.736,788 286.232,788 286.729,788 287.225,788 287.721,788 288.218,788 288.714,788 289.21,788 289.707,788 290.203,788 290.699,788 291.196,788 291.692,788 292.188,788 292.685,788 293.181,788 293.677,788 294.174,788 294.67,788 295.166,788 295.663,788 296.159,788 296.655,788 297.152,788 297.648,788 298.144,788 298.641,788 299.137,788 299.633,788 300.13,788 300.626,788 301.122,788 301.619,788 302.115,788 302.611,788 303.108,788 303.604,788 304.1,788 304.597,788 305.093,788 305.589,788 306.086,788 306.582,788 307.078,788 307.575,788 308.071,788 308.567,788 309.064,788 309.56,788 310.056,788 310.553,788 311.049,788 311.545,788 312.042,788 312.538,788 313.034,788 313.531,788 314.027,788 314.523,788 315.02,788 315.516,788 316.012,788 316.509,788 317.005,788 317.501,788 317.998,788 318.494,788 318.99,788 319.487,788 319.983,788 320.479,788 320.976,788 321.472,788 321.968,788 322.465,788 322.961,788 323.457,788 323.954,788 324.45,788 324.946,788 325.443,788 325.939,788 326.435,788 326.932,788 327.428,788 327.924,788 328.421,788 328.917,788 329.413,788 329.91,788 330.406,788 330.902,788 331.399,788 331.895,788 332.391,788 332.888,788 333.384,788 333.88,788 334.377,788 334.873,788 335.369,788 335.866,788 336.362,788 336.858,788 337.355,788 337.851,788 338.347,788 338.844,788 339.34,788 339.836,788 340.333,788 340.829,788 341.325,788 341.822,788 342.318,788 342.814,788 343.311,788 343.807,788 344.303,788 344.8,788 345.296,788 345.792,788 346.289,788 346.785,788 347.281,788 347.778,788 348.274,788 348.77,788 349.267,788 349.763,788 350.259,788 350.756,788 351.252,788 351.748,788 352.245,788 352.741,788 353.237,788 353.734,788 354.23,788 354.726,788 355.223,788 355.719,788 356.215,788 356.712,788 357.208,788 357.704,788 358.201,788 358.697,788 359.193,788 359.69,788 360.186,788 360.682,788 361.179,788 361.675,788 362.171,788 362.668,788 363.164,788 363.66,788 364.157,788 364.653,788 365.149,788 365.646,788 366.142,788 366.638,788 367.135,788 367.631,788 368.127,788 368.624,788 369.12,788 369.616,788 370.113,788 370.609,788 371.105,788 371.602,788 372.098,788 372.594,788 373.091,788 373.587,788 374.083,788 374.58,788 375.076,788 375.572,788 376.069,788 376.565,788 377.061,788 377.558,788 378.054,788 378.55,788 379.047,788 379.543,788 380.039,788 380.536,788 381.032,788 381.528,788 382.025,788 382.521,788 383.017,788 383.514,788 384.01,788 384.506,788 385.003,788 385.499,788 385.995,788 386.492,788 386.988,788 387.484,788 387.981,788 388.477,788 388.973,788 389.47,788 389.966,788 390.462,788 390.959,788 391.455,788 391.951,788 392.448,788 392.944,788 393.44,788 393.937,788 394.433,788 394.929,788 395.426,788 395.922,788 396.418,788 396.915,788 397.411,788 397.907,788 398.404,788 398.9,788 399.396,788 399.893,788 400.389,788 400.885,788 401.382,788 401.878,788 402.374,788 402.871,788 403.367,788 403.863,788 404.36,788 404.856,788 405.352,788 405.849,788 406.345,788 406.841,788 407.338,788 407.834,788 408.33,788 408.827,788 409.323,788 409.819,788 410.316,788 410.812,788 411.308,788 411.805,788 412.301,788 412.797,788 413.294,788 413.79,788 414.286,788 414.783,788 415.279,788 415.775,788 416.272,788 416.768,788 417.264,788 417.761,788 418.257,788 418.753,788 419.25,788 419.746,788 420.242,788 420.739,788 421.235,788 421.731,788 422.228,788 422.724,788 423.22,788 423.717,788 424.213,788 424.709,788 425.206,788 425.702,788 426.198,788 426.695,788 427.191,788 427.687,788 428.184,788 428.68,788 429.176,788 429.673,788 430.169,788 430.665,788 431.162,788 431.658,788 432.154,788 432.651,788 433.147,788 433.643,788 434.14,788 434.636,788 435.132,788 435.629,788 436.125,788 436.621,788 437.118,788 437.614,788 438.11,788 438.607,788 439.103,788 439.599,788 440.096,788 440.592,788 441.088,788 441.585,788 442.081,788 442.577,788 443.074,788 443.57,788 444.066,788 444.563,788 445.059,788 445.555,788 446.052,788 446.548,788 447.044,788 447.541,788 448.037,788 448.533,788 449.03,788 449.526,788 450.022,788 450.519,788 451.015,788 451.511,788 452.008,788 452.504,788 453,788 453.497,788 453.993,788 454.489,788 454.986,788 455.482,788 455.978,788 456.475,788 456.971,788 457.467,788 457.964,788 458.46,788 458.956,788 459.453,788 459.949,788 460.445,788 460.942,788 461.438,788 461.934,788 462.431,788 462.927,788 463.423,788 463.92,788 464.416,788 464.912,788 465.409,788 465.905,788 466.401,788 466.898,788 467.394,788 467.89,788 468.387,788 468.883,788 469.379,788 469.876,788 470.372,788 470.868,788 471.365,788 471.861,788 472.357,788 472.854,788 473.35,788 473.846,788 474.343,788 474.839,788 475.335,788 475.832,788 476.328,788 476.824,788 477.321,788 477.817,788 478.313,788 478.81,788 479.306,788 479.802,788 480.299,788 480.795,788 481.291,788 481.788,788 482.284,788 482.78,788 483.277,788 483.773,788 484.269,788 484.766,788 485.262,788 485.758,788 486.255,788 486.751,788 487.247,788 487.744,788 488.24,788 488.736,788 489.233,788 489.729,788 490.225,788 490.722,788 491.218,788 491.714,788 492.211,788 492.707,788 493.203,788 493.7,788 494.196,788 494.692,788 495.189,788 495.685,788 496.181,788 496.678,788 497.174,788 497.67,788 498.167,788 498.663,788 499.159,788 499.656,788 500.152,788 500.648,788 501.145,788 501.641,788 502.137,788 502.634,788 503.13,788 503.626,788 504.123,788 504.619,788 505.115,788 505.612,788 506.108,788 506.604,788 507.101,788 507.597,788 508.093,788 508.59,788 509.086,788 509.582,788 510.079,788 510.575,788 511.071,788 511.568,788 512.064,788 512.56,788 513.057,788 513.553,788 514.049,788 514.546,788 515.042,788 515.538,788 516.035,788 516.531,788 517.027,788 517.524,788 518.02,788 518.516,788 519.013,788 519.509,788 520.005,788 520.502,788 520.998,788 521.494,788 521.991,788 522.487,788 522.983,788 523.48,788 523.976,788 524.472,788 524.969,788 525.465,788 525.961,788 526.458,788 526.954,788 527.45,788 527.947,788 528.443,788 528.939,788 529.436,788 529.932,788 530.428,788 530.925,788 531.421,788 531.917,788 532.414,788 532.91,788 533.406,788 533.903,788 534.399,788 534.895,788 535.392,788 535.888,788 536.384,788 536.881,788 537.377,788 537.873,788 538.37,788 538.866,788 539.362,788 539.859,788 540.355,788 540.851,788 541.348,788 541.844,788 542.34,788 542.837,788 543.333,788 543.829,788 544.326,788 544.822,788 545.318,788 545.815,788 546.311,788 546.807,788 547.304,788 547.8,788 548.296,788 548.793,788 549.289,788 549.785,788 550.282,788 550.778,788 551.274,788 551.771,788 552.267,788 552.763,788 553.26,788 553.756,788 554.252,788 554.749,788 555.245,788 555.741,788 556.238,788 556.734,788 557.23,788 557.727,788 558.223,788 558.719,788 559.216,788 559.712,788 560.208,788 560.705,788 561.201,788 561.697,788 562.194,788 562.69,788 563.186,620.093 563.683,620.093 564.179,620.093 564.675,684.028 565.172,684.028 565.668,684.028 566.164,684.028 566.661,684.028 567.157,774.518 567.653,774.518 568.15,774.518 568.646,774.518 569.142,774.518 569.639,774.518 570.135,774.518 570.631,774.314 571.128,771.659 571.624,767.165 572.12,763.08 572.617,757.564 573.113,754.909 573.609,750.823 574.106,750.619 574.602,750.619 575.098,750.619 575.595,750.619 576.091,750.619 576.587,750.619 577.084,751.436 577.58,754.705 578.076,756.543 578.573,757.973 579.069,760.016 579.565,761.037 580.062,762.671 580.558,762.671 581.054,762.671 581.551,762.671 582.047,762.671 582.543,762.671 583.04,761.241 583.536,760.628 584.032,759.198 584.529,758.994 585.025,757.156 585.521,757.156 586.018,757.156 586.514,756.543 587.01,756.543 587.507,756.543 588.003,756.543 588.499,756.952 588.996,757.156 589.492,757.36 589.988,758.586 590.485,758.586 590.981,759.198 591.477,759.198 591.974,759.198 592.47,759.403 592.966,759.403 593.463,759.403 593.959,759.403 594.455,759.403 594.952,759.403 595.448,759.403 595.944,758.586 596.441,758.586 596.937,758.381 597.433,758.381 597.93,758.381 598.426,758.586 598.922,758.586 599.419,758.586 599.915,758.381 600.411,758.381 600.908,758.586 601.404,758.586 601.9,758.586 602.397,758.586 602.893,758.586 603.389,758.586 603.886,758.586 604.382,758.994 604.878,758.994 605.375,758.994 605.871,758.994 606.367,758.994 606.864,758.994 607.36,758.994 607.856,758.994 608.353,758.586 608.849,758.586 609.345,758.586 609.842,758.381 610.338,758.381 610.834,758.586 611.331,758.586 611.827,758.586 612.323,758.586 612.82,758.586 613.316,758.994 613.812,758.994 614.309,758.994 614.805,758.994 615.301,758.994 615.798,758.994 616.294,758.994 616.79,758.994 617.287,758.994 617.783,758.994 618.279,758.994 618.776,758.994 619.272,758.994 619.768,759.403 620.265,759.403 620.761,759.403 621.257,759.403 621.754,759.403 622.25,759.403 622.746,759.403 623.243,759.198 623.739,758.994 624.235,758.994 624.732,758.994 625.228,758.586 625.724,758.586 626.221,758.586 626.717,758.177 627.213,758.586 627.71,758.586 628.206,758.586 628.702,758.586 629.199,758.586 629.695,758.586 630.191,758.586 630.688,758.994 631.184,758.994 631.68,758.994 632.177,759.198 632.673,759.198 633.169,759.198 633.666,759.198 634.162,759.198 634.658,759.198 635.155,759.198 635.651,759.198 636.147,759.198 636.644,759.198 637.14,758.994 637.636,758.586 638.133,758.586 638.629,758.586 639.125,758.586 639.622,758.994 640.118,759.198 640.614,759.198 641.111,759.198 641.607,759.198 642.103,758.994 642.6,759.198 643.096,759.198 643.592,759.198 644.089,759.198 644.585,758.994 645.081,758.994 645.578,758.586 646.074,758.994 646.57,758.586 647.067,758.586 647.563,758.586 648.059,758.586 648.556,758.994 649.052,758.994 649.548,758.994 650.045,758.994 650.541,758.994 651.037,758.994 651.534,758.994 652.03,758.994 652.526,759.198 653.023,758.994 653.519,758.994 654.015,758.994 654.512,758.994 655.008,758.994 655.504,758.994 656.001,758.994 656.497,758.994 656.993,758.994 657.49,758.994 657.986,758.994 658.482,758.994 658.979,758.994 659.475,758.994 659.971,758.994 660.468,758.994 660.964,758.994 661.46,758.994 661.957,758.994 662.453,758.994 662.949,758.994 663.446,758.994 663.942,758.994 664.438,758.994 664.935,758.994 665.431,758.994 665.927,758.994 666.424,759.198 666.92,759.198 667.416,758.586 667.913,758.586 668.409,758.586 668.905,758.586 669.402,758.586 669.898,759.198 670.394,759.198 670.891,759.198 671.387,759.198 671.883,759.198 672.38,759.198 672.876,759.198 673.372,759.198 673.869,759.198 674.365,759.403 674.861,759.403 675.358,759.198 675.854,758.994 676.35,758.994 676.847,758.994 677.343,758.994 677.839,758.994 678.336,758.994 678.832,758.586 679.328,758.586 679.825,758.586 680.321,758.994 680.817,758.586 681.314,758.994 681.81,758.586 682.306,758.586 682.803,758.586 683.299,758.994 683.795,758.994 684.292,759.198 684.788,759.198 685.284,759.198 685.781,759.198 686.277,759.198 686.773,759.198 687.27,759.198 687.766,759.198 688.262,759.198 688.759,759.198 689.255,759.198 689.751,759.198 690.248,758.994 690.744,758.994 691.24,758.994 691.737,758.994 692.233,758.994 692.729,758.381 693.226,758.177 693.722,758.381 694.218,758.177 694.715,758.177 695.211,758.177 695.707,758.177 696.204,758.381 696.7,758.586 697.196,758.994 697.693,759.198 698.189,759.403 698.685,759.403 699.182,759.403 699.678,759.607 700.174,759.607 700.671,759.607 701.167,759.607 701.663,759.403 702.16,759.403 702.656,759.198 703.152,758.994 703.649,758.994 704.145,758.586 704.641,758.586 705.138,758.586 705.634,758.586 706.13,758.586 706.627,758.586 707.123,758.586 707.619,758.586 708.116,758.381 708.612,758.586 709.108,758.994 709.605,759.198 710.101,759.198 710.597,759.403 711.094,759.198 711.59,759.198 712.086,759.198 712.583,759.198 713.079,758.586 713.575,758.994 714.072,758.994 714.568,758.994 715.064,758.994 715.561,758.994 716.057,758.586 716.553,758.994 717.05,758.994 717.546,758.994 718.042,759.198 718.539,759.198 719.035,759.198 719.531,759.198 720.028,759.198 720.524,758.994 721.02,758.994 721.517,758.994 722.013,758.994 722.509,758.994 723.006,758.994 723.502,758.994 723.998,758.381 724.495,758.381 724.991,758.381 725.487,758.381 725.984,758.381 726.48,758.586 726.976,758.586 727.473,758.994 727.969,759.198 728.465,759.198 728.962,759.198 729.458,759.198 729.954,759.198 730.451,759.198 730.947,759.198 731.443,759.198 731.94,758.994 732.436,758.994 732.932,758.381 733.429,758.381 733.925,758.381 734.421,758.381 734.918,758.381 735.414,758.381 735.91,758.381 736.407,758.381 736.903,758.994 737.399,758.994 737.896,759.198 738.392,759.403 738.888,759.403 739.385,759.403 739.881,759.198 740.377,759.198 740.874,759.198 741.37,759.198 741.866,759.198 742.363,759.198 742.859,759.198 743.355,758.994 743.852,758.586 744.348,758.994 744.844,758.994 745.341,758.586 745.837,758.586 746.333,758.586 746.83,758.586 747.326,758.586 747.822,758.586 748.319,758.586 748.815,758.586 749.311,759.198 749.808,758.586 750.304,758.586 750.8,759.198 751.297,759.198 751.793,759.198 752.289,759.198 752.786,759.198 753.282,759.198 753.778,759.198 754.275,758.994 754.771,758.586 755.267,758.994 755.764,759.198 756.26,758.994 756.756,759.403 757.253,759.403 757.749,758.994 758.245,758.994 758.742,758.586 759.238,758.994 759.734,758.994 760.231,758.994 760.727,758.994 761.223,758.994 761.72,758.994 762.216,758.994 762.712,758.994 763.209,758.994 763.705,758.586 764.201,758.994 764.698,758.994 765.194,758.586 765.69,758.994 766.187,758.994 766.683,758.994 767.179,758.994 767.676,758.994 768.172,758.994 768.668,758.994 769.165,758.994 769.661,758.994 770.157,758.994 770.654,758.994 771.15,758.994 771.646,758.994 772.143,758.994 772.639,758.994 773.135,759.198 773.632,759.198 774.128,758.994 774.624,759.198 775.121,758.994 775.617,758.994 776.113,759.198 776.61,759.198 777.106,759.198 777.602,759.198 778.099,759.198 778.595,759.198 779.091,759.198 779.588,759.198 780.084,759.198 780.58,759.198 781.077,758.994 781.573,758.586 782.069,758.586 782.566,758.586 783.062,758.586 783.558,758.586 784.055,758.586 784.551,758.994 785.047,758.994 785.544,758.586 786.04,758.994 786.536,758.586 787.033,758.994 787.529,758.586 788.025,758.586 788.522,758.994 789.018,758.994 789.514,758.994 790.011,758.586 790.507,758.586 791.003,758.586 791.5,758.586 791.996,758.586 792.492,758.586 792.989,758.586 793.485,758.586 793.981,758.586 794.478,758.586 794.974,758.994 795.47,758.994 795.967,759.198 796.463,759.198 796.959,759.198 797.456,759.403 797.952,759.198 798.448,759.198 798.945,759.198 799.441,758.994 799.937,759.198 800.434,758.994 800.93,758.994 801.426,758.994 801.923,758.994 802.419,758.994 802.915,758.994 803.412,758.994 803.908,758.994 804.404,758.994 804.901,758.586 805.397,758.586 805.893,758.586 806.39,758.586 806.886,758.586 807.382,758.586 807.879,758.586 808.375,758.586 808.871,758.586 809.368,758.586 809.864,758.586 810.36,758.586 810.857,758.994 811.353,758.994 811.849,758.994 812.346,758.994 812.842,759.198 813.338,758.994 813.835,759.198 814.331,758.994 814.827,759.198 815.324,759.198 815.82,759.198 816.316,759.198 816.813,759.198 817.309,759.198 817.805,758.994 818.302,758.586 818.798,758.994 819.294,758.586 819.791,758.586 820.287,758.381 820.783,758.381 821.28,758.381 821.776,758.381 822.272,758.381 822.769,758.381 823.265,758.586 823.761,758.994 824.258,758.994 824.754,758.994 825.25,759.198 825.747,759.198 826.243,759.198 826.739,759.198 827.236,759.198 827.732,759.198 828.228,759.198 828.725,759.198 829.221,758.994 829.717,758.994 830.214,758.994 830.71,758.994 831.206,758.994 831.703,758.994 832.199,758.586 832.695,758.586 833.192,758.586 833.688,758.586 834.184,758.586 834.681,758.994 835.177,758.994 835.673,758.586 836.17,758.586 836.666,758.994 837.162,758.994 837.659,758.994 838.155,759.198 838.651,758.994 839.148,758.994 839.644,758.586 840.14,758.586 840.637,758.994 841.133,758.994 841.629,758.994 842.126,758.586 842.622,758.586 843.118,758.586 843.615,758.586 844.111,758.586 844.607,758.586 845.104,758.586 845.6,758.586 846.096,758.586 846.593,758.586 847.089,758.586 847.585,758.586 848.082,758.586 848.578,758.586 849.074,758.994 849.571,758.994 850.067,758.586 850.563,758.994 851.06,758.994 851.556,758.994 852.052,759.198 852.549,759.198 853.045,759.198 853.541,759.198 854.038,759.198 854.534,759.198 855.03,759.198 855.527,759.198 856.023,759.198 856.519,759.198 857.016,758.994 857.512,758.994 858.008,758.994 858.505,758.586 859.001,758.994 859.497,758.994 859.994,758.586 860.49,758.586 860.986,758.586 861.483,758.586 861.979,758.586 862.475,758.994 862.972,758.994 863.468,758.994 863.964,758.994 864.461,758.586 864.957,758.586 865.453,759.403 865.95,759.403 866.446,759.403 866.942,758.994 867.439,758.994 867.935,758.994 868.431,758.994 868.928,758.994 869.424,758.994 869.92,758.994 870.417,758.994 870.913,758.586 871.409,758.586 871.906,758.586 872.402,758.586 872.898,758.586 873.395,758.586 873.891,758.586 874.387,758.586 874.884,758.586 875.38,758.586 875.876,758.586 876.373,759.198 876.869,759.198 877.365,759.198 877.862,759.198 878.358,759.198 878.854,759.198 879.351,759.198 879.847,759.198 880.343,759.198 880.84,759.198 881.336,759.198 881.832,758.994 882.329,758.586 882.825,758.586 883.321,758.586 883.818,758.994 884.314,758.994 884.81,758.994 885.307,758.994 885.803,758.994 886.299,758.994 886.796,758.994 887.292,758.994 887.788,758.994 888.285,758.994 888.781,758.994 889.277,758.994 889.774,758.994 890.27,758.994 890.766,758.994 891.263,758.994 891.759,758.994 892.255,759.198 892.752,758.994 893.248,758.994 893.744,758.994 894.241,758.994 894.737,758.994 895.233,758.586 895.73,758.586 896.226,758.586 896.722,758.586 897.219,758.586 897.715,758.381 898.211,758.586 898.708,758.586 899.204,758.586 899.7,758.586 900.197,758.586 900.693,759.198 901.189,758.586 901.686,758.586 902.182,758.994 902.678,758.994 903.175,759.403 903.671,759.403 904.167,759.403 904.664,759.403 905.16,759.403 905.656,759.198 906.153,759.198 906.649,759.198 907.145,758.994 907.642,758.994 908.138,758.586 908.634,758.381 909.131,758.381 909.627,758.381 910.123,758.381 910.62,758.381 911.116,758.381 911.612,758.381 912.109,758.586 912.605,758.586 913.101,758.994 913.598,759.403 914.094,759.403 914.59,759.198 915.087,759.198 915.583,758.994 916.079,758.994 916.576,758.994 917.072,758.994 917.568,758.994 918.065,758.994 918.561,758.586 919.057,758.586 919.554,758.381 920.05,758.381 920.546,758.381 921.043,758.381 921.539,758.586 922.035,758.586 922.532,758.586 923.028,758.586 923.524,758.994 924.021,759.198 924.517,759.198 925.013,759.403 925.51,759.403 926.006,759.198 926.502,759.198 926.999,759.198 927.495,758.994 927.991,758.994 928.488,758.994 928.984,758.586 929.48,758.586 929.977,758.586 930.473,758.586 930.969,758.586 931.466,758.381 931.962,758.381 932.458,758.586 932.955,758.994 933.451,758.994 933.947,758.994 934.444,758.994 934.94,758.994 935.436,758.994 935.933,758.994 936.429,758.994 936.925,758.994 937.422,758.994 937.918,758.994 938.414,758.994 938.911,758.994 939.407,758.586 939.903,758.586 940.4,758.586 940.896,758.586 941.392,758.586 941.889,758.586 942.385,758.994 942.881,758.994 943.378,758.994 943.874,758.586 944.37,758.586 944.867,758.994 945.363,758.994 945.859,758.586 946.356,758.586 946.852,758.586 947.348,758.586 947.845,758.586 948.341,758.586 948.837,758.586 949.334,758.586 949.83,758.994 950.326,758.994 950.823,758.994 951.319,758.994 951.815,758.994 952.312,758.994 952.808,758.994 953.304,758.994 953.801,758.994 954.297,758.994 954.793,759.198 955.29,759.198 955.786,758.994 956.282,758.586 956.779,758.586 957.275,758.586 957.771,758.586 958.268,758.586 958.764,758.586 959.26,758.586 959.757,758.586 960.253,758.586 960.749,758.586 961.246,758.586 961.742,758.586 962.238,758.586 962.735,758.586 963.231,758.586 963.727,758.586 964.224,758.586 964.72,758.586 965.216,758.586 965.713,758.586 966.209,758.586 966.705,758.586 967.202,758.994 967.698,758.994 968.194,758.994 968.691,758.994 969.187,758.994 969.683,758.994 970.18,758.994 970.676,758.994 971.172,758.994 971.669,758.994 972.165,758.994 972.661,758.994 973.158,758.994 973.654,758.994 974.15,758.994 974.647,758.994 975.143,758.994 975.639,758.994 976.136,758.994 976.632,758.994 977.128,758.994 977.625,758.994 978.121,758.994 978.617,758.994 979.114,758.994 979.61,758.994 980.106,758.994 980.603,248.328 981.099,248.328 981.595,248.328 982.092,385.187 982.588,385.187 983.084,385.187 983.581,385.187 984.077,580.67 984.573,580.67 985.07,580.67 985.566,580.67 986.062,580.67 986.559,580.67 987.055,594.968 987.551,594.968 988.048,594.968 988.544,594.968 989.04,594.968 989.537,594.968 990.033,591.904 990.529,587.206 991.026,583.121 991.522,580.67 992.018,577.81 992.515,576.789 993.011,576.789 993.507,576.789 994.004,576.789 994.5,576.789 994.996,577.81 995.493,580.261 995.989,583.734 996.485,584.346 996.982,585.368 997.478,585.368 997.974,585.368 998.471,585.368 998.967,585.368 999.463,584.959 999.96,584.959 1000.46,584.346 1000.95,584.346 1001.45,584.346 1001.95,583.734 1002.44,582.508 1002.94,582.508 1003.43,582.508 1003.93,582.508 1004.43,582.508 1004.92,582.508 1005.42,583.121 1005.92,583.121 1006.41,583.734 1006.91,584.346 1007.4,584.346 1007.9,584.346 1008.4,584.346 1008.89,584.346 1009.39,584.346 1009.89,584.346 1010.38,583.734 1010.88,583.734 1011.38,583.734 1011.87,583.121 1012.37,583.121 1012.86,583.121 1013.36,583.121 1013.86,582.508 1014.35,582.508 1014.85,583.121 1015.35,583.121 1015.84,583.121 1016.34,583.121 1016.83,583.121 1017.33,584.959 1017.83,584.959 1018.32,584.959 1018.82,584.346 1019.32,584.959 1019.81,584.959 1020.31,584.346 1020.81,584.346 1021.3,584.346 1021.8,584.346 1022.29,584.346 1022.79,583.734 1023.29,583.734 1023.78,583.734 1024.28,583.734 1024.78,583.734 1025.27,583.734 1025.77,583.734 1026.27,583.734 1026.76,583.734 1027.26,583.734 1027.75,583.734 1028.25,583.734 1028.75,584.346 1029.24,583.734 1029.74,583.734 1030.24,583.734 1030.73,583.734 1031.23,584.346 1031.72,583.734 1032.22,583.734 1032.72,583.734 1033.21,584.346 1033.71,584.346 1034.21,584.346 1034.7,584.346 1035.2,584.346 1035.7,584.346 1036.19,584.346 1036.69,583.734 1037.18,584.346 1037.68,583.734 1038.18,583.734 1038.67,583.734 1039.17,583.734 1039.67,583.734 1040.16,583.734 1040.66,584.346 1041.16,584.346 1041.65,584.346 1042.15,584.346 1042.64,583.734 1043.14,584.346 1043.64,584.346 1044.13,584.346 1044.63,584.346 1045.13,583.121 1045.62,583.121 1046.12,583.121 1046.61,583.121 1047.11,583.121 1047.61,583.121 1048.1,583.121 1048.6,583.121 1049.1,583.734 1049.59,583.734 1050.09,583.734 1050.59,583.734 1051.08,583.734 1051.58,584.346 1052.07,584.346 1052.57,584.346 1053.07,584.346 1053.56,584.346 1054.06,583.734 1054.56,583.734 1055.05,583.734 1055.55,583.734 1056.05,583.734 1056.54,583.734 1057.04,583.734 1057.53,583.121 1058.03,583.121 1058.53,583.121 1059.02,583.121 1059.52,583.121 1060.02,583.121 1060.51,584.346 1061.01,583.734 1061.51,584.346 1062,583.734 1062.5,584.346 1062.99,584.346 1063.49,584.346 1063.99,584.346 1064.48,584.346 1064.98,583.734 1065.48,583.734 1065.97,583.734 1066.47,583.734 1066.96,583.734 1067.46,583.734 1067.96,583.734 1068.45,583.734 1068.95,583.734 1069.45,583.734 1069.94,583.734 1070.44,583.734 1070.94,583.734 1071.43,583.734 1071.93,583.734 1072.42,583.734 1072.92,583.734 1073.42,583.734 1073.91,583.734 1074.41,583.734 1074.91,583.734 1075.4,583.734 1075.9,583.734 1076.4,583.734 1076.89,583.734 1077.39,583.734 1077.88,583.734 1078.38,583.734 1078.88,583.734 1079.37,583.734 1079.87,583.734 1080.37,583.734 1080.86,583.734 1081.36,583.734 1081.85,583.734 1082.35,583.734 1082.85,583.734 1083.34,583.734 1083.84,583.734 1084.34,583.734 1084.83,583.734 1085.33,583.121 1085.83,583.121 1086.32,583.121 1086.82,583.121 1087.31,583.121 1087.81,583.121 1088.31,583.121 1088.8,583.121 1089.3,583.121 1089.8,583.121 1090.29,583.121 1090.79,583.121 1091.29,583.121 1091.78,583.734 1092.28,583.734 1092.77,583.734 1093.27,583.734 1093.77,583.734 1094.26,583.734 1094.76,583.734 1095.26,583.734 1095.75,583.734 1096.25,583.734 1096.74,583.734 1097.24,583.734 1097.74,583.734 1098.23,583.734 1098.73,583.734 1099.23,583.734 1099.72,583.734 1100.22,583.734 1100.72,583.734 1101.21,583.734 1101.71,583.734 1102.2,584.346 1102.7,584.346 1103.2,584.346 1103.69,584.346 1104.19,583.734 1104.69,583.734 1105.18,583.121 1105.68,583.734 1106.18,583.734 1106.67,583.734 1107.17,583.734 1107.66,583.121 1108.16,583.121 1108.66,583.121 1109.15,583.121 1109.65,583.121 1110.15,583.121 1110.64,583.734 1111.14,583.734 1111.63,583.734 1112.13,583.121 1112.63,583.121 1113.12,584.346 1113.62,584.346 1114.12,584.346 1114.61,583.734 1115.11,584.346 1115.61,584.346 1116.1,584.346 1116.6,583.734 1117.09,583.734 1117.59,583.734 1118.09,583.734 1118.58,583.121 1119.08,582.508 1119.58,582.508 1120.07,582.508 1120.57,582.508 1121.06,582.508 1121.56,582.508 1122.06,583.121 1122.55,583.121 1123.05,583.734 1123.55,583.734 1124.04,584.346 1124.54,584.346 1125.04,583.734 1125.53,584.346 1126.03,583.734 1126.52,583.734 1127.02,583.734 1127.52,583.734 1128.01,583.734 1128.51,583.734 1129.01,583.734 1129.5,583.734 1130,584.346 1130.5,584.346 1130.99,583.734 1131.49,583.734 1131.98,583.734 1132.48,584.346 1132.98,584.346 1133.47,583.734 1133.97,583.734 1134.47,583.121 1134.96,583.121 1135.46,583.121 1135.96,583.121 1136.45,583.121 1136.95,583.121 1137.44,583.121 1137.94,583.121 1138.44,583.121 1138.93,583.121 1139.43,583.121 1139.93,582.508 1140.42,583.121 1140.92,583.121 1141.41,583.734 1141.91,582.508 1142.41,583.734 1142.9,583.734 1143.4,582.508 1143.9,583.734 1144.39,583.734 1144.89,583.734 1145.39,583.734 1145.88,583.121 1146.38,583.734 1146.87,583.734 1147.37,583.734 1147.87,583.734 1148.36,583.121 1148.86,583.121 1149.36,583.121 1149.85,583.121 1150.35,583.121 1150.84,583.121 1151.34,583.121 1151.84,583.121 1152.33,583.121 1152.83,583.121 1153.33,583.121 1153.82,583.121 1154.32,583.121 1154.82,583.121 1155.31,583.734 1155.81,583.734 1156.3,583.734 1156.8,584.346 1157.3,584.346 1157.79,583.734 1158.29,584.346 1158.79,584.346 1159.28,584.346 1159.78,584.346 1160.28,583.734 1160.77,583.734 1161.27,582.508 1161.76,582.508 1162.26,582.508 1162.76,582.508 1163.25,582.508 1163.75,582.508 1164.25,582.508 1164.74,582.508 1165.24,582.508 1165.73,583.121 1166.23,583.121 1166.73,583.121 1167.22,583.121 1167.72,583.121 1168.22,583.121 1168.71,583.121 1169.21,583.121 1169.71,583.121 1170.2,583.734 1170.7,583.121 1171.19,583.121 1171.69,583.121 1172.19,583.121 1172.68,583.734 1173.18,583.121 1173.68,583.734 1174.17,583.734 1174.67,583.734 1175.17,583.734 1175.66,583.734 1176.16,583.734 1176.65,583.121 1177.15,583.121 1177.65,583.121 1178.14,583.121 1178.64,583.121 1179.14,583.121 1179.63,583.121 1180.13,583.121 1180.63,583.121 1181.12,583.121 1181.62,583.121 1182.11,583.121 1182.61,583.121 1183.11,583.121 1183.6,583.121 1184.1,583.121 1184.6,583.121 1185.09,583.734 1185.59,583.734 1186.08,583.121 1186.58,583.121 1187.08,583.734 1187.57,583.734 1188.07,583.734 1188.57,583.734 1189.06,583.734 1189.56,583.121 1190.06,583.121 1190.55,583.121 1191.05,582.508 1191.54,582.508 1192.04,583.121 1192.54,583.121 1193.03,583.121 1193.53,583.121 1194.03,583.121 1194.52,583.121 1195.02,583.121 1195.52,583.121 1196.01,583.121 1196.51,583.121 1197,583.734 1197.5,583.121 1198,583.121 1198.49,583.121 1198.99,583.734 1199.49,583.734 1199.98,584.346 1200.48,583.734 1200.97,583.121 1201.47,582.508 1201.97,581.895 1202.46,581.895 1202.96,583.121 1203.46,583.121 1203.95,583.734 1204.45,583.121 1204.95,583.121 1205.44,583.121 1205.94,583.121 1206.43,583.121 1206.93,583.734 1207.43,583.734 1207.92,583.734 1208.42,583.734 1208.92,583.734 1209.41,583.734 1209.91,583.734 1210.41,583.121 1210.9,583.121 1211.4,583.121 1211.89,583.121 1212.39,583.121 1212.89,582.508 1213.38,582.508 1213.88,582.508 1214.38,582.508 1214.87,582.508 1215.37,582.508 1215.86,582.508 1216.36,582.508 1216.86,583.121 1217.35,583.121 1217.85,583.121 1218.35,583.734 1218.84,584.346 1219.34,584.346 1219.84,583.734 1220.33,584.346 1220.83,584.346 1221.32,584.346 1221.82,583.121 1222.32,582.508 1222.81,582.508 1223.31,582.508 1223.81,582.508 1224.3,582.508 1224.8,582.508 1225.29,582.508 1225.79,581.895 1226.29,582.508 1226.78,583.121 1227.28,583.121 1227.78,583.121 1228.27,583.734 1228.77,583.734 1229.27,583.734 1229.76,583.734 1230.26,584.346 1230.75,583.734 1231.25,583.734 1231.75,583.121 1232.24,583.734 1232.74,583.734 1233.24,583.734 1233.73,583.734 1234.23,583.734 1234.73,583.734 1235.22,583.734 1235.72,582.508 1236.21,582.508 1236.71,582.508 1237.21,582.508 1237.7,582.508 1238.2,582.508 1238.7,582.508 1239.19,582.508 1239.69,582.508 1240.19,582.508 1240.68,582.508 1241.18,583.121 1241.67,583.121 1242.17,583.121 1242.67,583.121 1243.16,583.121 1243.66,583.121 1244.16,583.734 1244.65,583.734 1245.15,583.734 1245.64,583.121 1246.14,583.121 1246.64,583.121 1247.13,583.121 1247.63,582.508 1248.13,583.121 1248.62,582.508 1249.12,582.508 1249.62,581.282 1250.11,581.282 1250.61,581.282 1251.1,582.508 1251.6,583.121 1252.1,583.121 1252.59,583.121 1253.09,583.121 1253.59,584.346 1254.08,584.346 1254.58,584.346 1255.07,584.346 1255.57,584.346 1256.07,583.121 1256.56,583.121 1257.06,583.121 1257.56,582.508 1258.05,582.508 1258.55,582.508 1259.05,582.508 1259.54,582.508 1260.04,582.508 1260.53,582.508 1261.03,582.508 1261.53,582.508 1262.02,583.121 1262.52,583.121 1263.02,583.734 1263.51,583.121 1264.01,583.121 1264.51,583.121 1265,583.121 1265.5,583.121 1265.99,582.508 1266.49,582.508 1266.99,582.508 1267.48,582.508 1267.98,582.508 1268.48,582.508 1268.97,582.508 1269.47,582.508 1269.96,582.508 1270.46,582.508 1270.96,583.734 1271.45,583.734 1271.95,584.346 1272.45,584.346 1272.94,584.346 1273.44,584.346 1273.94,584.346 1274.43,584.346 1274.93,584.346 1275.42,583.121 1275.92,583.121 1276.42,583.121 1276.91,582.508 1277.41,582.508 1277.91,582.508 1278.4,582.508 1278.9,582.508 1279.4,582.508 1279.89,582.508 1280.39,582.508 1280.88,582.508 1281.38,582.508 1281.88,582.508 1282.37,582.508 1282.87,582.508 1283.37,582.508 1283.86,583.734 1284.36,583.734 1284.85,584.346 1285.35,584.346 1285.85,584.346 1286.34,584.346 1286.84,583.734 1287.34,583.734 1287.83,583.121 1288.33,583.734 1288.83,583.121 1289.32,581.895 1289.82,581.895 1290.31,581.895 1290.81,581.895 1291.31,581.895 1291.8,581.895 1292.3,581.895 1292.8,582.508 1293.29,583.121 1293.79,583.121 1294.29,583.121 1294.78,583.734 1295.28,583.734 1295.77,583.121 1296.27,583.121 1296.77,583.121 1297.26,583.121 1297.76,583.734 1298.26,583.121 1298.75,582.508 1299.25,582.508 1299.74,582.508 1300.24,582.508 1300.74,582.508 1301.23,582.508 1301.73,582.508 1302.23,583.121 1302.72,583.121 1303.22,583.121 1303.72,583.121 1304.21,583.121 1304.71,583.121 1305.2,583.121 1305.7,583.121 1306.2,583.121 1306.69,583.121 1307.19,583.121 1307.69,583.121 1308.18,582.508 1308.68,582.508 1309.18,582.508 1309.67,582.508 1310.17,582.508 1310.66,582.508 1311.16,582.508 1311.66,582.508 1312.15,582.508 1312.65,582.508 1313.15,582.508 1313.64,582.508 1314.14,582.508 1314.64,582.508 1315.13,582.508 1315.63,581.282 1316.12,582.508 1316.62,581.282 1317.12,582.508 1317.61,582.508 1318.11,582.508 1318.61,582.508 1319.1,582.508 1319.6,581.895 1320.09,582.508 1320.59,582.508 1321.09,582.508 1321.58,582.508 1322.08,583.121 1322.58,582.508 1323.07,583.121 1323.57,583.121 1324.07,583.121 1324.56,583.121 1325.06,583.121 1325.55,583.121 1326.05,583.121 1326.55,583.121 1327.04,583.121 1327.54,583.121 1328.04,583.121 1328.53,583.121 1329.03,583.121 1329.53,582.508 1330.02,582.508 1330.52,582.508 1331.01,582.508 1331.51,582.508 1332.01,582.508 1332.5,582.508 1333,582.508 1333.5,583.121 1333.99,583.121 1334.49,583.121 1334.98,583.121 1335.48,583.121 1335.98,583.121 1336.47,583.121 1336.97,583.121 1337.47,583.121 1337.96,583.121 1338.46,583.121 1338.96,581.895 1339.45,581.282 1339.95,581.895 1340.44,583.121 1340.94,583.121 1341.44,583.121 1341.93,583.734 1342.43,583.121 1342.93,583.734 1343.42,583.734 1343.92,583.734 1344.41,583.734 1344.91,583.734 1345.41,583.734 1345.9,583.121 1346.4,582.508 1346.9,581.282 1347.39,581.282 1347.89,581.282 1348.39,581.282 1348.88,580.67 1349.38,580.67 1349.87,581.282 1350.37,581.282 1350.87,581.282 1351.36,581.282 1351.86,583.121 1352.36,583.121 1352.85,583.121 1353.35,583.734 1353.85,583.734 1354.34,583.734 1354.84,583.734 1355.33,583.734 1355.83,583.734 1356.33,583.734 1356.82,583.734 1357.32,583.121 1357.82,583.121 1358.31,582.508 1358.81,582.508 1359.31,582.508 1359.8,582.508 1360.3,582.508 1360.79,581.895 1361.29,581.895 1361.79,582.508 1362.28,583.121 1362.78,583.121 1363.28,583.121 1363.77,583.121 1364.27,583.121 1364.76,583.121 1365.26,583.121 1365.76,583.121 1366.25,583.121 1366.75,582.508 1367.25,582.508 1367.74,582.508 1368.24,582.508 1368.74,582.508 1369.23,581.895 1369.73,582.508 1370.22,582.508 1370.72,582.508 1371.22,582.508 1371.71,582.508 1372.21,582.508 1372.71,583.734 1373.2,583.734 1373.7,583.734 1374.19,582.508 1374.69,582.508 1375.19,582.508 1375.68,582.508 1376.18,582.508 1376.68,582.508 1377.17,582.508 1377.67,582.508 1378.17,582.508 1378.66,582.508 1379.16,582.508 1379.65,582.508 1380.15,582.508 1380.65,582.508 1381.14,582.508 1381.64,583.121 1382.14,583.121 1382.63,583.121 1383.13,583.121 1383.63,583.121 1384.12,583.121 1384.62,583.121 1385.11,583.121 1385.61,583.121 1386.11,583.121 1386.6,583.121 1387.1,583.121 1387.6,582.508 1388.09,583.121 1388.59,583.121 1389.09,583.121 1389.58,583.121 1390.08,583.121 1390.57,583.121 1391.07,583.121 1391.57,582.508 1392.06,581.895 1392.56,581.895 1393.06,581.895 1393.55,581.895 1394.05,581.895 1394.54,581.895 1395.04,581.895 1395.54,581.895 1396.03,581.895 1396.53,581.895 1397.03,581.895 1397.52,583.121 1398.02,583.121 1398.52,583.121 1399.01,583.121 1399.51,583.121 1400,583.121 1400.5,582.508 1401,582.508 1401.49,582.508 1401.99,582.508 1402.49,582.508 1402.98,582.508 1403.48,582.508 1403.97,582.508 1404.47,582.508 1404.97,582.508 1405.46,582.508 1405.96,582.508 1406.46,583.121 1406.95,583.734 1407.45,583.121 1407.95,583.734 1408.44,583.734 1408.94,583.734 1409.43,583.734 1409.93,583.121 1410.43,582.508 1410.92,582.508 1411.42,580.67 1411.92,580.67 1412.41,580.67 1412.91,580.67 1413.41,580.67 1413.9,580.67 1414.4,580.67 1414.89,580.67 1415.39,582.508 1415.89,583.734 1416.38,583.734 1416.88,583.734 1417.38,583.734 1417.87,583.734 1418.37,583.734 1418.86,583.734 1419.36,583.734 1419.86,583.734 1420.35,583.121 1420.85,583.121 1421.35,582.508 1421.84,582.508 1422.34,582.508 1422.84,582.508 1423.33,581.282 1423.83,582.508 1424.32,581.282 1424.82,581.282 1425.32,581.895 1425.81,582.508 1426.31,582.508 1426.81,583.121 1427.3,583.734 1427.8,583.734 1428.3,583.734 1428.79,583.734 1429.29,583.121 1429.78,583.734 1430.28,583.734 1430.78,583.121 1431.27,583.121 1431.77,582.508 1432.27,582.508 1432.76,581.895 1433.26,581.282 1433.76,581.282 1434.25,581.282 1434.75,581.282 1435.24,581.282 1435.74,581.282 1436.24,582.508 1436.73,582.508 1437.23,583.121 1437.73,583.121 1438.22,583.734 1438.72,583.734 1439.21,583.734 1439.71,583.734 1440.21,583.734 1440.7,582.508 1441.2,582.508 1441.7,582.508 1442.19,582.508 1442.69,582.508 1443.19,581.895 1443.68,581.895 1444.18,581.895 1444.67,581.895 1445.17,581.895 1445.67,582.508 1446.16,582.508 1446.66,582.508 1447.16,582.508 1447.65,583.121 1448.15,583.734 1448.65,583.734 1449.14,583.734 1449.64,583.734 1450.13,583.734 1450.63,582.508 1451.13,582.508 1451.62,581.282 1452.12,581.282 1452.62,581.282 1453.11,581.282 1453.61,581.282 1454.1,581.282 1454.6,581.282 1455.1,582.508 1455.59,582.508 1456.09,582.508 1456.59,583.121 1457.08,583.734 1457.58,583.734 1458.08,583.734 1458.57,583.734 1459.07,583.734 1459.56,583.734 1460.06,583.121 1460.56,582.508 1461.05,581.282 1461.55,581.282 1462.05,581.282 1462.54,581.282 1463.04,581.282 1463.54,581.282 1464.03,581.282 1464.53,581.282 1465.02,581.282 1465.52,581.895 1466.02,788 1466.51,788 1467.01,788 1467.51,788 1468,788 1468.5,788 1468.99,788 1469.49,788 1469.99,753.275 1470.48,753.275 1470.98,753.275 1471.48,753.275 1471.97,753.275 1472.47,753.275 1472.97,748.372 1473.46,748.372 1473.96,748.372 1474.45,748.372 1474.95,748.372 1475.45,748.372 1475.94,750.823 1476.44,754.705 1476.94,757.156 1477.43,760.016 1477.93,762.467 1478.43,764.714 1478.92,764.714 1479.42,764.714 1479.91,764.714 1480.41,764.714 1480.91,764.714 1481.4,764.305 1481.9,763.284 1482.4,760.628 1482.89,759.607 1483.39,758.381 1483.88,756.339 1484.38,756.339 1484.88,756.134 1485.37,755.93 1485.87,755.93 1486.37,755.93 1486.86,756.134 1487.36,756.134 1487.86,756.339 1488.35,757.36 1488.85,758.381 1489.34,758.381 1489.84,759.198 1490.34,759.403 1490.83,759.403 1491.33,759.607 1491.83,759.607 1492.32,759.607 1492.82,759.607 1493.31,759.403 1493.81,759.198 1494.31,759.198 1494.8,758.994 1495.3,758.381 1495.8,758.381 1496.29,757.36 1496.79,757.36 1497.29,757.36 1497.78,757.36 1498.28,757.36 1498.77,757.36 1499.27,757.36 1499.77,757.973 1500.26,757.973 1500.76,757.973 1501.26,757.973 1501.75,758.177 1502.25,758.177 1502.75,758.381 1503.24,758.381 1503.74,758.177 1504.23,758.177 1504.73,758.177 1505.23,758.177 1505.72,758.586 1506.22,758.586 1506.72,758.381 1507.21,758.381 1507.71,758.381 1508.21,758.381 1508.7,758.381 1509.2,758.381 1509.69,758.381 1510.19,758.381 1510.69,758.381 1511.18,758.381 1511.68,758.381 1512.18,758.177 1512.67,758.177 1513.17,757.973 1513.66,757.973 1514.16,757.973 1514.66,757.973 1515.15,757.973 1515.65,757.973 1516.15,757.973 1516.64,757.564 1517.14,757.564 1517.64,757.564 1518.13,757.973 1518.63,758.381 1519.12,758.381 1519.62,758.381 1520.12,758.586 1520.61,758.586 1521.11,758.381 1521.61,758.381 1522.1,758.381 1522.6,758.381 1523.09,758.381 1523.59,758.381 1524.09,758.177 1524.58,758.177 1525.08,757.973 1525.58,757.973 1526.07,758.177 1526.57,757.973 1527.07,757.564 1527.56,757.564 1528.06,757.564 1528.55,757.564 1529.05,757.564 1529.55,757.973 1530.04,758.177 1530.54,758.381 1531.04,758.381 1531.53,758.177 1532.03,758.177 1532.53,758.177 1533.02,758.177 1533.52,758.177 1534.01,757.564 1534.51,758.177 1535.01,758.177 1535.5,757.973 1536,757.973 1536.5,757.564 1536.99,757.564 1537.49,757.973 1537.98,757.973 1538.48,757.973 1538.98,757.973 1539.47,757.973 1539.97,757.973 1540.47,757.973 1540.96,757.973 1541.46,757.973 1541.96,758.177 1542.45,758.177 1542.95,758.177 1543.44,758.177 1543.94,758.994 1544.44,758.177 1544.93,758.177 1545.43,758.994 1545.93,758.994 1546.42,757.973 1546.92,757.973 1547.42,757.973 1547.91,757.973 1548.41,757.973 1548.9,757.973 1549.4,757.564 1549.9,757.973 1550.39,757.564 1550.89,757.564 1551.39,757.973 1551.88,757.973 1552.38,758.177 1552.88,757.973 1553.37,758.177 1553.87,758.177 1554.36,758.586 1554.86,758.586 1555.36,758.177 1555.85,758.177 1556.35,758.177 1556.85,758.177 1557.34,758.381 1557.84,758.177 1558.33,758.381 1558.83,758.177 1559.33,757.973 1559.82,757.564 1560.32,757.564 1560.82,757.973 1561.31,757.564 1561.81,757.973 1562.31,757.564 1562.8,757.564 1563.3,757.564 1563.79,757.564 1564.29,757.564 1564.79,758.177 1565.28,758.381 1565.78,758.381 1566.28,758.177 1566.77,758.177 1567.27,758.177 1567.77,758.177 1568.26,758.177 1568.76,758.177 1569.25,758.177 1569.75,757.973 1570.25,757.564 1570.74,757.564 1571.24,757.564 1571.74,757.564 1572.23,757.564 1572.73,757.564 1573.22,757.564 1573.72,757.564 1574.22,757.564 1574.71,757.973 1575.21,758.381 1575.71,758.381 1576.2,758.586 1576.7,758.586 1577.2,758.586 1577.69,758.586 1578.19,758.381 1578.68,758.381 1579.18,758.381 1579.68,758.381 1580.17,758.381 1580.67,757.973 1581.17,757.564 1581.66,757.564 1582.16,757.564 1582.66,757.564 1583.15,757.564 1583.65,757.564 1584.14,757.564 1584.64,757.973 1585.14,757.973 1585.63,757.973 1586.13,757.973 1586.63,758.586 1587.12,758.586 1587.62,758.586 1588.11,758.586 1588.61,758.586 1589.11,757.564 1589.6,757.564 1590.1,757.564 1590.6,757.564 1591.09,757.973 1591.59,757.973 1592.09,757.564 1592.58,757.973 1593.08,757.973 1593.57,757.973 1594.07,757.973 1594.57,757.973 1595.06,757.973 1595.56,757.973 1596.06,757.973 1596.55,757.973 1597.05,757.973 1597.54,757.973 1598.04,757.973 1598.54,757.973 1599.03,758.381 1599.53,758.381 1600.03,758.381 1600.52,758.381 1601.02,757.973 1601.52,758.381 1602.01,758.381 1602.51,758.381 1603,758.381 1603.5,758.381 1604,757.973 1604.49,757.973 1604.99,757.973 1605.49,757.973 1605.98,757.973 1606.48,757.973 1606.98,757.973 1607.47,757.973 1607.97,757.973 1608.46,757.973 1608.96,757.973 1609.46,757.973 1609.95,757.973 1610.45,757.973 1610.95,758.177 1611.44,758.177 1611.94,758.586 1612.44,758.586 1612.93,758.586 1613.43,758.177 1613.92,758.177 1614.42,758.177 1614.92,758.177 1615.41,758.177 1615.91,758.177 1616.41,758.177 1616.9,758.177 1617.4,758.177 1617.89,758.177 1618.39,758.177 1618.89,757.973 1619.38,758.177 1619.88,758.177 1620.38,758.381 1620.87,758.381 1621.37,758.381 1621.87,758.177 1622.36,757.564 1622.86,757.564 1623.35,757.564 1623.85,757.564 1624.35,757.973 1624.84,757.973 1625.34,757.973 1625.84,757.564 1626.33,757.564 1626.83,757.973 1627.32,757.973 1627.82,757.973 1628.32,757.973 1628.81,758.177 1629.31,758.381 1629.81,758.177 1630.3,758.177 1630.8,758.177 1631.3,758.586 1631.79,758.177 1632.29,757.973 1632.78,757.973 1633.28,757.973 1633.78,757.973 1634.27,757.973 1634.77,757.564 1635.27,757.973 1635.76,757.564 1636.26,757.973 1636.76,757.973 1637.25,757.973 1637.75,757.973 1638.24,757.973 1638.74,757.973 1639.24,757.973 1639.73,757.973 1640.23,757.973 1640.73,757.973 1641.22,757.973 1641.72,757.973 1642.21,757.973 1642.71,757.973 1643.21,757.973 1643.7,758.177 1644.2,757.973 1644.7,757.973 1645.19,757.973 1645.69,758.177 1646.19,758.177 1646.68,758.381 1647.18,758.177 1647.67,758.381 1648.17,758.381 1648.67,758.177 1649.16,757.973 1649.66,758.177 1650.16,758.381 1650.65,758.177 1651.15,757.973 1651.65,757.564 1652.14,757.564 1652.64,757.564 1653.13,757.564 1653.63,757.564 1654.13,757.564 1654.62,757.973 1655.12,757.564 1655.62,757.564 1656.11,757.973 1656.61,757.973 1657.1,758.177 1657.6,758.381 1658.1,758.177 1658.59,758.381 1659.09,758.381 1659.59,758.381 1660.08,758.381 1660.58,758.381 1661.08,758.381 1661.57,758.177 1662.07,758.177 1662.56,757.564 1663.06,757.564 1663.56,757.564 1664.05,757.564 1664.55,757.564 1665.05,757.973 1665.54,757.564 1666.04,757.973 1666.54,757.973 1667.03,758.177 1667.53,758.177 1668.02,758.177 1668.52,758.177 1669.02,758.177 1669.51,758.177 1670.01,758.177 1670.51,758.177 1671,758.381 1671.5,758.381 1671.99,758.381 1672.49,758.381 1672.99,758.177 1673.48,758.177 1673.98,758.177 1674.48,758.177 1674.97,758.177 1675.47,758.177 1675.97,758.177 1676.46,758.177 1676.96,758.177 1677.45,758.177 1677.95,758.177 1678.45,758.381 1678.94,758.177 1679.44,757.973 1679.94,757.973 1680.43,757.973 1680.93,758.381 1681.43,758.381 1681.92,757.973 1682.42,757.973 1682.91,757.973 1683.41,757.973 1683.91,757.973 1684.4,757.973 1684.9,757.973 1685.4,757.973 1685.89,757.973 1686.39,757.973 1686.89,757.973 1687.38,758.381 1687.88,758.381 1688.37,758.381 1688.87,758.381 1689.37,758.381 1689.86,758.381 1690.36,758.381 1690.86,758.381 1691.35,758.381 1691.85,757.973 1692.34,757.973 1692.84,757.973 1693.34,757.973 1693.83,757.973 1694.33,757.973 1694.83,757.564 1695.32,757.564 1695.82,757.564 1696.32,757.564 1696.81,757.564 1697.31,757.973 1697.8,757.973 1698.3,757.973 1698.8,757.973 1699.29,757.973 1699.79,757.973 1700.29,758.381 1700.78,758.381 1701.28,758.586 1701.78,758.586 1702.27,758.381 1702.77,758.586 " />
</g>

<g fill="#ff0000" fill-opacity="0.701961" stroke="#ff0000" stroke-opacity="0.701961" stroke-dasharray="10,6" stroke-dashoffset="0" stroke-width="1.97917" stroke-linecap="butt" stroke-linejoin="round" transform="matrix(0.757778,0,0,0.7578,-158.196,-32.9641)"
font-family="Helvetica" font-size="18" font-weight="700" font-style="normal" 
>
<polyline fill="none" vector-effect="none" points="250,705.552 1739,705.552 " />
</g>

<g fill="#ff0000" fill-opacity="1" stroke="#ff0000" stroke-opacity="1" stroke-width="1" stroke-linecap="square" stroke-linejoin="bevel" transform="matrix(0.757778,0,0,0.7578,1058.04,512.881)"
font-family="Helvetica" font-size="13" font-weight="400" font-style="normal" 
>
<text fill="#ff0000" fill-opacity="1" stroke="none" xml:space="preserve" x="0" y="0" font-family="Helvetica" font-size="13" font-weight="400" font-style="normal" 
 >Average V = 4.04 LUX</text>
</g>

<g fill="#ffffff" fill-opacity="1" stroke="none" transform="matrix(7.57778e-05,0,0,7.578e-05,-158.196,-32.9641)"
font-family="Helvetica" font-size="13" font-weight="400" font-style="normal" 
>
<path vector-effect="none" fill-rule="evenodd" d="M1.532e+07,980000 L1.532e+07,1.33e+06 L1.713e+07,1.33e+06 L1.713e+07,980000 L1.532e+07,980000"/>
</g>

<g fill="#ff00ff" fill-opacity="1" stroke="#ff00ff" stroke-opacity="1" stroke-width="1.97917" stroke-linecap="butt" stroke-linejoin="round" transform="matrix(0.757778,0,0,0.7578,-158.196,-32.9641)"
font-family="Helvetica" font-size="13" font-weight="400" font-style="normal" 
>
<polyline fill="none" vector-effect="none" points="1535.98,108.098 1575.37,108.098 " />
</g>

<g fill="#ff0000" fill-opacity="0.701961" stroke="#ff0000" stroke-opacity="0.701961" stroke-dasharray="10,6" stroke-dashoffset="0" stroke-width="1.97917" stroke-linecap="butt" stroke-linejoin="round" transform="matrix(0.757778,0,0,0.7578,-158.196,-32.9641)"
font-family="Helvetica" font-size="13" font-weight="400" font-style="normal" 
>
<polyline fill="none" vector-effect="none" points="1535.98,123.811 1575.37,123.811 " />
</g>

<g fill="#212121" fill-opacity="1" stroke="#212121" stroke-opacity="1" stroke-width="1" stroke-linecap="square" stroke-linejoin="bevel" transform="matrix(0.757778,0,0,0.7578,1037.58,50.3939)"
font-family="Helvetica" font-size="11" font-weight="400" font-style="normal" 
>
<text fill="#212121" fill-opacity="1" stroke="none" xml:space="preserve" x="0" y="0" font-family="Helvetica" font-size="11" font-weight="400" font-style="normal" 
 >Instantaneous Error (V</text>
</g>

<g fill="#212121" fill-opacity="1" stroke="#212121" stroke-opacity="1" stroke-width="1" stroke-linecap="square" stroke-linejoin="bevel" transform="matrix(0.757778,0,0,0.7578,1121.69,54.1829)"
font-family="Helvetica" font-size="9" font-weight="400" font-style="normal" 
>
<text fill="#212121" fill-opacity="1" stroke="none" xml:space="preserve" x="0" y="0" font-family="Helvetica" font-size="9" font-weight="400" font-style="normal" 
 >k</text>
</g>

<g fill="#212121" fill-opacity="1" stroke="#212121" stroke-opacity="1" stroke-width="1" stroke-linecap="square" stroke-linejoin="bevel" transform="matrix(0.757778,0,0,0.7578,1125.48,50.3939)"
font-family="Helvetica" font-size="11" font-weight="400" font-style="normal" 
>
<text fill="#212121" fill-opacity="1" stroke="none" xml:space="preserve" x="0" y="0" font-family="Helvetica" font-size="11" font-weight="400" font-style="normal" 
 >)</text>
</g>

<g fill="#212121" fill-opacity="1" stroke="#212121" stroke-opacity="1" stroke-width="1" stroke-linecap="square" stroke-linejoin="bevel" transform="matrix(0.757778,0,0,0.7578,1037.85,63.5124)"
font-family="Helvetica" font-size="11" font-weight="400" font-style="normal" 
>
<text fill="#212121" fill-opacity="1" stroke="none" xml:space="preserve" x="0" y="0" font-family="Helvetica" font-size="11" font-weight="400" font-style="normal" 
 >Mean Visibility Error (V)</text>
</g>

<g fill="none" stroke="#212121" stroke-opacity="1" stroke-width="0.659722" stroke-linecap="butt" stroke-linejoin="miter" stroke-miterlimit="5" transform="matrix(0.757778,0,0,0.7578,-158.196,-32.9641)"
font-family="Helvetica" font-size="11" font-weight="400" font-style="normal" 
>
<path vector-effect="none" fill-rule="evenodd" d="M1532,133 L1532,98 L1713,98 L1713,133 L1532,133"/>
</g>
</g>
</svg>
