<?xml version="1.0" encoding="UTF-8" standalone="no"?>
<svg width="411.692mm" height="210.256mm"
 viewBox="0 0 1167 596"
 xmlns="http://www.w3.org/2000/svg" xmlns:xlink="http://www.w3.org/1999/xlink"  version="1.2" baseProfile="tiny">
<title>Qt SVG Document</title>
<desc>MATLAB, The MathWorks, Inc. Version 25.2.0.3123386 R2025b Update 3</desc>
<defs>
</defs>
<g fill="none" stroke="black" stroke-width="1" fill-rule="evenodd" stroke-linecap="square" stroke-linejoin="bevel" >

<g fill="#ffffff" fill-opacity="1" stroke="none" transform="matrix(0.757778,0,0,0.7578,-158.196,-32.9641)"
font-family="Sans Serif" font-size="9" font-weight="400" font-style="normal" 
>
<path vector-effect="none" fill-rule="evenodd" d="M207,42 L1748,42 L1748,830 L207,830 L207,42"/>
</g>

<g fill="#ffffff" fill-opacity="1" stroke="none" transform="matrix(7.57778e-05,0,0,7.578e-05,-158.196,-32.9641)"
font-family="Sans Serif" font-size="9" font-weight="400" font-style="normal" 
>
<path vector-effect="none" fill-rule="evenodd" d="M2.5e+06,660000 L2.5e+06,7.89e+06 L1.739e+07,7.89e+06 L1.739e+07,660000 L2.5e+06,660000"/>
</g>

<g fill="#212121" fill-opacity="0.14902" stroke="#212121" stroke-opacity="0.14902" stroke-width="0.659722" stroke-linecap="butt" stroke-linejoin="round" transform="matrix(0.757778,0,0,0.7578,-158.196,-32.9641)"
font-family="Sans Serif" font-size="9" font-weight="400" font-style="normal" 
>
<polyline fill="none" vector-effect="none" points="250,66 250,789 " />
<polyline fill="none" vector-effect="none" points="547.8,66 547.8,789 " />
<polyline fill="none" vector-effect="none" points="845.6,66 845.6,789 " />
<polyline fill="none" vector-effect="none" points="1143.4,66 1143.4,789 " />
<polyline fill="none" vector-effect="none" points="1441.2,66 1441.2,789 " />
<polyline fill="none" vector-effect="none" points="1739,66 1739,789 " />
<polyline fill="none" vector-effect="none" points="250,789 1739,789 " />
<polyline fill="none" vector-effect="none" points="250,692.61 1739,692.61 " />
<polyline fill="none" vector-effect="none" points="250,596.221 1739,596.221 " />
<polyline fill="none" vector-effect="none" points="250,499.831 1739,499.831 " />
<polyline fill="none" vector-effect="none" points="250,403.441 1739,403.441 " />
<polyline fill="none" vector-effect="none" points="250,307.051 1739,307.051 " />
<polyline fill="none" vector-effect="none" points="250,210.662 1739,210.662 " />
<polyline fill="none" vector-effect="none" points="250,114.272 1739,114.272 " />
</g>

<g fill="#212121" fill-opacity="1" stroke="#212121" stroke-opacity="1" stroke-width="1" stroke-linecap="square" stroke-linejoin="bevel" transform="matrix(0.757778,0,0,0.7578,573.817,591.916)"
font-family="Helvetica" font-size="15" font-weight="700" font-style="normal" 
>
<text fill="#212121" fill-opacity="1" stroke="none" xml:space="preserve" x="0" y="0" font-family="Helvetica" font-size="15" font-weight="700" font-style="normal" 
 >Time [s]</text>
</g>

<g fill="#212121" fill-opacity="1" stroke="#212121" stroke-opacity="1" stroke-width="0.659722" stroke-linecap="square" stroke-linejoin="round" transform="matrix(0.757778,0,0,0.7578,-158.196,-32.9641)"
font-family="Helvetica" font-size="15" font-weight="700" font-style="normal" 
>
<polyline fill="none" vector-effect="none" points="250,789 1739,789 " />
<polyline fill="none" vector-effect="none" points="250,66 1739,66 " />
<polyline fill="none" vector-effect="none" points="250,789 250,774.11 " />
<polyline fill="none" vector-effect="none" points="250,80.89 250,66 " />
<polyline fill="none" vector-effect="none" points="547.8,789 547.8,774.11 " />
<polyline fill="none" vector-effect="none" points="547.8,80.89 547.8,66 " />
<polyline fill="none" vector-effect="none" points="845.6,789 845.6,774.11 " />
<polyline fill="none" vector-effect="none" points="845.6,80.89 845.6,66 " />
<polyline fill="none" vector-effect="none" points="1143.4,789 1143.4,774.11 " />
<polyline fill="none" vector-effect="none" points="1143.4,80.89 1143.4,66 " />
<polyline fill="none" vector-effect="none" points="1441.2,789 1441.2,774.11 " />
<polyline fill="none" vector-effect="none" points="1441.2,80.89 1441.2,66 " />
<polyline fill="none" vector-effect="none" points="1739,789 1739,774.11 " />
<polyline fill="none" vector-effect="none" points="1739,80.89 1739,66 " />
</g>

<g fill="#212121" fill-opacity="1" stroke="#212121" stroke-opacity="1" stroke-width="1" stroke-linecap="square" stroke-linejoin="bevel" transform="matrix(0.757778,0,0,0.7578,28.5958,578.034)"
font-family="Helvetica" font-size="13" font-weight="400" font-style="normal" 
>
<text fill="#212121" fill-opacity="1" stroke="none" xml:space="preserve" x="0" y="0" font-family="Helvetica" font-size="13" font-weight="400" font-style="normal" 
 >0</text>
</g>

<g fill="#212121" fill-opacity="1" stroke="#212121" stroke-opacity="1" stroke-width="1" stroke-linecap="square" stroke-linejoin="bevel" transform="matrix(0.757778,0,0,0.7578,254.262,578.034)"
font-family="Helvetica" font-size="13" font-weight="400" font-style="normal" 
>
<text fill="#212121" fill-opacity="1" stroke="none" xml:space="preserve" x="0" y="0" font-family="Helvetica" font-size="13" font-weight="400" font-style="normal" 
 >5</text>
</g>

<g fill="#212121" fill-opacity="1" stroke="#212121" stroke-opacity="1" stroke-width="1" stroke-linecap="square" stroke-linejoin="bevel" transform="matrix(0.757778,0,0,0.7578,477.276,578.034)"
font-family="Helvetica" font-size="13" font-weight="400" font-style="normal" 
>
<text fill="#212121" fill-opacity="1" stroke="none" xml:space="preserve" x="0" y="0" font-family="Helvetica" font-size="13" font-weight="400" font-style="normal" 
 >10</text>
</g>

<g fill="#212121" fill-opacity="1" stroke="#212121" stroke-opacity="1" stroke-width="1" stroke-linecap="square" stroke-linejoin="bevel" transform="matrix(0.757778,0,0,0.7578,702.943,578.034)"
font-family="Helvetica" font-size="13" font-weight="400" font-style="normal" 
>
<text fill="#212121" fill-opacity="1" stroke="none" xml:space="preserve" x="0" y="0" font-family="Helvetica" font-size="13" font-weight="400" font-style="normal" 
 >15</text>
</g>

<g fill="#212121" fill-opacity="1" stroke="#212121" stroke-opacity="1" stroke-width="1" stroke-linecap="square" stroke-linejoin="bevel" transform="matrix(0.757778,0,0,0.7578,928.609,578.034)"
font-family="Helvetica" font-size="13" font-weight="400" font-style="normal" 
>
<text fill="#212121" fill-opacity="1" stroke="none" xml:space="preserve" x="0" y="0" font-family="Helvetica" font-size="13" font-weight="400" font-style="normal" 
 >20</text>
</g>

<g fill="#212121" fill-opacity="1" stroke="#212121" stroke-opacity="1" stroke-width="1" stroke-linecap="square" stroke-linejoin="bevel" transform="matrix(0.757778,0,0,0.7578,1154.28,578.034)"
font-family="Helvetica" font-size="13" font-weight="400" font-style="normal" 
>
<text fill="#212121" fill-opacity="1" stroke="none" xml:space="preserve" x="0" y="0" font-family="Helvetica" font-size="13" font-weight="400" font-style="normal" 
 >25</text>
</g>

<g fill="#212121" fill-opacity="1" stroke="#212121" stroke-opacity="1" stroke-width="1" stroke-linecap="square" stroke-linejoin="bevel" transform="matrix(0,-0.7578,0.757778,0,9.85135,346.315)"
font-family="Helvetica" font-size="15" font-weight="700" font-style="normal" 
>
<text fill="#212121" fill-opacity="1" stroke="none" xml:space="preserve" x="0" y="0" font-family="Helvetica" font-size="15" font-weight="700" font-style="normal" 
 >Visibility Error [LUX]</text>
</g>

<g fill="#212121" fill-opacity="1" stroke="#212121" stroke-opacity="1" stroke-width="0.659722" stroke-linecap="square" stroke-linejoin="round" transform="matrix(0.757778,0,0,0.7578,-158.196,-32.9641)"
font-family="Helvetica" font-size="15" font-weight="700" font-style="normal" 
>
<polyline fill="none" vector-effect="none" points="250,789 250,66 " />
<polyline fill="none" vector-effect="none" points="1739,789 1739,66 " />
<polyline fill="none" vector-effect="none" points="250,789 264.89,789 " />
<polyline fill="none" vector-effect="none" points="1724.11,789 1739,789 " />
<polyline fill="none" vector-effect="none" points="250,692.61 264.89,692.61 " />
<polyline fill="none" vector-effect="none" points="1724.11,692.61 1739,692.61 " />
<polyline fill="none" vector-effect="none" points="250,596.221 264.89,596.221 " />
<polyline fill="none" vector-effect="none" points="1724.11,596.221 1739,596.221 " />
<polyline fill="none" vector-effect="none" points="250,499.831 264.89,499.831 " />
<polyline fill="none" vector-effect="none" points="1724.11,499.831 1739,499.831 " />
<polyline fill="none" vector-effect="none" points="250,403.441 264.89,403.441 " />
<polyline fill="none" vector-effect="none" points="1724.11,403.441 1739,403.441 " />
<polyline fill="none" vector-effect="none" points="250,307.051 264.89,307.051 " />
<polyline fill="none" vector-effect="none" points="1724.11,307.051 1739,307.051 " />
<polyline fill="none" vector-effect="none" points="250,210.662 264.89,210.662 " />
<polyline fill="none" vector-effect="none" points="1724.11,210.662 1739,210.662 " />
<polyline fill="none" vector-effect="none" points="250,114.272 264.89,114.272 " />
<polyline fill="none" vector-effect="none" points="1724.11,114.272 1739,114.272 " />
</g>

<g fill="#212121" fill-opacity="1" stroke="#212121" stroke-opacity="1" stroke-width="1" stroke-linecap="square" stroke-linejoin="bevel" transform="matrix(0.757778,0,0,0.7578,21.9442,568.351)"
font-family="Helvetica" font-size="13" font-weight="400" font-style="normal" 
>
<text fill="#212121" fill-opacity="1" stroke="none" xml:space="preserve" x="0" y="0" font-family="Helvetica" font-size="13" font-weight="400" font-style="normal" 
 >0</text>
</g>

<g fill="#212121" fill-opacity="1" stroke="#212121" stroke-opacity="1" stroke-width="1" stroke-linecap="square" stroke-linejoin="bevel" transform="matrix(0.757778,0,0,0.7578,21.9442,495.306)"
font-family="Helvetica" font-size="13" font-weight="400" font-style="normal" 
>
<text fill="#212121" fill-opacity="1" stroke="none" xml:space="preserve" x="0" y="0" font-family="Helvetica" font-size="13" font-weight="400" font-style="normal" 
 >5</text>
</g>

<g fill="#212121" fill-opacity="1" stroke="#212121" stroke-opacity="1" stroke-width="1" stroke-linecap="square" stroke-linejoin="bevel" transform="matrix(0.757778,0,0,0.7578,16.6398,422.262)"
font-family="Helvetica" font-size="13" font-weight="400" font-style="normal" 
>
<text fill="#212121" fill-opacity="1" stroke="none" xml:space="preserve" x="0" y="0" font-family="Helvetica" font-size="13" font-weight="400" font-style="normal" 
 >10</text>
</g>

<g fill="#212121" fill-opacity="1" stroke="#212121" stroke-opacity="1" stroke-width="1" stroke-linecap="square" stroke-linejoin="bevel" transform="matrix(0.757778,0,0,0.7578,16.6398,349.218)"
font-family="Helvetica" font-size="13" font-weight="400" font-style="normal" 
>
<text fill="#212121" fill-opacity="1" stroke="none" xml:space="preserve" x="0" y="0" font-family="Helvetica" font-size="13" font-weight="400" font-style="normal" 
 >15</text>
</g>

<g fill="#212121" fill-opacity="1" stroke="#212121" stroke-opacity="1" stroke-width="1" stroke-linecap="square" stroke-linejoin="bevel" transform="matrix(0.757778,0,0,0.7578,16.6398,276.174)"
font-family="Helvetica" font-size="13" font-weight="400" font-style="normal" 
>
<text fill="#212121" fill-opacity="1" stroke="none" xml:space="preserve" x="0" y="0" font-family="Helvetica" font-size="13" font-weight="400" font-style="normal" 
 >20</text>
</g>

<g fill="#212121" fill-opacity="1" stroke="#212121" stroke-opacity="1" stroke-width="1" stroke-linecap="square" stroke-linejoin="bevel" transform="matrix(0.757778,0,0,0.7578,16.6398,203.13)"
font-family="Helvetica" font-size="13" font-weight="400" font-style="normal" 
>
<text fill="#212121" fill-opacity="1" stroke="none" xml:space="preserve" x="0" y="0" font-family="Helvetica" font-size="13" font-weight="400" font-style="normal" 
 >25</text>
</g>

<g fill="#212121" fill-opacity="1" stroke="#212121" stroke-opacity="1" stroke-width="1" stroke-linecap="square" stroke-linejoin="bevel" transform="matrix(0.757778,0,0,0.7578,16.6398,130.085)"
font-family="Helvetica" font-size="13" font-weight="400" font-style="normal" 
>
<text fill="#212121" fill-opacity="1" stroke="none" xml:space="preserve" x="0" y="0" font-family="Helvetica" font-size="13" font-weight="400" font-style="normal" 
 >30</text>
</g>

<g fill="#212121" fill-opacity="1" stroke="#212121" stroke-opacity="1" stroke-width="1" stroke-linecap="square" stroke-linejoin="bevel" transform="matrix(0.757778,0,0,0.7578,16.6398,57.0413)"
font-family="Helvetica" font-size="13" font-weight="400" font-style="normal" 
>
<text fill="#212121" fill-opacity="1" stroke="none" xml:space="preserve" x="0" y="0" font-family="Helvetica" font-size="13" font-weight="400" font-style="normal" 
 >35</text>
</g>

<g fill="#212121" fill-opacity="1" stroke="#212121" stroke-opacity="1" stroke-width="1" stroke-linecap="square" stroke-linejoin="bevel" transform="matrix(0.757778,0,0,0.7578,519.257,11.3672)"
font-family="Helvetica" font-size="18" font-weight="700" font-style="normal" 
>
<text fill="#212121" fill-opacity="1" stroke="none" xml:space="preserve" x="0" y="0" font-family="Helvetica" font-size="18" font-weight="700" font-style="normal" 
 >Visibility Error Analysis</text>
</g>

<g fill="none" stroke="#ff00ff" stroke-opacity="1" stroke-width="1.97917" stroke-linecap="butt" stroke-linejoin="round" transform="matrix(0.757778,0,0,0.7578,-158.196,-32.9641)"
font-family="Helvetica" font-size="18" font-weight="700" font-style="normal" 
>
<polyline fill="none" vector-effect="none" points="250,789 250.596,789 251.191,789 251.787,789 252.382,789 252.978,789 253.574,789 254.169,789 254.765,789 255.36,789 255.956,789 256.552,789 257.147,789 257.743,789 258.338,789 258.934,789 259.53,789 260.125,789 260.721,789 261.316,789 261.912,789 262.508,789 263.103,789 263.699,789 264.294,789 264.89,789 265.486,789 266.081,789 266.677,789 267.272,789 267.868,789 268.464,789 269.059,789 269.655,789 270.25,789 270.846,789 271.442,789 272.037,789 272.633,789 273.228,789 273.824,789 274.42,789 275.015,789 275.611,789 276.206,789 276.802,789 277.398,789 277.993,789 278.589,789 279.184,789 279.78,789 280.376,789 280.971,789 281.567,789 282.162,789 282.758,789 283.354,789 283.949,789 284.545,789 285.14,789 285.736,789 286.332,789 286.927,789 287.523,789 288.118,789 288.714,789 289.31,789 289.905,789 290.501,789 291.096,789 291.692,789 292.288,789 292.883,789 293.479,789 294.074,789 294.67,789 295.266,789 295.861,789 296.457,789 297.052,789 297.648,789 298.244,789 298.839,789 299.435,789 300.03,789 300.626,789 301.222,789 301.817,789 302.413,789 303.008,789 303.604,789 304.2,789 304.795,789 305.391,789 305.986,789 306.582,789 307.178,789 307.773,789 308.369,789 308.964,789 309.56,789 310.156,789 310.751,789 311.347,789 311.942,789 312.538,789 313.134,789 313.729,789 314.325,789 314.92,789 315.516,789 316.112,789 316.707,789 317.303,789 317.898,789 318.494,789 319.09,789 319.685,789 320.281,789 320.876,789 321.472,789 322.068,789 322.663,789 323.259,789 323.854,789 324.45,789 325.046,789 325.641,789 326.237,789 326.832,789 327.428,789 328.024,789 328.619,789 329.215,789 329.81,789 330.406,789 331.002,789 331.597,789 332.193,789 332.788,789 333.384,789 333.98,789 334.575,789 335.171,789 335.766,789 336.362,789 336.958,789 337.553,789 338.149,789 338.744,789 339.34,789 339.936,789 340.531,789 341.127,789 341.722,789 342.318,789 342.914,789 343.509,789 344.105,789 344.7,789 345.296,789 345.892,789 346.487,789 347.083,789 347.678,789 348.274,789 348.87,789 349.465,789 350.061,789 350.656,789 351.252,789 351.848,789 352.443,789 353.039,789 353.634,789 354.23,789 354.826,789 355.421,789 356.017,789 356.612,789 357.208,789 357.804,789 358.399,789 358.995,789 359.59,789 360.186,789 360.782,789 361.377,789 361.973,789 362.568,789 363.164,789 363.76,789 364.355,789 364.951,789 365.546,789 366.142,789 366.738,789 367.333,789 367.929,789 368.524,789 369.12,789 369.716,789 370.311,789 370.907,789 371.502,789 372.098,789 372.694,789 373.289,789 373.885,789 374.48,789 375.076,789 375.672,789 376.267,789 376.863,789 377.458,789 378.054,789 378.65,789 379.245,789 379.841,789 380.436,789 381.032,789 381.628,789 382.223,789 382.819,789 383.414,789 384.01,789 384.606,789 385.201,789 385.797,789 386.392,789 386.988,789 387.584,789 388.179,789 388.775,789 389.37,789 389.966,789 390.562,789 391.157,789 391.753,789 392.348,789 392.944,789 393.54,789 394.135,789 394.731,789 395.326,789 395.922,637.09 396.518,637.09 397.113,701.478 397.709,701.478 398.304,701.478 398.9,789 399.496,789 400.091,789 400.687,789 401.282,789 401.878,789 402.474,789 403.069,789 403.665,789 404.26,789 404.856,779.361 405.452,767.602 406.047,765.674 406.643,765.674 407.238,765.674 407.834,765.674 408.43,765.674 409.025,765.674 409.621,778.397 410.216,789 410.812,789 411.408,789 412.003,789 412.599,789 413.194,789 413.79,789 414.386,789 414.981,789 415.577,789 416.172,789 416.768,780.132 417.364,769.529 417.959,762.204 418.555,762.204 419.15,762.204 419.746,762.204 420.342,762.204 420.937,762.204 421.533,775.891 422.128,789 422.724,789 423.32,789 423.915,789 424.511,789 425.106,789 425.702,789 426.298,789 426.893,789 427.489,789 428.084,789 428.68,778.783 429.276,764.71 429.871,759.119 430.467,759.119 431.062,759.119 431.658,759.119 432.254,759.119 432.849,759.119 433.445,774.156 434.04,789 434.636,789 435.232,789 435.827,789 436.423,789 437.018,789 437.614,789 438.21,789 438.805,789 439.401,789 439.996,789 440.592,775.505 441.188,760.661 441.783,753.721 442.379,753.721 442.974,753.721 443.57,753.721 444.166,753.721 444.761,753.721 445.357,771.072 445.952,788.229 446.548,789 447.144,789 447.739,789 448.335,789 448.93,789 449.526,789 450.122,789 450.717,789 451.313,726.539 451.908,726.539 452.504,726.539 453.1,726.539 453.695,726.539 454.291,789 454.886,789 455.482,789 456.078,789 456.673,789 457.269,789 457.864,726.925 458.46,726.925 459.056,726.925 459.651,726.925 460.247,726.925 460.842,789 461.438,789 462.034,789 462.629,789 463.225,789 463.82,789 464.416,726.347 465.012,726.347 465.607,726.347 466.203,726.347 466.798,726.347 467.394,789 467.99,789 468.585,789 469.181,789 469.776,789 470.372,789 470.968,726.154 471.563,726.154 472.159,726.154 472.754,726.154 473.35,726.154 473.946,789 474.541,789 475.137,789 475.732,789 476.328,789 476.924,789 477.519,727.118 478.115,727.118 478.71,727.118 479.306,727.118 479.902,727.118 480.497,789 481.093,789 481.688,789 482.284,789 482.88,789 483.475,789 484.071,729.624 484.666,729.624 485.262,729.624 485.858,729.624 486.453,729.624 487.049,789 487.644,789 488.24,789 488.836,789 489.431,789 490.027,789 490.622,789 491.218,722.684 491.814,722.684 492.409,722.684 493.005,722.684 493.6,722.684 494.196,789 494.792,789 495.387,789 495.983,789 496.578,789 497.174,789 497.77,730.781 498.365,730.781 498.961,730.781 499.556,730.781 500.152,730.781 500.748,789 501.343,789 501.939,789 502.534,789 503.13,789 503.726,789 504.321,732.13 504.917,732.13 505.512,732.13 506.108,732.13 506.704,732.13 507.299,789 507.895,789 508.49,789 509.086,789 509.682,789 510.277,789 510.873,789 511.468,720.563 512.064,720.563 512.66,720.563 513.255,720.563 513.851,720.563 514.446,789 515.042,789 515.638,789 516.233,789 516.829,789 517.424,789 518.02,730.781 518.616,730.781 519.211,730.781 519.807,730.781 520.402,730.781 520.998,789 521.594,789 522.189,789 522.785,789 523.38,789 523.976,789 524.572,789 525.167,724.612 525.763,724.612 526.358,724.612 526.954,724.612 527.55,724.612 528.145,789 528.741,789 529.336,789 529.932,789 530.528,789 531.123,789 531.719,729.238 532.314,729.238 532.91,729.238 533.506,729.238 534.101,729.238 534.697,789 535.292,789 535.888,789 536.484,789 537.079,789 537.675,789 538.27,730.781 538.866,730.781 539.462,730.781 540.057,730.781 540.653,730.781 541.248,789 541.844,789 542.44,789 543.035,789 543.631,789 544.226,789 544.822,729.238 545.418,729.238 546.013,729.238 546.609,729.238 547.204,729.238 547.8,789 548.396,789 548.991,789 549.587,789 550.182,789 550.778,789 551.374,728.082 551.969,728.082 552.565,728.082 553.16,728.082 553.756,728.082 554.352,789 554.947,789 555.543,789 556.138,789 556.734,789 557.33,789 557.925,726.925 558.521,726.925 559.116,726.925 559.712,726.925 560.308,726.925 560.903,789 561.499,789 562.094,789 562.69,789 563.286,789 563.881,789 564.477,728.274 565.072,728.274 565.668,728.274 566.264,728.274 566.859,728.274 567.455,789 568.05,789 568.646,789 569.242,789 569.837,789 570.433,789 571.028,726.347 571.624,726.347 572.22,726.347 572.815,726.347 573.411,726.347 574.006,789 574.602,789 575.198,789 575.793,789 576.389,789 576.984,789 577.58,726.732 578.176,726.732 578.771,726.732 579.367,726.732 579.962,726.732 580.558,789 581.154,789 581.749,789 582.345,789 582.94,789 583.536,789 584.132,730.588 584.727,730.588 585.323,730.588 585.918,730.588 586.514,730.588 587.11,789 587.705,789 588.301,789 588.896,789 589.492,789 590.088,789 590.683,789 591.279,721.913 591.874,721.913 592.47,721.913 593.066,721.913 593.661,721.913 594.257,789 594.852,789 595.448,789 596.044,789 596.639,789 597.235,789 597.83,730.588 598.426,730.588 599.022,730.588 599.617,730.588 600.213,730.588 600.808,789 601.404,789 602,789 602.595,789 603.191,789 603.786,789 604.382,789 604.978,722.684 605.573,722.684 606.169,722.684 606.764,722.684 607.36,722.684 607.956,789 608.551,789 609.147,789 609.742,789 610.338,789 610.934,789 611.529,730.973 612.125,730.973 612.72,730.973 613.316,730.973 613.912,730.973 614.507,789 615.103,789 615.698,789 616.294,789 616.89,789 617.485,789 618.081,789 618.676,722.684 619.272,722.684 619.868,722.684 620.463,722.684 621.059,722.684 621.654,789 622.25,789 622.846,789 623.441,789 624.037,789 624.632,789 625.228,730.395 625.824,730.395 626.419,730.395 627.015,730.395 627.61,730.395 628.206,789 628.802,789 629.397,789 629.993,789 630.588,789 631.184,789 631.78,789 632.375,724.033 632.971,724.033 633.566,724.033 634.162,724.033 634.758,724.033 635.353,789 635.949,789 636.544,789 637.14,789 637.736,789 638.331,789 638.927,728.467 639.522,728.467 640.118,728.467 640.714,728.467 641.309,728.467 641.905,789 642.5,789 643.096,789 643.692,789 644.287,789 644.883,789 645.478,727.118 646.074,727.118 646.67,727.118 647.265,727.118 647.861,727.118 648.456,789 649.052,789 649.648,789 650.243,789 650.839,789 651.434,789 652.03,727.889 652.626,727.889 653.221,727.889 653.817,727.889 654.412,727.889 655.008,789 655.604,789 656.199,789 656.795,789 657.39,789 657.986,789 658.582,728.082 659.177,728.082 659.773,728.082 660.368,728.082 660.964,728.082 661.56,789 662.155,789 662.751,789 663.346,789 663.942,789 664.538,789 665.133,730.01 665.729,730.01 666.324,730.01 666.92,730.01 667.516,730.01 668.111,789 668.707,789 669.302,789 669.898,789 670.494,789 671.089,789 671.685,727.311 672.28,727.311 672.876,727.311 673.472,727.311 674.067,727.311 674.663,789 675.258,789 675.854,789 676.45,789 677.045,789 677.641,789 678.236,726.347 678.832,726.347 679.428,726.347 680.023,726.347 680.619,726.347 681.214,789 681.81,789 682.406,789 683.001,789 683.597,789 684.192,789 684.788,727.118 685.384,727.118 685.979,727.118 686.575,727.118 687.17,727.118 687.766,789 688.362,789 688.957,789 689.553,789 690.148,789 690.744,789 691.34,729.431 691.935,729.431 692.531,729.431 693.126,729.431 693.722,729.431 694.318,789 694.913,789 695.509,789 696.104,789 696.7,789 697.296,789 697.891,729.238 698.487,729.238 699.082,729.238 699.678,729.238 700.274,729.238 700.869,789 701.465,789 702.06,789 702.656,789 703.252,789 703.847,789 704.443,732.708 705.038,732.708 705.634,732.708 706.23,732.708 706.825,732.708 707.421,732.708 708.016,789 708.612,789 709.208,789 709.803,789 710.399,789 710.994,789 711.59,733.094 712.186,733.094 712.781,733.094 713.377,733.094 713.972,733.094 714.568,733.094 715.164,789 715.759,789 716.355,789 716.95,789 717.546,789 718.142,789 718.737,733.094 719.333,733.094 719.928,733.094 720.524,733.094 721.12,733.094 721.715,733.094 722.311,789 722.906,789 723.502,789 724.098,789 724.693,789 725.289,789 725.884,733.287 726.48,733.287 727.076,733.287 727.671,733.287 728.267,733.287 728.862,733.287 729.458,789 730.054,789 730.649,789 731.245,789 731.84,789 732.436,789 733.032,733.094 733.627,733.094 734.223,733.094 734.818,733.094 735.414,733.094 736.01,733.094 736.605,789 737.201,789 737.796,789 738.392,789 738.988,789 739.583,789 740.179,732.708 740.774,732.708 741.37,732.708 741.966,732.708 742.561,732.708 743.157,732.708 743.752,789 744.348,789 744.944,789 745.539,789 746.135,789 746.73,789 747.326,733.287 747.922,733.287 748.517,733.287 749.113,733.287 749.708,733.287 750.304,733.287 750.9,789 751.495,789 752.091,789 752.686,789 753.282,789 753.878,789 754.473,733.094 755.069,733.094 755.664,733.094 756.26,733.094 756.856,733.094 757.451,733.094 758.047,789 758.642,789 759.238,789 759.834,789 760.429,789 761.025,789 761.62,733.287 762.216,733.287 762.812,733.287 763.407,733.287 764.003,733.287 764.598,733.287 765.194,789 765.79,789 766.385,789 766.981,789 767.576,789 768.172,789 768.768,732.708 769.363,732.708 769.959,732.708 770.554,732.708 771.15,732.708 771.746,789 772.341,789 772.937,789 773.532,789 774.128,789 774.724,789 775.319,789 775.915,720.949 776.51,720.949 777.106,720.949 777.702,720.949 778.297,789 778.893,789 779.488,789 780.084,789 780.68,789 781.275,789 781.871,789 782.466,789 783.062,789 783.658,785.916 784.253,775.313 784.849,764.517 785.444,764.517 786.04,764.517 786.636,764.517 787.231,764.517 787.827,764.517 788.422,774.349 789.018,787.458 789.614,789 790.209,789 790.805,789 791.4,789 791.996,789 792.592,789 793.187,789 793.783,789 794.378,789 794.974,789 795.57,780.325 796.165,767.409 796.761,756.613 797.356,756.613 797.952,756.613 798.548,756.613 799.143,756.613 799.739,756.613 800.334,772.228 800.93,788.229 801.526,789 802.121,789 802.717,789 803.312,789 803.908,789 804.504,789 805.099,789 805.695,789 806.29,789 806.886,789 807.482,775.505 808.077,758.348 808.673,748.709 809.268,748.709 809.864,748.709 810.46,748.709 811.055,748.709 811.651,748.709 812.246,765.866 812.842,785.337 813.438,789 814.033,789 814.629,789 815.224,789 815.82,789 816.416,789 817.011,789 817.607,729.624 818.202,729.624 818.798,729.624 819.394,729.624 819.989,729.624 820.585,789 821.18,789 821.776,789 822.372,789 822.967,789 823.563,789 824.158,789 824.754,724.419 825.35,724.419 825.945,724.419 826.541,724.419 827.136,724.419 827.732,789 828.328,789 828.923,789 829.519,789 830.114,789 830.71,789 831.306,728.082 831.901,728.082 832.497,728.082 833.092,728.082 833.688,728.082 834.284,789 834.879,789 835.475,789 836.07,789 836.666,789 837.262,789 837.857,729.046 838.453,729.046 839.048,729.046 839.644,729.046 840.24,729.046 840.835,789 841.431,789 842.026,789 842.622,789 843.218,789 843.813,789 844.409,729.046 845.004,729.046 845.6,729.046 846.196,729.046 846.791,729.046 847.387,789 847.982,789 848.578,789 849.174,789 849.769,789 850.365,789 850.96,729.624 851.556,729.624 852.152,729.624 852.747,729.624 853.343,247.675 853.938,374.139 854.534,374.139 855.13,374.139 855.725,374.139 856.321,569.81 856.916,569.81 857.512,569.81 858.108,569.81 858.703,569.81 859.299,569.81 859.894,607.402 860.49,646.922 861.086,674.682 861.681,703.792 862.277,723.841 862.872,743.118 863.468,743.118 864.064,743.118 864.659,743.118 865.255,743.118 865.85,743.118 866.446,708.418 867.042,679.116 867.637,649.428 868.233,627.644 868.828,627.644 869.424,627.644 870.02,627.644 870.615,627.644 871.211,627.644 871.806,662.537 872.402,690.297 872.998,714.009 873.593,737.335 874.189,737.335 874.784,737.335 875.38,737.335 875.976,737.335 876.571,737.335 877.167,723.841 877.762,692.225 878.358,664.464 878.954,646.922 879.549,646.922 880.145,646.922 880.74,646.922 881.336,646.922 881.932,646.922 882.527,658.103 883.123,681.815 883.718,709.96 884.314,732.323 884.91,733.094 885.505,733.094 886.101,733.094 886.696,733.094 887.292,733.094 887.888,733.094 888.483,704.37 889.079,677.766 889.674,657.524 890.27,645.765 890.866,645.765 891.461,645.765 892.057,645.765 892.652,645.765 893.248,645.765 893.844,674.682 894.439,701.671 895.035,725.19 895.63,740.998 896.226,740.998 896.822,740.998 897.417,740.998 898.013,740.998 898.608,740.998 899.204,708.418 899.8,681.044 900.395,653.091 900.991,631.885 901.586,631.885 902.182,631.885 902.778,631.885 903.373,631.885 903.969,631.885 904.564,661.187 905.16,689.719 905.756,712.659 906.351,737.335 906.947,737.335 907.542,737.335 908.138,737.335 908.734,737.335 909.329,737.335 909.925,728.66 910.52,698.972 911.116,671.983 911.712,648.849 912.307,646.343 912.903,646.343 913.498,646.343 914.094,646.343 914.69,646.343 915.285,646.343 915.881,673.332 916.476,709.96 917.072,723.069 917.668,744.468 918.263,744.468 918.859,744.468 919.454,744.468 920.05,744.468 920.646,744.468 921.241,708.418 921.837,678.537 922.432,650.006 923.028,625.33 923.624,625.33 924.219,625.33 924.815,625.33 925.41,625.33 926.006,625.33 926.602,661.766 927.197,687.598 927.793,711.888 928.388,735.215 928.984,735.215 929.58,735.215 930.175,735.215 930.771,735.215 931.366,735.215 931.962,725.19 932.558,698.972 933.153,671.983 933.749,652.512 934.344,651.163 934.94,651.163 935.536,651.163 936.131,651.163 936.727,651.163 937.322,651.163 937.918,676.61 938.514,699.743 939.109,720.949 939.705,738.685 940.3,738.685 940.896,738.685 941.492,738.685 942.087,738.685 942.683,738.685 943.278,709.96 943.874,682.393 944.47,659.259 945.065,633.62 945.661,633.62 946.256,633.62 946.852,633.62 947.448,633.62 948.043,633.62 948.639,660.031 949.234,689.719 949.83,716.129 950.426,735.793 951.021,735.793 951.617,735.793 952.212,735.793 952.808,735.793 953.404,735.793 953.999,725.961 954.595,693.574 955.19,670.055 955.786,650.006 956.382,650.006 956.977,650.006 957.573,650.006 958.168,650.006 958.764,650.006 959.36,651.934 959.955,679.116 960.551,703.02 961.146,727.311 961.742,738.106 962.338,738.106 962.933,738.106 963.529,738.106 964.124,738.106 964.72,738.106 965.316,704.37 965.911,678.537 966.507,654.247 967.102,637.861 967.698,637.861 968.294,637.861 968.889,637.861 969.485,637.861 970.08,637.861 970.676,670.055 971.272,696.273 971.867,718.25 972.463,738.106 973.058,738.106 973.654,738.106 974.25,738.106 974.845,738.106 975.441,738.106 976.036,717.479 976.632,687.598 977.228,664.464 977.823,641.524 978.419,641.524 979.014,641.524 979.61,641.524 980.206,641.524 980.801,641.524 981.397,658.103 981.992,683.742 982.588,712.659 983.184,733.094 983.779,733.094 984.375,733.094 984.97,733.094 985.566,733.094 986.162,733.094 986.757,729.431 987.353,701.671 987.948,677.188 988.544,656.175 989.14,650.006 989.735,650.006 990.331,650.006 990.926,650.006 991.522,650.006 992.118,650.006 992.713,675.26 993.309,698.394 993.904,725.961 994.5,739.456 995.096,739.456 995.691,739.456 996.287,739.456 996.882,739.456 997.478,739.456 998.074,709.189 998.669,677.766 999.265,656.753 999.86,633.62 1000.46,633.62 1001.05,633.62 1001.65,633.62 1002.24,633.62 1002.84,633.62 1003.43,663.115 1004.03,690.875 1004.63,717.479 1005.22,740.227 1005.82,740.227 1006.41,740.227 1007.01,740.227 1007.6,740.227 1008.2,740.227 1008.79,726.539 1009.39,690.297 1009.99,663.115 1010.58,638.439 1011.18,638.439 1011.77,638.439 1012.37,638.439 1012.96,638.439 1013.56,638.439 1014.15,648.849 1014.75,678.537 1015.35,705.719 1015.94,727.311 1016.54,740.227 1017.13,740.227 1017.73,740.227 1018.32,740.227 1018.92,740.227 1019.52,740.227 1020.11,711.31 1020.71,677.188 1021.3,656.175 1021.9,634.198 1022.49,634.198 1023.09,634.198 1023.68,634.198 1024.28,634.198 1024.88,634.198 1025.47,658.681 1026.07,688.947 1026.66,712.659 1027.26,735.215 1027.85,735.215 1028.45,735.215 1029.04,735.215 1029.64,735.215 1030.24,735.215 1030.83,729.431 1031.43,699.743 1032.02,672.754 1032.62,650.006 1033.21,647.5 1033.81,647.5 1034.41,647.5 1035,647.5 1035.6,647.5 1036.19,647.5 1036.79,677.188 1037.38,703.02 1037.98,725.961 1038.57,740.227 1039.17,740.227 1039.77,740.227 1040.36,740.227 1040.96,740.227 1041.55,740.227 1042.15,711.31 1042.74,678.537 1043.34,653.091 1043.93,630.728 1044.53,630.728 1045.13,630.728 1045.72,630.728 1046.32,630.728 1046.91,630.728 1047.51,659.259 1048.1,690.875 1048.7,715.358 1049.3,737.335 1049.89,737.335 1050.49,737.335 1051.08,737.335 1051.68,737.335 1052.27,737.335 1052.87,725.19 1053.46,692.996 1054.06,666.971 1054.66,646.343 1055.25,646.343 1055.85,646.343 1056.44,646.343 1057.04,646.343 1057.63,646.343 1058.23,651.163 1058.82,682.393 1059.42,706.49 1060.02,730.781 1060.61,735.215 1061.21,735.215 1061.8,735.215 1062.4,735.215 1062.99,735.215 1063.59,735.215 1064.19,705.141 1064.78,680.465 1065.38,659.259 1065.97,637.283 1066.57,637.283 1067.16,637.283 1067.76,637.283 1068.35,637.283 1068.95,637.283 1069.55,669.477 1070.14,694.924 1070.74,720.178 1071.33,740.227 1071.93,740.227 1072.52,740.227 1073.12,740.227 1073.71,740.227 1074.31,740.227 1074.91,717.479 1075.5,683.742 1076.1,658.681 1076.69,634.776 1077.29,634.776 1077.88,634.776 1078.48,634.776 1079.08,634.776 1079.67,634.776 1080.27,655.018 1080.86,683.742 1081.46,706.49 1082.05,733.094 1082.65,733.672 1083.24,733.672 1083.84,733.672 1084.44,733.672 1085.03,733.672 1085.63,733.672 1086.22,703.792 1086.82,679.116 1087.41,656.175 1088.01,644.415 1088.6,644.415 1089.2,644.415 1089.8,644.415 1090.39,644.415 1090.99,644.415 1091.58,669.477 1092.18,696.273 1092.77,721.72 1093.37,742.347 1093.97,742.347 1094.56,742.347 1095.16,742.347 1095.75,742.347 1096.35,742.347 1096.94,715.358 1097.54,682.971 1098.13,654.247 1098.73,629.957 1099.33,629.957 1099.92,629.957 1100.52,629.957 1101.11,629.957 1101.71,629.957 1102.3,656.753 1102.9,685.092 1103.49,711.888 1104.09,734.443 1104.69,734.443 1105.28,734.443 1105.88,734.443 1106.47,734.443 1107.07,734.443 1107.66,726.539 1108.26,697.623 1108.86,671.983 1109.45,652.512 1110.05,647.5 1110.64,647.5 1111.24,647.5 1111.83,647.5 1112.43,647.5 1113.02,647.5 1113.62,674.682 1114.22,702.442 1114.81,726.539 1115.41,743.118 1116,743.118 1116.6,743.118 1117.19,743.118 1117.79,743.118 1118.38,743.118 1118.98,708.418 1119.58,676.61 1120.17,648.849 1120.77,629.957 1121.36,629.957 1121.96,629.957 1122.55,629.957 1123.15,629.957 1123.75,629.957 1124.34,661.766 1124.94,687.02 1125.53,716.708 1126.13,733.094 1126.72,733.094 1127.32,733.094 1127.91,733.094 1128.51,733.094 1129.11,733.094 1129.7,727.311 1130.3,700.321 1130.89,671.405 1131.49,654.247 1132.08,650.584 1132.68,650.584 1133.27,650.584 1133.87,650.584 1134.47,650.584 1135.06,650.584 1135.66,676.61 1136.25,698.972 1136.85,722.298 1137.44,738.685 1138.04,738.685 1138.64,738.685 1139.23,738.685 1139.83,738.685 1140.42,738.685 1141.02,709.189 1141.61,682.971 1142.21,655.018 1142.8,632.463 1143.4,632.463 1144,632.463 1144.59,632.463 1145.19,632.463 1145.78,632.463 1146.38,661.187 1146.97,687.598 1147.57,716.129 1148.16,733.672 1148.76,733.672 1149.36,733.672 1149.95,733.672 1150.55,733.672 1151.14,733.672 1151.74,722.298 1152.33,694.345 1152.93,671.983 1153.53,651.934 1154.12,651.934 1154.72,651.934 1155.31,651.934 1155.91,651.934 1156.5,651.934 1157.1,655.018 1157.69,678.537 1158.29,705.141 1158.89,723.069 1159.48,733.672 1160.08,733.672 1160.67,733.672 1161.27,733.672 1161.86,733.672 1162.46,733.672 1163.05,706.49 1163.65,683.742 1164.25,656.753 1164.84,637.861 1165.44,637.861 1166.03,637.861 1166.63,637.861 1167.22,637.861 1167.82,637.861 1168.42,668.127 1169.01,694.345 1169.61,717.479 1170.2,740.998 1170.8,740.998 1171.39,740.998 1171.99,740.998 1172.58,740.998 1173.18,740.998 1173.78,718.25 1174.37,687.598 1174.97,660.031 1175.56,634.198 1176.16,634.198 1176.75,634.198 1177.35,634.198 1177.94,634.198 1178.54,634.198 1179.14,652.512 1179.73,682.971 1180.33,705.141 1180.92,730.781 1181.52,735.215 1182.11,735.215 1182.71,735.215 1183.31,735.215 1183.9,735.215 1184.5,735.215 1185.09,706.49 1185.69,677.766 1186.28,657.524 1186.88,641.524 1187.47,641.524 1188.07,641.524 1188.67,641.524 1189.26,641.524 1189.86,641.524 1190.45,667.549 1191.05,694.924 1191.64,720.178 1192.24,740.227 1192.83,740.227 1193.43,740.227 1194.03,740.227 1194.62,740.227 1195.22,740.227 1195.81,718.25 1196.41,683.742 1197,658.681 1197.6,633.041 1198.2,633.041 1198.79,633.041 1199.39,633.041 1199.98,633.041 1200.58,633.041 1201.17,656.753 1201.77,684.321 1202.36,710.539 1202.96,729.431 1203.56,734.443 1204.15,734.443 1204.75,734.443 1205.34,734.443 1205.94,734.443 1206.53,734.443 1207.13,701.671 1207.72,676.61 1208.32,653.669 1208.92,643.837 1209.51,643.837 1210.11,643.837 1210.7,643.837 1211.3,643.837 1211.89,643.837 1212.49,670.055 1213.09,697.623 1213.68,719.599 1214.28,744.468 1214.87,744.468 1215.47,744.468 1216.06,744.468 1216.66,744.468 1217.25,744.468 1217.85,714.78 1218.45,685.092 1219.04,653.091 1219.64,628.8 1220.23,628.8 1220.83,628.8 1221.42,628.8 1222.02,628.8 1222.61,628.8 1223.21,648.849 1223.81,678.537 1224.4,704.37 1225,730.202 1225.59,738.106 1226.19,738.106 1226.78,738.106 1227.38,738.106 1227.98,738.106 1228.57,738.106 1229.17,708.418 1229.76,680.465 1230.36,653.669 1230.95,633.041 1231.55,633.041 1232.14,633.041 1232.74,633.041 1233.34,633.041 1233.93,633.041 1234.53,665.043 1235.12,690.297 1235.72,715.358 1236.31,734.443 1236.91,734.443 1237.5,734.443 1238.1,734.443 1238.7,734.443 1239.29,734.443 1239.89,726.539 1240.48,694.345 1241.08,667.549 1241.67,651.934 1242.27,649.428 1242.87,649.428 1243.46,649.428 1244.06,649.428 1244.65,649.428 1245.25,649.428 1245.84,678.537 1246.44,701.093 1247.03,720.949 1247.63,741.576 1248.23,741.576 1248.82,741.576 1249.42,741.576 1250.01,741.576 1250.61,741.576 1251.2,707.069 1251.8,679.694 1252.39,651.934 1252.99,629.379 1253.59,629.379 1254.18,629.379 1254.78,629.379 1255.37,629.379 1255.97,629.379 1256.56,658.103 1257.16,688.947 1257.76,714.009 1258.35,734.443 1258.95,734.443 1259.54,734.443 1260.14,734.443 1260.73,734.443 1261.33,734.443 1261.92,725.19 1262.52,698.394 1263.12,673.911 1263.71,649.428 1264.31,649.428 1264.9,649.428 1265.5,649.428 1266.09,649.428 1266.69,649.428 1267.28,649.428 1267.88,673.911 1268.48,701.093 1269.07,726.539 1269.67,737.335 1270.26,737.335 1270.86,737.335 1271.45,737.335 1272.05,737.335 1272.65,737.335 1273.24,709.96 1273.84,681.815 1274.43,656.175 1275.03,633.62 1275.62,633.62 1276.22,633.62 1276.81,633.62 1277.41,633.62 1278.01,789 1278.6,789 1279.2,789 1279.79,789 1280.39,789 1280.98,789 1281.58,789 1282.17,789 1282.77,789 1283.37,765.095 1283.96,765.095 1284.56,765.095 1285.15,765.095 1285.75,765.095 1286.34,765.095 1286.94,765.095 1287.54,769.915 1288.13,782.253 1288.73,789 1289.32,789 1289.92,789 1290.51,789 1291.11,789 1291.7,789 1292.3,789 1292.9,789 1293.49,789 1294.09,789 1294.68,789 1295.28,779.939 1295.87,769.915 1296.47,765.481 1297.06,765.481 1297.66,765.481 1298.26,765.481 1298.85,765.481 1299.45,765.481 1300.04,777.819 1300.64,789 1301.23,789 1301.83,789 1302.43,789 1303.02,789 1303.62,789 1304.21,789 1304.81,789 1305.4,789 1306,789 1306.59,789 1307.19,779.168 1307.79,766.638 1308.38,763.746 1308.98,763.746 1309.57,763.746 1310.17,763.746 1310.76,763.746 1311.36,763.746 1311.95,775.505 1312.55,789 1313.15,789 1313.74,789 1314.34,789 1314.93,789 1315.53,789 1316.12,789 1316.72,789 1317.32,789 1317.91,789 1318.51,789 1319.1,781.096 1319.7,769.529 1320.29,762.782 1320.89,762.782 1321.48,762.782 1322.08,762.782 1322.68,762.782 1323.27,762.782 1323.87,776.084 1324.46,789 1325.06,789 1325.65,789 1326.25,789 1326.84,789 1327.44,789 1328.04,789 1328.63,789 1329.23,789 1329.82,789 1330.42,789 1331.01,778.397 1331.61,766.059 1332.21,756.035 1332.8,756.035 1333.4,756.035 1333.99,756.035 1334.59,756.035 1335.18,756.035 1335.78,772.807 1336.37,788.422 1336.97,789 1337.57,789 1338.16,789 1338.76,789 1339.35,789 1339.95,789 1340.54,789 1341.14,789 1341.73,789 1342.33,789 1342.93,773.77 1343.52,757.963 1344.12,747.938 1344.71,747.938 1345.31,747.938 1345.9,747.938 1346.5,747.938 1347.1,747.938 1347.69,766.059 1348.29,786.108 1348.88,789 1349.48,789 1350.07,789 1350.67,789 1351.26,789 1351.86,789 1352.46,789 1353.05,730.973 1353.65,730.973 1354.24,730.973 1354.84,730.973 1355.43,730.973 1356.03,789 1356.62,789 1357.22,789 1357.82,789 1358.41,789 1359.01,789 1359.6,789 1360.2,727.118 1360.79,727.118 1361.39,727.118 1361.99,727.118 1362.58,727.118 1363.18,789 1363.77,789 1364.37,789 1364.96,789 1365.56,789 1366.15,789 1366.75,726.539 1367.35,726.539 1367.94,726.539 1368.54,726.539 1369.13,726.539 1369.73,789 1370.32,789 1370.92,789 1371.51,789 1372.11,789 1372.71,789 1373.3,730.973 1373.9,730.973 1374.49,730.973 1375.09,730.973 1375.68,730.973 1376.28,789 1376.88,789 1377.47,789 1378.07,789 1378.66,789 1379.26,789 1379.85,789 1380.45,726.347 1381.04,726.347 1381.64,726.347 1382.24,726.347 1382.83,726.347 1383.43,789 1384.02,789 1384.62,789 1385.21,789 1385.81,789 1386.4,789 1387,727.311 1387.6,727.311 1388.19,727.311 1388.79,727.311 1389.38,727.311 1389.98,789 1390.57,789 1391.17,789 1391.77,789 1392.36,789 1392.96,789 1393.55,730.588 1394.15,730.588 1394.74,730.588 1395.34,730.588 1395.93,730.588 1396.53,789 1397.13,789 1397.72,789 1398.32,789 1398.91,789 1399.51,789 1400.1,789 1400.7,722.298 1401.29,722.298 1401.89,722.298 1402.49,722.298 1403.08,722.298 1403.68,789 1404.27,789 1404.87,789 1405.46,789 1406.06,789 1406.66,789 1407.25,728.467 1407.85,728.467 1408.44,728.467 1409.04,728.467 1409.63,728.467 1410.23,789 1410.82,789 1411.42,789 1412.02,789 1412.61,789 1413.21,789 1413.8,727.311 1414.4,727.311 1414.99,727.311 1415.59,727.311 1416.18,727.311 1416.78,789 1417.38,789 1417.97,789 1418.57,789 1419.16,789 1419.76,789 1420.35,726.925 1420.95,726.925 1421.55,726.925 1422.14,726.925 1422.74,726.925 1423.33,789 1423.93,789 1424.52,789 1425.12,789 1425.71,789 1426.31,789 1426.91,725.383 1427.5,725.383 1428.1,725.383 1428.69,725.383 1429.29,725.383 1429.88,789 1430.48,789 1431.07,789 1431.67,789 1432.27,789 1432.86,789 1433.46,730.781 1434.05,730.781 1434.65,730.781 1435.24,730.781 1435.84,730.781 1436.44,789 1437.03,789 1437.63,789 1438.22,789 1438.82,789 1439.41,789 1440.01,789 1440.6,727.311 1441.2,727.311 1441.8,727.311 1442.39,727.311 1442.99,727.311 1443.58,789 1444.18,789 1444.77,789 1445.37,789 1445.96,789 1446.56,789 1447.16,728.853 1447.75,728.853 1448.35,728.853 1448.94,728.853 1449.54,728.853 1450.13,789 1450.73,789 1451.33,789 1451.92,789 1452.52,789 1453.11,789 1453.71,789 1454.3,722.684 1454.9,722.684 1455.49,722.684 1456.09,722.684 1456.69,722.684 1457.28,789 1457.88,789 1458.47,789 1459.07,789 1459.66,789 1460.26,789 1460.85,729.238 1461.45,729.238 1462.05,729.238 1462.64,729.238 1463.24,729.238 1463.83,789 1464.43,789 1465.02,789 1465.62,789 1466.22,789 1466.81,789 1467.41,789 1468,722.298 1468.6,722.298 1469.19,722.298 1469.79,722.298 1470.38,722.298 1470.98,789 1471.58,789 1472.17,789 1472.77,789 1473.36,789 1473.96,789 1474.55,729.046 1475.15,729.046 1475.74,729.046 1476.34,729.046 1476.94,729.046 1477.53,789 1478.13,789 1478.72,789 1479.32,789 1479.91,789 1480.51,789 1481.11,731.359 1481.7,731.359 1482.3,731.359 1482.89,731.359 1483.49,731.359 1484.08,789 1484.68,789 1485.27,789 1485.87,789 1486.47,789 1487.06,789 1487.66,731.552 1488.25,731.552 1488.85,731.552 1489.44,731.552 1490.04,731.552 1490.63,789 1491.23,789 1491.83,789 1492.42,789 1493.02,789 1493.61,789 1494.21,789 1494.8,720.949 1495.4,720.949 1496,720.949 1496.59,720.949 1497.19,720.949 1497.78,789 1498.38,789 1498.97,789 1499.57,789 1500.16,789 1500.76,789 1501.36,728.853 1501.95,728.853 1502.55,728.853 1503.14,728.853 1503.74,728.853 1504.33,789 1504.93,789 1505.52,789 1506.12,789 1506.72,789 1507.31,789 1507.91,726.539 1508.5,726.539 1509.1,726.539 1509.69,726.539 1510.29,726.539 1510.89,789 1511.48,789 1512.08,789 1512.67,789 1513.27,789 1513.86,789 1514.46,727.311 1515.05,727.311 1515.65,727.311 1516.25,727.311 1516.84,727.311 1517.44,789 1518.03,789 1518.63,789 1519.22,789 1519.82,789 1520.41,789 1521.01,725.961 1521.61,725.961 1522.2,725.961 1522.8,725.961 1523.39,725.961 1523.99,789 1524.58,789 1525.18,789 1525.78,789 1526.37,789 1526.97,789 1527.56,726.732 1528.16,726.732 1528.75,726.732 1529.35,726.732 1529.94,726.732 1530.54,789 1531.14,789 1531.73,789 1532.33,789 1532.92,789 1533.52,789 1534.11,728.853 1534.71,728.853 1535.3,728.853 1535.9,728.853 1536.5,728.853 1537.09,789 1537.69,789 1538.28,789 1538.88,789 1539.47,789 1540.07,789 1540.67,789 1541.26,724.226 1541.86,724.226 1542.45,724.226 1543.05,724.226 1543.64,724.226 1544.24,789 1544.83,789 1545.43,789 1546.03,789 1546.62,789 1547.22,789 1547.81,728.467 1548.41,728.467 1549,728.467 1549.6,728.467 1550.19,728.467 1550.79,789 1551.39,789 1551.98,789 1552.58,789 1553.17,789 1553.77,789 1554.36,730.588 1554.96,730.588 1555.56,730.588 1556.15,730.588 " />
</g>

<g fill="#ff0000" fill-opacity="0.701961" stroke="#ff0000" stroke-opacity="0.701961" stroke-dasharray="10,6" stroke-dashoffset="0" stroke-width="1.97917" stroke-linecap="butt" stroke-linejoin="round" transform="matrix(0.757778,0,0,0.7578,-158.196,-32.9641)"
font-family="Helvetica" font-size="18" font-weight="700" font-style="normal" 
>
<polyline fill="none" vector-effect="none" points="250,741.617 1739,741.617 " />
</g>

<g fill="#ff0000" fill-opacity="1" stroke="#ff0000" stroke-opacity="1" stroke-width="1" stroke-linecap="square" stroke-linejoin="bevel" transform="matrix(0.757778,0,0,0.7578,1058.04,540.211)"
font-family="Helvetica" font-size="13" font-weight="400" font-style="normal" 
>
<text fill="#ff0000" fill-opacity="1" stroke="none" xml:space="preserve" x="0" y="0" font-family="Helvetica" font-size="13" font-weight="400" font-style="normal" 
 >Average V = 2.46 LUX</text>
</g>

<g fill="#ffffff" fill-opacity="1" stroke="none" transform="matrix(7.57778e-05,0,0,7.578e-05,-158.196,-32.9641)"
font-family="Helvetica" font-size="13" font-weight="400" font-style="normal" 
>
<path vector-effect="none" fill-rule="evenodd" d="M1.524e+07,2.6e+06 L1.524e+07,2.94e+06 L1.705e+07,2.94e+06 L1.705e+07,2.6e+06 L1.524e+07,2.6e+06"/>
</g>

<g fill="#ff00ff" fill-opacity="1" stroke="#ff00ff" stroke-opacity="1" stroke-width="1.97917" stroke-linecap="butt" stroke-linejoin="round" transform="matrix(0.757778,0,0,0.7578,-158.196,-32.9641)"
font-family="Helvetica" font-size="13" font-weight="400" font-style="normal" 
>
<polyline fill="none" vector-effect="none" points="1527.98,269.809 1567.37,269.809 " />
</g>

<g fill="#ff0000" fill-opacity="0.701961" stroke="#ff0000" stroke-opacity="0.701961" stroke-dasharray="10,6" stroke-dashoffset="0" stroke-width="1.97917" stroke-linecap="butt" stroke-linejoin="round" transform="matrix(0.757778,0,0,0.7578,-158.196,-32.9641)"
font-family="Helvetica" font-size="13" font-weight="400" font-style="normal" 
>
<polyline fill="none" vector-effect="none" points="1527.98,285.074 1567.37,285.074 " />
</g>

<g fill="#212121" fill-opacity="1" stroke="#212121" stroke-opacity="1" stroke-width="1" stroke-linecap="square" stroke-linejoin="bevel" transform="matrix(0.757778,0,0,0.7578,1031.52,173.158)"
font-family="Helvetica" font-size="11" font-weight="400" font-style="normal" 
>
<text fill="#212121" fill-opacity="1" stroke="none" xml:space="preserve" x="0" y="0" font-family="Helvetica" font-size="11" font-weight="400" font-style="normal" 
 >Instantaneous Error (V</text>
</g>

<g fill="#212121" fill-opacity="1" stroke="#212121" stroke-opacity="1" stroke-width="1" stroke-linecap="square" stroke-linejoin="bevel" transform="matrix(0.757778,0,0,0.7578,1115.63,176.947)"
font-family="Helvetica" font-size="9" font-weight="400" font-style="normal" 
>
<text fill="#212121" fill-opacity="1" stroke="none" xml:space="preserve" x="0" y="0" font-family="Helvetica" font-size="9" font-weight="400" font-style="normal" 
 >k</text>
</g>

<g fill="#212121" fill-opacity="1" stroke="#212121" stroke-opacity="1" stroke-width="1" stroke-linecap="square" stroke-linejoin="bevel" transform="matrix(0.757778,0,0,0.7578,1119.42,173.158)"
font-family="Helvetica" font-size="11" font-weight="400" font-style="normal" 
>
<text fill="#212121" fill-opacity="1" stroke="none" xml:space="preserve" x="0" y="0" font-family="Helvetica" font-size="11" font-weight="400" font-style="normal" 
 >)</text>
</g>

<g fill="#212121" fill-opacity="1" stroke="#212121" stroke-opacity="1" stroke-width="1" stroke-linecap="square" stroke-linejoin="bevel" transform="matrix(0.757778,0,0,0.7578,1031.79,185.717)"
font-family="Helvetica" font-size="11" font-weight="400" font-style="normal" 
>
<text fill="#212121" fill-opacity="1" stroke="none" xml:space="preserve" x="0" y="0" font-family="Helvetica" font-size="11" font-weight="400" font-style="normal" 
 >Mean Visibility Error (V)</text>
</g>

<g fill="none" stroke="#212121" stroke-opacity="1" stroke-width="0.659722" stroke-linecap="butt" stroke-linejoin="miter" stroke-miterlimit="5" transform="matrix(0.757778,0,0,0.7578,-158.196,-32.9641)"
font-family="Helvetica" font-size="11" font-weight="400" font-style="normal" 
>
<path vector-effect="none" fill-rule="evenodd" d="M1524,294 L1524,260 L1705,260 L1705,294 L1524,294"/>
</g>
</g>
</svg>
